<?xml version="1.0" standalone="no"?>
<!DOCTYPE svg PUBLIC "-//W3C//DTD SVG 1.1//EN" "http://www.w3.org/Graphics/SVG/1.1/DTD/svg11.dtd" >
<svg xmlns="http://www.w3.org/2000/svg" xmlns:xlink="http://www.w3.org/1999/xlink" version="1.1">
<metadata>
Created by FontForge 20170731 at Wed Jun 20 04:53:59 2018
 By Aleksey,,,
Copyright (c) 2018 by Lucas Sharp. All rights reserved.
</metadata>
<defs>
<font id="Beatrice-Regular" horiz-adv-x="620" >
  <font-face 
    font-family="Beatrice"
    font-weight="400"
    font-stretch="normal"
    units-per-em="1000"
    panose-1="0 0 0 0 0 0 0 0 0 0"
    ascent="800"
    descent="-200"
    x-height="560"
    cap-height="730"
    bbox="-191 -274 1163 1017"
    underline-thickness="50"
    underline-position="-200"
    unicode-range="U+000D-3009"
  />
<missing-glyph horiz-adv-x="732" 
d="M651 0h-569v730h569v-730zM573 659h-414v-587h414v587z" />
    <glyph glyph-name=".notdef" horiz-adv-x="732" 
d="M651 0h-569v730h569v-730zM573 659h-414v-587h414v587z" />
    <glyph glyph-name=".null" horiz-adv-x="0" 
 />
    <glyph glyph-name="nonmarkingreturn" horiz-adv-x="333" 
 />
    <glyph glyph-name="NULL" horiz-adv-x="0" 
 />
    <glyph glyph-name="NULL" horiz-adv-x="0" 
 />
    <glyph glyph-name="CR" unicode="&#xd;" horiz-adv-x="266" 
 />
    <glyph glyph-name="space" unicode=" " horiz-adv-x="266" 
 />
    <glyph glyph-name="exclam" unicode="!" horiz-adv-x="263" 
d="M150 215h-36q0 24 -14 148.5t-15 153.5q-2 25 -4.5 58.5t-4 55.5t-1.5 35q0 38 15.5 56t40.5 18q56 0 56 -74q0 -32 -9 -149q-1 -29 -14.5 -153.5t-13.5 -148.5zM132 -8q-33 0 -53.5 20t-20.5 52q0 31 20.5 52t53.5 21q32 0 52.5 -21t20.5 -52q0 -32 -20 -52t-53 -20z
" />
    <glyph glyph-name="quotedbl" unicode="&#x22;" horiz-adv-x="316" 
d="M113 483h-55l-15 247h86zM258 483h-55l-15 247h86z" />
    <glyph glyph-name="numbersign" unicode="#" horiz-adv-x="702" 
d="M173 26h-85l56 181h-120v73h153l52 167h-152v74h166l56 181h84l-56 -181h159l56 181h85l-57 -181h121v-74h-153l-52 -167h151v-73h-165l-56 -181h-84l55 181h-158zM294 448l-52 -168h178l52 168h-178z" />
    <glyph glyph-name="dollar" unicode="$" horiz-adv-x="663" 
d="M20 143l83 67q78 -107 193 -126v257q-114 20 -181 59q-68 41 -68 136q0 85 66 143t180 62v119h66v-121q163 -15 262 -153l-85 -62q-67 105 -179 123v-245q116 -20 188 -63q72 -42 72 -140q0 -89 -69 -148.5t-189 -61.5v-139h-66v142q-181 18 -273 151zM139 534
q0 -50 36.5 -76.5t120.5 -44.5v238q-77 -1 -117 -34.5t-40 -82.5zM522 206q0 51 -40.5 78.5t-124.5 44.5v-249q79 0 122 35t43 91z" />
    <glyph glyph-name="percent" unicode="%" horiz-adv-x="835" 
d="M439 423l237 318l78 -71l-283 -275zM395 552q0 -93 -48.5 -143t-117.5 -50q-72 0 -120 48.5t-48 144.5q0 92 49 140t119 48t118 -47t48 -141zM138 551q0 -63 25 -94.5t66 -31.5q40 0 64.5 30.5t24.5 95.5q0 64 -24.5 93.5t-64.5 29.5q-41 0 -66 -30t-25 -93zM774 184
q0 -93 -48.5 -143t-117.5 -50q-72 0 -120 48.5t-48 144.5q0 93 48.5 141t119.5 48q70 0 118 -47.5t48 -141.5zM391 303l-231 -319l-80 72l280 275zM517 184q0 -63 25 -95t66 -32q40 0 64.5 31t24.5 96q0 64 -24.5 93.5t-64.5 29.5q-41 0 -66 -30t-25 -93z" />
    <glyph glyph-name="ampersand" unicode="&#x26;" horiz-adv-x="724" 
d="M684 45l-54 -55l-93 89q-99 -91 -240 -91q-124 0 -190.5 53.5t-66.5 136.5q0 84 51 129t127 74q-50 53 -68 93t-18 80q0 83 58 135t149 52q88 0 144.5 -46t56.5 -131q0 -126 -203 -198l188 -178q61 93 68 226l87 -11q-8 -157 -93 -270zM213 541q-1 -33 18.5 -62t59.5 -69
q84 28 122.5 59.5t38.5 82.5q0 46 -33 74.5t-87 28.5q-56 0 -87.5 -31t-31.5 -83zM127 200q0 -59 49 -94t129 -35q100 0 173 63l-214 203q-66 -24 -101.5 -55.5t-35.5 -81.5z" />
    <glyph glyph-name="quotesingle" unicode="'" horiz-adv-x="171" 
d="M113 483h-55l-15 247h86z" />
    <glyph glyph-name="parenleft" unicode="(" horiz-adv-x="389" 
d="M53 296q0 144 61.5 280.5t170.5 235.5l71 -77q-109 -77 -163.5 -195.5t-54.5 -243.5q0 -124 55.5 -241.5t164.5 -196.5l-73 -80q-108 96 -170 234.5t-62 283.5z" />
    <glyph glyph-name="parenright" unicode=")" horiz-adv-x="389" 
d="M336 296q0 -145 -62 -282t-170 -236l-73 80q109 79 164.5 196.5t55.5 241.5q0 125 -54 243.5t-163 195.5l72 77q107 -97 168.5 -234t61.5 -282z" />
    <glyph glyph-name="asterisk" unicode="*" horiz-adv-x="420" 
d="M210 477l-87 -132l-62 46l99 123l-153 41l25 74l147 -57l-8 158h78l-8 -158l147 57l25 -74l-153 -41l100 -123l-63 -46z" />
    <glyph glyph-name="plus" unicode="+" horiz-adv-x="477" 
d="M203 281h-162v65h162v161h71v-161h162v-65h-162v-170h-71v170z" />
    <glyph glyph-name="comma" unicode="," horiz-adv-x="268" 
d="M212 35q0 -66 -35 -124t-95 -91l-36 60q91 43 110 117q-13 -5 -27 -5q-33 0 -52 19.5t-19 50.5q0 32 21 53t52 21q38 0 59.5 -25.5t21.5 -75.5z" />
    <glyph glyph-name="hyphen" unicode="-" horiz-adv-x="447" 
d="M388 264h-328v75h328v-75z" />
    <glyph glyph-name="period" unicode="." horiz-adv-x="263" 
d="M132 -8q-33 0 -53.5 20t-20.5 52q0 31 20.5 52t53.5 21q32 0 52.5 -21t20.5 -52q0 -32 -20 -52t-53 -20z" />
    <glyph glyph-name="slash" unicode="/" horiz-adv-x="420" 
d="M80 -184h-81l350 960h81z" />
    <glyph glyph-name="zero" unicode="0" horiz-adv-x="681" 
d="M630 370q0 -184 -79.5 -282t-209.5 -98q-132 0 -210.5 97t-78.5 283q0 179 81.5 274.5t208.5 95.5q128 0 208 -95.5t80 -274.5zM148 368q0 -145 51.5 -217t141.5 -72q91 0 141.5 70.5t50.5 218.5q0 151 -54 217q-52 67 -137 67q-89 0 -141.5 -71t-52.5 -213z" />
    <glyph glyph-name="one" unicode="1" horiz-adv-x="379" 
d="M209 730h88v-730h-94v600q-21 -59 -67 -91t-104 -32h-11v93h5q82 0 130.5 39.5t52.5 120.5z" />
    <glyph glyph-name="two" unicode="2" horiz-adv-x="601" 
d="M311 740q114 0 176.5 -61t62.5 -153q0 -33 -8.5 -62.5t-20 -54.5t-40 -56.5t-52.5 -54.5t-74.5 -62t-88.5 -67t-111 -80h409v-89h-516v85q178 130 258 197.5t115.5 121t35.5 112.5q0 63 -38.5 103t-108.5 40q-140 0 -177 -163l-92 32q32 104 103 158t167 54z" />
    <glyph glyph-name="three" unicode="3" 
d="M29 132l77 53q66 -111 210 -111q77 0 120.5 37t43.5 97q0 70 -55 98q-53 28 -135 28h-93v73h86q80 0 127 32.5t47 91.5q0 60 -40 93t-110 33q-129 0 -184 -129l-81 46q91 166 269 166q105 0 171 -50.5t66 -139.5q0 -68 -40.5 -113t-110.5 -61q171 -27 171 -178
q0 -94 -67 -152t-182 -58q-96 0 -171 37t-119 107z" />
    <glyph glyph-name="four" unicode="4" horiz-adv-x="618" 
d="M403 405h95v-169h101v-68h-101v-168l-95 -2v170h-383v65l344 497h106v-3l-338 -491h271v169z" />
    <glyph glyph-name="five" unicode="5" horiz-adv-x="615" 
d="M572 246q0 -114 -74.5 -185t-191.5 -71q-184 0 -268 145l88 57q60 -113 185 -113q76 0 122 47t46 130q0 70 -45 117t-123 47q-66 0 -107 -32q-40 -32 -63 -69l-87 17l48 394h429v-88h-353l-30 -250q71 99 193 99q104 0 167 -67q64 -67 64 -178z" />
    <glyph glyph-name="six" unicode="6" horiz-adv-x="653" 
d="M370 740q152 0 237 -98l-66 -67q-33 41 -73.5 60.5t-99.5 19.5q-99 0 -160.5 -77.5t-61.5 -225.5v-19q33 70 94 108.5t135 38.5q106 0 172 -63t66 -170q0 -106 -73.5 -181.5t-192.5 -75.5q-144 0 -219.5 100t-75.5 256q0 188 90 291t228 103zM355 410q-69 0 -123.5 -39.5
t-76.5 -116.5q18 -86 68 -131t125 -45q82 0 129 48t47 122q0 77 -47 119.5t-122 42.5z" />
    <glyph glyph-name="seven" unicode="7" horiz-adv-x="543" 
d="M223 0h-106l308 643h-401v87h494v-82z" />
    <glyph glyph-name="eight" unicode="8" horiz-adv-x="636" 
d="M599 200q0 -97 -77 -153.5t-204 -56.5q-131 0 -205.5 53t-74.5 149q0 68 45.5 119.5t123.5 70.5q-64 17 -102.5 59.5t-38.5 107.5q0 85 70 138t183 53q112 0 182 -52t70 -137q0 -63 -38 -106.5t-101 -61.5q77 -18 122 -67t45 -116zM319 410q69 0 115 30q48 30 48 91
q0 58 -43 93.5t-119 35.5t-120 -35.5t-44 -94.5q0 -61 48 -91q49 -29 115 -29zM319 74q86 0 136.5 38t50.5 101q0 69 -53 102.5t-133 33.5q-79 0 -133.5 -34.5t-54.5 -103.5q0 -61 49.5 -99t137.5 -38z" />
    <glyph glyph-name="nine" unicode="9" horiz-adv-x="651" 
d="M290 -10q-158 0 -243 98l66 68q64 -80 179 -80q100 0 157 76.5t57 226.5v9q-33 -67 -92.5 -102.5t-134.5 -35.5q-106 0 -172 63t-66 170q0 106 72.5 181.5t192.5 75.5q146 0 220 -99.5t74 -256.5q0 -189 -85.5 -291.5t-224.5 -102.5zM130 483q0 -77 47 -120t122 -43
q71 0 124.5 37.5t75.5 112.5q-33 182 -194 182q-82 0 -128.5 -47.5t-46.5 -121.5z" />
    <glyph glyph-name="colon" unicode=":" horiz-adv-x="263" 
d="M132 357q-33 0 -53.5 20t-20.5 52q0 31 20.5 52t53.5 21q32 0 52.5 -21t20.5 -52q0 -32 -20 -52t-53 -20zM132 -8q-33 0 -53.5 20t-20.5 52q0 31 20.5 52t53.5 21q32 0 52.5 -21t20.5 -52q0 -32 -20 -52t-53 -20z" />
    <glyph glyph-name="semicolon" unicode=";" horiz-adv-x="269" 
d="M132 357q-33 0 -53 20t-20 52q0 31 20.5 52t52.5 21q33 0 53.5 -21t20.5 -52q0 -32 -20.5 -52t-53.5 -20zM213 35q0 -66 -35 -124t-95 -91l-36 60q90 43 109 117q-13 -5 -26 -5q-33 0 -52 19.5t-19 50.5q0 32 20.5 53t51.5 21q38 0 60 -25.5t22 -75.5z" />
    <glyph glyph-name="less" unicode="&#x3c;" horiz-adv-x="477" 
d="M421 67l-377 203v35l377 203v-75l-279 -146l279 -145v-75z" />
    <glyph glyph-name="equal" unicode="=" horiz-adv-x="477" 
d="M436 354h-395v67h395v-67zM436 160h-395v68h395v-68z" />
    <glyph glyph-name="greater" unicode="&#x3e;" horiz-adv-x="477" 
d="M56 434v74l377 -202v-36l-377 -203v75l278 146z" />
    <glyph glyph-name="question" unicode="?" horiz-adv-x="548" 
d="M283 220h-77q-1 9 -1 20q0 55 33 88t72 60q41 28 72 58q33 32 33 85q0 56 -38.5 88t-100.5 32q-133 0 -160 -145l-96 29q24 93 88.5 149t170.5 56q110 0 170 -55.5t60 -141.5q0 -69 -36 -110q-33 -38 -77 -70q-42 -29 -78 -57q-35 -29 -35 -73v-13zM247 -8q-33 0 -53 20
t-20 52q0 31 20.5 52t52.5 21q33 0 53.5 -21t20.5 -52q0 -32 -20.5 -52t-53.5 -20z" />
    <glyph glyph-name="at" unicode="@" horiz-adv-x="1015" 
d="M458 27q-75 0 -126 53q-50 55 -50 141q0 105 64.5 180.5t159.5 75.5q74 0 116 -51q22 -28 32 -59l1 1l14 98h60l-41 -267q-20 -123 79 -123q50 0 80.5 46t30.5 126q0 155 -93.5 255t-265.5 100q-116 0 -202.5 -54.5t-128.5 -140t-42 -186.5q0 -149 103.5 -245.5
t293.5 -96.5q147 0 243 73l42 -69q-124 -84 -299 -84q-218 0 -342.5 118t-124.5 308q0 86 31 166.5t87.5 145t146 104t196.5 39.5t192 -35t136 -93.5t77 -129t26 -147.5q0 -114 -52 -186t-140 -72q-60 0 -98 32.5t-37 92.5q-53 -116 -169 -116zM479 80q77 0 120.5 65.5
t43.5 140.5q0 61 -34 100t-93 39q-78 0 -122 -60t-44 -139q0 -69 37.5 -107.5t91.5 -38.5z" />
    <glyph glyph-name="A" unicode="A" horiz-adv-x="732" 
d="M122 0h-102l291 730h110l291 -730h-103l-64 167h-359zM365 643l-34 -99l-117 -305h303l-118 306z" />
    <glyph glyph-name="B" unicode="B" horiz-adv-x="709" 
d="M404 0h-322v730h329q124 0 183.5 -48t59.5 -133q0 -68 -41.5 -113.5t-115.5 -59.5q83 -10 129.5 -55.5t46.5 -123.5q0 -94 -69.5 -145.5t-199.5 -51.5zM387 645h-209v-241h206q87 0 131.5 33.5t44.5 92.5q0 115 -173 115zM393 334h-215v-248h211q108 0 148 37
q41 38 41 95q0 60 -45.5 88t-139.5 28z" />
    <glyph glyph-name="C" unicode="C" horiz-adv-x="773" 
d="M731 474l-97 -27q-21 92 -74 148q-52 55 -158 55q-117 0 -185 -82t-68 -203q0 -125 62.5 -205t185.5 -80q111 0 168 61q56 61 73 158l98 -19q-28 -135 -111.5 -212.5t-227.5 -77.5q-88 0 -156 30.5t-108.5 83t-61 118.5t-20.5 143q0 155 95.5 265t255.5 110
q261 0 329 -266z" />
    <glyph glyph-name="D" unicode="D" horiz-adv-x="752" 
d="M319 0h-237v730h228q189 0 290 -91.5t101 -264.5q0 -168 -99.5 -271t-282.5 -103zM309 642h-130v-553h139q140 0 212 76.5t72 208.5q0 268 -293 268z" />
    <glyph glyph-name="E" unicode="E" horiz-adv-x="657" 
d="M610 0h-528v730h526v-87h-430v-236h345v-75h-345v-244h432v-88z" />
    <glyph glyph-name="F" unicode="F" horiz-adv-x="631" 
d="M179 0h-97v730h503v-87h-406v-261h356v-75h-356v-307z" />
    <glyph glyph-name="G" unicode="G" horiz-adv-x="804" 
d="M150 354q0 -123 65 -201t180 -78q103 0 166.5 59t75.5 176h-260v72h356v-382h-95v106l3 94q-26 -104 -94.5 -157t-173.5 -53q-150 0 -236 103t-86 255q0 176 99 283.5t264 107.5q123 0 198 -51q74 -48 122 -133l-87 -55q-37 78 -91.5 114t-145.5 36q-116 0 -188 -78
q-72 -76 -72 -218z" />
    <glyph glyph-name="H" unicode="H" horiz-adv-x="752" 
d="M179 0h-97v730h97v-323h395v323h97v-730h-97v333h-395v-333z" />
    <glyph glyph-name="I" unicode="I" horiz-adv-x="265" 
d="M181 0h-97v730h97v-730z" />
    <glyph glyph-name="J" unicode="J" horiz-adv-x="615" 
d="M288 -10q-219 0 -262 213l93 29q16 -80 57.5 -118.5t110.5 -38.5q158 0 158 209v446h97v-457q0 -129 -66.5 -206t-187.5 -77z" />
    <glyph glyph-name="K" unicode="K" horiz-adv-x="696" 
d="M179 0h-97v730h97v-450l373 450h117l-268 -316l294 -414h-115l-253 364l-148 -171v-193z" />
    <glyph glyph-name="L" unicode="L" horiz-adv-x="605" 
d="M568 0h-486v730h97v-641h389v-89z" />
    <glyph glyph-name="M" unicode="M" horiz-adv-x="912" 
d="M478 153l224 577h129v-730h-95v538l5 120l-37 -119l-209 -539h-81l-206 538l-37 118l5 -118v-538h-94v730h134l219 -577l21 -70z" />
    <glyph glyph-name="N" unicode="N" horiz-adv-x="753" 
d="M168 643l7 -91v-552h-93v730h116l343 -551l41 -80l-4 89v542h94v-730h-110l-350 566z" />
    <glyph glyph-name="O" unicode="O" horiz-adv-x="798" 
d="M397 -10q-87 0 -155 30t-108.5 83t-61.5 119.5t-21 143.5q0 101 39.5 185t120 136.5t188.5 52.5q168 0 258.5 -106.5t90.5 -267.5q0 -102 -37.5 -185.5t-119 -137t-194.5 -53.5zM398 78q123 0 186.5 82t63.5 206q0 126 -63.5 206.5t-185.5 80.5q-117 0 -183 -82t-66 -205
q0 -125 62.5 -206.5t185.5 -81.5z" />
    <glyph glyph-name="P" unicode="P" horiz-adv-x="698" 
d="M353 230h-174v-230h-97v730h270q144 0 222 -63.5t79 -176.5q0 -123 -80.5 -191.5t-219.5 -68.5zM343 641h-164v-337h166q104 0 158 43.5t54 126.5q0 86 -53 126.5t-161 40.5z" />
    <glyph glyph-name="Q" unicode="Q" horiz-adv-x="798" 
d="M398 -10q-92 0 -161 30.5t-108.5 83.5t-58.5 118.5t-19 143.5q0 101 39.5 185t120 136.5t188.5 52.5q86 0 154.5 -30t110.5 -81.5t63.5 -118.5t20.5 -144q-2 -148 -93 -257l82 -79l-51 -51l-82 80q-90 -69 -206 -69zM400 78q82 0 141 43l-103 102l51 50l104 -103
q55 76 55 196q0 126 -63.5 206t-185.5 80q-117 0 -183 -82t-66 -204q0 -127 61 -207.5t189 -80.5z" />
    <glyph glyph-name="R" unicode="R" horiz-adv-x="707" 
d="M334 289h-155v-289h-97v730h315q130 0 195 -55t65 -149q0 -85 -55 -137t-135 -65q55 -7 90 -32q49 -37 81 -159l34 -133h-103l-32 131q-24 99 -61.5 128.5t-141.5 29.5zM372 645h-193v-284h185q93 0 145 37.5t52 106.5q0 140 -189 140z" />
    <glyph glyph-name="S" unicode="S" horiz-adv-x="659" 
d="M22 142l81 67q49 -67 108 -98t140 -31q77 0 120 35t43 90q0 27 -13 48t-30 33.5t-49.5 23t-56 15.5t-65.5 12q-48 9 -76.5 16t-66.5 22t-59 34t-36 51t-15 74q0 88 69.5 148t192.5 60q195 0 304 -153l-85 -64q-40 65 -93 96t-135 31q-78 0 -119 -34.5t-41 -85.5
q0 -26 12 -46t27 -31.5t48 -22t55 -15.5t67 -13q46 -8 75.5 -15t68 -22.5t60.5 -35t38 -52t16 -75.5q0 -95 -70 -155t-194 -60q-217 0 -321 153z" />
    <glyph glyph-name="T" unicode="T" horiz-adv-x="651" 
d="M277 644h-240v86h578v-86h-241v-644h-97v644z" />
    <glyph glyph-name="U" unicode="U" horiz-adv-x="728" 
d="M558 305v425h96v-431q0 -151 -78.5 -230t-213.5 -79q-140 0 -214 76.5t-74 232.5v431h97v-425q0 -225 191 -225q196 0 196 225z" />
    <glyph glyph-name="V" unicode="V" horiz-adv-x="713" 
d="M587 730h104l-295 -730h-97l-277 730h106l170 -454l54 -168l57 168z" />
    <glyph glyph-name="W" unicode="W" horiz-adv-x="1013" 
d="M494 624l-17 -82l-153 -542h-108l-182 730h106l125 -530l19 -97l20 97l151 530h89l147 -531l21 -100l21 101l142 530h104l-203 -730h-114l-151 543z" />
    <glyph glyph-name="X" unicode="X" horiz-adv-x="680" 
d="M123 0h-107l268 381l-245 349h108l169 -243l27 -43l26 43l168 243h108l-247 -348l267 -382h-109l-192 280l-25 39l-24 -39z" />
    <glyph glyph-name="Y" unicode="Y" horiz-adv-x="650" 
d="M534 730h107l-269 -466v-264h-97v265l-264 465h108l175 -317l31 -66l33 66z" />
    <glyph glyph-name="Z" unicode="Z" horiz-adv-x="640" 
d="M42 0v81l391 494l59 70h-439v85h540v-81l-374 -474l-77 -90h454v-85h-554z" />
    <glyph glyph-name="bracketleft" unicode="[" horiz-adv-x="394" 
d="M355 -200h-273v990h273v-90h-194v-810h194v-90z" />
    <glyph glyph-name="backslash" unicode="\" horiz-adv-x="420" 
d="M81 776l350 -960h-81l-350 960h81z" />
    <glyph glyph-name="bracketright" unicode="]" horiz-adv-x="394" 
d="M312 790v-990h-273v90h194v810h-194v90h273z" />
    <glyph glyph-name="asciicircum" unicode="^" horiz-adv-x="388" 
d="M20 397l135 333h63l146 -333h-80l-98 237l-87 -237h-79z" />
    <glyph glyph-name="underscore" unicode="_" horiz-adv-x="515" 
d="M478 -120h-440v52h440v-52z" />
    <glyph glyph-name="grave" unicode="`" horiz-adv-x="345" 
d="M271 647l-38 -38l-174 169l49 46z" />
    <glyph glyph-name="a" unicode="a" horiz-adv-x="649" 
d="M218 -10q-86 0 -131 37.5t-45 100.5q0 85 74 129q50 30 174 55q89 20 122.5 37t33.5 53q0 40 -31 65.5t-98 25.5q-66 0 -107.5 -30.5t-66.5 -92.5l-87 30q74 171 265 171q104 0 161 -49.5t57 -139.5v-231q0 -46 15 -64t46 -18q17 0 40 7v-67q-32 -17 -71 -17
q-63 0 -91.5 31.5t-28.5 102.5v28q-26 -75 -89 -119.5t-142 -44.5zM252 64q77 0 138 60t61 151v46q-14 -21 -48.5 -35t-102.5 -29q-85 -19 -122.5 -42.5t-37.5 -71.5q0 -36 28.5 -57.5t83.5 -21.5z" />
    <glyph glyph-name="b" unicode="b" horiz-adv-x="681" 
d="M633 284q0 -136 -72 -214t-179 -78q-72 0 -125.5 35t-80.5 97v-124h-97v796h97v-363q30 66 86 101t126 35q105 0 175 -73.5t70 -211.5zM357 73q83 0 130 56t47 153q0 98 -49 152.5t-132 54.5q-88 0 -136.5 -59t-48.5 -150q0 -92 48.5 -149.5t140.5 -57.5z" />
    <glyph glyph-name="c" unicode="c" horiz-adv-x="632" 
d="M593 361l-99 -21q-26 150 -165 150q-87 0 -135 -58.5t-48 -151.5q0 -96 46 -151.5t136 -55.5q72 0 112.5 37t56.5 109l98 -23q-26 -94 -92 -150t-175 -56q-134 0 -207 80.5t-73 209.5q0 125 77 208t206 83q112 0 176 -56.5t86 -153.5z" />
    <glyph glyph-name="d" unicode="d" horiz-adv-x="681" 
d="M48 277q0 136 75.5 213.5t181.5 77.5q144 0 200 -129v357h97v-796h-96v128q-30 -65 -85.5 -100.5t-124.5 -35.5q-106 0 -177 74t-71 211zM328 73q89 0 137 58.5t48 149.5q0 92 -47 150t-138 58q-82 0 -131.5 -57t-49.5 -153q0 -98 49 -152t132 -54z" />
    <glyph glyph-name="e" unicode="e" horiz-adv-x="637" 
d="M501 166l81 -46q-32 -52 -93 -91q-59 -39 -154 -39q-139 0 -213 80t-74 206q0 124 77.5 209.5t206.5 85.5q125 0 193.5 -81t68.5 -205v-30h-452q6 -86 55 -135t137 -49q112 0 167 95zM332 491q-80 0 -129.5 -47t-58.5 -127h355q-4 79 -46.5 126.5t-120.5 47.5z" />
    <glyph glyph-name="f" unicode="f" horiz-adv-x="427" 
d="M231 0h-92v480h-123v80h123v49q0 101 43 144t133 43h81v-78h-77q-51 0 -69.5 -22.5t-18.5 -82.5v-53h167v-80h-167v-480z" />
    <glyph glyph-name="g" unicode="g" horiz-adv-x="680" 
d="M298 -3q-106 0 -178 74t-72 209t75.5 212t181.5 77q146 0 201 -132v123h96v-498q0 -150 -75 -225.5t-210 -75.5q-173 0 -256 125l87 52q60 -92 175 -92q183 0 183 212v73q-30 -64 -85 -99t-123 -35zM331 78q89 0 135.5 56.5t46.5 146.5q0 93 -46.5 150.5t-137.5 57.5
q-82 0 -132 -56.5t-50 -151.5q0 -96 50 -149.5t134 -53.5z" />
    <glyph glyph-name="h" unicode="h" horiz-adv-x="663" 
d="M176 0h-97v796h96v-381q27 76 81.5 116t128.5 40q103 0 154 -66t51 -170v-335h-96v313q0 77 -32 127t-115 50q-76 0 -123.5 -58t-47.5 -163v-269z" />
    <glyph glyph-name="i" unicode="i" horiz-adv-x="256" 
d="M63 713q0 30 17.5 48.5t49.5 18.5q30 0 48.5 -18.5t18.5 -48.5q0 -29 -18.5 -47.5t-48.5 -18.5q-32 0 -49.5 18t-17.5 48zM80 560h97v-560h-97v560z" />
    <glyph glyph-name="j" unicode="j" horiz-adv-x="257" 
d="M63 713q0 30 17.5 48.5t49.5 18.5q30 0 48.5 -18.5t18.5 -48.5q0 -29 -18.5 -47.5t-48.5 -18.5q-32 0 -49.5 18t-17.5 48zM-18 -216h-21v88h18q57 0 79 26.5t22 92.5v569h97v-563q0 -109 -41 -161q-40 -52 -154 -52z" />
    <glyph glyph-name="k" unicode="k" horiz-adv-x="596" 
d="M79 796h97v-572l291 336h114l-221 -252l233 -308h-117l-195 268l-105 -116v-152h-97v796z" />
    <glyph glyph-name="l" unicode="l" horiz-adv-x="255" 
d="M79 796h97v-796h-97v796z" />
    <glyph glyph-name="m" unicode="m" horiz-adv-x="1025" 
d="M175 269v-269h-97v560h96v-144q27 76 78 115.5t120 39.5q75 0 121 -40t62 -112q27 74 80.5 113t124.5 39q96 0 144 -66q49 -64 49 -168v-337h-97v315q0 76 -29 126q-28 49 -104 49q-72 0 -115.5 -56.5t-43.5 -161.5v-272h-97v319q0 83 -30.5 127t-102.5 44t-115.5 -58
t-43.5 -163z" />
    <glyph glyph-name="n" unicode="n" horiz-adv-x="662" 
d="M175 0h-97v560h96v-144q28 75 81.5 115t126.5 40q102 0 155 -66q52 -65 52 -170v-335h-96v313q0 177 -149 177q-77 0 -123 -58t-46 -163v-269z" />
    <glyph glyph-name="o" unicode="o" horiz-adv-x="660" 
d="M330 -10q-133 0 -207.5 81t-74.5 209q0 125 77 208t206 83q131 0 206 -82t75 -209q0 -124 -76 -207t-206 -83zM330 72q93 0 138 59q46 58 46 149q0 96 -47.5 153t-135.5 57q-87 0 -135.5 -58.5t-48.5 -151.5q0 -96 46.5 -152t136.5 -56z" />
    <glyph glyph-name="p" unicode="p" horiz-adv-x="680" 
d="M632 284q0 -136 -71.5 -214t-178.5 -78q-73 0 -126 35t-81 98v-341h-97v776h97v-128q30 66 87 101.5t127 35.5q103 0 173 -73.5t70 -211.5zM356 73q83 0 130.5 56t47.5 153q0 98 -49 152.5t-132 54.5q-88 0 -137 -59.5t-49 -149.5q0 -92 48.5 -149.5t140.5 -57.5z" />
    <glyph glyph-name="q" unicode="q" horiz-adv-x="679" 
d="M47 277q0 136 75.5 214t181.5 78q144 0 200 -130v121h96v-776h-96v341q-31 -63 -85.5 -98t-123.5 -35q-106 0 -177 74t-71 211zM327 73q89 0 137 58.5t48 149.5q0 92 -47 150t-138 58q-82 0 -131.5 -57t-49.5 -153q0 -98 49 -152t132 -54z" />
    <glyph glyph-name="r" unicode="r" horiz-adv-x="463" 
d="M339 568q64 0 106 -27l-31 -87q-41 28 -100 28q-61 0 -100 -52.5t-39 -153.5v-276h-97v560h96v-143q36 151 165 151z" />
    <glyph glyph-name="s" unicode="s" horiz-adv-x="562" 
d="M26 104l72 65q70 -99 197 -99q68 0 99 29q30 30 30 64q0 48 -54 63q-45 14 -139 29q-93 13 -138.5 47t-45.5 101q0 73 58 121q58 49 159 49q164 0 256 -120l-75 -63q-67 101 -185 101q-63 0 -94.5 -24.5t-31.5 -63.5t37 -56.5t127 -30.5q108 -17 161.5 -48t53.5 -105
t-59 -124t-161 -50q-181 0 -267 115z" />
    <glyph glyph-name="t" unicode="t" horiz-adv-x="438" 
d="M398 88v-79q-40 -19 -94 -19q-84 0 -122 44.5t-38 136.5v309h-128v80h129v148l91 55v-203h162v-80h-162v-298q0 -59 21.5 -84t67.5 -25q33 0 73 15z" />
    <glyph glyph-name="u" unicode="u" horiz-adv-x="648" 
d="M474 560h96v-560h-96v141q-28 -74 -79.5 -113t-121.5 -39q-106 0 -155 64t-49 169v338h97v-313q0 -177 144 -177q73 0 118.5 58t45.5 161v271z" />
    <glyph glyph-name="v" unicode="v" horiz-adv-x="593" 
d="M580 560l-235 -560h-99l-233 560h101l154 -384l29 -88l30 88l155 384h98z" />
    <glyph glyph-name="w" unicode="w" horiz-adv-x="858" 
d="M427 467l-18 -69l-122 -398h-117l-145 560h100l101 -416l15 -83l20 83l129 416h76l123 -414l19 -87l17 86l111 415h98l-159 -560h-114l-117 400z" />
    <glyph glyph-name="x" unicode="x" horiz-adv-x="579" 
d="M118 0h-110l225 290l-208 270h110l156 -208l158 208h108l-210 -270l224 -290h-108l-173 227z" />
    <glyph glyph-name="y" unicode="y" horiz-adv-x="594" 
d="M483 560h100l-338 -776h-101l102 227l-234 549h100l156 -373l29 -86l31 87z" />
    <glyph glyph-name="z" unicode="z" horiz-adv-x="566" 
d="M518 560v-80l-375 -396h378v-84h-479v81l374 396h-367v83h469z" />
    <glyph glyph-name="braceleft" unicode="{" horiz-adv-x="415" 
d="M277 701q-94 0 -94 -87q0 -37 24.5 -103.5t24.5 -102.5q0 -40 -21.5 -72.5t-64.5 -40.5q42 -8 64 -40.5t22 -69.5q0 -38 -24.5 -101.5t-24.5 -106.5q0 -42 26 -65t72 -23q39 0 93 7v-89q-47 -7 -111 -7q-72 0 -122 36q-50 35 -50 111q0 58 32 129.5t32 110.5q0 73 -78 73
h-44v71h44q42 0 60 18t18 53q0 40 -31.5 115t-31.5 127q0 75 50 110q49 36 122 36q64 0 111 -7v-89q-54 7 -98 7z" />
    <glyph glyph-name="bar" unicode="|" horiz-adv-x="216" 
d="M147 776v-960h-77v960h77z" />
    <glyph glyph-name="braceright" unicode="}" horiz-adv-x="415" 
d="M137 -111q94 0 94 87q0 37 -24.5 103.5t-24.5 102.5q0 40 21.5 72.5t64.5 40.5q-42 8 -64 40.5t-22 69.5q0 38 24.5 101.5t24.5 106.5q0 42 -26 65t-72 23q-39 0 -93 -7v89q47 7 111 7q73 0 122 -36q50 -35 50 -111q0 -58 -32 -129.5t-32 -110.5q0 -73 78 -73h44v-71h-44
q-42 0 -60 -18t-18 -53q0 -40 31.5 -115t31.5 -127q0 -75 -50 -110q-50 -36 -122 -36q-64 0 -111 7v89q54 -7 98 -7z" />
    <glyph glyph-name="asciitilde" unicode="~" horiz-adv-x="474" 
d="M363 462h71q11 -94 -19 -142t-77 -48q-31 0 -58 18.5t-43.5 41t-36.5 41t-39 18.5q-52 0 -40 -118h-71q-11 95 20 142.5t80 47.5q31 0 58 -18.5t43 -41t35.5 -41t37.5 -18.5q51 0 39 118z" />
    <glyph glyph-name="exclamdown" unicode="&#xa1;" horiz-adv-x="264" 
d="M124 568q33 0 53.5 -20t20.5 -52q0 -31 -20.5 -52t-53.5 -21q-32 0 -52.5 21t-20.5 52q0 32 20 52t53 20zM106 345h36q0 -24 14 -148.5t15 -153.5q2 -25 4.5 -58.5t4 -55.5t1.5 -35q0 -38 -15.5 -56t-40.5 -18q-56 0 -56 74q0 32 9 149q1 29 14.5 153.5t13.5 148.5z" />
    <glyph glyph-name="cent" unicode="&#xa2;" horiz-adv-x="645" 
d="M368 -44h-68v111q-121 12 -186.5 90.5t-65.5 196.5q0 113 68.5 196t183.5 95v121h68v-120q101 -8 158 -68q56 -58 76 -143l-94 -20q-27 135 -144 148v-413q114 12 150 141l90 -25q-22 -80 -81 -135t-155 -64v-111zM146 356q1 -85 40.5 -140.5t117.5 -64.5v412
q-76 -10 -117 -70q-39 -57 -41 -137z" />
    <glyph glyph-name="sterling" unicode="&#xa3;" horiz-adv-x="673" 
d="M148 298h-110v53h87l-9 18t-10 20.5t-8 19t-8 22.5t-6 21t-5 25.5t-1 26.5q0 104 75 170t190 66q124 0 195.5 -69.5t81.5 -190.5l-96 -19q-6 92 -51 143t-127 51q-77 0 -124.5 -44t-47.5 -117q0 -19 4.5 -40t9 -34t13.5 -36.5t12 -32.5h282v-53h-267q0 -2 1.5 -15
t1.5 -19q0 -81 -67 -148q43 16 81 16q45 0 117 -28t106 -28q41 0 64.5 26t34.5 88l81 -21q-15 -96 -63 -138.5t-110 -42.5q-53 0 -125 32t-108 32q-65 0 -168 -58l-38 74q121 66 121 175q0 21 -9 55z" />
    <glyph glyph-name="currency" unicode="&#xa4;" horiz-adv-x="579" 
d="M178 204l-89 -94l-52 51l88 93q-37 54 -37 123q0 70 37 124l-88 93l56 50l86 -92q49 29 110 29q64 0 110 -30l86 93l56 -50l-88 -94q38 -53 38 -123q0 -71 -38 -124l88 -92l-52 -51l-89 93q-46 -30 -110 -30q-65 0 -112 31zM290 245q60 0 90.5 36t30.5 96q0 62 -31 98
t-90 36q-56 0 -89 -37.5t-33 -96.5q0 -62 31.5 -97t90.5 -35z" />
    <glyph glyph-name="yen" unicode="&#xa5;" horiz-adv-x="661" 
d="M554 242v-53h-176v-189h-97v189h-175v53h175v71h-175v53h155l-244 364h106l176 -264l32 -50l33 50l176 264h105l-247 -364h156v-53h-176v-71h176z" />
    <glyph glyph-name="brokenbar" unicode="&#xa6;" horiz-adv-x="216" 
d="M147 776v-430h-77v430h77zM147 246v-430h-77v430h77z" />
    <glyph glyph-name="section" unicode="&#xa7;" horiz-adv-x="582" 
d="M304 -135q-177 0 -281 109l69 65q81 -94 219 -94q65 0 98 26t33 65q0 42 -40 61q-39 19 -150 39q-125 20 -173 60q-48 41 -48 101q0 52 40 89.5t105 53.5q-121 34 -121 136q0 72 60 119q61 47 159 46q158 0 262 -114l-68 -61q-80 96 -198 96q-62 0 -96 -24.5t-34 -63.5
q0 -38 33 -58.5t134 -37.5q129 -21 184 -59.5t55 -105.5q0 -50 -39.5 -86.5t-109.5 -54.5q133 -37 133 -142q0 -69 -58 -117t-168 -48zM211 210q25 -7 128 -24q70 21 101 48.5t31 66.5q0 40 -31 65t-102 39q-78 13 -105 20q-62 -16 -94.5 -45.5t-32.5 -69.5
q0 -36 24.5 -60.5t80.5 -39.5z" />
    <glyph glyph-name="dieresis" unicode="&#xa8;" horiz-adv-x="355" 
d="M12 691q0 28 17.5 46.5t47.5 18.5q29 0 47 -18.5t18 -46.5t-17.5 -46t-47.5 -18t-47.5 18t-17.5 46zM215 691q0 28 17.5 46.5t47.5 18.5q29 0 47 -18.5t18 -46.5t-17.5 -46t-47.5 -18t-47.5 18t-17.5 46z" />
    <glyph glyph-name="copyright" unicode="&#xa9;" horiz-adv-x="854" 
d="M427 742q162 0 269 -106.5t107 -268.5t-107 -268.5t-269 -106.5t-269.5 106.5t-107.5 268.5t107.5 268.5t269.5 106.5zM428 64q132 0 214.5 84t82.5 219t-82.5 219t-215.5 84q-135 0 -217 -84t-82 -219t83 -219t217 -84zM596 425l-59 -15q-13 48 -38 71.5t-69 23.5
q-52 0 -82.5 -37t-30.5 -98q0 -60 30.5 -95.5t83.5 -35.5q87 0 107 93l59 -12q-13 -66 -55 -100.5t-111 -34.5q-82 0 -128.5 50.5t-46.5 133.5q0 80 47 135q48 55 127 55q65 0 107.5 -36t58.5 -98z" />
    <glyph glyph-name="ordfeminine" unicode="&#xaa;" horiz-adv-x="450" 
d="M146 342q-57 0 -89 28t-32 73q0 58 48 87q33 22 137 40q49 7 70 18t21 32t-20 36.5t-60 15.5q-42 0 -74 -18.5t-46 -52.5l-70 38q28 46 78.5 72.5t112.5 26.5q77 0 116.5 -36t39.5 -105v-143q0 -45 40 -45q5 0 10.5 0.5t11 2t8.5 1.5v-62q-22 -6 -53 -6q-96 0 -95 101
q-19 -49 -59.5 -76.5t-94.5 -27.5zM182 402q52 0 85.5 39t33.5 116v4q-19 -17 -83 -28q-62 -13 -85.5 -27.5t-23.5 -46.5q0 -57 73 -57z" />
    <glyph glyph-name="guillemotleft" unicode="&#xab;" horiz-adv-x="464" 
d="M173 456h97l-161 -180l162 -182h-99l-161 178v6zM353 456h97l-161 -180l162 -182h-99l-161 178v6z" />
    <glyph glyph-name="logicalnot" unicode="&#xac;" horiz-adv-x="464" 
d="M41 403h376v-234h-74v167h-302v67z" />
    <glyph glyph-name="uni00AD" unicode="&#xad;" horiz-adv-x="447" 
d="M388 264h-328v75h328v-75z" />
    <glyph glyph-name="registered" unicode="&#xae;" horiz-adv-x="623" 
d="M312 741q111 0 187.5 -73.5t76.5 -189.5t-76.5 -189.5t-187.5 -73.5t-187.5 73.5t-76.5 189.5t76.5 189.5t187.5 73.5zM312 268q89 0 148 59q59 61 59 151q0 92 -59 151t-148 59q-90 0 -149 -59t-59 -151q0 -90 59 -151q59 -59 149 -59zM437 350h-55l-10 57
q-4 28 -15.5 38.5t-41.5 10.5h-55v-106h-50v274h127q45 0 70 -20.5t25 -54.5q0 -28 -18 -47t-47 -25q28 -6 39.5 -19.5t17.5 -41.5zM325 579h-65v-90h65q57 0 57 46q0 44 -57 44z" />
    <glyph glyph-name="overscore" unicode="&#xaf;" horiz-adv-x="322" 
d="M298 648h-274v59h274v-59z" />
    <glyph glyph-name="degree" unicode="&#xb0;" horiz-adv-x="338" 
d="M169 448q-71 0 -108 41.5t-37 102.5q0 62 36.5 103.5t108.5 41.5q71 0 108.5 -42t37.5 -103t-37 -102.5t-109 -41.5zM169 506q39 0 59.5 24t20.5 62t-21 62.5t-59 24.5q-39 0 -59 -24.5t-20 -62.5t20 -62t59 -24z" />
    <glyph glyph-name="plusminus" unicode="&#xb1;" horiz-adv-x="477" 
d="M203 346h-162v65h162v160h71v-160h162v-65h-162v-171h-71v171zM436 31h-395v68h395v-68z" />
    <glyph glyph-name="acute" unicode="&#xb4;" horiz-adv-x="314" 
d="M268 778l-173 -169l-39 38l164 177z" />
    <glyph glyph-name="paragraph" unicode="&#xb6;" horiz-adv-x="668" 
d="M411 -1h-70v251q-149 4 -226.5 64t-77.5 172q0 119 81.5 181.5t232.5 62.5h245v-730h-92v643h-93v-644zM136 470q2 -152 206 -160v333q-105 -4 -155 -46.5t-51 -126.5z" />
    <glyph glyph-name="middot" unicode="&#xb7;" horiz-adv-x="244" 
d="M122 225q-33 0 -53.5 20t-20.5 52q0 31 20.5 52t53.5 21q32 0 52.5 -21t20.5 -52q0 -32 -20 -52t-53 -20z" />
    <glyph glyph-name="cedilla" unicode="&#xb8;" horiz-adv-x="345" 
d="M300 -139q0 -46 -34 -74.5t-93 -28.5q-68 0 -123 30l26 52q42 -27 94 -27q33 0 51.5 14.5t18.5 36.5q0 44 -64 44q-33 0 -56 -9l-18 10l40 120l50 -12l-22 -68q13 1 27 1q48 0 75.5 -24.5t27.5 -64.5z" />
    <glyph glyph-name="ordmasculine" unicode="&#xba;" horiz-adv-x="455" 
d="M228 345q-94 0 -147 56q-51 57 -51 141q0 85 53.5 140.5t144.5 55.5t144.5 -55.5t53.5 -140.5t-53.5 -141t-144.5 -56zM228 414q55 0 84 35.5t29 93.5q0 59 -29 93.5t-84 34.5t-84.5 -35.5t-29.5 -92.5q0 -59 29.5 -94t84.5 -35z" />
    <glyph glyph-name="guillemotright" unicode="&#xbb;" horiz-adv-x="464" 
d="M273 278v-6l-162 -178h-97l160 180l-161 182h99zM453 278v-6l-162 -178h-97l160 180l-161 182h99z" />
    <glyph glyph-name="onequarter" unicode="&#xbc;" horiz-adv-x="819" 
d="M676 230h75v-93h59v-39h-59v-98l-75 -1v99h-216v43l194 293h78v-3l-196 -294h140v93zM404 425l167 318l91 -53l-221 -286zM382 307l-167 -319l-91 54l221 286zM126 730h76v-433h-78v346q-27 -80 -108 -80h-6v78h3q111 0 113 89z" />
    <glyph glyph-name="onehalf" unicode="&#xbd;" horiz-adv-x="842" 
d="M404 425l167 318l91 -53l-221 -286zM382 307l-167 -319l-91 54l221 286zM126 730h76v-433h-78v346q-27 -80 -108 -80h-6v78h3q111 0 113 89zM660 439q69 0 107 -36t38 -90q0 -45 -27.5 -83.5t-87.5 -82.5q-79 -58 -109 -76h237v-71h-316v70q106 70 153 110q44 37 60.5 64
t16.5 58q0 33 -19 52.5t-54 19.5q-73 0 -95 -86l-70 30q21 60 66 90.5t100 30.5z" />
    <glyph glyph-name="threequarters" unicode="&#xbe;" horiz-adv-x="889" 
d="M15 376l62 43q32 -60 114 -60q42 0 65 20t23 52q0 67 -99 67h-66v40h59q91 0 91 67q0 31 -22 49t-57 18q-68 0 -97 -67l-63 31q24 48 67 74t97 26q62 0 103.5 -30t41.5 -82q0 -38 -23.5 -64.5t-63.5 -38.5q99 -19 99 -106q0 -55 -42.5 -89.5t-111.5 -34.5q-128 0 -177 85
zM746 230h75v-93h59v-39h-59v-98l-75 -1v99h-216v43l194 293h78v-3l-196 -294h140v93zM474 425l167 318l91 -53l-221 -286zM452 307l-167 -319l-91 54l221 286z" />
    <glyph glyph-name="questiondown" unicode="&#xbf;" horiz-adv-x="548" 
d="M301 534q33 0 53 -20t20 -52q0 -31 -20.5 -52t-52.5 -21q-33 0 -53.5 21t-20.5 52q0 32 20.5 52t53.5 20zM265 306h77q1 -9 1 -20q0 -55 -33 -88t-72 -60q-37 -26 -72 -59q-33 -31 -33 -84q0 -56 38.5 -88t100.5 -32q133 0 160 145l96 -29q-24 -93 -88.5 -149t-170.5 -56
q-110 0 -170 55.5t-60 141.5q0 68 35 109q38 43 78 70q50 36 77 58q36 28 36 73v13z" />
    <glyph glyph-name="Agrave" unicode="&#xc0;" horiz-adv-x="732" 
d="M122 0h-102l291 730h110l291 -730h-103l-64 167h-359zM365 643l-34 -99l-117 -305h303l-118 306zM444 822l-33 -44l-207 140l41 57z" />
    <glyph glyph-name="Aacute" unicode="&#xc1;" horiz-adv-x="732" 
d="M122 0h-102l291 730h110l291 -730h-103l-64 167h-359zM365 643l-34 -99l-117 -305h303l-118 306zM539 918l-208 -140l-32 44l198 153z" />
    <glyph glyph-name="Acircumflex" unicode="&#xc2;" horiz-adv-x="732" 
d="M122 0h-102l291 730h110l291 -730h-103l-64 167h-359zM365 643l-34 -99l-117 -305h303l-118 306zM192 807l151 145h43l151 -145l-43 -39l-131 125l-132 -125z" />
    <glyph glyph-name="Atilde" unicode="&#xc3;" horiz-adv-x="732" 
d="M122 0h-102l291 730h110l291 -730h-103l-64 167h-359zM365 643l-34 -99l-117 -305h303l-118 306zM303 877q-39 0 -39 -63v-21l-58 8v11q0 61 25.5 94t64.5 33q29 0 56.5 -21t50.5 -42t42 -21q35 0 35 63v21l59 -8v-11q0 -61 -25.5 -94t-63.5 -33q-29 0 -56.5 21t-50.5 42
t-40 21z" />
    <glyph glyph-name="Adieresis" unicode="&#xc4;" horiz-adv-x="732" 
d="M122 0h-102l291 730h110l291 -730h-103l-64 167h-359zM365 643l-34 -99l-117 -305h303l-118 306zM204 842q0 28 16.5 45t45.5 17q28 0 45 -17.5t17 -44.5t-17 -44t-45 -17q-29 0 -45.5 16.5t-16.5 44.5zM404 842q0 28 16.5 45t45.5 17q28 0 45 -17.5t17 -44.5t-17 -44
t-45 -17q-29 0 -45.5 16.5t-16.5 44.5z" />
    <glyph glyph-name="Aring" unicode="&#xc5;" horiz-adv-x="732" 
d="M122 0h-102l291 730h110l291 -730h-103l-64 167h-359zM365 643l-34 -99l-117 -305h303l-118 306zM365 783q-51 0 -85 33.5t-34 83.5t34 83.5t85 33.5t84.5 -33.5t33.5 -83.5t-33.5 -83.5t-84.5 -33.5zM365 830q30 0 48.5 19.5t18.5 50.5t-18.5 50.5t-49.5 19.5
q-30 0 -48 -19.5t-18 -50.5q0 -32 18.5 -51t48.5 -19z" />
    <glyph glyph-name="AE" unicode="&#xc6;" horiz-adv-x="955" 
d="M121 0h-104l362 730h526v-87h-404l34 -236h285v-75h-274l36 -244h325v-88h-391l-25 168h-290zM422 630l-30 -65l-156 -325h244l-48 325z" />
    <glyph glyph-name="Ccedilla" unicode="&#xc7;" horiz-adv-x="773" 
d="M522 -142q0 -46 -34 -74.5t-93 -28.5q-68 0 -123 30l26 52q42 -27 94 -27q33 0 51.5 14.5t18.5 36.5q0 44 -64 44q-33 0 -56 -9l-18 10l29 86q-102 9 -172 64.5t-100 134t-30 174.5q0 155 95.5 265t255.5 110q261 0 329 -266l-97 -27q-21 92 -74 148q-52 55 -158 55
q-117 0 -185 -82t-68 -203q0 -125 62.5 -205t185.5 -80q111 0 168 61q56 61 73 158l98 -19q-25 -131 -108 -209.5t-222 -80.5l-14 -44q13 1 27 1q48 0 75.5 -24.5t27.5 -64.5z" />
    <glyph glyph-name="Egrave" unicode="&#xc8;" horiz-adv-x="657" 
d="M610 0h-528v730h526v-87h-430v-236h345v-75h-345v-244h432v-88zM430 822l-33 -44l-207 140l41 57z" />
    <glyph glyph-name="Eacute" unicode="&#xc9;" horiz-adv-x="657" 
d="M610 0h-528v730h526v-87h-430v-236h345v-75h-345v-244h432v-88zM525 918l-208 -140l-32 44l198 153z" />
    <glyph glyph-name="Ecircumflex" unicode="&#xca;" horiz-adv-x="657" 
d="M610 0h-528v730h526v-87h-430v-236h345v-75h-345v-244h432v-88zM182 812l151 145h43l151 -145l-43 -39l-131 125l-132 -125z" />
    <glyph glyph-name="Edieresis" unicode="&#xcb;" horiz-adv-x="657" 
d="M610 0h-528v730h526v-87h-430v-236h345v-75h-345v-244h432v-88zM192 842q0 28 16.5 45t45.5 17q28 0 45 -17.5t17 -44.5t-17 -44t-45 -17q-29 0 -45.5 16.5t-16.5 44.5zM392 842q0 28 16.5 45t45.5 17q28 0 45 -17.5t17 -44.5t-17 -44t-45 -17q-29 0 -45.5 16.5
t-16.5 44.5z" />
    <glyph glyph-name="Igrave" unicode="&#xcc;" horiz-adv-x="265" 
d="M181 0h-97v730h97v-730zM211 822l-33 -44l-207 140l41 57z" />
    <glyph glyph-name="Iacute" unicode="&#xcd;" horiz-adv-x="265" 
d="M181 0h-97v730h97v-730zM306 918l-208 -140l-32 44l198 153z" />
    <glyph glyph-name="Icircumflex" unicode="&#xce;" horiz-adv-x="265" 
d="M181 0h-97v730h97v-730zM-40 812l151 145h43l151 -145l-43 -39l-131 125l-132 -125z" />
    <glyph glyph-name="Idieresis" unicode="&#xcf;" horiz-adv-x="265" 
d="M181 0h-97v730h97v-730zM-29 842q0 28 16.5 45t45.5 17q28 0 45 -17.5t17 -44.5t-17 -44t-45 -17q-29 0 -45.5 16.5t-16.5 44.5zM171 842q0 28 16.5 45t45.5 17q28 0 45 -17.5t17 -44.5t-17 -44t-45 -17q-29 0 -45.5 16.5t-16.5 44.5z" />
    <glyph glyph-name="Eth" unicode="&#xd0;" horiz-adv-x="763" 
d="M331 0h-237v331h-88v72h88v327h228q189 0 290 -91.5t101 -264.5q0 -168 -99.5 -271t-282.5 -103zM321 642h-130v-243h183v-63h-183v-247h139q140 0 212 76.5t72 208.5q0 268 -293 268z" />
    <glyph glyph-name="Ntilde" unicode="&#xd1;" horiz-adv-x="753" 
d="M168 643l7 -91v-552h-93v730h116l343 -551l41 -80l-4 89v542h94v-730h-110l-350 566zM319 864q-39 0 -39 -63v-21l-58 8v11q0 61 25.5 94t64.5 33q29 0 56.5 -21t50.5 -42t42 -21q35 0 35 63v21l59 -8v-11q0 -61 -25.5 -94t-63.5 -33q-29 0 -56.5 21t-50.5 42t-40 21z
" />
    <glyph glyph-name="Ograve" unicode="&#xd2;" horiz-adv-x="798" 
d="M397 -10q-87 0 -155 30t-108.5 83t-61.5 119.5t-21 143.5q0 101 39.5 185t120 136.5t188.5 52.5q168 0 258.5 -106.5t90.5 -267.5q0 -102 -37.5 -185.5t-119 -137t-194.5 -53.5zM398 78q123 0 186.5 82t63.5 206q0 126 -63.5 206.5t-185.5 80.5q-117 0 -183 -82t-66 -205
q0 -125 62.5 -206.5t185.5 -81.5zM478 822l-33 -44l-207 140l41 57z" />
    <glyph glyph-name="Oacute" unicode="&#xd3;" horiz-adv-x="798" 
d="M397 -10q-87 0 -155 30t-108.5 83t-61.5 119.5t-21 143.5q0 101 39.5 185t120 136.5t188.5 52.5q168 0 258.5 -106.5t90.5 -267.5q0 -102 -37.5 -185.5t-119 -137t-194.5 -53.5zM398 78q123 0 186.5 82t63.5 206q0 126 -63.5 206.5t-185.5 80.5q-117 0 -183 -82t-66 -205
q0 -125 62.5 -206.5t185.5 -81.5zM573 918l-208 -140l-32 44l198 153z" />
    <glyph glyph-name="Ocircumflex" unicode="&#xd4;" horiz-adv-x="798" 
d="M397 -10q-87 0 -155 30t-108.5 83t-61.5 119.5t-21 143.5q0 101 39.5 185t120 136.5t188.5 52.5q168 0 258.5 -106.5t90.5 -267.5q0 -102 -37.5 -185.5t-119 -137t-194.5 -53.5zM398 78q123 0 186.5 82t63.5 206q0 126 -63.5 206.5t-185.5 80.5q-117 0 -183 -82t-66 -205
q0 -125 62.5 -206.5t185.5 -81.5zM230 812l151 145h43l151 -145l-43 -39l-131 125l-132 -125z" />
    <glyph glyph-name="Otilde" unicode="&#xd5;" horiz-adv-x="798" 
d="M397 -10q-87 0 -155 30t-108.5 83t-61.5 119.5t-21 143.5q0 101 39.5 185t120 136.5t188.5 52.5q168 0 258.5 -106.5t90.5 -267.5q0 -102 -37.5 -185.5t-119 -137t-194.5 -53.5zM398 78q123 0 186.5 82t63.5 206q0 126 -63.5 206.5t-185.5 80.5q-117 0 -183 -82t-66 -205
q0 -125 62.5 -206.5t185.5 -81.5zM334 877q-39 0 -39 -63v-21l-58 8v11q0 61 25.5 94t64.5 33q29 0 56.5 -21t50.5 -42t42 -21q35 0 35 63v21l59 -8v-11q0 -61 -25.5 -94t-63.5 -33q-29 0 -56.5 21t-50.5 42t-40 21z" />
    <glyph glyph-name="Odieresis" unicode="&#xd6;" horiz-adv-x="798" 
d="M397 -10q-87 0 -155 30t-108.5 83t-61.5 119.5t-21 143.5q0 101 39.5 185t120 136.5t188.5 52.5q168 0 258.5 -106.5t90.5 -267.5q0 -102 -37.5 -185.5t-119 -137t-194.5 -53.5zM398 78q123 0 186.5 82t63.5 206q0 126 -63.5 206.5t-185.5 80.5q-117 0 -183 -82t-66 -205
q0 -125 62.5 -206.5t185.5 -81.5zM238 842q0 28 16.5 45t45.5 17q28 0 45 -17.5t17 -44.5t-17 -44t-45 -17q-29 0 -45.5 16.5t-16.5 44.5zM438 842q0 28 16.5 45t45.5 17q28 0 45 -17.5t17 -44.5t-17 -44t-45 -17q-29 0 -45.5 16.5t-16.5 44.5z" />
    <glyph glyph-name="multiply" unicode="&#xd7;" horiz-adv-x="474" 
d="M190 317l-133 134l46 46l134 -136l134 135l45 -46l-132 -134l133 -131l-47 -46l-133 134l-133 -134l-47 45z" />
    <glyph glyph-name="Oslash" unicode="&#xd8;" horiz-adv-x="798" 
d="M153 81l-92 -88l-47 53l96 89q-59 94 -59 231q0 101 39.5 185t120 136.5t188.5 52.5q158 0 250 -98l94 89l47 -52l-99 -92q57 -94 57 -221q0 -102 -37.5 -185.5t-119 -137t-194.5 -53.5q-155 0 -244 91zM149 366q0 -103 39 -172l392 385q-67 74 -181 74
q-116 0 -183 -82.5t-67 -204.5zM398 78q123 0 187 81.5t64 206.5q0 96 -35 162l-390 -383q65 -67 174 -67z" />
    <glyph glyph-name="Ugrave" unicode="&#xd9;" horiz-adv-x="728" 
d="M558 305v425h96v-431q0 -151 -78.5 -230t-213.5 -79q-140 0 -214 76.5t-74 232.5v431h97v-425q0 -225 191 -225q196 0 196 225zM453 810l-33 -44l-207 140l41 57z" />
    <glyph glyph-name="Uacute" unicode="&#xda;" horiz-adv-x="728" 
d="M558 305v425h96v-431q0 -151 -78.5 -230t-213.5 -79q-140 0 -214 76.5t-74 232.5v431h97v-425q0 -225 191 -225q196 0 196 225zM537 906l-208 -140l-32 44l198 153z" />
    <glyph glyph-name="Ucircumflex" unicode="&#xdb;" horiz-adv-x="728" 
d="M558 305v425h96v-431q0 -151 -78.5 -230t-213.5 -79q-140 0 -214 76.5t-74 232.5v431h97v-425q0 -225 191 -225q196 0 196 225zM195 800l151 145h43l151 -145l-43 -39l-131 125l-132 -125z" />
    <glyph glyph-name="Udieresis" unicode="&#xdc;" horiz-adv-x="728" 
d="M203 830q0 28 16.5 45t45.5 17q28 0 45 -17.5t17 -44.5t-17 -44t-45 -17q-29 0 -45.5 16.5t-16.5 44.5zM403 830q0 28 16.5 45t45.5 17q28 0 45 -17.5t17 -44.5t-17 -44t-45 -17q-29 0 -45.5 16.5t-16.5 44.5zM558 305v425h96v-431q0 -151 -78.5 -230t-213.5 -79
q-140 0 -214 76.5t-74 232.5v431h97v-425q0 -225 191 -225q196 0 196 225z" />
    <glyph glyph-name="Yacute" unicode="&#xdd;" horiz-adv-x="650" 
d="M534 730h107l-269 -466v-264h-97v265l-264 465h108l175 -317l31 -66l33 66zM499 904l-208 -140l-32 44l198 153z" />
    <glyph glyph-name="Thorn" unicode="&#xde;" horiz-adv-x="682" 
d="M82 0v730h97v-136h180q133 0 207 -58t74 -165t-74 -166.5t-207 -59.5h-180v-145h-97zM358 517h-180v-294h180q183 0 183 148q0 146 -183 146z" />
    <glyph glyph-name="germandbls" unicode="&#xdf;" horiz-adv-x="649" 
d="M176 0h-97v517q0 142 72.5 214t181.5 72q105 0 167 -58q63 -57 63 -151q0 -63 -33.5 -108.5t-89.5 -67.5q76 -20 120 -70.5t44 -129.5q0 -97 -67.5 -157.5t-200.5 -60.5h-64v92h47q111 0 154 43t43 102q0 70 -47.5 105.5t-128.5 35.5h-54v69h42q70 0 107.5 36t37.5 94
q0 60 -37 99.5t-104 39.5q-66 0 -111 -47t-45 -162v-507z" />
    <glyph glyph-name="agrave" unicode="&#xe0;" horiz-adv-x="649" 
d="M218 -10q-86 0 -131 37.5t-45 100.5q0 85 74 129q50 30 174 55q89 20 122.5 37t33.5 53q0 40 -31 65.5t-98 25.5q-66 0 -107.5 -30.5t-66.5 -92.5l-87 30q74 171 265 171q104 0 161 -49.5t57 -139.5v-231q0 -46 15 -64t46 -18q17 0 40 7v-67q-32 -17 -71 -17
q-63 0 -91.5 31.5t-28.5 102.5v28q-26 -75 -89 -119.5t-142 -44.5zM252 64q77 0 138 60t61 151v46q-14 -21 -48.5 -35t-102.5 -29q-85 -19 -122.5 -42.5t-37.5 -71.5q0 -36 28.5 -57.5t83.5 -21.5zM375 654l-38 -38l-174 169l49 46z" />
    <glyph glyph-name="aacute" unicode="&#xe1;" horiz-adv-x="649" 
d="M218 -10q-86 0 -131 37.5t-45 100.5q0 85 74 129q50 30 174 55q89 20 122.5 37t33.5 53q0 40 -31 65.5t-98 25.5q-66 0 -107.5 -30.5t-66.5 -92.5l-87 30q74 171 265 171q104 0 161 -49.5t57 -139.5v-231q0 -46 15 -64t46 -18q17 0 40 7v-67q-32 -17 -71 -17
q-63 0 -91.5 31.5t-28.5 102.5v28q-26 -75 -89 -119.5t-142 -44.5zM252 64q77 0 138 60t61 151v46q-14 -21 -48.5 -35t-102.5 -29q-85 -19 -122.5 -42.5t-37.5 -71.5q0 -36 28.5 -57.5t83.5 -21.5zM459 785l-173 -169l-39 38l164 177z" />
    <glyph glyph-name="acircumflex" unicode="&#xe2;" horiz-adv-x="649" 
d="M218 -10q-86 0 -131 37.5t-45 100.5q0 85 74 129q50 30 174 55q89 20 122.5 37t33.5 53q0 40 -31 65.5t-98 25.5q-66 0 -107.5 -30.5t-66.5 -92.5l-87 30q74 171 265 171q104 0 161 -49.5t57 -139.5v-231q0 -46 15 -64t46 -18q17 0 40 7v-67q-32 -17 -71 -17
q-63 0 -91.5 31.5t-28.5 102.5v28q-26 -75 -89 -119.5t-142 -44.5zM252 64q77 0 138 60t61 151v46q-14 -21 -48.5 -35t-102.5 -29q-85 -19 -122.5 -42.5t-37.5 -71.5q0 -36 28.5 -57.5t83.5 -21.5zM469 650l-49 -39l-110 127l-114 -127l-45 39l138 150h43z" />
    <glyph glyph-name="atilde" unicode="&#xe3;" horiz-adv-x="649" 
d="M218 -10q-86 0 -131 37.5t-45 100.5q0 85 74 129q50 30 174 55q89 20 122.5 37t33.5 53q0 40 -31 65.5t-98 25.5q-66 0 -107.5 -30.5t-66.5 -92.5l-87 30q74 171 265 171q104 0 161 -49.5t57 -139.5v-231q0 -46 15 -64t46 -18q17 0 40 7v-67q-32 -17 -71 -17
q-63 0 -91.5 31.5t-28.5 102.5v28q-26 -75 -89 -119.5t-142 -44.5zM252 64q77 0 138 60t61 151v46q-14 -21 -48.5 -35t-102.5 -29q-85 -19 -122.5 -42.5t-37.5 -71.5q0 -36 28.5 -57.5t83.5 -21.5zM243 717q-39 0 -39 -64v-19l-58 8v11q0 60 25.5 93t64.5 33q29 0 56 -20.5
t50 -41t42 -20.5q36 0 36 67v15l59 -8v-13q0 -60 -25.5 -92t-63.5 -32q-29 0 -56.5 21t-50.5 41.5t-40 20.5z" />
    <glyph glyph-name="adieresis" unicode="&#xe4;" horiz-adv-x="649" 
d="M218 -10q-86 0 -131 37.5t-45 100.5q0 85 74 129q50 30 174 55q89 20 122.5 37t33.5 53q0 40 -31 65.5t-98 25.5q-66 0 -107.5 -30.5t-66.5 -92.5l-87 30q74 171 265 171q104 0 161 -49.5t57 -139.5v-231q0 -46 15 -64t46 -18q17 0 40 7v-67q-32 -17 -71 -17
q-63 0 -91.5 31.5t-28.5 102.5v28q-26 -75 -89 -119.5t-142 -44.5zM252 64q77 0 138 60t61 151v46q-14 -21 -48.5 -35t-102.5 -29q-85 -19 -122.5 -42.5t-37.5 -71.5q0 -36 28.5 -57.5t83.5 -21.5zM144 694q0 28 17.5 46.5t47.5 18.5q29 0 47 -18.5t18 -46.5t-17.5 -46
t-47.5 -18t-47.5 18t-17.5 46zM347 694q0 28 17.5 46.5t47.5 18.5q29 0 47 -18.5t18 -46.5t-17.5 -46t-47.5 -18t-47.5 18t-17.5 46z" />
    <glyph glyph-name="aring" unicode="&#xe5;" horiz-adv-x="649" 
d="M218 -10q-86 0 -131 37.5t-45 100.5q0 85 74 129q50 30 174 55q89 20 122.5 37t33.5 53q0 40 -31 65.5t-98 25.5q-66 0 -107.5 -30.5t-66.5 -92.5l-87 30q74 171 265 171q104 0 161 -49.5t57 -139.5v-231q0 -46 15 -64t46 -18q17 0 40 7v-67q-32 -17 -71 -17
q-63 0 -91.5 31.5t-28.5 102.5v28q-26 -75 -89 -119.5t-142 -44.5zM252 64q77 0 138 60t61 151v46q-14 -21 -48.5 -35t-102.5 -29q-85 -19 -122.5 -42.5t-37.5 -71.5q0 -36 28.5 -57.5t83.5 -21.5zM316 617q-53 0 -88.5 35t-35.5 88t35.5 88t89.5 35q53 0 88 -35t35 -88
t-35.5 -88t-88.5 -35zM316 666q32 0 51.5 20t19.5 54q0 33 -20 53.5t-51 20.5q-32 0 -51.5 -20t-19.5 -54q0 -33 20 -53.5t51 -20.5z" />
    <glyph glyph-name="ae" unicode="&#xe6;" horiz-adv-x="995" 
d="M859 166l81 -46q-80 -130 -231 -130q-105 0 -166 51q-59 52 -79 129q-26 -83 -93.5 -131.5t-150.5 -48.5q-87 0 -133 38.5t-46 101.5q0 85 73 126q52 32 176 57q83 19 114.5 36t31.5 53q0 39 -31 65t-94 26q-123 0 -169 -123l-87 30q34 83 98 127t149 44
q77 0 125.5 -35.5t64.5 -97.5q64 133 217 133q116 0 179.5 -81t63.5 -205v-30h-442q6 -85 54.5 -133.5t133.5 -48.5q108 0 161 93zM694 491q-77 0 -125.5 -47t-57.5 -127h346q-4 79 -45.5 126.5t-117.5 47.5zM246 64q81 0 138 58.5t57 152.5v45q-21 -35 -141 -63
q-86 -20 -123.5 -42.5t-37.5 -69.5q0 -38 27 -59.5t80 -21.5z" />
    <glyph glyph-name="ccedilla" unicode="&#xe7;" horiz-adv-x="632" 
d="M443 -139q0 -46 -34 -74.5t-93 -28.5q-68 0 -123 30l26 52q42 -27 94 -27q33 0 51.5 14.5t18.5 36.5q0 44 -64 44q-33 0 -56 -9l-18 10l28 85q-108 18 -166.5 95t-58.5 191q0 125 77 208t206 83q112 0 176 -56.5t86 -153.5l-99 -21q-26 150 -165 150q-87 0 -135 -58.5
t-48 -151.5q0 -96 46 -151.5t136 -55.5q72 0 112.5 37t56.5 109l98 -23q-26 -94 -92.5 -150t-176.5 -56l-13 -41q13 1 27 1q48 0 75.5 -24.5t27.5 -64.5z" />
    <glyph glyph-name="egrave" unicode="&#xe8;" horiz-adv-x="637" 
d="M501 166l81 -46q-32 -52 -93 -91q-59 -39 -154 -39q-139 0 -213 80t-74 206q0 124 77.5 209.5t206.5 85.5q125 0 193.5 -81t68.5 -205v-30h-452q6 -86 55 -135t137 -49q112 0 167 95zM332 491q-80 0 -129.5 -47t-58.5 -127h355q-4 79 -46.5 126.5t-120.5 47.5zM400 654
l-38 -38l-174 169l49 46z" />
    <glyph glyph-name="eacute" unicode="&#xe9;" horiz-adv-x="637" 
d="M501 166l81 -46q-32 -52 -93 -91q-59 -39 -154 -39q-139 0 -213 80t-74 206q0 124 77.5 209.5t206.5 85.5q125 0 193.5 -81t68.5 -205v-30h-452q6 -86 55 -135t137 -49q112 0 167 95zM332 491q-80 0 -129.5 -47t-58.5 -127h355q-4 79 -46.5 126.5t-120.5 47.5zM484 785
l-173 -169l-39 38l164 177z" />
    <glyph glyph-name="ecircumflex" unicode="&#xea;" horiz-adv-x="637" 
d="M501 166l81 -46q-32 -52 -93 -91q-59 -39 -154 -39q-139 0 -213 80t-74 206q0 124 77.5 209.5t206.5 85.5q125 0 193.5 -81t68.5 -205v-30h-452q6 -86 55 -135t137 -49q112 0 167 95zM332 491q-80 0 -129.5 -47t-58.5 -127h355q-4 79 -46.5 126.5t-120.5 47.5zM494 650
l-49 -39l-110 127l-114 -127l-45 39l138 150h43z" />
    <glyph glyph-name="edieresis" unicode="&#xeb;" horiz-adv-x="637" 
d="M501 166l81 -46q-32 -52 -93 -91q-59 -39 -154 -39q-139 0 -213 80t-74 206q0 124 77.5 209.5t206.5 85.5q125 0 193.5 -81t68.5 -205v-30h-452q6 -86 55 -135t137 -49q112 0 167 95zM332 491q-80 0 -129.5 -47t-58.5 -127h355q-4 79 -46.5 126.5t-120.5 47.5zM169 694
q0 28 17.5 46.5t47.5 18.5q29 0 47 -18.5t18 -46.5t-17.5 -46t-47.5 -18t-47.5 18t-17.5 46zM372 694q0 28 17.5 46.5t47.5 18.5q29 0 47 -18.5t18 -46.5t-17.5 -46t-47.5 -18t-47.5 18t-17.5 46z" />
    <glyph glyph-name="igrave" unicode="&#xec;" horiz-adv-x="256" 
d="M80 560h97v-560h-97v560zM192 654l-38 -38l-174 169l49 46z" />
    <glyph glyph-name="iacute" unicode="&#xed;" horiz-adv-x="256" 
d="M80 560h97v-560h-97v560zM277 785l-173 -169l-39 38l164 177z" />
    <glyph glyph-name="icircumflex" unicode="&#xee;" horiz-adv-x="256" 
d="M80 560h97v-560h-97v560zM286 650l-49 -39l-110 127l-114 -127l-45 39l138 150h43z" />
    <glyph glyph-name="idieresis" unicode="&#xef;" horiz-adv-x="256" 
d="M80 560h97v-560h-97v560zM-38 694q0 28 17.5 46.5t47.5 18.5q29 0 47 -18.5t18 -46.5t-17.5 -46t-47.5 -18t-47.5 18t-17.5 46zM165 694q0 28 17.5 46.5t47.5 18.5q29 0 47 -18.5t18 -46.5t-17.5 -46t-47.5 -18t-47.5 18t-17.5 46z" />
    <glyph glyph-name="eth" unicode="&#xf0;" horiz-adv-x="670" 
d="M613 320q0 -143 -77.5 -237t-218.5 -94q-127 0 -200 72t-73 178q0 112 73 178t172 66q74 0 133.5 -35t97.5 -96q-13 161 -126 258l-109 -84l-37 41l100 78q-72 45 -162 73l41 86q120 -41 201 -105l86 66l37 -42l-80 -61q142 -137 142 -342zM139 244q0 -74 49 -121
t134 -47q82 0 131.5 47.5t62.5 129.5q-15 68 -73.5 115.5t-133.5 47.5q-76 0 -123 -46t-47 -126z" />
    <glyph glyph-name="ntilde" unicode="&#xf1;" horiz-adv-x="662" 
d="M175 0h-97v560h96v-144q28 75 81.5 115t126.5 40q102 0 155 -66q52 -65 52 -170v-335h-96v313q0 177 -149 177q-77 0 -123 -58t-46 -163v-269zM266 717q-39 0 -39 -64v-19l-58 8v11q0 60 25.5 93t64.5 33q29 0 56 -20.5t50 -41t42 -20.5q36 0 36 67v15l59 -8v-13
q0 -60 -25.5 -92t-63.5 -32q-29 0 -56.5 21t-50.5 41.5t-40 20.5z" />
    <glyph glyph-name="ograve" unicode="&#xf2;" horiz-adv-x="660" 
d="M330 -10q-133 0 -207.5 81t-74.5 209q0 125 77 208t206 83q131 0 206 -82t75 -209q0 -124 -76 -207t-206 -83zM330 72q93 0 138 59q46 58 46 149q0 96 -47.5 153t-135.5 57q-87 0 -135.5 -58.5t-48.5 -151.5q0 -96 46.5 -152t136.5 -56zM397 654l-38 -38l-174 169l49 46z
" />
    <glyph glyph-name="oacute" unicode="&#xf3;" horiz-adv-x="660" 
d="M330 -10q-133 0 -207.5 81t-74.5 209q0 125 77 208t206 83q131 0 206 -82t75 -209q0 -124 -76 -207t-206 -83zM330 72q93 0 138 59q46 58 46 149q0 96 -47.5 153t-135.5 57q-87 0 -135.5 -58.5t-48.5 -151.5q0 -96 46.5 -152t136.5 -56zM481 785l-173 -169l-39 38
l164 177z" />
    <glyph glyph-name="ocircumflex" unicode="&#xf4;" horiz-adv-x="660" 
d="M330 -10q-133 0 -207.5 81t-74.5 209q0 125 77 208t206 83q131 0 206 -82t75 -209q0 -124 -76 -207t-206 -83zM330 72q93 0 138 59q46 58 46 149q0 96 -47.5 153t-135.5 57q-87 0 -135.5 -58.5t-48.5 -151.5q0 -96 46.5 -152t136.5 -56zM491 650l-49 -39l-110 127
l-114 -127l-45 39l138 150h43z" />
    <glyph glyph-name="otilde" unicode="&#xf5;" horiz-adv-x="660" 
d="M330 -10q-133 0 -207.5 81t-74.5 209q0 125 77 208t206 83q131 0 206 -82t75 -209q0 -124 -76 -207t-206 -83zM330 72q93 0 138 59q46 58 46 149q0 96 -47.5 153t-135.5 57q-87 0 -135.5 -58.5t-48.5 -151.5q0 -96 46.5 -152t136.5 -56zM267 717q-39 0 -39 -64v-19l-58 8
v11q0 60 25.5 93t64.5 33q29 0 56 -20.5t50 -41t42 -20.5q36 0 36 67v15l59 -8v-13q0 -60 -25.5 -92t-63.5 -32q-29 0 -56.5 21t-50.5 41.5t-40 20.5z" />
    <glyph glyph-name="odieresis" unicode="&#xf6;" horiz-adv-x="660" 
d="M330 -10q-133 0 -207.5 81t-74.5 209q0 125 77 208t206 83q131 0 206 -82t75 -209q0 -124 -76 -207t-206 -83zM330 72q93 0 138 59q46 58 46 149q0 96 -47.5 153t-135.5 57q-87 0 -135.5 -58.5t-48.5 -151.5q0 -96 46.5 -152t136.5 -56zM163 694q0 28 17.5 46.5
t47.5 18.5q29 0 47 -18.5t18 -46.5t-17.5 -46t-47.5 -18t-47.5 18t-17.5 46zM366 694q0 28 17.5 46.5t47.5 18.5q29 0 47 -18.5t18 -46.5t-17.5 -46t-47.5 -18t-47.5 18t-17.5 46z" />
    <glyph glyph-name="divide" unicode="&#xf7;" horiz-adv-x="477" 
d="M239 419q-30 0 -47 17.5t-17 45.5t17.5 46t46.5 18q28 0 45 -18t17 -46t-17 -45.5t-45 -17.5zM436 274h-395v67h395v-67zM239 67q-30 0 -47 17.5t-17 45.5t17.5 46t46.5 18q28 0 45 -18t17 -46t-17 -45.5t-45 -17.5z" />
    <glyph glyph-name="oslash" unicode="&#xf8;" horiz-adv-x="660" 
d="M132 62l-81 -70l-43 54l81 71q-41 68 -41 163q0 125 77 208t206 83q117 0 195 -73l79 70l44 -52l-81 -71q44 -71 44 -165q0 -124 -76 -207t-206 -83q-123 0 -198 72zM146 280q0 -64 18 -110l298 272q-47 49 -131 49q-91 0 -138 -60q-47 -61 -47 -151zM330 71q92 0 139 59
q46 58 46 150q0 60 -19 109l-296 -272q46 -46 130 -46z" />
    <glyph glyph-name="ugrave" unicode="&#xf9;" horiz-adv-x="648" 
d="M474 560h96v-560h-96v141q-28 -74 -79.5 -113t-121.5 -39q-106 0 -155 64t-49 169v338h97v-313q0 -177 144 -177q73 0 118.5 58t45.5 161v271zM389 639l-38 -38l-174 169l49 46z" />
    <glyph glyph-name="uacute" unicode="&#xfa;" horiz-adv-x="648" 
d="M474 560h96v-560h-96v141q-28 -74 -79.5 -113t-121.5 -39q-106 0 -155 64t-49 169v338h97v-313q0 -177 144 -177q73 0 118.5 58t45.5 161v271zM473 770l-173 -169l-39 38l164 177z" />
    <glyph glyph-name="ucircumflex" unicode="&#xfb;" horiz-adv-x="648" 
d="M474 560h96v-560h-96v141q-28 -74 -79.5 -113t-121.5 -39q-106 0 -155 64t-49 169v338h97v-313q0 -177 144 -177q73 0 118.5 58t45.5 161v271zM483 635l-49 -39l-110 127l-114 -127l-45 39l138 150h43z" />
    <glyph glyph-name="udieresis" unicode="&#xfc;" horiz-adv-x="648" 
d="M474 560h96v-560h-96v141q-28 -74 -79.5 -113t-121.5 -39q-106 0 -155 64t-49 169v338h97v-313q0 -177 144 -177q73 0 118.5 58t45.5 161v271zM157 680q0 28 17.5 46.5t47.5 18.5q29 0 47 -18.5t18 -46.5t-17.5 -46t-47.5 -18t-47.5 18t-17.5 46zM360 680q0 28 17.5 46.5
t47.5 18.5q29 0 47 -18.5t18 -46.5t-17.5 -46t-47.5 -18t-47.5 18t-17.5 46z" />
    <glyph glyph-name="yacute" unicode="&#xfd;" horiz-adv-x="594" 
d="M483 560h100l-338 -776h-101l102 227l-234 549h100l156 -373l29 -86l31 87zM445 772l-173 -169l-39 38l164 177z" />
    <glyph glyph-name="thorn" unicode="&#xfe;" horiz-adv-x="679" 
d="M633 284q0 -136 -71.5 -214t-178.5 -78q-73 0 -126 35t-81 98v-341h-97v1012h96v-365q30 67 87 102.5t128 35.5q103 0 173 -73.5t70 -211.5zM357 73q83 0 130.5 56t47.5 153q0 98 -49 152.5t-132 54.5q-88 0 -137 -59.5t-49 -149.5q0 -92 48.5 -149.5t140.5 -57.5z" />
    <glyph glyph-name="ydieresis" unicode="&#xff;" horiz-adv-x="594" 
d="M483 560h100l-338 -776h-101l102 227l-234 549h100l156 -373l29 -86l31 87zM130 681q0 28 17.5 46.5t47.5 18.5q29 0 47 -18.5t18 -46.5t-17.5 -46t-47.5 -18t-47.5 18t-17.5 46zM333 681q0 28 17.5 46.5t47.5 18.5q29 0 47 -18.5t18 -46.5t-17.5 -46t-47.5 -18t-47.5 18
t-17.5 46z" />
    <glyph glyph-name="Amacron" unicode="&#x100;" horiz-adv-x="732" 
d="M122 0h-102l291 730h110l291 -730h-103l-64 167h-359zM365 643l-34 -99l-117 -305h303l-118 306zM503 820h-274v58h274v-58z" />
    <glyph glyph-name="amacron" unicode="&#x101;" horiz-adv-x="649" 
d="M218 -10q-86 0 -131 37.5t-45 100.5q0 85 74 129q50 30 174 55q89 20 122.5 37t33.5 53q0 40 -31 65.5t-98 25.5q-66 0 -107.5 -30.5t-66.5 -92.5l-87 30q74 171 265 171q104 0 161 -49.5t57 -139.5v-231q0 -46 15 -64t46 -18q17 0 40 7v-67q-32 -17 -71 -17
q-63 0 -91.5 31.5t-28.5 102.5v28q-26 -75 -89 -119.5t-142 -44.5zM252 64q77 0 138 60t61 151v46q-14 -21 -48.5 -35t-102.5 -29q-85 -19 -122.5 -42.5t-37.5 -71.5q0 -36 28.5 -57.5t83.5 -21.5zM445 655h-274v59h274v-59z" />
    <glyph glyph-name="Abreve" unicode="&#x102;" horiz-adv-x="732" 
d="M122 0h-102l291 730h110l291 -730h-103l-64 167h-359zM365 643l-34 -99l-117 -305h303l-118 306zM373 837q47 0 71.5 27t25.5 76l60 -14q-2 -64 -42 -106.5t-118 -42.5q-81 0 -123.5 42.5t-42.5 106.5l62 14q1 -50 29 -76.5t78 -26.5z" />
    <glyph glyph-name="abreve" unicode="&#x103;" horiz-adv-x="649" 
d="M218 -10q-86 0 -131 37.5t-45 100.5q0 85 74 129q50 30 174 55q89 20 122.5 37t33.5 53q0 40 -31 65.5t-98 25.5q-66 0 -107.5 -30.5t-66.5 -92.5l-87 30q74 171 265 171q104 0 161 -49.5t57 -139.5v-231q0 -46 15 -64t46 -18q17 0 40 7v-67q-32 -17 -71 -17
q-63 0 -91.5 31.5t-28.5 102.5v28q-26 -75 -89 -119.5t-142 -44.5zM252 64q77 0 138 60t61 151v46q-14 -21 -48.5 -35t-102.5 -29q-85 -19 -122.5 -42.5t-37.5 -71.5q0 -36 28.5 -57.5t83.5 -21.5zM317 691q96 0 97 109l60 -14q-1 -64 -40 -110q-38 -45 -121 -45
q-81 0 -123 43t-42 112l62 14q1 -109 107 -109z" />
    <glyph glyph-name="Aogonek" unicode="&#x104;" horiz-adv-x="732" 
d="M122 0h-102l291 730h110l291 -730h-47q-104 -64 -104 -133q0 -51 63 -51q23 0 40 4l-8 -59q-25 -6 -49 -6q-51 0 -80.5 23.5t-29.5 66.5q0 85 112 156l-64 166h-359zM365 643l-34 -99l-117 -305h303l-118 306z" />
    <glyph glyph-name="aogonek" unicode="&#x105;" horiz-adv-x="649" 
d="M618 -180l-8 -59q-26 -6 -49 -6q-51 0 -80.5 23.5t-29.5 66.5q0 79 99 148q-52 4 -76.5 35.5t-24.5 97.5v28q-26 -75 -89 -119.5t-142 -44.5q-86 0 -131 37.5t-45 100.5q0 85 74 129q50 30 174 55q89 20 122.5 37t33.5 53q0 40 -31 65.5t-98 25.5q-66 0 -107.5 -30.5
t-66.5 -92.5l-87 30q74 171 265 171q104 0 161 -49.5t57 -139.5v-231q0 -46 15 -64t46 -18q17 0 40 7v-66q-42 -22 -79 -54q-46 -46 -46 -89q0 -51 63 -51q23 0 40 4zM252 64q77 0 138 60t61 151v46q-14 -21 -48.5 -35t-102.5 -29q-85 -19 -122.5 -42.5t-37.5 -71.5
q0 -36 28.5 -57.5t83.5 -21.5z" />
    <glyph glyph-name="Cacute" unicode="&#x106;" horiz-adv-x="773" 
d="M731 474l-97 -27q-21 92 -74 148q-52 55 -158 55q-117 0 -185 -82t-68 -203q0 -125 62.5 -205t185.5 -80q111 0 168 61q56 61 73 158l98 -19q-28 -135 -111.5 -212.5t-227.5 -77.5q-88 0 -156 30.5t-108.5 83t-61 118.5t-20.5 143q0 155 95.5 265t255.5 110
q261 0 329 -266zM581 918l-208 -140l-32 44l198 153z" />
    <glyph glyph-name="cacute" unicode="&#x107;" horiz-adv-x="632" 
d="M593 361l-99 -21q-26 150 -165 150q-87 0 -135 -58.5t-48 -151.5q0 -96 46 -151.5t136 -55.5q72 0 112.5 37t56.5 109l98 -23q-26 -94 -92 -150t-175 -56q-134 0 -207 80.5t-73 209.5q0 125 77 208t206 83q112 0 176 -56.5t86 -153.5zM479 785l-173 -169l-39 38l164 177z
" />
    <glyph glyph-name="Ccircumflex" unicode="&#x108;" horiz-adv-x="773" 
d="M731 474l-97 -27q-21 92 -74 148q-52 55 -158 55q-117 0 -185 -82t-68 -203q0 -125 62.5 -205t185.5 -80q111 0 168 61q56 61 73 158l98 -19q-28 -135 -111.5 -212.5t-227.5 -77.5q-88 0 -156 30.5t-108.5 83t-61 118.5t-20.5 143q0 155 95.5 265t255.5 110
q261 0 329 -266zM238 812l151 145h43l151 -145l-43 -39l-131 125l-132 -125z" />
    <glyph glyph-name="ccircumflex" unicode="&#x109;" horiz-adv-x="632" 
d="M593 361l-99 -21q-26 150 -165 150q-87 0 -135 -58.5t-48 -151.5q0 -96 46 -151.5t136 -55.5q72 0 112.5 37t56.5 109l98 -23q-26 -94 -92 -150t-175 -56q-134 0 -207 80.5t-73 209.5q0 125 77 208t206 83q112 0 176 -56.5t86 -153.5zM488 650l-49 -39l-110 127
l-114 -127l-45 39l138 150h43z" />
    <glyph glyph-name="Cdotaccent" unicode="&#x10a;" horiz-adv-x="773" 
d="M731 474l-97 -27q-21 92 -74 148q-52 55 -158 55q-117 0 -185 -82t-68 -203q0 -125 62.5 -205t185.5 -80q111 0 168 61q56 61 73 158l98 -19q-28 -135 -111.5 -212.5t-227.5 -77.5q-88 0 -156 30.5t-108.5 83t-61 118.5t-20.5 143q0 155 95.5 265t255.5 110
q261 0 329 -266zM342 850q0 28 17 46t47 18q29 0 46 -18t17 -46t-17 -45.5t-46 -17.5q-30 0 -47 17.5t-17 45.5z" />
    <glyph glyph-name="cdotaccent" unicode="&#x10b;" horiz-adv-x="632" 
d="M593 361l-99 -21q-26 150 -165 150q-87 0 -135 -58.5t-48 -151.5q0 -96 46 -151.5t136 -55.5q72 0 112.5 37t56.5 109l98 -23q-26 -94 -92 -150t-175 -56q-134 0 -207 80.5t-73 209.5q0 125 77 208t206 83q112 0 176 -56.5t86 -153.5zM263 713q0 30 17.5 48.5t49.5 18.5
q30 0 48.5 -18.5t18.5 -48.5q0 -29 -18.5 -47.5t-48.5 -18.5q-32 0 -49.5 18t-17.5 48z" />
    <glyph glyph-name="Ccaron" unicode="&#x10c;" horiz-adv-x="773" 
d="M731 474l-97 -27q-21 92 -74 148q-52 55 -158 55q-117 0 -185 -82t-68 -203q0 -125 62.5 -205t185.5 -80q111 0 168 61q56 61 73 158l98 -19q-28 -135 -111.5 -212.5t-227.5 -77.5q-88 0 -156 30.5t-108.5 83t-61 118.5t-20.5 143q0 155 95.5 265t255.5 110
q261 0 329 -266zM581 924l-151 -145h-43l-151 145l43 39l130 -125l133 125z" />
    <glyph glyph-name="ccaron" unicode="&#x10d;" horiz-adv-x="632" 
d="M593 361l-99 -21q-26 150 -165 150q-87 0 -135 -58.5t-48 -151.5q0 -96 46 -151.5t136 -55.5q72 0 112.5 37t56.5 109l98 -23q-26 -94 -92 -150t-175 -56q-134 0 -207 80.5t-73 209.5q0 125 77 208t206 83q112 0 176 -56.5t86 -153.5zM168 779l48 39l110 -127l115 127
l44 -39l-138 -150h-43z" />
    <glyph glyph-name="Dcaron" unicode="&#x10e;" horiz-adv-x="752" 
d="M319 0h-237v730h228q189 0 290 -91.5t101 -264.5q0 -168 -99.5 -271t-282.5 -103zM309 642h-130v-553h139q140 0 212 76.5t72 208.5q0 268 -293 268zM545 922l-151 -145h-43l-151 145l43 39l130 -125l133 125z" />
    <glyph glyph-name="dcaron" unicode="&#x10f;" horiz-adv-x="717" 
d="M48 277q0 136 75.5 213.5t181.5 77.5q144 0 200 -129v357h97v-796h-96v128q-30 -65 -85.5 -100.5t-124.5 -35.5q-106 0 -177 74t-71 211zM328 73q89 0 137 58.5t48 149.5q0 92 -47 150t-138 58q-82 0 -131.5 -57t-49.5 -153q0 -98 49 -152t132 -54zM680 792l71 13
q9 -38 9 -70q0 -86 -42 -175l-51 18q27 68 27 127q0 39 -14 87z" />
    <glyph glyph-name="Dcroat" unicode="&#x110;" horiz-adv-x="763" 
d="M331 0h-237v331h-88v72h88v327h228q189 0 290 -91.5t101 -264.5q0 -168 -99.5 -271t-282.5 -103zM321 642h-130v-243h183v-63h-183v-247h139q140 0 212 76.5t72 208.5q0 268 -293 268z" />
    <glyph glyph-name="dslash" unicode="&#x111;" horiz-adv-x="687" 
d="M48 277q0 136 75.5 213.5t181.5 77.5q144 0 200 -129v195h-144v58h144v104h97v-104h92v-58h-92v-634h-96v128q-30 -65 -85.5 -100.5t-124.5 -35.5q-106 0 -177 74t-71 211zM328 73q89 0 137 58.5t48 149.5q0 92 -47 150t-138 58q-82 0 -131.5 -57t-49.5 -153
q0 -98 49 -152t132 -54z" />
    <glyph glyph-name="Emacron" unicode="&#x112;" horiz-adv-x="657" 
d="M610 0h-528v730h526v-87h-430v-236h345v-75h-345v-244h432v-88zM490 820h-274v58h274v-58z" />
    <glyph glyph-name="emacron" unicode="&#x113;" horiz-adv-x="637" 
d="M501 166l81 -46q-32 -52 -93 -91q-59 -39 -154 -39q-139 0 -213 80t-74 206q0 124 77.5 209.5t206.5 85.5q125 0 193.5 -81t68.5 -205v-30h-452q6 -86 55 -135t137 -49q112 0 167 95zM332 491q-80 0 -129.5 -47t-58.5 -127h355q-4 79 -46.5 126.5t-120.5 47.5zM470 655
h-274v59h274v-59z" />
    <glyph glyph-name="Ebreve" unicode="&#x114;" horiz-adv-x="657" 
d="M610 0h-528v730h526v-87h-430v-236h345v-75h-345v-244h432v-88zM363 837q47 0 71.5 27t25.5 76l60 -14q-2 -64 -42 -106.5t-118 -42.5q-81 0 -123.5 42.5t-42.5 106.5l62 14q1 -50 29 -76.5t78 -26.5z" />
    <glyph glyph-name="ebreve" unicode="&#x115;" horiz-adv-x="637" 
d="M501 166l81 -46q-32 -52 -93 -91q-59 -39 -154 -39q-139 0 -213 80t-74 206q0 124 77.5 209.5t206.5 85.5q125 0 193.5 -81t68.5 -205v-30h-452q6 -86 55 -135t137 -49q112 0 167 95zM332 491q-80 0 -129.5 -47t-58.5 -127h355q-4 79 -46.5 126.5t-120.5 47.5zM342 691
q96 0 97 109l60 -14q-1 -64 -40 -110q-37 -45 -121 -45q-81 0 -123 43t-42 112l62 14q1 -109 107 -109z" />
    <glyph glyph-name="Edotaccent" unicode="&#x116;" horiz-adv-x="657" 
d="M610 0h-528v730h526v-87h-430v-236h345v-75h-345v-244h432v-88zM292 850q0 28 17 46t47 18q29 0 46 -18t17 -46t-17 -45.5t-46 -17.5q-30 0 -47 17.5t-17 45.5z" />
    <glyph glyph-name="edotaccent" unicode="&#x117;" horiz-adv-x="637" 
d="M501 166l81 -46q-32 -52 -93 -91q-59 -39 -154 -39q-139 0 -213 80t-74 206q0 124 77.5 209.5t206.5 85.5q125 0 193.5 -81t68.5 -205v-30h-452q6 -86 55 -135t137 -49q112 0 167 95zM332 491q-80 0 -129.5 -47t-58.5 -127h355q-4 79 -46.5 126.5t-120.5 47.5zM269 713
q0 30 17.5 48.5t49.5 18.5q30 0 48.5 -18.5t18.5 -48.5q0 -29 -18.5 -47.5t-48.5 -18.5q-32 0 -49.5 18t-17.5 48z" />
    <glyph glyph-name="Eogonek" unicode="&#x118;" horiz-adv-x="657" 
d="M551 0h-469v730h526v-87h-430v-236h345v-75h-345v-244h432v-88q-104 -64 -104 -133q0 -51 63 -51q23 0 40 4l-8 -59q-26 -6 -49 -6q-51 0 -80.5 23.5t-29.5 66.5q0 85 109 155z" />
    <glyph glyph-name="eogonek" unicode="&#x119;" horiz-adv-x="637" 
d="M537 -147l-8 -59q-25 -6 -49 -6q-51 0 -80.5 23.5t-29.5 66.5q0 55 62 127q-47 -15 -97 -15q-139 0 -213 80t-74 206q0 124 77.5 209.5t206.5 85.5q125 0 193.5 -81t68.5 -205v-30h-452q6 -86 55 -135t137 -49q112 0 167 95l81 -46q-15 -23 -50.5 -61.5t-40.5 -45.5
q-57 -66 -57 -113q0 -51 63 -51q23 0 40 4zM332 491q-80 0 -129.5 -47t-58.5 -127h355q-4 79 -46.5 126.5t-120.5 47.5z" />
    <glyph glyph-name="Ecaron" unicode="&#x11a;" horiz-adv-x="657" 
d="M610 0h-528v730h526v-87h-430v-236h345v-75h-345v-244h432v-88zM528 924l-151 -145h-43l-151 145l43 39l130 -125l133 125z" />
    <glyph glyph-name="ecaron" unicode="&#x11b;" horiz-adv-x="637" 
d="M501 166l81 -46q-32 -52 -93 -91q-59 -39 -154 -39q-139 0 -213 80t-74 206q0 124 77.5 209.5t206.5 85.5q125 0 193.5 -81t68.5 -205v-30h-452q6 -86 55 -135t137 -49q112 0 167 95zM332 491q-80 0 -129.5 -47t-58.5 -127h355q-4 79 -46.5 126.5t-120.5 47.5zM174 779
l48 39l110 -127l115 127l44 -39l-138 -150h-43z" />
    <glyph glyph-name="Gcircumflex" unicode="&#x11c;" horiz-adv-x="804" 
d="M150 354q0 -123 65 -201t180 -78q103 0 166.5 59t75.5 176h-260v72h356v-382h-95v106l3 94q-26 -104 -94.5 -157t-173.5 -53q-150 0 -236 103t-86 255q0 176 99 283.5t264 107.5q123 0 198 -51q74 -48 122 -133l-87 -55q-37 78 -91.5 114t-145.5 36q-116 0 -188 -78
q-72 -76 -72 -218zM243 812l151 145h43l151 -145l-43 -39l-131 125l-132 -125z" />
    <glyph glyph-name="gcircumflex" unicode="&#x11d;" horiz-adv-x="680" 
d="M298 -3q-106 0 -178 74t-72 209t75.5 212t181.5 77q146 0 201 -132v123h96v-498q0 -150 -75 -225.5t-210 -75.5q-173 0 -256 125l87 52q60 -92 175 -92q183 0 183 212v73q-30 -64 -85 -99t-123 -35zM331 78q89 0 135.5 56.5t46.5 146.5q0 93 -46.5 150.5t-137.5 57.5
q-82 0 -132 -56.5t-50 -151.5q0 -96 50 -149.5t134 -53.5zM510 650l-49 -39l-110 127l-114 -127l-45 39l138 150h43z" />
    <glyph glyph-name="Gbreve" unicode="&#x11e;" horiz-adv-x="804" 
d="M150 354q0 -123 65 -201t180 -78q103 0 166.5 59t75.5 176h-260v72h356v-382h-95v106l3 94q-26 -104 -94.5 -157t-173.5 -53q-150 0 -236 103t-86 255q0 176 99 283.5t264 107.5q123 0 198 -51q74 -48 122 -133l-87 -55q-37 78 -91.5 114t-145.5 36q-116 0 -188 -78
q-72 -76 -72 -218zM420 837q47 0 71.5 27t25.5 76l60 -14q-2 -64 -42 -106.5t-118 -42.5q-81 0 -123.5 42.5t-42.5 106.5l62 14q1 -50 29 -76.5t78 -26.5z" />
    <glyph glyph-name="gbreve" unicode="&#x11f;" horiz-adv-x="680" 
d="M298 -3q-106 0 -178 74t-72 209t75.5 212t181.5 77q146 0 201 -132v123h96v-498q0 -150 -75 -225.5t-210 -75.5q-173 0 -256 125l87 52q60 -92 175 -92q183 0 183 212v73q-30 -64 -85 -99t-123 -35zM331 78q89 0 135.5 56.5t46.5 146.5q0 93 -46.5 150.5t-137.5 57.5
q-82 0 -132 -56.5t-50 -151.5q0 -96 50 -149.5t134 -53.5zM356 691q96 0 97 109l60 -14q-1 -64 -40 -110q-37 -45 -121 -45q-81 0 -123 43t-42 112l62 14q1 -109 107 -109z" />
    <glyph glyph-name="Gdotaccent" unicode="&#x120;" horiz-adv-x="804" 
d="M150 354q0 -123 65 -201t180 -78q103 0 166.5 59t75.5 176h-260v72h356v-382h-95v106l3 94q-26 -104 -94.5 -157t-173.5 -53q-150 0 -236 103t-86 255q0 176 99 283.5t264 107.5q123 0 198 -51q74 -48 122 -133l-87 -55q-37 78 -91.5 114t-145.5 36q-116 0 -188 -78
q-72 -76 -72 -218zM349 850q0 28 17 46t47 18q29 0 46 -18t17 -46t-17 -45.5t-46 -17.5q-30 0 -47 17.5t-17 45.5z" />
    <glyph glyph-name="gdotaccent" unicode="&#x121;" horiz-adv-x="680" 
d="M298 -3q-106 0 -178 74t-72 209t75.5 212t181.5 77q146 0 201 -132v123h96v-498q0 -150 -75 -225.5t-210 -75.5q-173 0 -256 125l87 52q60 -92 175 -92q183 0 183 212v73q-30 -64 -85 -99t-123 -35zM331 78q89 0 135.5 56.5t46.5 146.5q0 93 -46.5 150.5t-137.5 57.5
q-82 0 -132 -56.5t-50 -151.5q0 -96 50 -149.5t134 -53.5zM280 713q0 30 17.5 48.5t49.5 18.5q30 0 48.5 -18.5t18.5 -48.5q0 -29 -18 -47.5t-49 -18.5q-32 0 -49.5 18t-17.5 48z" />
    <glyph glyph-name="Gcommaaccent" unicode="&#x122;" horiz-adv-x="804" 
d="M150 354q0 -123 65 -201t180 -78q103 0 166.5 59t75.5 176h-260v72h356v-382h-95v106l3 94q-26 -104 -94.5 -157t-173.5 -53q-150 0 -236 103t-86 255q0 176 99 283.5t264 107.5q123 0 198 -51q74 -48 122 -133l-87 -55q-37 78 -91.5 114t-145.5 36q-116 0 -188 -78
q-72 -76 -72 -218zM480 -130q0 -53 -31.5 -91t-87.5 -47l-17 54q76 6 86 52q-15 -3 -18 -3q-27 0 -43.5 16t-16.5 41q0 27 17 43.5t44 16.5q31 0 49 -21.5t18 -60.5z" />
    <glyph glyph-name="gcommaaccent" unicode="&#x123;" horiz-adv-x="680" 
d="M298 -3q-106 0 -178 74t-72 209t75.5 212t181.5 77q146 0 201 -132v123h96v-498q0 -150 -75 -225.5t-210 -75.5q-173 0 -256 125l87 52q60 -92 175 -92q183 0 183 212v73q-30 -64 -85 -99t-123 -35zM331 78q89 0 135.5 56.5t46.5 146.5q0 93 -46.5 150.5t-137.5 57.5
q-82 0 -132 -56.5t-50 -151.5q0 -96 50 -149.5t134 -53.5zM409 690q0 -27 -17 -43.5t-43 -16.5q-31 0 -49.5 21.5t-18.5 60.5q0 53 34 92t93 46l17 -54q-82 -4 -94 -52q15 3 18 3q27 0 43.5 -16t16.5 -41z" />
    <glyph glyph-name="Hcircumflex" unicode="&#x124;" horiz-adv-x="752" 
d="M179 0h-97v730h97v-323h395v323h97v-730h-97v333h-395v-333zM207 800l151 145h43l151 -145l-43 -39l-131 125l-132 -125z" />
    <glyph glyph-name="hcircumflex" unicode="&#x125;" horiz-adv-x="663" 
d="M176 0h-97v796h96v-381q27 76 81.5 116t128.5 40q103 0 154 -66t51 -170v-335h-96v313q0 77 -32 127t-115 50q-76 0 -123.5 -58t-47.5 -163v-269zM-41 838l151 145h43l151 -145l-43 -39l-131 125l-132 -125z" />
    <glyph glyph-name="Hbar" unicode="&#x126;" horiz-adv-x="775" 
d="M190 0h-97v512h-87v72h87v146h97v-151h395v151h97v-146h88v-72h-88v-512h-97v305h-395v-305zM190 516v-136h395v136h-395z" />
    <glyph glyph-name="hbar" unicode="&#x127;" horiz-adv-x="670" 
d="M183 0h-97v634h-93v58h93v104h96v-104h144v-58h-144v-219q27 76 81.5 116t128.5 40q103 0 154 -66t51 -170v-335h-96v313q0 77 -32 127t-115 50q-76 0 -123.5 -58t-47.5 -163v-269z" />
    <glyph glyph-name="Itilde" unicode="&#x128;" horiz-adv-x="265" 
d="M181 0h-97v730h97v-730zM72 877q-39 0 -39 -63v-21l-58 8v11q0 61 25.5 94t64.5 33q29 0 56.5 -21t50.5 -42t42 -21q35 0 35 63v21l59 -8v-11q0 -61 -25.5 -94t-63.5 -33q-29 0 -56.5 21t-50.5 42t-40 21z" />
    <glyph glyph-name="itilde" unicode="&#x129;" horiz-adv-x="256" 
d="M80 560h97v-560h-97v560zM64 717q-39 0 -39 -64v-19l-58 8v11q0 60 25.5 93t64.5 33q29 0 56 -20.5t50 -41t42 -20.5q36 0 36 67v15l59 -8v-13q0 -60 -25.5 -92t-63.5 -32q-29 0 -56.5 21t-50.5 41.5t-40 20.5z" />
    <glyph glyph-name="Imacron" unicode="&#x12a;" horiz-adv-x="265" 
d="M181 0h-97v730h97v-730zM270 820h-274v58h274v-58z" />
    <glyph glyph-name="imacron" unicode="&#x12b;" horiz-adv-x="256" 
d="M80 560h97v-560h-97v560zM262 655h-274v59h274v-59z" />
    <glyph glyph-name="Ibreve" unicode="&#x12c;" horiz-adv-x="265" 
d="M181 0h-97v730h97v-730zM140 837q47 0 71.5 27t25.5 76l60 -14q-2 -64 -42 -106.5t-118 -42.5q-81 0 -123.5 42.5t-42.5 106.5l62 14q1 -50 29 -76.5t78 -26.5z" />
    <glyph glyph-name="ibreve" unicode="&#x12d;" horiz-adv-x="256" 
d="M80 560h97v-560h-97v560zM134 691q96 0 97 109l60 -14q-1 -64 -40 -110q-37 -45 -121 -45q-81 0 -123 43t-42 112l62 14q1 -109 107 -109z" />
    <glyph glyph-name="Iogonek" unicode="&#x12e;" horiz-adv-x="265" 
d="M123 0h-38v730h97v-730q-104 -64 -104 -133q0 -51 63 -51q23 0 40 4l-8 -59q-26 -6 -49 -6q-51 0 -80.5 23.5t-29.5 66.5q-1 85 109 155z" />
    <glyph glyph-name="iogonek" unicode="&#x12f;" horiz-adv-x="256" 
d="M63 713q0 30 17.5 48.5t49.5 18.5q30 0 48.5 -18.5t18.5 -48.5q0 -29 -18.5 -47.5t-48.5 -18.5q-32 0 -49.5 18t-17.5 48zM119 -245q-51 0 -80.5 23.5t-29.5 66.5q0 85 109 155h-38v560h97v-560q-104 -64 -104 -133q0 -51 63 -51q23 0 40 4l-8 -59q-26 -6 -49 -6z" />
    <glyph glyph-name="Idot" unicode="&#x130;" horiz-adv-x="265" 
d="M181 0h-97v730h97v-730zM70 850q0 28 17 46t47 18q29 0 46 -18t17 -46t-17 -45.5t-46 -17.5q-30 0 -47 17.5t-17 45.5z" />
    <glyph glyph-name="dotlessi" unicode="&#x131;" horiz-adv-x="256" 
d="M80 560h97v-560h-97v560z" />
    <glyph glyph-name="IJ" unicode="&#x132;" horiz-adv-x="653" 
d="M484 262v468h97v-472q0 -123 -61.5 -195.5t-176.5 -72.5q-188 0 -272 164l87 56q57 -135 181 -135q70 0 107.5 47.5t37.5 139.5zM172 730v-432h-97v432h97z" />
    <glyph glyph-name="ij" unicode="&#x133;" horiz-adv-x="509" 
d="M63 713q0 30 17.5 48.5t49.5 18.5q30 0 48.5 -18.5t18.5 -48.5q0 -29 -18.5 -47.5t-48.5 -18.5q-32 0 -49.5 18t-17.5 48zM80 560h97v-560h-97v560zM316 713q0 30 17.5 48.5t49.5 18.5q30 0 48.5 -18.5t18.5 -48.5q0 -29 -18 -47.5t-49 -18.5q-32 0 -49.5 18t-17.5 48z
M235 -216h-21v88h18q57 0 79 26.5t22 92.5v569h97v-563q0 -109 -41 -161q-40 -52 -154 -52z" />
    <glyph glyph-name="Jcircumflex" unicode="&#x134;" horiz-adv-x="615" 
d="M288 -10q-219 0 -262 213l93 29q16 -80 57.5 -118.5t110.5 -38.5q158 0 158 209v446h97v-457q0 -129 -66.5 -206t-187.5 -77zM323 812l151 145h43l151 -145l-43 -39l-131 125l-132 -125z" />
    <glyph glyph-name="jcircumflex" unicode="&#x135;" horiz-adv-x="253" 
d="M-18 -216h-21v88h18q57 0 79 26.5t22 92.5v569h97v-563q0 -109 -41 -161q-40 -52 -154 -52zM284 650l-49 -39l-110 127l-114 -127l-45 39l138 150h43z" />
    <glyph glyph-name="Kcommaaccent" unicode="&#x136;" horiz-adv-x="696" 
d="M179 0h-97v730h97v-450l373 450h117l-268 -316l294 -414h-115l-253 364l-148 -171v-193zM437 -116q0 -53 -31.5 -91t-87.5 -47l-17 54q76 6 86 52q-15 -3 -18 -3q-27 0 -43.5 16t-16.5 41q0 27 17 43.5t44 16.5q31 0 49 -21.5t18 -60.5z" />
    <glyph glyph-name="kcommaaccent" unicode="&#x137;" horiz-adv-x="596" 
d="M79 796h97v-572l291 336h114l-221 -252l233 -308h-117l-195 268l-105 -116v-152h-97v796zM385 -122q0 -53 -31.5 -91t-87.5 -47l-17 54q76 6 86 52q-15 -3 -18 -3q-27 0 -43.5 16t-16.5 41q0 27 17 43.5t44 16.5q31 0 49 -21.5t18 -60.5z" />
    <glyph glyph-name="kgreenlandic" unicode="&#x138;" horiz-adv-x="600" 
d="M78 560h97v-342l296 342h114l-221 -252l233 -308h-117l-195 268l-110 -122v-146h-97v560z" />
    <glyph glyph-name="Lacute" unicode="&#x139;" horiz-adv-x="605" 
d="M568 0h-486v730h97v-641h389v-89zM304 918l-208 -140l-32 44l198 153z" />
    <glyph glyph-name="lacute" unicode="&#x13a;" horiz-adv-x="255" 
d="M79 796h97v-796h-97v796zM300 955l-208 -140l-32 44l198 153z" />
    <glyph glyph-name="Lcommaaccent" unicode="&#x13b;" horiz-adv-x="605" 
d="M568 0h-486v730h97v-641h389v-89zM411 -130q0 -53 -31.5 -91t-87.5 -47l-17 54q76 6 86 52q-15 -3 -18 -3q-27 0 -43.5 16t-16.5 41q0 27 17 43.5t44 16.5q31 0 49 -21.5t18 -60.5z" />
    <glyph glyph-name="lcommaaccent" unicode="&#x13c;" horiz-adv-x="255" 
d="M79 796h97v-796h-97v796zM195 -130q0 -53 -31.5 -91t-87.5 -47l-17 54q76 6 86 52q-15 -3 -18 -3q-27 0 -43.5 16t-16.5 41q0 27 17 43.5t44 16.5q31 0 49 -21.5t18 -60.5z" />
    <glyph glyph-name="Lcaron" unicode="&#x13d;" horiz-adv-x="605" 
d="M568 0h-486v730h97v-641h389v-89zM328 726l71 13q9 -38 9 -70q0 -86 -42 -175l-51 18q27 68 27 127q0 39 -14 87z" />
    <glyph glyph-name="lcaron" unicode="&#x13e;" horiz-adv-x="291" 
d="M79 796h97v-796h-97v796zM254 792l71 13q9 -38 9 -70q0 -86 -42 -175l-51 18q27 68 27 127q0 39 -14 87z" />
    <glyph glyph-name="Ldot" unicode="&#x13f;" horiz-adv-x="605" 
d="M568 0h-486v730h97v-641h389v-89zM331 427q0 30 17.5 48.5t49.5 18.5q30 0 48.5 -18.5t18.5 -48.5q0 -29 -18.5 -47.5t-48.5 -18.5q-32 0 -49.5 18t-17.5 48z" />
    <glyph glyph-name="ldot" unicode="&#x140;" horiz-adv-x="332" 
d="M79 796h97v-796h-97v796zM228 386q0 30 17.5 48.5t49.5 18.5q30 0 48.5 -18.5t18.5 -48.5t-18 -48t-49 -18q-32 0 -49.5 18t-17.5 48z" />
    <glyph glyph-name="Lslash" unicode="&#x141;" horiz-adv-x="617" 
d="M580 0h-486v320l-88 -44v71l88 43v340h97v-309l180 89v-71l-180 -88v-262h389v-89z" />
    <glyph glyph-name="lslash" unicode="&#x142;" horiz-adv-x="281" 
d="M92 796h97v-349l91 48v-68l-91 -47v-380h-97v345l-91 -47v68l91 47v383z" />
    <glyph glyph-name="Nacute" unicode="&#x143;" horiz-adv-x="753" 
d="M168 643l7 -91v-552h-93v730h116l343 -551l41 -80l-4 89v542h94v-730h-110l-350 566zM553 905l-208 -140l-32 44l198 153z" />
    <glyph glyph-name="nacute" unicode="&#x144;" horiz-adv-x="662" 
d="M175 0h-97v560h96v-144q28 75 81.5 115t126.5 40q102 0 155 -66q52 -65 52 -170v-335h-96v313q0 177 -149 177q-77 0 -123 -58t-46 -163v-269zM487 785l-173 -169l-39 38l164 177z" />
    <glyph glyph-name="Ncommaaccent" unicode="&#x145;" horiz-adv-x="753" 
d="M168 643l7 -91v-552h-93v730h116l343 -551l41 -80l-4 89v542h94v-730h-110l-350 566zM446 -119q0 -53 -31.5 -91t-87.5 -47l-17 54q76 6 86 52q-15 -3 -18 -3q-27 0 -43.5 16t-16.5 41q0 27 17 43.5t44 16.5q31 0 49 -21.5t18 -60.5z" />
    <glyph glyph-name="ncommaaccent" unicode="&#x146;" horiz-adv-x="662" 
d="M175 0h-97v560h96v-144q28 75 81.5 115t126.5 40q102 0 155 -66q52 -65 52 -170v-335h-96v313q0 177 -149 177q-77 0 -123 -58t-46 -163v-269zM403 -118q0 -53 -31.5 -91t-87.5 -47l-17 54q76 6 86 52q-15 -3 -18 -3q-27 0 -43.5 16t-16.5 41q0 27 17 43.5t44 16.5
q31 0 49 -21.5t18 -60.5z" />
    <glyph glyph-name="Ncaron" unicode="&#x147;" horiz-adv-x="753" 
d="M168 643l7 -91v-552h-93v730h116l343 -551l41 -80l-4 89v542h94v-730h-110l-350 566zM553 911l-151 -145h-43l-151 145l43 39l130 -125l133 125z" />
    <glyph glyph-name="ncaron" unicode="&#x148;" horiz-adv-x="662" 
d="M175 0h-97v560h96v-144q28 75 81.5 115t126.5 40q102 0 155 -66q52 -65 52 -170v-335h-96v313q0 177 -149 177q-77 0 -123 -58t-46 -163v-269zM176 779l48 39l110 -127l115 127l44 -39l-138 -150h-43z" />
    <glyph glyph-name="Eng" unicode="&#x14a;" horiz-adv-x="753" 
d="M672 730v-744q0 -100 -46 -150q-46 -52 -165 -52h-52v90h53q62 0 89 23.5t27 74.5v14l-366 582l-44 77l7 -91v-554h-93v730h116l340 -536l44 -86l-4 98v524h94z" />
    <glyph glyph-name="eng" unicode="&#x14b;" horiz-adv-x="662" 
d="M589 335v-341q0 -112 -42 -161t-155 -49h-43v87h39q60 0 82.5 25.5t22.5 91.5v325q0 77 -33 127t-116 50q-77 0 -123 -58t-46 -163v-269h-97v560h96v-144q56 155 208 155q102 0 155 -66q52 -65 52 -170z" />
    <glyph glyph-name="Omacron" unicode="&#x14c;" horiz-adv-x="798" 
d="M397 -10q-87 0 -155 30t-108.5 83t-61.5 119.5t-21 143.5q0 101 39.5 185t120 136.5t188.5 52.5q168 0 258.5 -106.5t90.5 -267.5q0 -102 -37.5 -185.5t-119 -137t-194.5 -53.5zM398 78q123 0 186.5 82t63.5 206q0 126 -63.5 206.5t-185.5 80.5q-117 0 -183 -82t-66 -205
q0 -125 62.5 -206.5t185.5 -81.5zM537 820h-274v58h274v-58z" />
    <glyph glyph-name="omacron" unicode="&#x14d;" horiz-adv-x="660" 
d="M330 -10q-133 0 -207.5 81t-74.5 209q0 125 77 208t206 83q131 0 206 -82t75 -209q0 -124 -76 -207t-206 -83zM330 72q93 0 138 59q46 58 46 149q0 96 -47.5 153t-135.5 57q-87 0 -135.5 -58.5t-48.5 -151.5q0 -96 46.5 -152t136.5 -56zM467 655h-274v59h274v-59z" />
    <glyph glyph-name="Obreve" unicode="&#x14e;" horiz-adv-x="798" 
d="M397 -10q-87 0 -155 30t-108.5 83t-61.5 119.5t-21 143.5q0 101 39.5 185t120 136.5t188.5 52.5q168 0 258.5 -106.5t90.5 -267.5q0 -102 -37.5 -185.5t-119 -137t-194.5 -53.5zM398 78q123 0 186.5 82t63.5 206q0 126 -63.5 206.5t-185.5 80.5q-117 0 -183 -82t-66 -205
q0 -125 62.5 -206.5t185.5 -81.5zM407 837q47 0 71.5 27t25.5 76l60 -14q-2 -64 -42 -106.5t-118 -42.5q-81 0 -123.5 42.5t-42.5 106.5l62 14q1 -50 29 -76.5t78 -26.5z" />
    <glyph glyph-name="obreve" unicode="&#x14f;" horiz-adv-x="660" 
d="M330 -10q-133 0 -207.5 81t-74.5 209q0 125 77 208t206 83q131 0 206 -82t75 -209q0 -124 -76 -207t-206 -83zM330 72q93 0 138 59q46 58 46 149q0 96 -47.5 153t-135.5 57q-87 0 -135.5 -58.5t-48.5 -151.5q0 -96 46.5 -152t136.5 -56zM338 691q96 0 97 109l60 -14
q-1 -64 -40 -110q-37 -45 -121 -45q-81 0 -123 43t-42 112l62 14q1 -109 107 -109z" />
    <glyph glyph-name="Ohungarumlaut" unicode="&#x150;" horiz-adv-x="798" 
d="M397 -10q-87 0 -155 30t-108.5 83t-61.5 119.5t-21 143.5q0 101 39.5 185t120 136.5t188.5 52.5q168 0 258.5 -106.5t90.5 -267.5q0 -102 -37.5 -185.5t-119 -137t-194.5 -53.5zM398 78q123 0 186.5 82t63.5 206q0 126 -63.5 206.5t-185.5 80.5q-117 0 -183 -82t-66 -205
q0 -125 62.5 -206.5t185.5 -81.5zM454 965l-121 -187l-45 25l106 193zM604 957l-127 -183l-44 27l110 187z" />
    <glyph glyph-name="ohungarumlaut" unicode="&#x151;" horiz-adv-x="660" 
d="M330 -10q-133 0 -207.5 81t-74.5 209q0 125 77 208t206 83q131 0 206 -82t75 -209q0 -124 -76 -207t-206 -83zM330 72q93 0 138 59q46 58 46 149q0 96 -47.5 153t-135.5 57q-87 0 -135.5 -58.5t-48.5 -151.5q0 -96 46.5 -152t136.5 -56zM371 834l-88 -213l-55 18l77 219z
M518 834l-88 -213l-55 18l77 219z" />
    <glyph glyph-name="OE" unicode="&#x152;" horiz-adv-x="1189" 
d="M376 -10q-155 0 -240 105.5t-85 267.5q0 161 90.5 269t237.5 108q101 0 165 -53q63 -52 95 -127v170h496v-88h-419v-235h334v-75h-334v-243h421v-89h-498v176q-35 -83 -101 -134.5t-162 -51.5zM395 78q118 0 183 83t65 205q0 125 -62 206t-185 81q-114 0 -179.5 -83
t-65.5 -204q0 -60 13.5 -110t41 -91t76 -64t113.5 -23z" />
    <glyph glyph-name="oe" unicode="&#x153;" horiz-adv-x="1063" 
d="M931 166l80 -46q-32 -53 -86 -91q-55 -39 -147 -39q-82 0 -144 45t-88 126q-26 -71 -85 -121t-150 -50q-121 0 -192 82t-71 208q0 124 73.5 207.5t195.5 83.5q89 0 148 -50t83 -122q30 78 92.5 125t142.5 47q116 0 178.5 -79.5t62.5 -210.5v-26h-443q6 -84 54 -134
t133 -50q110 0 163 95zM767 491q-79 -1 -127 -48.5t-57 -125.5h345q-4 82 -44.5 128t-116.5 46zM330 72q90 0 136.5 57.5t46.5 150.5q0 92 -45 150q-45 60 -138 60q-88 0 -135.5 -58t-47.5 -152q0 -96 46.5 -152t136.5 -56z" />
    <glyph glyph-name="Racute" unicode="&#x154;" horiz-adv-x="707" 
d="M334 289h-155v-289h-97v730h315q130 0 195 -55t65 -149q0 -85 -55 -137t-135 -65q55 -7 90 -32q49 -37 81 -159l34 -133h-103l-32 131q-24 99 -61.5 128.5t-141.5 29.5zM372 645h-193v-284h185q93 0 145 37.5t52 106.5q0 140 -189 140zM524 918l-208 -140l-32 44l198 153
z" />
    <glyph glyph-name="racute" unicode="&#x155;" horiz-adv-x="463" 
d="M339 568q64 0 106 -27l-31 -87q-41 28 -100 28q-61 0 -100 -52.5t-39 -153.5v-276h-97v560h96v-143q36 151 165 151zM404 785l-173 -169l-39 38l164 177z" />
    <glyph glyph-name="Rcommaaccent" unicode="&#x156;" horiz-adv-x="707" 
d="M334 289h-155v-289h-97v730h315q130 0 195 -55t65 -149q0 -85 -55 -137t-135 -65q55 -7 90 -32q49 -37 81 -159l34 -133h-103l-32 131q-24 99 -61.5 128.5t-141.5 29.5zM372 645h-193v-284h185q93 0 145 37.5t52 106.5q0 140 -189 140zM442 -115q0 -53 -31.5 -91
t-87.5 -47l-17 54q76 6 86 52q-15 -3 -18 -3q-27 0 -43.5 16t-16.5 41q0 27 17 43.5t44 16.5q31 0 49 -21.5t18 -60.5z" />
    <glyph glyph-name="rcommaaccent" unicode="&#x157;" horiz-adv-x="463" 
d="M339 568q64 0 106 -27l-31 -87q-41 28 -100 28q-61 0 -100 -52.5t-39 -153.5v-276h-97v560h96v-143q36 151 165 151zM195 -130q0 -53 -31.5 -91t-87.5 -47l-17 54q76 6 86 52q-15 -3 -18 -3q-27 0 -43.5 16t-16.5 41q0 27 17 43.5t44 16.5q31 0 49 -21.5t18 -60.5z" />
    <glyph glyph-name="Rcaron" unicode="&#x158;" horiz-adv-x="707" 
d="M334 289h-155v-289h-97v730h315q130 0 195 -55t65 -149q0 -85 -55 -137t-135 -65q55 -7 90 -32q49 -37 81 -159l34 -133h-103l-32 131q-24 99 -61.5 128.5t-141.5 29.5zM372 645h-193v-284h185q93 0 145 37.5t52 106.5q0 140 -189 140zM529 924l-151 -145h-43l-151 145
l43 39l130 -125l133 125z" />
    <glyph glyph-name="rcaron" unicode="&#x159;" horiz-adv-x="463" 
d="M339 568q64 0 106 -27l-31 -87q-41 28 -100 28q-61 0 -100 -52.5t-39 -153.5v-276h-97v560h96v-143q36 151 165 151zM96 779l48 39l110 -127l115 127l44 -39l-138 -150h-43z" />
    <glyph glyph-name="Sacute" unicode="&#x15a;" horiz-adv-x="659" 
d="M22 142l81 67q49 -67 108 -98t140 -31q77 0 120 35t43 90q0 27 -13 48t-30 33.5t-49.5 23t-56 15.5t-65.5 12q-48 9 -76.5 16t-66.5 22t-59 34t-36 51t-15 74q0 88 69.5 148t192.5 60q195 0 304 -153l-85 -64q-40 65 -93 96t-135 31q-78 0 -119 -34.5t-41 -85.5
q0 -26 12 -46t27 -31.5t48 -22t55 -15.5t67 -13q46 -8 75.5 -15t68 -22.5t60.5 -35t38 -52t16 -75.5q0 -95 -70 -155t-194 -60q-217 0 -321 153zM498 918l-208 -140l-32 44l198 153z" />
    <glyph glyph-name="sacute" unicode="&#x15b;" horiz-adv-x="562" 
d="M26 104l72 65q70 -99 197 -99q68 0 99 29q30 30 30 64q0 48 -54 63q-45 14 -139 29q-93 13 -138.5 47t-45.5 101q0 73 58 121q58 49 159 49q164 0 256 -120l-75 -63q-67 101 -185 101q-63 0 -94.5 -24.5t-31.5 -63.5t37 -56.5t127 -30.5q108 -17 161.5 -48t53.5 -105
t-59 -124t-161 -50q-181 0 -267 115zM427 785l-173 -169l-39 38l164 177z" />
    <glyph glyph-name="Scircumflex" unicode="&#x15c;" horiz-adv-x="659" 
d="M22 142l81 67q49 -67 108 -98t140 -31q77 0 120 35t43 90q0 27 -13 48t-30 33.5t-49.5 23t-56 15.5t-65.5 12q-48 9 -76.5 16t-66.5 22t-59 34t-36 51t-15 74q0 88 69.5 148t192.5 60q195 0 304 -153l-85 -64q-40 65 -93 96t-135 31q-78 0 -119 -34.5t-41 -85.5
q0 -26 12 -46t27 -31.5t48 -22t55 -15.5t67 -13q46 -8 75.5 -15t68 -22.5t60.5 -35t38 -52t16 -75.5q0 -95 -70 -155t-194 -60q-217 0 -321 153zM156 812l151 145h43l151 -145l-43 -39l-131 125l-132 -125z" />
    <glyph glyph-name="scircumflex" unicode="&#x15d;" horiz-adv-x="562" 
d="M26 104l72 65q70 -99 197 -99q68 0 99 29q30 30 30 64q0 48 -54 63q-45 14 -139 29q-93 13 -138.5 47t-45.5 101q0 73 58 121q58 49 159 49q164 0 256 -120l-75 -63q-67 101 -185 101q-63 0 -94.5 -24.5t-31.5 -63.5t37 -56.5t127 -30.5q108 -17 161.5 -48t53.5 -105
t-59 -124t-161 -50q-181 0 -267 115zM438 650l-49 -39l-110 127l-114 -127l-45 39l138 150h43z" />
    <glyph glyph-name="Scedilla" unicode="&#x15e;" horiz-adv-x="659" 
d="M22 142l81 67q49 -67 108 -98t140 -31q77 0 120 35t43 90q0 27 -13 48t-30 33.5t-49.5 23t-56 15.5t-65.5 12q-48 9 -76.5 16t-66.5 22t-59 34t-36 51t-15 74q0 88 69.5 148t192.5 60q195 0 304 -153l-85 -64q-40 65 -93 96t-135 31q-78 0 -119 -34.5t-41 -85.5
q0 -26 12 -46t27 -31.5t48 -22t55 -15.5t67 -13q46 -8 75.5 -15t68 -22.5t60.5 -35t38 -52t16 -75.5q0 -95 -70 -155t-194 -60h-14l-13 -40q13 1 27 1q48 0 75.5 -24.5t27.5 -64.5q0 -46 -34 -74.5t-93 -28.5q-68 0 -123 30l26 52q42 -27 94 -27q33 0 51.5 14.5t18.5 36.5
q0 44 -64 44q-33 0 -56 -9l-18 10l28 84q-166 19 -254 149z" />
    <glyph glyph-name="scedilla" unicode="&#x15f;" horiz-adv-x="562" 
d="M26 104l72 65q70 -99 197 -99q68 0 99 29q30 30 30 64q0 48 -54 63q-45 14 -139 29q-93 13 -138.5 47t-45.5 101q0 73 58 121q58 49 159 49q164 0 256 -120l-75 -63q-67 101 -185 101q-63 0 -94.5 -24.5t-31.5 -63.5t37 -56.5t127 -30.5q108 -17 161.5 -48t53.5 -105
t-59 -124t-161 -50h-9l-13 -40q13 1 27 1q48 0 75.5 -24.5t27.5 -64.5q0 -46 -34 -74.5t-93 -28.5q-68 0 -123 30l26 52q42 -27 94 -27q33 0 51.5 14.5t18.5 36.5q0 44 -64 44q-33 0 -56 -9l-18 10l28 84q-135 17 -205 111z" />
    <glyph glyph-name="Scaron" unicode="&#x160;" horiz-adv-x="659" 
d="M22 142l81 67q49 -67 108 -98t140 -31q77 0 120 35t43 90q0 27 -13 48t-30 33.5t-49.5 23t-56 15.5t-65.5 12q-48 9 -76.5 16t-66.5 22t-59 34t-36 51t-15 74q0 88 69.5 148t192.5 60q195 0 304 -153l-85 -64q-40 65 -93 96t-135 31q-78 0 -119 -34.5t-41 -85.5
q0 -26 12 -46t27 -31.5t48 -22t55 -15.5t67 -13q46 -8 75.5 -15t68 -22.5t60.5 -35t38 -52t16 -75.5q0 -95 -70 -155t-194 -60q-217 0 -321 153zM504 924l-151 -145h-43l-151 145l43 39l130 -125l133 125z" />
    <glyph glyph-name="scaron" unicode="&#x161;" horiz-adv-x="562" 
d="M26 104l72 65q70 -99 197 -99q68 0 99 29q30 30 30 64q0 48 -54 63q-45 14 -139 29q-93 13 -138.5 47t-45.5 101q0 73 58 121q58 49 159 49q164 0 256 -120l-75 -63q-67 101 -185 101q-63 0 -94.5 -24.5t-31.5 -63.5t37 -56.5t127 -30.5q108 -17 161.5 -48t53.5 -105
t-59 -124t-161 -50q-181 0 -267 115zM123 779l48 39l110 -127l115 127l44 -39l-138 -150h-43z" />
    <glyph glyph-name="Tcaron" unicode="&#x164;" horiz-adv-x="651" 
d="M277 644h-240v86h578v-86h-241v-644h-97v644zM500 924l-151 -145h-43l-151 145l43 39l130 -125l133 125z" />
    <glyph glyph-name="tcaron" unicode="&#x165;" horiz-adv-x="438" 
d="M398 88v-79q-40 -19 -94 -19q-84 0 -122 44.5t-38 136.5v309h-128v80h129v148l91 55v-203h162v-80h-162v-298q0 -59 21.5 -84t67.5 -25q33 0 73 15zM320 856l71 13q9 -38 9 -70q0 -86 -42 -175l-51 18q27 68 27 127q0 39 -14 87z" />
    <glyph glyph-name="Tbar" unicode="&#x166;" horiz-adv-x="651" 
d="M277 320h-167v63h167v261h-240v86h578v-86h-241v-261h167v-63h-167v-320h-97v320z" />
    <glyph glyph-name="tbar" unicode="&#x167;" horiz-adv-x="433" 
d="M31 268v58h113v154h-128v80h129v148l91 55v-203h162v-80h-162v-154h149v-58h-149v-86q0 -59 21.5 -84t67.5 -25q33 0 73 15v-79q-40 -19 -94 -19q-84 0 -122 44.5t-38 136.5v97h-113z" />
    <glyph glyph-name="Utilde" unicode="&#x168;" horiz-adv-x="728" 
d="M558 305v425h96v-431q0 -151 -78.5 -230t-213.5 -79q-140 0 -214 76.5t-74 232.5v431h97v-425q0 -225 191 -225q196 0 196 225zM304 865q-39 0 -39 -63v-21l-58 8v11q0 61 25.5 94t64.5 33q29 0 56.5 -21t50.5 -42t42 -21q35 0 35 63v21l59 -8v-11q0 -61 -25.5 -94
t-63.5 -33q-29 0 -56.5 21t-50.5 42t-40 21z" />
    <glyph glyph-name="utilde" unicode="&#x169;" horiz-adv-x="648" 
d="M474 560h96v-560h-96v141q-28 -74 -79.5 -113t-121.5 -39q-106 0 -155 64t-49 169v338h97v-313q0 -177 144 -177q73 0 118.5 58t45.5 161v271zM262 702q-39 0 -39 -64v-19l-58 8v11q0 60 25.5 93t64.5 33q29 0 56 -20.5t50 -41t42 -20.5q36 0 36 67v15l59 -8v-13
q0 -60 -25.5 -92t-63.5 -32q-29 0 -56.5 20.5t-50.5 41.5t-40 21z" />
    <glyph glyph-name="Umacron" unicode="&#x16a;" horiz-adv-x="728" 
d="M558 305v425h96v-431q0 -151 -78.5 -230t-213.5 -79q-140 0 -214 76.5t-74 232.5v431h97v-425q0 -225 191 -225q196 0 196 225zM502 808h-274v58h274v-58z" />
    <glyph glyph-name="umacron" unicode="&#x16b;" horiz-adv-x="648" 
d="M474 560h96v-560h-96v141q-28 -74 -79.5 -113t-121.5 -39q-106 0 -155 64t-49 169v338h97v-313q0 -177 144 -177q73 0 118.5 58t45.5 161v271zM460 640h-274v59h274v-59z" />
    <glyph glyph-name="Ubreve" unicode="&#x16c;" horiz-adv-x="728" 
d="M558 305v425h96v-431q0 -151 -78.5 -230t-213.5 -79q-140 0 -214 76.5t-74 232.5v431h97v-425q0 -225 191 -225q196 0 196 225zM372 825q47 0 71.5 27t25.5 76l60 -14q-2 -64 -42 -106.5t-118 -42.5q-81 0 -123.5 42.5t-42.5 106.5l62 14q1 -50 29 -76.5t78 -26.5z" />
    <glyph glyph-name="ubreve" unicode="&#x16d;" horiz-adv-x="648" 
d="M474 560h96v-560h-96v141q-28 -74 -79.5 -113t-121.5 -39q-106 0 -155 64t-49 169v338h97v-313q0 -177 144 -177q73 0 118.5 58t45.5 161v271zM330 676q96 0 97 109l60 -14q-1 -64 -40 -110q-37 -45 -121 -45q-81 0 -123 43t-42 112l62 14q1 -109 107 -109z" />
    <glyph glyph-name="Uring" unicode="&#x16e;" horiz-adv-x="728" 
d="M558 305v425h96v-431q0 -151 -78.5 -230t-213.5 -79q-140 0 -214 76.5t-74 232.5v431h97v-425q0 -225 191 -225q196 0 196 225zM364 761q-51 0 -85 33.5t-34 83.5t34 83.5t85 33.5t84.5 -33.5t33.5 -83.5t-33.5 -83.5t-84.5 -33.5zM364 808q30 0 48.5 19.5t18.5 50.5
t-18.5 50.5t-49.5 19.5q-30 0 -48 -19.5t-18 -50.5q0 -32 18.5 -51t48.5 -19z" />
    <glyph glyph-name="uring" unicode="&#x16f;" horiz-adv-x="648" 
d="M474 560h96v-560h-96v141q-28 -74 -79.5 -113t-121.5 -39q-106 0 -155 64t-49 169v338h97v-313q0 -177 144 -177q73 0 118.5 58t45.5 161v271zM323 602q-53 0 -88.5 35t-35.5 88t35.5 88t89.5 35q53 0 88 -35t35 -88t-35.5 -88t-88.5 -35zM323 651q31 0 51 19.5t20 54.5
q0 33 -20 53.5t-51 20.5q-32 0 -51.5 -20t-19.5 -54q0 -33 20 -53.5t51 -20.5z" />
    <glyph glyph-name="Uhungarumlaut" unicode="&#x170;" horiz-adv-x="728" 
d="M558 305v425h96v-431q0 -151 -78.5 -230t-213.5 -79q-140 0 -214 76.5t-74 232.5v431h97v-425q0 -225 191 -225q196 0 196 225zM419 953l-121 -187l-45 25l106 193zM569 945l-127 -183l-44 27l110 187z" />
    <glyph glyph-name="uhungarumlaut" unicode="&#x171;" horiz-adv-x="648" 
d="M474 560h96v-560h-96v141q-28 -74 -79.5 -113t-121.5 -39q-106 0 -155 64t-49 169v338h97v-313q0 -177 144 -177q73 0 118.5 58t45.5 161v271zM354 819l-88 -213l-55 18l77 219zM501 819l-88 -213l-55 18l77 219z" />
    <glyph glyph-name="Uogonek" unicode="&#x172;" horiz-adv-x="728" 
d="M466 -171l-9 -59q-24 -6 -48 -6q-51 0 -80.5 23.5t-29.5 66.5q0 82 90 136h-27q-140 0 -214 76.5t-74 232.5v431h97v-425q0 -225 191 -225q196 0 196 225v425h96v-431q0 -179 -111 -258q-19 -13 -62 -35t-62 -37q-56 -42 -56 -93t63 -51q20 0 40 4z" />
    <glyph glyph-name="uogonek" unicode="&#x173;" horiz-adv-x="648" 
d="M512 -245q-51 0 -80.5 23.5t-29.5 66.5q0 86 109 155h-37v141q-28 -74 -79.5 -113t-121.5 -39q-106 0 -155 64t-49 169v338h97v-313q0 -177 144 -177q73 0 118.5 58t45.5 161v271h96v-560q-104 -64 -104 -133q0 -51 63 -51q23 0 40 4l-8 -59q-25 -6 -49 -6z" />
    <glyph glyph-name="Wcircumflex" unicode="&#x174;" horiz-adv-x="1013" 
d="M494 624l-17 -82l-153 -542h-108l-182 730h106l125 -530l19 -97l20 97l151 530h89l147 -531l21 -100l21 101l142 530h104l-203 -730h-114l-151 543zM326 812l151 145h43l151 -145l-43 -39l-131 125l-132 -125z" />
    <glyph glyph-name="wcircumflex" unicode="&#x175;" horiz-adv-x="858" 
d="M427 467l-18 -69l-122 -398h-117l-145 560h100l101 -416l15 -83l20 83l129 416h76l123 -414l19 -87l17 86l111 415h98l-159 -560h-114l-117 400zM586 650l-49 -39l-110 127l-114 -127l-45 39l138 150h43z" />
    <glyph glyph-name="Ycircumflex" unicode="&#x176;" horiz-adv-x="650" 
d="M534 730h107l-269 -466v-264h-97v265l-264 465h108l175 -317l31 -66l33 66zM159 798l151 145h43l151 -145l-43 -39l-131 125l-132 -125z" />
    <glyph glyph-name="ycircumflex" unicode="&#x177;" horiz-adv-x="594" 
d="M483 560h100l-338 -776h-101l102 227l-234 549h100l156 -373l29 -86l31 87zM455 637l-49 -39l-110 127l-114 -127l-45 39l138 150h43z" />
    <glyph glyph-name="Ydieresis" unicode="&#x178;" horiz-adv-x="650" 
d="M534 730h107l-269 -466v-264h-97v265l-264 465h108l175 -317l31 -66l33 66zM168 828q0 28 16.5 45t45.5 17q28 0 45 -17.5t17 -44.5t-17 -44t-45 -17q-29 0 -45.5 16.5t-16.5 44.5zM368 828q0 28 16.5 45t45.5 17q28 0 45 -17.5t17 -44.5t-17 -44t-45 -17
q-29 0 -45.5 16.5t-16.5 44.5z" />
    <glyph glyph-name="Zacute" unicode="&#x179;" horiz-adv-x="640" 
d="M42 0v81l391 494l59 70h-439v85h540v-81l-374 -474l-77 -90h454v-85h-554zM493 918l-208 -140l-32 44l198 153z" />
    <glyph glyph-name="zacute" unicode="&#x17a;" horiz-adv-x="566" 
d="M518 560v-80l-375 -396h378v-84h-479v81l374 396h-367v83h469zM434 785l-173 -169l-39 38l164 177z" />
    <glyph glyph-name="Zdotaccent" unicode="&#x17b;" horiz-adv-x="640" 
d="M42 0v81l391 494l59 70h-439v85h540v-81l-374 -474l-77 -90h454v-85h-554zM259 850q0 28 17 46t47 18q29 0 46 -18t17 -46t-17 -45.5t-46 -17.5q-30 0 -47 17.5t-17 45.5z" />
    <glyph glyph-name="zdotaccent" unicode="&#x17c;" horiz-adv-x="566" 
d="M518 560v-80l-375 -396h378v-84h-479v81l374 396h-367v83h469zM220 713q0 30 17.5 48.5t49.5 18.5q30 0 48.5 -18.5t18.5 -48.5q0 -29 -18 -47.5t-49 -18.5q-32 0 -49.5 18t-17.5 48z" />
    <glyph glyph-name="Zcaron" unicode="&#x17d;" horiz-adv-x="640" 
d="M42 0v81l391 494l59 70h-439v85h540v-81l-374 -474l-77 -90h454v-85h-554zM494 924l-151 -145h-43l-151 145l43 39l130 -125l133 125z" />
    <glyph glyph-name="zcaron" unicode="&#x17e;" horiz-adv-x="566" 
d="M518 560v-80l-375 -396h378v-84h-479v81l374 396h-367v83h469zM126 779l48 39l110 -127l115 127l44 -39l-138 -150h-43z" />
    <glyph glyph-name="florin" unicode="&#x192;" horiz-adv-x="570" 
d="M162 -44l87 334h-156v58h171l57 215q25 93 63.5 135.5t111.5 42.5q40 0 74 -10v-82q-33 7 -64 7q-39 0 -59.5 -20.5t-33.5 -71.5l-57 -216h157v-58h-172l-87 -333q-23 -90 -63.5 -131.5t-116.5 -41.5q-41 0 -75 10v82q35 -7 65 -7q41 0 63.5 18.5t34.5 68.5z" />
    <glyph glyph-name="AEacute" unicode="&#x1fc;" horiz-adv-x="955" 
d="M121 0h-104l362 730h526v-87h-404l34 -236h285v-75h-274l36 -244h325v-88h-391l-25 168h-290zM422 630l-30 -65l-156 -325h244l-48 325zM740 918l-208 -140l-32 44l198 153z" />
    <glyph glyph-name="aeacute" unicode="&#x1fd;" horiz-adv-x="995" 
d="M859 166l81 -46q-80 -130 -231 -130q-105 0 -166 51q-59 52 -79 129q-26 -83 -93.5 -131.5t-150.5 -48.5q-87 0 -133 38.5t-46 101.5q0 85 73 126q52 32 176 57q83 19 114.5 36t31.5 53q0 39 -31 65t-94 26q-123 0 -169 -123l-87 30q34 83 98 127t149 44
q77 0 125.5 -35.5t64.5 -97.5q64 133 217 133q116 0 179.5 -81t63.5 -205v-30h-442q6 -85 54.5 -133.5t133.5 -48.5q108 0 161 93zM694 491q-77 0 -125.5 -47t-57.5 -127h346q-4 79 -45.5 126.5t-117.5 47.5zM246 64q81 0 138 58.5t57 152.5v45q-21 -35 -141 -63
q-86 -20 -123.5 -42.5t-37.5 -69.5q0 -38 27 -59.5t80 -21.5zM664 780l-173 -169l-39 38l164 177z" />
    <glyph glyph-name="Oslashacute" unicode="&#x1fe;" horiz-adv-x="798" 
d="M153 81l-92 -88l-47 53l96 89q-59 94 -59 231q0 101 39.5 185t120 136.5t188.5 52.5q158 0 250 -98l94 89l47 -52l-99 -92q57 -94 57 -221q0 -102 -37.5 -185.5t-119 -137t-194.5 -53.5q-155 0 -244 91zM149 366q0 -103 39 -172l392 385q-67 74 -181 74
q-116 0 -183 -82.5t-67 -204.5zM398 78q123 0 187 81.5t64 206.5q0 96 -35 162l-390 -383q65 -67 174 -67zM573 918l-208 -140l-32 44l198 153z" />
    <glyph glyph-name="oslashacute" unicode="&#x1ff;" horiz-adv-x="660" 
d="M132 62l-81 -70l-43 54l81 71q-41 68 -41 163q0 125 77 208t206 83q117 0 195 -73l79 70l44 -52l-81 -71q44 -71 44 -165q0 -124 -76 -207t-206 -83q-123 0 -198 72zM146 280q0 -64 18 -110l298 272q-47 49 -131 49q-91 0 -138 -60q-47 -61 -47 -151zM330 71q92 0 139 59
q46 58 46 150q0 60 -19 109l-296 -272q46 -46 130 -46zM481 785l-173 -169l-39 38l164 177z" />
    <glyph glyph-name="Scommaaccent" unicode="&#x218;" horiz-adv-x="659" 
d="M22 142l81 67q49 -67 108 -98t140 -31q77 0 120 35t43 90q0 27 -13 48t-30 33.5t-49.5 23t-56 15.5t-65.5 12q-48 9 -76.5 16t-66.5 22t-59 34t-36 51t-15 74q0 88 69.5 148t192.5 60q195 0 304 -153l-85 -64q-40 65 -93 96t-135 31q-78 0 -119 -34.5t-41 -85.5
q0 -26 12 -46t27 -31.5t48 -22t55 -15.5t67 -13q46 -8 75.5 -15t68 -22.5t60.5 -35t38 -52t16 -75.5q0 -95 -70 -155t-194 -60q-217 0 -321 153zM392 -130q0 -53 -31.5 -91t-87.5 -47l-17 54q76 6 86 52q-15 -3 -18 -3q-27 0 -43.5 16t-16.5 41q0 27 17 43.5t44 16.5
q31 0 49 -21.5t18 -60.5z" />
    <glyph glyph-name="scommaaccent" unicode="&#x219;" horiz-adv-x="562" 
d="M26 104l72 65q70 -99 197 -99q68 0 99 29q30 30 30 64q0 48 -54 63q-45 14 -139 29q-93 13 -138.5 47t-45.5 101q0 73 58 121q58 49 159 49q164 0 256 -120l-75 -63q-67 101 -185 101q-63 0 -94.5 -24.5t-31.5 -63.5t37 -56.5t127 -30.5q108 -17 161.5 -48t53.5 -105
t-59 -124t-161 -50q-181 0 -267 115zM343 -130q0 -53 -31.5 -91t-87.5 -47l-17 54q76 6 86 52q-15 -3 -18 -3q-27 0 -43.5 16t-16.5 41q0 27 17 43.5t44 16.5q31 0 49 -21.5t18 -60.5z" />
    <glyph glyph-name="Tcommaaccent" unicode="&#x21a;" horiz-adv-x="651" 
d="M277 644h-240v86h578v-86h-241v-644h-97v644zM395 -130q0 -53 -31.5 -91t-87.5 -47l-17 54q76 6 86 52q-15 -3 -18 -3q-27 0 -43.5 16t-16.5 41q0 27 17 43.5t44 16.5q31 0 49 -21.5t18 -60.5z" />
    <glyph glyph-name="tcommaaccent" unicode="&#x21b;" horiz-adv-x="438" 
d="M398 88v-79q-40 -19 -94 -19q-84 0 -122 44.5t-38 136.5v309h-128v80h129v148l91 55v-203h162v-80h-162v-298q0 -59 21.5 -84t67.5 -25q33 0 73 15zM341 -130q0 -53 -31.5 -91t-87.5 -47l-17 54q76 6 86 52q-15 -3 -18 -3q-27 0 -43.5 16t-16.5 41q0 27 17 43.5t44 16.5
q31 0 49 -21.5t18 -60.5z" />
    <glyph glyph-name="dotlessj" unicode="&#x237;" horiz-adv-x="257" 
d="M-18 -216h-21v88h18q57 0 79 26.5t22 92.5v569h97v-563q0 -109 -41 -161q-40 -52 -154 -52z" />
    <glyph glyph-name="circumflex" unicode="&#x2c6;" horiz-adv-x="345" 
d="M334 643l-49 -39l-110 127l-114 -127l-45 39l138 150h43z" />
    <glyph glyph-name="caron" unicode="&#x2c7;" horiz-adv-x="345" 
d="M17 772l48 39l110 -127l115 127l44 -39l-138 -150h-43z" />
    <glyph glyph-name="breve" unicode="&#x2d8;" horiz-adv-x="345" 
d="M180 684q96 0 97 109l60 -14q-1 -64 -40 -110q-37 -45 -121 -45q-81 0 -123 43t-42 112l62 14q1 -109 107 -109z" />
    <glyph glyph-name="dotaccent" unicode="&#x2d9;" horiz-adv-x="345" 
d="M96 713q0 30 17.5 48.5t49.5 18.5q30 0 48.5 -18.5t18.5 -48.5q0 -29 -18 -47.5t-49 -18.5q-32 0 -49.5 18t-17.5 48z" />
    <glyph glyph-name="ring" unicode="&#x2da;" horiz-adv-x="345" 
d="M173 605q-53 0 -88.5 35t-35.5 88t35.5 88t89.5 35q53 0 88 -35t35 -88t-35.5 -88t-88.5 -35zM173 654q31 0 51 20t20 54q0 33 -20 53.5t-51 20.5q-32 0 -51.5 -20t-19.5 -54q0 -33 20 -53.5t51 -20.5z" />
    <glyph glyph-name="ogonek" unicode="&#x2db;" horiz-adv-x="345" 
d="M201 -245q-51 0 -80.5 23.5t-29.5 66.5q0 87 119 161l49 -6q-104 -64 -104 -133q0 -51 63 -51q23 0 40 4l-8 -59q-26 -6 -49 -6z" />
    <glyph glyph-name="tilde" unicode="&#x2dc;" horiz-adv-x="362" 
d="M122 710q-39 0 -39 -64v-19l-58 8v11q0 60 25.5 93t64.5 33q29 0 56 -20.5t50 -41t42 -20.5q36 0 36 67v15l59 -8v-13q0 -60 -25.5 -92t-63.5 -32q-29 0 -56.5 20.5t-50.5 41.5t-40 21z" />
    <glyph glyph-name="hungarumlaut" unicode="&#x2dd;" horiz-adv-x="345" 
d="M183 827l-88 -213l-55 18l77 219zM330 827l-88 -213l-55 18l77 219z" />
    <glyph glyph-name="commaaccent" unicode="&#x326;" horiz-adv-x="345" 
d="M244 -130q0 -53 -31.5 -91t-87.5 -47l-17 54q76 6 86 52q-15 -3 -18 -3q-27 0 -43.5 16t-16.5 41q0 27 17 43.5t44 16.5q31 0 49 -21.5t18 -60.5z" />
    <glyph glyph-name="mu" unicode="&#x3bc;" horiz-adv-x="667" 
d="M283 -11q-74 0 -117 40l3 -245h-96v776h97v-316q0 -78 31 -127t115 -49q73 0 124 60q52 61 52 183v249h97v-560h-96v144q-63 -155 -210 -155z" />
    <glyph glyph-name="pi" unicode="&#x3c0;" horiz-adv-x="668" 
d="M456 131v346h-265v-477h-97v477h-80v83h621v-83h-82v-330q0 -45 14.5 -60t42.5 -15q19 0 42 7v-78q-27 -11 -70 -11q-53 0 -90 29q-36 30 -36 112z" />
    <glyph glyph-name="uni0E3F" unicode="&#xe3f;" horiz-adv-x="737" 
d="M331 0h-249v730h249v130h68v-130h12q124 0 184 -48t60 -133q0 -67 -41.5 -113t-114.5 -62q84 -10 131.5 -54.5t47.5 -122.5q0 -94 -69.5 -145.5t-199.5 -51.5h-10v-150h-68v150zM334 648h-155v-252h155v252zM560 527q0 121 -165 120v-251q84 1 124.5 36t40.5 95zM334 339
h-155v-256h155v256zM404 339h-9v-256q107 0 147 39q41 41 41 97q0 61 -42.5 90.5t-136.5 29.5z" />
    <glyph glyph-name="Wgrave" unicode="&#x1e80;" horiz-adv-x="1013" 
d="M494 624l-17 -82l-153 -542h-108l-182 730h106l125 -530l19 -97l20 97l151 530h89l147 -531l21 -100l21 101l142 530h104l-203 -730h-114l-151 543zM577 822l-33 -44l-207 140l41 57z" />
    <glyph glyph-name="wgrave" unicode="&#x1e81;" horiz-adv-x="858" 
d="M427 467l-18 -69l-122 -398h-117l-145 560h100l101 -416l15 -83l20 83l129 416h76l123 -414l19 -87l17 86l111 415h98l-159 -560h-114l-117 400zM493 654l-38 -38l-174 169l49 46z" />
    <glyph glyph-name="Wacute" unicode="&#x1e82;" horiz-adv-x="1013" 
d="M494 624l-17 -82l-153 -542h-108l-182 730h106l125 -530l19 -97l20 97l151 530h89l147 -531l21 -100l21 101l142 530h104l-203 -730h-114l-151 543zM676 918l-208 -140l-32 44l198 153z" />
    <glyph glyph-name="wacute" unicode="&#x1e83;" horiz-adv-x="858" 
d="M427 467l-18 -69l-122 -398h-117l-145 560h100l101 -416l15 -83l20 83l129 416h76l123 -414l19 -87l17 86l111 415h98l-159 -560h-114l-117 400zM577 785l-173 -169l-39 38l164 177z" />
    <glyph glyph-name="Wdieresis" unicode="&#x1e84;" horiz-adv-x="1013" 
d="M494 624l-17 -82l-153 -542h-108l-182 730h106l125 -530l19 -97l20 97l151 530h89l147 -531l21 -100l21 101l142 530h104l-203 -730h-114l-151 543zM338 842q0 28 16.5 45t45.5 17q28 0 45 -17.5t17 -44.5t-17 -44t-45 -17q-29 0 -45.5 16.5t-16.5 44.5zM538 842
q0 28 16.5 45t45.5 17q28 0 45 -17.5t17 -44.5t-17 -44t-45 -17q-29 0 -45.5 16.5t-16.5 44.5z" />
    <glyph glyph-name="wdieresis" unicode="&#x1e85;" horiz-adv-x="858" 
d="M427 467l-18 -69l-122 -398h-117l-145 560h100l101 -416l15 -83l20 83l129 416h76l123 -414l19 -87l17 86l111 415h98l-159 -560h-114l-117 400zM262 694q0 28 17.5 46.5t47.5 18.5q29 0 47 -18.5t18 -46.5t-17.5 -46t-47.5 -18t-47.5 18t-17.5 46zM465 694
q0 28 17.5 46.5t47.5 18.5q29 0 47 -18.5t18 -46.5t-17.5 -46t-47.5 -18t-47.5 18t-17.5 46z" />
    <glyph glyph-name="uni1E9E" unicode="&#x1e9e;" horiz-adv-x="743" 
d="M74 0v436q0 146 85 225t220 79q182 0 289 -131l-216 -214q131 -9 188.5 -66.5t57.5 -140.5q0 -87 -59 -143t-170 -56q-125 0 -209 58l54 85q67 -48 154 -48q67 0 105 32.5t38 91.5q0 58 -52 92.5t-185 36.5l-20 53l194 196q-69 63 -171 63q-96 0 -151 -57t-55 -170v-422
h-97z" />
    <glyph glyph-name="Ygrave" unicode="&#x1ef2;" horiz-adv-x="650" 
d="M534 730h107l-269 -466v-264h-97v265l-264 465h108l175 -317l31 -66l33 66zM404 808l-33 -44l-207 140l41 57z" />
    <glyph glyph-name="ygrave" unicode="&#x1ef3;" horiz-adv-x="594" 
d="M483 560h100l-338 -776h-101l102 227l-234 549h100l156 -373l29 -86l31 87zM361 641l-38 -38l-174 169l49 46z" />
    <glyph glyph-name="figuredash" unicode="&#x2012;" horiz-adv-x="718" 
d="M659 264h-599v75h599v-75z" />
    <glyph glyph-name="endash" unicode="&#x2013;" horiz-adv-x="657" 
d="M598 264h-538v75h538v-75z" />
    <glyph glyph-name="emdash" unicode="&#x2014;" horiz-adv-x="917" 
d="M858 264h-798v75h798v-75z" />
    <glyph glyph-name="uni2015" unicode="&#x2015;" horiz-adv-x="917" 
d="M858 264h-798v75h798v-75z" />
    <glyph glyph-name="underscoredbl" unicode="&#x2017;" horiz-adv-x="515" 
d="M478 -118h-440v50h440v-50zM478 -233h-440v50h440v-50z" />
    <glyph glyph-name="quoteleft" unicode="&#x2018;" horiz-adv-x="268" 
d="M211 512q0 -32 -20.5 -53t-51.5 -21q-38 0 -60 25.5t-22 75.5q0 64 32.5 117.5t88.5 80.5l34 -65q-87 -34 -103 -97q16 7 31 7q33 0 52 -19.5t19 -50.5z" />
    <glyph glyph-name="quoteright" unicode="&#x2019;" horiz-adv-x="268" 
d="M129 594q-33 0 -52 19t-19 50q0 32 21 53t52 21q38 0 59.5 -25.5t21.5 -75.5q0 -64 -30 -117t-86 -80l-34 65q86 31 98 96q-14 -6 -31 -6z" />
    <glyph glyph-name="quotesinglbase" unicode="&#x201a;" horiz-adv-x="268" 
d="M211 37q0 -64 -32.5 -117.5t-88.5 -80.5l-34 65q87 32 103 96q-13 -6 -31 -6q-33 0 -52 19.5t-19 50.5q0 32 21 53t52 21q38 0 59.5 -25.5t21.5 -75.5z" />
    <glyph glyph-name="quotedblleft" unicode="&#x201c;" horiz-adv-x="463" 
d="M407 512q0 -32 -21 -53t-52 -21q-38 0 -59.5 25.5t-21.5 75.5q0 64 32.5 117.5t88.5 80.5l34 -65q-89 -34 -103 -97q16 7 31 7q33 0 52 -19.5t19 -50.5zM212 512q0 -32 -20.5 -53t-51.5 -21q-38 0 -60 25.5t-22 75.5q0 64 32.5 117.5t88.5 80.5l34 -65q-87 -34 -103 -97
q16 7 31 7q33 0 52 -19.5t19 -50.5z" />
    <glyph glyph-name="quotedblright" unicode="&#x201d;" horiz-adv-x="465" 
d="M211 636q0 -63 -32.5 -116.5t-88.5 -80.5l-34 65q87 32 103 96q-14 -6 -31 -6q-33 0 -52 19t-19 50q0 32 21 53t52 21q38 0 59.5 -25.5t21.5 -75.5zM287 439l-34 65q87 33 102 96q-13 -6 -30 -6q-33 0 -52 19t-19 50q0 32 20.5 53t51.5 21q38 0 60 -25.5t22 -75.5
q0 -63 -32.5 -116.5t-88.5 -80.5z" />
    <glyph glyph-name="quotedblbase" unicode="&#x201e;" horiz-adv-x="465" 
d="M211 37q0 -64 -32.5 -117.5t-88.5 -80.5l-34 65q87 32 103 96q-13 -6 -31 -6q-33 0 -52 19.5t-19 50.5q0 32 21 53t52 21q38 0 59.5 -25.5t21.5 -75.5zM408 37q0 -64 -32.5 -117.5t-88.5 -80.5l-34 65q87 33 102 96q-13 -6 -30 -6q-33 0 -52 19.5t-19 50.5q0 32 20.5 53
t51.5 21q38 0 60 -25.5t22 -75.5z" />
    <glyph glyph-name="dagger" unicode="&#x2020;" horiz-adv-x="409" 
d="M248 455v-529h-87v529h-140v74h140v247h87v-247h141v-74h-141z" />
    <glyph glyph-name="daggerdbl" unicode="&#x2021;" horiz-adv-x="409" 
d="M161 161h-140v74h140v260h-140v74h140v207h87v-207h141v-74h-141v-260h141v-74h-141v-235h-87v235z" />
    <glyph glyph-name="bullet" unicode="&#x2022;" horiz-adv-x="333" 
d="M166 206q-40 0 -68 28t-28 69t28 68.5t68 27.5t68.5 -27.5t28.5 -68.5t-28.5 -69t-68.5 -28z" />
    <glyph glyph-name="ellipsis" unicode="&#x2026;" horiz-adv-x="672" 
d="M132 -8q-33 0 -53.5 20t-20.5 52q0 31 20.5 52t53.5 21q32 0 52.5 -21t20.5 -52q0 -32 -20 -52t-53 -20zM336 -8q-33 0 -53 20t-20 52q0 31 20.5 52t52.5 21q33 0 53.5 -21t20.5 -52q0 -32 -20.5 -52t-53.5 -20zM541 -8q-33 0 -53.5 20t-20.5 52q0 31 20.5 52t53.5 21
q32 0 52.5 -21t20.5 -52q0 -32 -20 -52t-53 -20z" />
    <glyph glyph-name="perthousand" unicode="&#x2030;" horiz-adv-x="1224" 
d="M439 423l237 318l78 -71l-283 -275zM395 552q0 -93 -48.5 -143t-117.5 -50q-72 0 -120 48.5t-48 144.5q0 92 49 140t119 48t118 -47t48 -141zM138 551q0 -63 25 -94.5t66 -31.5q40 0 64.5 30.5t24.5 95.5q0 64 -24.5 93.5t-64.5 29.5q-41 0 -66 -30t-25 -93zM774 184
q0 -93 -48.5 -143t-117.5 -50q-72 0 -120 48.5t-48 144.5q0 93 48.5 141t119.5 48q70 0 118 -47.5t48 -141.5zM1163 184q0 -93 -48.5 -143t-117.5 -50q-72 0 -120 48.5t-48 144.5q0 93 48.5 141t119.5 48q70 0 118 -47.5t48 -141.5zM391 303l-231 -319l-80 72l280 275z
M517 184q0 -63 25 -95t66 -32q40 0 64.5 31t24.5 96q0 64 -24.5 93.5t-64.5 29.5q-41 0 -66 -30t-25 -93zM906 184q0 -63 25 -95t66 -32q40 0 64.5 31t24.5 96q0 64 -24.5 93.5t-64.5 29.5q-41 0 -66 -30t-25 -93z" />
    <glyph glyph-name="minute" unicode="&#x2032;" horiz-adv-x="200" 
d="M100 493h-55l42 237h84z" />
    <glyph glyph-name="second" unicode="&#x2033;" horiz-adv-x="336" 
d="M100 493h-55l42 237h84zM236 493h-55l41 237h84z" />
    <glyph glyph-name="guilsinglleft" unicode="&#x2039;" horiz-adv-x="284" 
d="M173 456h97l-161 -180l162 -182h-99l-161 178v6z" />
    <glyph glyph-name="guilsinglright" unicode="&#x203a;" horiz-adv-x="284" 
d="M273 278v-6l-162 -178h-97l160 180l-161 182h99z" />
    <glyph glyph-name="exclamdbl" unicode="&#x203c;" horiz-adv-x="458" 
d="M365 215h-36q0 24 -14 148.5t-15 153.5q-2 25 -4.5 58.5t-4 55.5t-1.5 35q0 38 15.5 56t40.5 18q56 0 56 -74q0 -32 -9 -149q-1 -29 -14.5 -153.5t-13.5 -148.5zM347 -8q-33 0 -53.5 20t-20.5 52q0 31 20.5 52t53.5 21q32 0 52.5 -21t20.5 -52q0 -32 -20 -52t-53 -20z
M150 215h-36q0 24 -14 148.5t-15 153.5q-2 25 -4.5 58.5t-4 55.5t-1.5 35q0 38 15.5 56t40.5 18q56 0 56 -74q0 -32 -9 -149q-1 -29 -14.5 -153.5t-13.5 -148.5zM132 -8q-33 0 -53.5 20t-20.5 52q0 31 20.5 52t53.5 21q32 0 52.5 -21t20.5 -52q0 -32 -20 -52t-53 -20z" />
    <glyph glyph-name="interrobang" unicode="&#x203d;" horiz-adv-x="559" 
d="M291 229v-9h-49l-6 431q-105 -17 -135 -144l-90 28q22 80 78.5 135t140.5 67l-1 97h78l-3 -95q101 -7 154 -65q53 -56 53 -131q0 -66 -35 -107q-33 -39 -75 -70q-47 -35 -76 -60q-34 -30 -34 -77zM296 653l-9 -331q13 21 38 45.5t44.5 42t35 48t15.5 67.5q0 56 -33 89
t-91 39zM265 -8q-33 0 -53.5 20t-20.5 52q0 31 20.5 52t53.5 21q32 0 52.5 -21t20.5 -52q0 -32 -20 -52t-53 -20z" />
    <glyph glyph-name="fraction" unicode="&#x2044;" horiz-adv-x="158" 
d="M90 425l167 318l91 -53l-221 -286zM68 307l-167 -319l-92 54l222 286z" />
    <glyph glyph-name="uni207A" unicode="&#x207a;" horiz-adv-x="256" 
d="M152 597v-91h-48v91h-86v45h86v77h48v-77h87v-45h-87z" />
    <glyph glyph-name="uni207B" unicode="&#x207b;" horiz-adv-x="266" 
d="M249 589h-231v46h231v-46z" />
    <glyph glyph-name="uni207C" unicode="&#x207c;" horiz-adv-x="266" 
d="M246 637h-231v46h231v-46zM246 517h-231v46h231v-46z" />
    <glyph glyph-name="uni207D" unicode="&#x207d;" horiz-adv-x="200" 
d="M67 592q0 -100 43 -168q44 -70 105 -119l-52 -60q-64 55 -102.5 149t-38.5 198q0 103 38.5 195t102.5 148l52 -59q-60 -48 -105 -118q-43 -67 -43 -166z" />
    <glyph glyph-name="uni207E" unicode="&#x207e;" horiz-adv-x="200" 
d="M133 592q0 98 -44 166q-46 71 -104 118l53 59q63 -55 102 -147.5t39 -195.5q0 -104 -38.5 -198t-102.5 -149l-53 60q61 49 105 119q43 68 43 168z" />
    <glyph glyph-name="uni208A" unicode="&#x208a;" horiz-adv-x="256" 
d="M149 140v-91h-48v91h-86v45h86v77h48v-77h87v-45h-87z" />
    <glyph glyph-name="uni208B" unicode="&#x208b;" horiz-adv-x="266" 
d="M246 132h-231v46h231v-46z" />
    <glyph glyph-name="uni208C" unicode="&#x208c;" horiz-adv-x="266" 
d="M243 180h-231v46h231v-46zM243 60h-231v46h231v-46z" />
    <glyph glyph-name="uni208D" unicode="&#x208d;" horiz-adv-x="200" 
d="M64 135q0 -100 43 -168q44 -70 105 -119l-52 -60q-64 55 -102.5 149t-38.5 198q0 103 38.5 195t102.5 148l52 -59q-60 -48 -105 -118q-43 -67 -43 -166z" />
    <glyph glyph-name="uni208E" unicode="&#x208e;" horiz-adv-x="200" 
d="M130 135q0 98 -44 166q-46 71 -104 118l53 59q63 -55 102 -147.5t39 -195.5q0 -104 -38.5 -198t-102.5 -149l-53 60q61 49 105 119q43 68 43 168z" />
    <glyph glyph-name="uni20A1" unicode="&#x20a1;" horiz-adv-x="782" 
d="M99 13l-41 31l60 82q-67 97 -67 239q0 155 97 265t259 110q78 0 146 -30l43 57l41 -29l-38 -52q25 -16 62 -45l42 56l41 -29l-428 -576q38 -12 85 -12q114 0 169 58q57 58 75 150l97 -18q-28 -129 -113.5 -204.5t-230.5 -75.5q-76 0 -139 25l-53 -72l-41 31l47 64
q-24 13 -60 47zM150 365q0 -89 31 -155l316 424q-50 16 -94 16q-120 0 -186.5 -82.5t-66.5 -202.5zM543 611l-333 -448q23 -28 58 -50l336 451q-34 30 -61 47z" />
    <glyph glyph-name="uni20A2" unicode="&#x20a2;" horiz-adv-x="782" 
d="M517 368q-57 0 -88.5 -55t-31.5 -163v-72h4q195 0 243 197l97 -19q-29 -124 -113.5 -195t-225.5 -71q-89 0 -158.5 31t-110.5 84.5t-61.5 119t-20.5 140.5q0 155 97 265t259 110q129 0 212.5 -69t115.5 -182l-98 -27q-47 188 -234 188q-120 0 -186.5 -82.5t-66.5 -202.5
q0 -104 45.5 -180.5t138.5 -99.5v335h63v-125q38 134 138 134q53 0 96 -32l-26 -59q-41 30 -88 30z" />
    <glyph glyph-name="franc" unicode="&#x20a3;" horiz-adv-x="661" 
d="M205 173v-173h-97v172h-100v57h100v501h503v-87h-406v-195h356v-63h-356v-157h222v-55h-222z" />
    <glyph glyph-name="lira" unicode="&#x20a4;" horiz-adv-x="673" 
d="M157 237h-119v48h114q-8 28 -34 78h-80v48h58q-18 44 -18 93q0 104 75 170t190 66q124 0 195.5 -69.5t81.5 -190.5l-96 -19q-6 92 -51 143t-127 51q-76 0 -126 -44q-48 -43 -48 -117q0 -39 16 -83h305v-48h-287q18 -50 21 -78h266v-48h-267q-10 -68 -63 -121q43 16 82 16
q45 0 117 -28t106 -28q41 0 64.5 26t34.5 88l81 -21q-15 -96 -63 -138.5t-110 -42.5q-53 0 -125 32t-108 32q-65 0 -168 -58l-38 74q119 67 121 169z" />
    <glyph glyph-name="uni20A6" unicode="&#x20a6;" horiz-adv-x="696" 
d="M608 0h-103l-147 280h-178v-280h-91v278h-81v53h81v75h-81v53h81v271h110l143 -273h175v273h91v-271h81v-53h-81v-75h81v-53h-81v-278zM180 629v-172h86zM180 407v-77h153l-41 77h-112zM368 407l40 -77h109v77h-149zM517 280h-83l83 -167v167z" />
    <glyph glyph-name="peseta" unicode="&#x20a7;" horiz-adv-x="728" 
d="M342 238h-154v-238h-97v445h-83v58h83v227h260q141 0 218 -60.5t79 -166.5h74v-58h-77q-15 -101 -96 -154t-207 -53zM346 642h-158v-141h371q-17 141 -213 141zM188 301h156q100 0 154.5 38t61.5 108h-372v-146z" />
    <glyph glyph-name="uni20A8" unicode="&#x20a8;" horiz-adv-x="1123" 
d="M301 298h-122v-298h-97v730h219q135 0 201.5 -52t66.5 -141q0 -81 -52 -134t-132 -68q83 -11 117 -48t52 -116l37 -171h-104l-32 156q-17 85 -50 112q-33 30 -104 30zM286 645h-107v-286h103q93 0 143.5 38t50.5 107t-44.5 105t-145.5 36zM1004 160q0 41 -35.5 61
t-128.5 36q-96 17 -141 50.5t-45 101.5q0 73 55 117.5t145 44.5q138 0 227 -112l-56 -63q-68 93 -173 93q-56 0 -85.5 -23t-29.5 -60q0 -42 32 -59q28 -15 116 -32q50 -9 82 -19t62.5 -27.5t45 -45t14.5 -66.5q0 -68 -52.5 -117t-152.5 -49q-156 0 -242 112l61 63
q64 -92 186 -92q57 0 86 24t29 62z" />
    <glyph glyph-name="uni20A9" unicode="&#x20a9;" horiz-adv-x="911" 
d="M681 0h-95l-62 287h-152l-65 -287h-97l-69 286h-112v52h100l-19 79h-81v52h68l-62 261h100l59 -262h161l63 262h69l57 -262h166l67 262h99l-70 -261h77v-52h-91l-21 -79h112v-52h-126zM452 643l-39 -175h73zM205 418l18 -81h100l20 81h-138zM496 418h-94l-19 -81h131z
M555 418l18 -81h104l20 81h-142zM312 287h-77l37 -180zM584 287l38 -185l42 185h-80z" />
    <glyph glyph-name="uni20AA" unicode="&#x20aa;" horiz-adv-x="856" 
d="M179 0h-97v730h472v-558h-61v504h-314v-676zM677 730h97v-730h-472v558h61v-504h314v676z" />
    <glyph glyph-name="Euro" unicode="&#x20ac;" horiz-adv-x="777" 
d="M183 321h272l-15 -53h-246q19 -86 76 -137t152 -51q181 0 221 206l93 -18q-28 -129 -107 -203.5t-211 -74.5q-138 0 -220 77t-104 201h-89v53h85q-1 13 -1 40q0 20 1 37h-85v53h89q25 127 111.5 208t217.5 81q120 0 197.5 -70.5t108.5 -198.5l-92 -26q-47 205 -218 205
q-91 0 -150 -57q-56 -55 -76 -142h290l-15 -53h-285q-1 -12 -1 -35q0 -25 1 -42z" />
    <glyph glyph-name="uni20AE" unicode="&#x20ae;" horiz-adv-x="651" 
d="M277 223l-146 -64l-16 44l162 74v72l-151 -67l-16 44l167 76v242h-240v86h578v-86h-241v-211l134 57l16 -45l-150 -66v-71l138 59l17 -45l-155 -68v-254h-97v223z" />
    <glyph glyph-name="uni20B1" unicode="&#x20b1;" horiz-adv-x="728" 
d="M722 436v-52h-95q-32 -72 -106.5 -109t-178.5 -37h-154v-238h-97v384h-83v52h83v71h-83v53h83v170h252q124 0 200 -45t97 -125h82v-53h-76q1 -41 -5 -71h81zM341 642h-153v-86h357q-44 86 -204 86zM567 468q0 24 -4 41h-375v-74h376q3 27 3 33zM188 300l156 -1
q159 1 202 88h-358v-87z" />
    <glyph glyph-name="indianrupee" unicode="&#x20b9;" horiz-adv-x="623" 
d="M591 730v-85h-114v-112h114v-63h-121q-14 -59 -64 -96.5t-125 -47.5q50 -8 82.5 -37t62.5 -82l117 -207h-106l-95 168q-45 80 -78.5 105t-110.5 25h-109v58h162q82 0 126.5 28t54.5 87h-343v60h345v114h-345v85h547z" />
    <glyph glyph-name="uni2116" unicode="&#x2116;" horiz-adv-x="1087" 
d="M859 307q-91 0 -142 58.5t-51 155.5q0 94 50 155q50 60 143 60t143 -60q50 -61 50 -155q0 -97 -51 -155.5t-142 -58.5zM176 617l1 -180v-437h-95v730h108l224 -436l83 -171l-2 189v418h96v-730h-104l-234 459zM749 521q0 -67 28 -103t82 -36t82 36t28 103t-28.5 103.5
t-82.5 36.5q-53 0 -81 -36.5t-28 -103.5zM907 229v-229h-97v229h97z" />
    <glyph glyph-name="published" unicode="&#x2117;" horiz-adv-x="870" 
d="M436 742q167 0 270 -108t103 -268t-103.5 -267.5t-270.5 -107.5t-270.5 107.5t-103.5 267.5t104 268t271 108zM437 65q136 0 213.5 83.5t77.5 218.5q0 136 -77.5 219t-214.5 83q-136 0 -215 -83.5t-79 -218.5t78.5 -218.5t216.5 -83.5zM451 315h-75v-118h-57v360h152
q65 0 100 -32t35 -85q0 -57 -39 -91t-116 -34zM468 508h-92v-153h76q99 0 99 80q0 34 -22 53.5t-61 19.5z" />
    <glyph glyph-name="servicemark" unicode="&#x2120;" horiz-adv-x="691" 
d="M18 472l40 42q43 -49 110 -49q63 0 63 44q0 20 -20.5 30.5t-68.5 17.5q-59 10 -86 30.5t-27 55.5q0 41 31.5 67t84.5 26q84 0 137 -59l-41 -39q-38 47 -98 47q-28 0 -44.5 -12t-16.5 -33q0 -19 17.5 -30t70.5 -20q59 -10 86.5 -29.5t27.5 -55.5q0 -40 -31.5 -65.5
t-85.5 -25.5q-46 0 -87 17t-62 41zM387 420h-59v310h72l80 -223l13 -38l14 38l80 223h71v-310h-59v172l3 74l-24 -74l-62 -172h-47l-61 172l-24 73l3 -73v-172z" />
    <glyph glyph-name="trademark" unicode="&#x2122;" horiz-adv-x="668" 
d="M107 677h-98v53h259v-53h-98v-257h-63v257zM364 420h-59v310h72l79 -221l14 -40l14 40l80 221h71v-310h-59v172l3 74l-24 -74l-62 -172h-47l-61 172l-24 73l3 -73v-172z" />
    <glyph glyph-name="ohm" unicode="&#x2126;" horiz-adv-x="780" 
d="M390 652q-118 0 -185 -78t-67 -190q0 -103 54 -181t160 -97v-106h-303v92h186q-93 35 -143.5 118t-50.5 187q0 143 94.5 243t254.5 100t254.5 -100t94.5 -243q0 -103 -51.5 -186.5t-143.5 -118.5h188v-92h-303v106q71 14 120.5 57t71.5 99t22 122q0 112 -67 190t-186 78z
" />
    <glyph glyph-name="estimated" unicode="&#x212e;" horiz-adv-x="708" 
d="M643 216l34 -13q-35 -100 -114.5 -155.5t-200.5 -55.5q-159 0 -249 89t-90 236q0 149 93.5 242t242.5 93q147 0 238.5 -94.5t91.5 -248.5v-20h-549v-181q80 -82 221 -82q206 0 282 190zM359 618q-137 0 -219 -87v-206h435v203q-79 90 -216 90z" />
    <glyph glyph-name="uni2153" unicode="&#x2153;" horiz-adv-x="846" 
d="M486 79l62 43q32 -60 114 -60q42 0 65 20t23 52q0 67 -99 67h-66v40h59q91 0 91 67q0 31 -22 49t-57 18q-68 0 -97 -67l-63 31q24 48 67 74t97 26q62 0 103.5 -30t41.5 -82q0 -38 -23.5 -64.5t-63.5 -38.5q99 -19 99 -106q0 -55 -42.5 -89.5t-111.5 -34.5q-128 0 -177 85
zM404 425l167 318l91 -53l-221 -286zM382 307l-167 -319l-91 54l221 286zM126 730h76v-433h-78v346q-27 -80 -108 -80h-6v78h3q111 0 113 89z" />
    <glyph glyph-name="uni2154" unicode="&#x2154;" horiz-adv-x="953" 
d="M188 736q69 0 107 -36t38 -90q0 -45 -27.5 -83.5t-87.5 -82.5q-79 -58 -109 -76h237v-71h-316v70q106 70 153 110q44 37 60.5 64t16.5 58q0 33 -19 52.5t-54 19.5q-73 0 -95 -86l-70 30q21 60 66 90.5t100 30.5zM586 79l62 43q32 -60 114 -60q42 0 65 20t23 52
q0 67 -99 67h-66v40h59q91 0 91 67q0 31 -22 49t-57 18q-68 0 -97 -67l-63 31q24 48 67 74t97 26q62 0 103.5 -30t41.5 -82q0 -38 -23.5 -64.5t-63.5 -38.5q99 -19 99 -106q0 -55 -42.5 -89.5t-111.5 -34.5q-128 0 -177 85zM504 425l167 318l91 -53l-221 -286zM482 307
l-167 -319l-91 54l221 286z" />
    <glyph glyph-name="partialdiff" unicode="&#x2202;" horiz-adv-x="646" 
d="M340 657q-104 0 -156 -113l-82 42q40 82 107 119t136 37q122 0 186.5 -87.5t64.5 -235.5q0 -192 -82.5 -310.5t-227.5 -118.5q-109 0 -175.5 67.5t-66.5 167.5q0 107 68 172.5t176 65.5q64 0 120 -33.5t92 -95.5q4 33 4 79q0 120 -42.5 182t-121.5 62zM134 237
q0 -71 43 -115.5t115 -44.5q74 0 123 49t72 135q-26 71 -77.5 107t-109.5 36q-78 0 -122 -44t-44 -123z" />
    <glyph glyph-name="increment" unicode="&#x2206;" horiz-adv-x="762" 
d="M742 0h-722l317 730h85zM379 606l-215 -516h432z" />
    <glyph glyph-name="product" unicode="&#x220f;" horiz-adv-x="746" 
d="M179 -216h-97v946h582v-946h-97v855h-388v-855z" />
    <glyph glyph-name="summation" unicode="&#x2211;" horiz-adv-x="660" 
d="M607 -216h-538v93l305 393l-295 366v94h526v-89h-433l291 -356v-23l-297 -386h441v-92z" />
    <glyph glyph-name="minus" unicode="&#x2212;" horiz-adv-x="477" 
d="M436 274h-395v67h395v-67z" />
    <glyph glyph-name="radical" unicode="&#x221a;" horiz-adv-x="675" 
d="M556 730h96l-274 -730h-100l-133 283h-122v75h183l60 -131l58 -136l50 144z" />
    <glyph glyph-name="infinity" unicode="&#x221e;" horiz-adv-x="774" 
d="M387 431q15 27 26.5 44t34 43t51.5 39.5t63 13.5q79 0 125 -57.5t46 -142.5t-46 -142.5t-125 -57.5q-34 0 -62.5 13.5t-52.5 41.5t-33 41.5t-27 42.5q-73 -139 -175 -139q-78 0 -124 57.5t-46 142.5t46 142.5t124 57.5q105 0 175 -140zM355 371q-54 134 -136 134
q-33 0 -61 -31q-29 -32 -29 -103t29 -103q28 -30 61 -30q41 0 76 35.5t60 97.5zM420 371q24 -62 59 -97.5t76 -35.5q37 0 64 33t27 100t-27 100.5t-64 33.5q-41 0 -76 -36t-59 -98z" />
    <glyph glyph-name="integral" unicode="&#x222b;" horiz-adv-x="338" 
d="M320 649h-33q-39 0 -55.5 -18.5t-16.5 -63.5v-616q0 -99 -43 -133q-41 -34 -116 -34h-38v81h33q39 0 55.5 18.5t16.5 63.5v616q0 99 42 133q43 34 117 34h38v-81z" />
    <glyph glyph-name="approxequal" unicode="&#x2248;" horiz-adv-x="479" 
d="M438 456v-68q-44 -48 -97 -48q-34 0 -99.5 27t-105.5 27q-51 0 -95 -44v68q42 43 96 43q40 0 105 -27t99 -27q53 0 97 49zM438 254v-68q-46 -49 -97 -49q-34 0 -99.5 27t-105.5 27q-53 0 -95 -43v68q42 42 96 42q40 0 104.5 -27t99.5 -27q51 0 97 50z" />
    <glyph glyph-name="notequal" unicode="&#x2260;" horiz-adv-x="477" 
d="M133 160h-92v68h133l68 126h-201v67h234l77 145l59 -27l-63 -118h88v-67h-128l-67 -126h195v-68h-229l-78 -150l-59 30z" />
    <glyph glyph-name="equivalence" unicode="&#x2261;" horiz-adv-x="482" 
d="M440 433h-398v68h398v-68zM440 251h-398v68h398v-68zM440 69h-398v68h398v-68z" />
    <glyph glyph-name="lessequal" unicode="&#x2264;" horiz-adv-x="477" 
d="M429 181l-377 204v33l377 203v-74l-279 -146l279 -145v-75zM436 39h-395v68h395v-68z" />
    <glyph glyph-name="greaterequal" unicode="&#x2265;" horiz-adv-x="477" 
d="M45 622l377 -203v-34l-377 -203v74l278 145l-278 146v75zM436 39h-395v68h395v-68z" />
    <glyph glyph-name="house" unicode="&#x2302;" horiz-adv-x="905" 
d="M790 427v-427h-674v427l337 323z" />
    <glyph glyph-name="whitesmallsquare" unicode="&#x25ab;" horiz-adv-x="687" 
d="M594 500v-500h-500v500h500zM513 426h-339v-351h339v351z" />
    <glyph glyph-name="triagup" unicode="&#x25b2;" horiz-adv-x="992" 
d="M497 742l428 -742h-857z" />
    <glyph glyph-name="triagrt" unicode="&#x25ba;" horiz-adv-x="927" 
d="M860 372l-742 -429v857z" />
    <glyph glyph-name="triagdn" unicode="&#x25bc;" horiz-adv-x="1012" 
d="M507 -12l-429 742h857z" />
    <glyph glyph-name="triaglf" unicode="&#x25c4;" horiz-adv-x="927" 
d="M68 372l742 428v-857z" />
    <glyph glyph-name="lozenge" unicode="&#x25ca;" horiz-adv-x="523" 
d="M244 0l-220 365l220 365h35l221 -365l-221 -365h-35zM260 612l-147 -245l149 -248l149 245z" />
    <glyph glyph-name="bullseye" unicode="&#x25ce;" horiz-adv-x="952" 
d="M102 365q0 163 106 269t269 106t269 -106t106 -269t-106 -269t-269 -106t-269 106t-106 269zM164 365q0 -138 88.5 -227.5t224.5 -89.5t224.5 89.5t88.5 227.5q0 140 -88.5 229t-224.5 89t-224.5 -89t-88.5 -229zM692 365q0 -99 -59 -158q-58 -58 -156 -58t-156 58
q-59 59 -59 158q0 98 59 157t156 59t156 -59t59 -157zM630 365q0 71 -42.5 115t-110.5 44q-69 0 -111 -44t-42 -115q0 -72 42 -115t111 -43t111 43t42 115zM420 365q0 24 16.5 41t40.5 17q25 0 41.5 -17t16.5 -41t-16.5 -40.5t-41.5 -16.5t-41 16.5t-16 40.5z" />
    <glyph glyph-name="uni25E2" unicode="&#x25e2;" horiz-adv-x="922" 
d="M58 755l828 -222l-606 -606z" />
    <glyph glyph-name="uni25E3" unicode="&#x25e3;" horiz-adv-x="922" 
d="M867 755l-222 -828l-606 606z" />
    <glyph glyph-name="uni25E4" unicode="&#x25e4;" horiz-adv-x="922" 
d="M648 774l222 -828l-828 222z" />
    <glyph glyph-name="uni25E5" unicode="&#x25e5;" horiz-adv-x="922" 
d="M280 770l605 -607l-828 -221z" />
    <glyph glyph-name="uni2605" unicode="&#x2605;" horiz-adv-x="925" 
d="M647 85l-187 135l-186 -135l72 219l-186 135l229 -1l72 218l71 -218l230 -1l-187 -134z" />
    <glyph glyph-name="uni263C" unicode="&#x263c;" horiz-adv-x="967" 
d="M459 577l-19 152h88l-19 -152h-50zM359 536l-95 122l75 47l61 -141zM568 564l61 141l75 -47l-95 -122zM288 449l-141 62l45 76l120 -95zM656 492l120 95l45 -76l-141 -62zM310 365q0 71 52 122.5t122 51.5t122 -51.5t52 -122.5t-52 -122.5t-122 -51.5t-122 51.5
t-52 122.5zM272 340l-152 -19v88l152 -19v-50zM696 390l152 19v-88l-152 19v50zM312 238l-120 -95l-45 76l141 62zM680 281l141 -62l-45 -76l-120 95zM400 166l-61 -141l-75 47l95 122zM609 194l95 -122l-75 -47l-61 141zM509 153l19 -152h-88l19 152h50z" />
    <glyph glyph-name="uni263E" unicode="&#x263e;" horiz-adv-x="819" 
d="M551 616q-99 0 -169 -74t-70 -177t70 -177t169 -74q32 0 71 12q-81 -57 -178 -57q-122 0 -209 87t-87 209t87 209t209 87q97 0 178 -57q-55 12 -71 12z" />
    <glyph glyph-name="spade" unicode="&#x2660;" horiz-adv-x="957" 
d="M613 0h-259q66 124 84 204q10 45 10 86q-20 -58 -63.5 -97t-106.5 -39q-70 0 -120.5 47t-50.5 111q0 82 52 151t183 172l140 112h1l140 -112q128 -101 178 -170t50 -153q0 -64 -47 -111q-46 -46 -110 -46q-69 0 -115 38.5t-66 96.5q0 -29 6 -61t13 -55.5t21.5 -56
t21 -45.5t22.5 -42t16 -30z" />
    <glyph glyph-name="club" unicode="&#x2663;" horiz-adv-x="953" 
d="M612 0h-260q1 3 10 19t13 24.5t13 27t14.5 31t13 32.5t12.5 37t9.5 37.5t6.5 39.5q-22 -52 -66.5 -85t-100.5 -33q-73 0 -125 52t-52 125t52 125t125 52q19 0 42 -7q-19 43 -19 87q0 73 51.5 124.5t123.5 51.5q73 0 124.5 -51.5t51.5 -124.5q0 -46 -20 -88q21 8 47 8
q73 0 124.5 -51.5t51.5 -125.5q0 -73 -52 -125t-125 -52q-56 0 -98.5 32t-63.5 84q4 -30 12.5 -60.5t21.5 -60.5t21.5 -48t24 -45.5t17.5 -31.5z" />
    <glyph glyph-name="heart" unicode="&#x2665;" horiz-adv-x="957" 
d="M108 550q0 78 53 134t129 56q77 0 127 -47q51 -47 59 -115q8 68 58 115t127 47t133 -56.5t56 -133.5q0 -86 -54 -180q-52 -91 -178 -230l-142 -157l-141 157q-122 135 -176 231q-51 93 -51 179z" />
    <glyph glyph-name="diamond" unicode="&#x2666;" horiz-adv-x="961" 
d="M481 -10l-327 400l327 401l327 -401z" />
    <glyph glyph-name="uni267B" unicode="&#x267b;" horiz-adv-x="968" 
d="M412 728l1 2h182q34 1 52.5 -8.5t32.5 -34.5l26 -46l40 23l-56 -157l-162 30l39 21l-70 118q-11 21 -37 37q-28 15 -48 15zM361 480l-140 80l59 103q30 52 92 52q64 0 97 -46zM647 413l141 81l59 -103q13 -22 13 -49q0 -41 -30 -77q-29 -36 -74 -41zM209 111h-2l-90 158
q-17 30 -18 50.5t14 45.5l27 46l-40 23l164 29l55 -156l-38 23l-68 -118q-14 -26 -14 -52q0 -25 10 -49zM844 244l1 -2l-92 -157q-17 -30 -35 -41t-46 -10h-53v-46l-107 127l107 126l-1 -44h137q31 0 52 13q29 20 37 34zM454 197v-162h-119q-45 0 -77 36q-31 35 -31 85
q0 25 9 41h218z" />
    <glyph glyph-name="uni267C" unicode="&#x267c;" horiz-adv-x="981" 
d="M116 365q0 163 106 269t269 106t269 -106t106 -269t-106 -269t-269 -106t-269 106t-106 269zM435 649v-1q49 -9 64 -41l54 -89l-30 -17l122 -23l43 121l-30 -18l-20 35q-12 19 -25 26.5t-39 6.5h-139zM334 598l-45 -79l107 -61l81 145q-28 34 -73 34q-47 0 -70 -39z
M765 389l-45 79l-107 -62l83 -145q36 7 57.5 33t21.5 58q0 20 -10 37zM278 174h2q-8 14 -8 35q0 23 11 43l52 91l29 -18l-42 119l-125 -22l31 -18l-21 -34q-11 -19 -11 -33q0 -16 14 -41zM763 275l-1 2q-26 -36 -67 -36h-104v33l-81 -97l81 -96v34h41q22 -1 35.5 8t26.5 32z
M376 116h91v125h-167q-6 -12 -6 -32q0 -38 23.5 -65.5t58.5 -27.5z" />
    <glyph glyph-name="uni267D" unicode="&#x267d;" horiz-adv-x="981" 
d="M866 365q0 -163 -106 -269t-269 -106t-269 106t-106 269t106 269t269 106t269 -106t106 -269zM187 365q0 -134 82.5 -223.5t221.5 -89.5t221.5 89.5t82.5 223.5t-82.5 223.5t-221.5 89.5t-221.5 -89.5t-82.5 -223.5zM441 592v1h112q37 0 53 -27l17 -29l24 15l-35 -97
l-100 18l24 14l-41 70q-14 24 -34 29zM480 554l-67 -116l-86 50l36 65q8 14 22 22q26 14 55 4q31 -9 40 -25zM590 397l87 50l38 -66q8 -14 8 -27q0 -30 -24 -53q-23 -21 -41 -21zM318 213h-1l-56 96q-19 32 -2 60l17 29l-25 14l101 17l34 -96l-24 15l-42 -73q-12 -22 -7 -42
zM710 295l1 -1l-57 -96q-7 -11 -11.5 -16.5t-15 -10.5t-25.5 -5h-31v-29l-66 79l66 78v-28h82q26 0 42 14zM466 266v-100h-74q-17 0 -30 7q-27 15 -34 46q-6 31 3 47h135z" />
    <glyph glyph-name="mediumwhitecircle" unicode="&#x26ac;" horiz-adv-x="667" 
d="M593 250q0 -115 -74.5 -187.5t-184.5 -72.5t-184.5 72.5t-74.5 187.5t74.5 187.5t184.5 72.5t184.5 -72.5t74.5 -187.5zM151 250q0 -82 50 -135q51 -52 133 -52q83 0 132 52q51 53 51 135t-51 135q-49 52 -132 52q-82 0 -133 -52q-50 -53 -50 -135z" />
    <glyph glyph-name="anglebracketleft" unicode="&#x3008;" horiz-adv-x="347" 
d="M245 790h106l-257 -492l258 -498h-108l-225 497z" />
    <glyph glyph-name="anglebracketright" unicode="&#x3009;" horiz-adv-x="348" 
d="M105 790l225 -496l-228 -494h-107l264 496l-262 494h108z" />
    <glyph glyph-name="Aumlaut" horiz-adv-x="732" 
d="M156 619q-28 0 -44 16.5t-16 43.5q0 28 16 44.5t44 16.5t44 -16.5t16 -44.5q0 -27 -16 -43.5t-44 -16.5zM575 619q-27 0 -43 16.5t-16 43.5q0 28 15.5 44.5t43.5 16.5t44.5 -16.5t16.5 -44.5q0 -27 -16.5 -43.5t-44.5 -16.5zM122 0h-102l291 730h110l291 -730h-103
l-64 167h-359zM365 643l-34 -99l-117 -305h303l-118 306z" />
    <glyph glyph-name="Anocross" horiz-adv-x="732" 
d="M122 0h-102l291 730h110l291 -730h-103l-210 545l-34 98l-34 -99z" />
    <glyph glyph-name="Oumlaut" horiz-adv-x="813" 
d="M403 -10q-87 0 -155 30t-108.5 83t-61.5 119.5t-21 143.5q0 101 39.5 185t120 136.5t188.5 52.5q168 0 258.5 -106.5t90.5 -267.5q0 -102 -37.5 -185.5t-119 -137t-194.5 -53.5zM51 618q-28 0 -44 16.5t-16 43.5q0 28 16 44.5t44 16.5t44 -16.5t16 -44.5q0 -27 -16 -43.5
t-44 -16.5zM762 618q-28 0 -44 16.5t-16 43.5q0 28 16 44.5t44 16.5t44 -16.5t16 -44.5q0 -27 -16 -43.5t-44 -16.5zM404 78q123 0 186.5 82t63.5 206q0 126 -63.5 206.5t-185.5 80.5q-117 0 -183 -82t-66 -205q0 -125 62.5 -206.5t185.5 -81.5z" />
    <glyph glyph-name="Uumlaut" horiz-adv-x="728" 
d="M337 671q0 -62 -53 -62q-51 0 -51 62t51 62q53 0 53 -62zM497 671q0 -62 -53 -62q-51 0 -51 62t51 62q53 0 53 -62zM558 305v425h96v-431q0 -151 -78.5 -230t-213.5 -79q-140 0 -214 76.5t-74 232.5v431h97v-425q0 -225 191 -225q196 0 196 225z" />
    <glyph glyph-name="IJacute" horiz-adv-x="653" 
d="M484 262v468h97v-472q0 -123 -61.5 -195.5t-176.5 -72.5q-188 0 -272 164l87 56q57 -135 181 -135q70 0 107.5 47.5t37.5 139.5zM172 730v-432h-97v432h97zM297 918l-208 -140l-32 44l198 153zM706 918l-208 -140l-32 44l198 153z" />
    <glyph glyph-name="a.alt" horiz-adv-x="612" 
d="M218 -10q-86 0 -131 37.5t-45 100.5q0 84 75 129q51 30 173 55q89 20 122.5 37t33.5 53q0 39 -31.5 65t-99.5 26q-123 0 -172 -123l-87 30q74 171 264 171q105 0 162 -49.5t57 -139.5v-382h-92v147q-27 -73 -89.5 -115t-139.5 -42zM252 64q76 0 137.5 60t61.5 150v48
q-25 -37 -151 -65q-85 -19 -122.5 -42.5t-37.5 -71.5q0 -36 28.5 -57.5t83.5 -21.5z" />
    <glyph glyph-name="g.alt" horiz-adv-x="629" 
d="M39 355q0 93 72.5 154.5t204.5 61.5q78 0 114 28t46 93l110 -30q-15 -52 -61 -75.5t-133 -30.5q88 -16 139.5 -69t51.5 -130q0 -89 -69.5 -147t-210.5 -58q-88 0 -124 -8t-36 -32q0 -38 108 -38h209q78 0 123 -34t45 -89q0 -85 -85.5 -133t-236.5 -48q-136 0 -215 33
t-79 102q0 40 38.5 69t104.5 39q-102 13 -104 71q0 73 148 84q-80 18 -120 69t-40 118zM310 224q86 0 131.5 37.5t45.5 95.5q0 61 -45 99t-131 38q-89 0 -132 -42q-43 -40 -43 -95q0 -59 44 -96t130 -37zM322 -147q97 0 154.5 24t57.5 71q0 57 -103 57h-171q-154 0 -154 -72
q0 -80 216 -80z" />
    <glyph glyph-name="g.alt2" horiz-adv-x="629" 
d="M39 355q0 93 72.5 154.5t204.5 61.5q146 0 239 73l59 -54q-53 -45 -186 -43q73 -21 114 -71t41 -119q0 -89 -69.5 -147t-210.5 -58q-88 0 -124 -8t-36 -32q0 -38 108 -38h209q78 0 123 -34t45 -89q0 -85 -85.5 -133t-236.5 -48q-136 0 -215 33t-79 102q0 40 38.5 69
t104.5 39q-103 13 -103 71q0 32 31 54q32 24 119 30q-82 18 -122.5 69t-40.5 118zM310 224q86 0 131.5 37.5t45.5 95.5q0 61 -45 99t-131 38q-89 0 -132 -42q-43 -40 -43 -95q0 -59 44 -96t130 -37zM322 -147q97 0 154.5 24t57.5 71q0 57 -103 57h-171q-154 0 -154 -72
q0 -80 216 -80z" />
    <glyph glyph-name="aacute.alt" horiz-adv-x="612" 
d="M218 -10q-86 0 -131 37.5t-45 100.5q0 84 75 129q51 30 173 55q89 20 122.5 37t33.5 53q0 39 -31.5 65t-99.5 26q-123 0 -172 -123l-87 30q74 171 264 171q105 0 162 -49.5t57 -139.5v-382h-92v147q-27 -73 -89.5 -115t-139.5 -42zM252 64q76 0 137.5 60t61.5 150v48
q-25 -37 -151 -65q-85 -19 -122.5 -42.5t-37.5 -71.5q0 -36 28.5 -57.5t83.5 -21.5zM459 785l-173 -169l-39 38l164 177z" />
    <glyph glyph-name="atilde.alt" horiz-adv-x="612" 
d="M218 -10q-86 0 -131 37.5t-45 100.5q0 84 75 129q51 30 173 55q89 20 122.5 37t33.5 53q0 39 -31.5 65t-99.5 26q-123 0 -172 -123l-87 30q74 171 264 171q105 0 162 -49.5t57 -139.5v-382h-92v147q-27 -73 -89.5 -115t-139.5 -42zM252 64q76 0 137.5 60t61.5 150v48
q-25 -37 -151 -65q-85 -19 -122.5 -42.5t-37.5 -71.5q0 -36 28.5 -57.5t83.5 -21.5zM245 717q-39 0 -39 -64v-19l-58 8v11q0 60 25.5 93t64.5 33q28 0 55.5 -20.5t50.5 -41t42 -20.5q36 0 36 67v15l59 -8v-13q0 -60 -25.5 -92t-63.5 -32q-29 0 -56.5 21t-50.5 41.5t-40 20.5
z" />
    <glyph glyph-name="acircumflex.alt" horiz-adv-x="612" 
d="M218 -10q-86 0 -131 37.5t-45 100.5q0 84 75 129q51 30 173 55q89 20 122.5 37t33.5 53q0 39 -31.5 65t-99.5 26q-123 0 -172 -123l-87 30q74 171 264 171q105 0 162 -49.5t57 -139.5v-382h-92v147q-27 -73 -89.5 -115t-139.5 -42zM252 64q76 0 137.5 60t61.5 150v48
q-25 -37 -151 -65q-85 -19 -122.5 -42.5t-37.5 -71.5q0 -36 28.5 -57.5t83.5 -21.5zM469 650l-49 -39l-110 127l-114 -127l-45 39l138 150h43z" />
    <glyph glyph-name="abreve.alt" horiz-adv-x="612" 
d="M218 -10q-86 0 -131 37.5t-45 100.5q0 84 75 129q51 30 173 55q89 20 122.5 37t33.5 53q0 39 -31.5 65t-99.5 26q-123 0 -172 -123l-87 30q74 171 264 171q105 0 162 -49.5t57 -139.5v-382h-92v147q-27 -73 -89.5 -115t-139.5 -42zM252 64q76 0 137.5 60t61.5 150v48
q-25 -37 -151 -65q-85 -19 -122.5 -42.5t-37.5 -71.5q0 -36 28.5 -57.5t83.5 -21.5zM317 691q96 0 97 109l60 -14q-1 -64 -40 -110q-38 -45 -121 -45q-81 0 -123 43t-42 112l62 14q1 -109 107 -109z" />
    <glyph glyph-name="adieresis.alt" horiz-adv-x="612" 
d="M218 -10q-86 0 -131 37.5t-45 100.5q0 84 75 129q51 30 173 55q89 20 122.5 37t33.5 53q0 39 -31.5 65t-99.5 26q-123 0 -172 -123l-87 30q74 171 264 171q105 0 162 -49.5t57 -139.5v-382h-92v147q-27 -73 -89.5 -115t-139.5 -42zM252 64q76 0 137.5 60t61.5 150v48
q-25 -37 -151 -65q-85 -19 -122.5 -42.5t-37.5 -71.5q0 -36 28.5 -57.5t83.5 -21.5zM144 694q0 28 17.5 46.5t47.5 18.5q29 0 47 -18.5t18 -46.5t-17.5 -46t-47.5 -18t-47.5 18t-17.5 46zM347 694q0 28 17.5 46.5t47.5 18.5q29 0 47 -18.5t18 -46.5t-17.5 -46t-47.5 -18
t-47.5 18t-17.5 46z" />
    <glyph glyph-name="agrave.alt" horiz-adv-x="612" 
d="M218 -10q-86 0 -131 37.5t-45 100.5q0 84 75 129q51 30 173 55q89 20 122.5 37t33.5 53q0 39 -31.5 65t-99.5 26q-123 0 -172 -123l-87 30q74 171 264 171q105 0 162 -49.5t57 -139.5v-382h-92v147q-27 -73 -89.5 -115t-139.5 -42zM252 64q76 0 137.5 60t61.5 150v48
q-25 -37 -151 -65q-85 -19 -122.5 -42.5t-37.5 -71.5q0 -36 28.5 -57.5t83.5 -21.5zM375 654l-38 -38l-174 169l49 46z" />
    <glyph glyph-name="aring.alt" horiz-adv-x="612" 
d="M218 -10q-86 0 -131 37.5t-45 100.5q0 84 75 129q51 30 173 55q89 20 122.5 37t33.5 53q0 39 -31.5 65t-99.5 26q-123 0 -172 -123l-87 30q74 171 264 171q105 0 162 -49.5t57 -139.5v-382h-92v147q-27 -73 -89.5 -115t-139.5 -42zM252 64q76 0 137.5 60t61.5 150v48
q-25 -37 -151 -65q-85 -19 -122.5 -42.5t-37.5 -71.5q0 -36 28.5 -57.5t83.5 -21.5zM312 617q-53 0 -88.5 35t-35.5 88t35.5 88t89.5 35q53 0 88 -35t35 -88t-35.5 -88t-88.5 -35zM312 666q32 0 51.5 20t19.5 54q0 33 -20 53.5t-51 20.5q-32 0 -51.5 -20t-19.5 -54
q0 -33 20 -53.5t51 -20.5z" />
    <glyph glyph-name="aogonek.alt" horiz-adv-x="612" 
d="M218 -10q-86 0 -131 37.5t-45 100.5q0 84 75 129q51 30 173 55q89 20 122.5 37t33.5 53q0 39 -31.5 65t-99.5 26q-123 0 -172 -123l-87 30q74 171 264 171q105 0 162 -49.5t57 -139.5v-382q-104 -64 -104 -133q0 -51 63 -51q23 0 40 4l-8 -59q-26 -6 -49 -6
q-51 0 -80.5 23.5t-29.5 66.5q0 86 109 155h-33v147q-27 -73 -89.5 -115t-139.5 -42zM252 64q76 0 137.5 60t61.5 150v48q-25 -37 -151 -65q-85 -19 -122.5 -42.5t-37.5 -71.5q0 -36 28.5 -57.5t83.5 -21.5z" />
    <glyph glyph-name="amacron.alt" horiz-adv-x="612" 
d="M218 -10q-86 0 -131 37.5t-45 100.5q0 84 75 129q51 30 173 55q89 20 122.5 37t33.5 53q0 39 -31.5 65t-99.5 26q-123 0 -172 -123l-87 30q74 171 264 171q105 0 162 -49.5t57 -139.5v-382h-92v147q-27 -73 -89.5 -115t-139.5 -42zM252 64q76 0 137.5 60t61.5 150v48
q-25 -37 -151 -65q-85 -19 -122.5 -42.5t-37.5 -71.5q0 -36 28.5 -57.5t83.5 -21.5zM445 655h-274v59h274v-59z" />
    <glyph glyph-name="gbreve.alt" horiz-adv-x="629" 
d="M39 355q0 93 72.5 154.5t204.5 61.5q146 0 239 73l59 -54q-53 -45 -186 -43q73 -21 114 -71t41 -119q0 -89 -69.5 -147t-210.5 -58q-88 0 -124 -8t-36 -32q0 -38 108 -38h209q78 0 123 -34t45 -89q0 -85 -85.5 -133t-236.5 -48q-136 0 -215 33t-79 102q0 40 38.5 69
t104.5 39q-103 13 -103 71q0 32 31 54q32 24 119 30q-82 18 -122.5 69t-40.5 118zM310 224q86 0 131.5 37.5t45.5 95.5q0 61 -45 99t-131 38q-89 0 -132 -42q-43 -40 -43 -95q0 -59 44 -96t130 -37zM322 -147q97 0 154.5 24t57.5 71q0 57 -103 57h-171q-154 0 -154 -72
q0 -80 216 -80zM324 691q96 0 97 109l60 -14q-1 -64 -40 -110q-38 -45 -121 -45q-81 0 -123 43t-42 112l62 14q1 -109 107 -109z" />
    <glyph glyph-name="gcircumflex.alt" horiz-adv-x="629" 
d="M39 355q0 93 72.5 154.5t204.5 61.5q146 0 239 73l59 -54q-53 -45 -186 -43q73 -21 114 -71t41 -119q0 -89 -69.5 -147t-210.5 -58q-88 0 -124 -8t-36 -32q0 -38 108 -38h209q78 0 123 -34t45 -89q0 -85 -85.5 -133t-236.5 -48q-136 0 -215 33t-79 102q0 40 38.5 69
t104.5 39q-103 13 -103 71q0 32 31 54q32 24 119 30q-82 18 -122.5 69t-40.5 118zM310 224q86 0 131.5 37.5t45.5 95.5q0 61 -45 99t-131 38q-89 0 -132 -42q-43 -40 -43 -95q0 -59 44 -96t130 -37zM322 -147q97 0 154.5 24t57.5 71q0 57 -103 57h-171q-154 0 -154 -72
q0 -80 216 -80zM477 650l-49 -39l-110 127l-114 -127l-45 39l138 150h43z" />
    <glyph glyph-name="gcommaaccent.alt" horiz-adv-x="629" 
d="M39 355q0 93 72.5 154.5t204.5 61.5q146 0 239 73l59 -54q-53 -45 -186 -43q73 -21 114 -71t41 -119q0 -89 -69.5 -147t-210.5 -58q-88 0 -124 -8t-36 -32q0 -38 108 -38h209q78 0 123 -34t45 -89q0 -85 -85.5 -133t-236.5 -48q-136 0 -215 33t-79 102q0 40 38.5 69
t104.5 39q-103 13 -103 71q0 32 31 54q32 24 119 30q-82 18 -122.5 69t-40.5 118zM310 224q86 0 131.5 37.5t45.5 95.5q0 61 -45 99t-131 38q-89 0 -132 -42q-43 -40 -43 -95q0 -59 44 -96t130 -37zM322 -147q97 0 154.5 24t57.5 71q0 57 -103 57h-171q-154 0 -154 -72
q0 -80 216 -80zM376 690q0 -27 -17 -43.5t-43 -16.5q-31 0 -49.5 21.5t-18.5 60.5q0 53 34 92t93 46l17 -54q-82 -4 -94 -52q15 3 18 3q27 0 43.5 -16t16.5 -41z" />
    <glyph glyph-name="gdotaccent.alt" horiz-adv-x="629" 
d="M39 355q0 93 72.5 154.5t204.5 61.5q146 0 239 73l59 -54q-53 -45 -186 -43q73 -21 114 -71t41 -119q0 -89 -69.5 -147t-210.5 -58q-88 0 -124 -8t-36 -32q0 -38 108 -38h209q78 0 123 -34t45 -89q0 -85 -85.5 -133t-236.5 -48q-136 0 -215 33t-79 102q0 40 38.5 69
t104.5 39q-103 13 -103 71q0 32 31 54q32 24 119 30q-82 18 -122.5 69t-40.5 118zM310 224q86 0 131.5 37.5t45.5 95.5q0 61 -45 99t-131 38q-89 0 -132 -42q-43 -40 -43 -95q0 -59 44 -96t130 -37zM322 -147q97 0 154.5 24t57.5 71q0 57 -103 57h-171q-154 0 -154 -72
q0 -80 216 -80zM251 713q0 30 17.5 48.5t49.5 18.5q30 0 48.5 -18.5t18.5 -48.5q0 -29 -18.5 -47.5t-48.5 -18.5q-32 0 -49.5 18t-17.5 48z" />
    <glyph glyph-name="idotaccent" horiz-adv-x="256" 
d="M63 713q0 30 17.5 48.5t49.5 18.5q30 0 48.5 -18.5t18.5 -48.5q0 -29 -18.5 -47.5t-48.5 -18.5q-32 0 -49.5 18t-17.5 48zM80 560h97v-560h-97v560z" />
    <glyph glyph-name="ijacute" horiz-adv-x="509" 
d="M80 560h97v-560h-97v560zM277 785l-173 -169l-39 38l164 177zM238 -216h-21v88h18q57 0 79 26.5t22 92.5v569h97v-563q0 -109 -41 -161q-40 -52 -154 -52zM530 785l-173 -169l-39 38l164 177z" />
    <glyph glyph-name="caronSlovak" horiz-adv-x="259" 
d="M119 727l71 13q9 -38 9 -70q0 -86 -42 -175l-51 18q27 68 27 127q0 39 -14 87z" />
    <glyph glyph-name="dotbelow" horiz-adv-x="345" 
d="M106 -128q0 30 17.5 48.5t49.5 18.5q30 0 48.5 -18.5t18.5 -48.5t-18 -48t-49 -18q-32 0 -49.5 18t-17.5 48z" />
    <glyph glyph-name="doublegrave" horiz-adv-x="345" 
d="M310 632l-54 -18l-89 213l67 24zM183 632l-54 -18l-89 213l67 24z" />
    <glyph glyph-name="invertedbreve" horiz-adv-x="345" 
d="M169 724q-97 0 -98 -109l-60 14q1 64 39 109q39 46 122 46q84 0 125 -45q40 -44 40 -110l-62 -14q-1 109 -106 109z" />
    <glyph glyph-name="commaaccent.alt" horiz-adv-x="345" 
d="M229 668q0 -27 -17 -43.5t-43 -16.5q-31 0 -49.5 21.5t-18.5 60.5q0 53 34 92t93 46l17 -54q-82 -4 -94 -52q15 3 18 3q27 0 43.5 -16t16.5 -41z" />
    <glyph glyph-name="acute.cap" horiz-adv-x="321" 
d="M286 884l-208 -140l-32 44l198 153z" />
    <glyph glyph-name="breve.cap" horiz-adv-x="345" 
d="M180 803q47 0 71.5 27t25.5 76l60 -14q-2 -64 -42 -106.5t-118 -42.5q-81 0 -123.5 42.5t-42.5 106.5l62 14q1 -50 29 -76.5t78 -26.5z" />
    <glyph glyph-name="caron.cap" horiz-adv-x="345" 
d="M348 890l-151 -145h-43l-151 145l43 39l130 -125l133 125z" />
    <glyph glyph-name="circumflex.cap" horiz-adv-x="345" 
d="M3 778l151 145h43l151 -145l-43 -39l-131 125l-132 -125z" />
    <glyph glyph-name="dieresis.cap" horiz-adv-x="355" 
d="M16 808q0 28 16.5 45t45.5 17q28 0 45 -17.5t17 -44.5t-17 -44t-45 -17q-29 0 -45.5 16.5t-16.5 44.5zM216 808q0 28 16.5 45t45.5 17q28 0 45 -17.5t17 -44.5t-17 -44t-45 -17q-29 0 -45.5 16.5t-16.5 44.5z" />
    <glyph glyph-name="dotaccent.cap" horiz-adv-x="268" 
d="M71 816q0 28 17 46t47 18q29 0 46 -18t17 -46t-17 -45.5t-46 -17.5q-30 0 -47 17.5t-17 45.5z" />
    <glyph glyph-name="doublegrave.cap" horiz-adv-x="357" 
d="M335 761l-45 -25l-121 187l60 31zM190 759l-44 -27l-127 183l61 31z" />
    <glyph glyph-name="grave.cap" horiz-adv-x="321" 
d="M288 788l-33 -44l-207 140l41 57z" />
    <glyph glyph-name="hungarumlaut.cap" horiz-adv-x="356" 
d="M184 923l-121 -187l-45 25l106 193zM334 915l-127 -183l-44 27l110 187z" />
    <glyph glyph-name="invertedbreve.cap" horiz-adv-x="350" 
d="M169 844q-96 0 -98 -103l-60 14q2 65 42 107t118 42q81 0 123.5 -42.5t42.5 -106.5l-62 -14q-1 50 -29 76.5t-77 26.5z" />
    <glyph glyph-name="macron.cap" horiz-adv-x="345" 
d="M310 786h-274v58h274v-58z" />
    <glyph glyph-name="ring.cap" horiz-adv-x="345" 
d="M173 749q-51 0 -85 33.5t-34 83.5t34 83.5t85 33.5t84.5 -33.5t33.5 -83.5t-33.5 -83.5t-84.5 -33.5zM173 796q30 0 48.5 19.5t18.5 50.5t-18.5 50.5t-49.5 19.5q-30 0 -48 -19.5t-18 -50.5q0 -32 18.5 -51t48.5 -19z" />
    <glyph glyph-name="tilde.cap" horiz-adv-x="362" 
d="M118 849q-39 0 -39 -63v-21l-58 8v11q0 61 25.5 94t64.5 33q29 0 56.5 -21t50.5 -42t42 -21q35 0 35 63v21l59 -8v-11q0 -61 -25.5 -94t-63.5 -33q-29 0 -56.5 21t-50.5 42t-40 21z" />
    <glyph glyph-name="exclamdown.cap" horiz-adv-x="264" 
d="M124 740q33 0 53.5 -20t20.5 -52q0 -31 -20.5 -52t-53.5 -21q-32 0 -52.5 21t-20.5 52q0 32 20 52t53 20zM106 517h36q0 -24 14 -148.5t15 -153.5q2 -25 4.5 -58.5t4 -55.5t1.5 -35q0 -38 -15.5 -56t-40.5 -18q-56 0 -56 74q0 32 9 149q1 29 14.5 153.5t13.5 148.5z" />
    <glyph glyph-name="questiondown.cap" horiz-adv-x="548" 
d="M301 739q33 0 53 -20t20 -52q0 -31 -20.5 -52t-52.5 -21q-33 0 -53.5 21t-20.5 52q0 32 20.5 52t53.5 20zM265 511h77q1 -9 1 -20q0 -55 -33 -88t-72 -60q-37 -26 -72 -59q-33 -32 -33 -84q0 -56 38.5 -88t100.5 -32q133 0 160 145l96 -29q-24 -93 -88.5 -149t-170.5 -56
q-110 0 -170 55.5t-60 141.5q0 68 35 109q38 43 78 70q50 36 77 58q36 29 36 73v13z" />
    <glyph glyph-name="interrobangdown" horiz-adv-x="559" 
d="M289 568q33 0 53.5 -20t20.5 -52q0 -31 -20.5 -52t-53.5 -21q-32 0 -52.5 21t-20.5 52q0 32 20 52t53 20zM263 331v9h49l6 -431q105 17 135 144l90 -28q-22 -80 -78.5 -135t-140.5 -67l1 -97h-78l3 95q-102 8 -155 65q-52 55 -52 131q0 67 34 107q32 37 76 70
q41 30 75 60q35 30 35 77zM258 -93l9 331q-13 -21 -38 -45.5t-44.5 -42t-35 -48t-15.5 -67.5q0 -56 33 -89t91 -39z" />
    <glyph glyph-name="interrobangdown.cap" horiz-adv-x="559" 
d="M290 736q33 0 53.5 -20t20.5 -52q0 -31 -20.5 -52t-53.5 -21q-32 0 -52.5 21t-20.5 52q0 32 20 52t53 20zM264 499v9h49l6 -431q105 17 135 144l90 -28q-22 -80 -79 -135.5t-140 -67.5l1 -97h-78l3 95q-99 8 -153 63t-54 134q0 67 34 107q32 37 76 70q40 30 75 60t35 77z
M259 75l9 331q-13 -21 -38 -45.5t-44.5 -42t-35 -48t-15.5 -67.5q0 -56 33 -89t91 -39z" />
    <glyph glyph-name="reversequoteleft" horiz-adv-x="268" 
d="M212 504l-34 -65q-56 27 -88.5 80.5t-32.5 116.5q0 50 22 75.5t60 25.5q31 0 51.5 -21t20.5 -53q0 -31 -19 -50t-52 -19q-15 -1 -31 6q16 -64 103 -96z" />
    <glyph glyph-name="reversequotedblleft" horiz-adv-x="463" 
d="M407 504l-34 -65q-56 27 -88.5 80.5t-32.5 116.5q0 50 21.5 75.5t59.5 25.5q31 0 52 -21t21 -53q0 -31 -19 -50t-52 -19q-15 -1 -31 6q15 -64 103 -96zM212 504l-34 -65q-56 27 -88.5 80.5t-32.5 116.5q0 50 22 75.5t60 25.5q31 0 51.5 -21t20.5 -53q0 -31 -19 -50
t-52 -19q-15 -1 -31 6q16 -64 103 -96z" />
    <glyph glyph-name="guilsinglleft.cap" horiz-adv-x="284" 
d="M173 546h97l-161 -180l162 -182h-99l-161 178v6z" />
    <glyph glyph-name="guilsinglright.cap" horiz-adv-x="284" 
d="M273 368v-6l-162 -178h-97l160 180l-161 182h99z" />
    <glyph glyph-name="guillemotleft.cap" horiz-adv-x="464" 
d="M173 546h97l-161 -180l162 -182h-99l-161 178v6zM353 546h97l-161 -180l162 -182h-99l-161 178v6z" />
    <glyph glyph-name="guillemotright.cap" horiz-adv-x="464" 
d="M273 368v-6l-162 -178h-97l160 180l-161 182h99zM453 368v-6l-162 -178h-97l160 180l-161 182h99z" />
    <glyph glyph-name="doublebar" horiz-adv-x="426" 
d="M144 776v-960h-77v960h77zM354 776v-960h-77v960h77z" />
    <glyph glyph-name="slash.cap" horiz-adv-x="420" 
d="M414 776l-330 -882h-81l330 882h81z" />
    <glyph glyph-name="backslash.cap" horiz-adv-x="420" 
d="M417 -106h-81l-330 882h81z" />
    <glyph glyph-name="bar.cap" horiz-adv-x="216" 
d="M147 776v-882h-77v882h77z" />
    <glyph glyph-name="doublebar.cap" horiz-adv-x="426" 
d="M144 776v-882h-77v882h77zM354 776v-882h-77v882h77z" />
    <glyph glyph-name="brokenbar.cap" horiz-adv-x="216" 
d="M147 776v-395h-77v395h77zM147 289v-395h-77v395h77z" />
    <glyph glyph-name="bullet.cap" horiz-adv-x="334" 
d="M163 246q-40 0 -68 28t-28 69t28 68.5t68 27.5t68.5 -27.5t28.5 -68.5t-28.5 -69t-68.5 -28z" />
    <glyph glyph-name="onethirdemdash" horiz-adv-x="385" 
d="M326 264h-266v75h266v-75z" />
    <glyph glyph-name="threequarteremdash" horiz-adv-x="718" 
d="M659 264h-599v75h599v-75z" />
    <glyph glyph-name="periodcentered.cap" horiz-adv-x="274" 
d="M137 295q-33 0 -53.5 20t-20.5 52q0 31 20.5 52t53.5 21q32 0 52.5 -21t20.5 -52q0 -32 -20 -52t-53 -20z" />
    <glyph glyph-name="hyphen.cap" horiz-adv-x="447" 
d="M388 329h-328v75h328v-75z" />
    <glyph glyph-name="onethirdemdash.cap" horiz-adv-x="385" 
d="M326 329h-266v75h266v-75z" />
    <glyph glyph-name="endash.cap" horiz-adv-x="657" 
d="M598 329h-538v75h538v-75z" />
    <glyph glyph-name="threequarteremdash.cap" horiz-adv-x="718" 
d="M659 329h-599v75h599v-75z" />
    <glyph glyph-name="emdash.cap" horiz-adv-x="917" 
d="M858 329h-798v75h798v-75z" />
    <glyph glyph-name="figuredash.cap" horiz-adv-x="718" 
d="M659 329h-599v75h599v-75z" />
    <glyph glyph-name="uni2015.cap" horiz-adv-x="917" 
d="M858 329h-798v75h798v-75z" />
    <glyph glyph-name="parenleft.cap" horiz-adv-x="389" 
d="M65 325q0 130 58 247q59 119 157 204l78 -71q-208 -150 -208 -381q0 -227 205 -368l-77 -69q-213 181 -213 438z" />
    <glyph glyph-name="parenright.cap" horiz-adv-x="389" 
d="M324 339q0 -131 -58 -248q-59 -119 -157 -204l-78 72q208 152 208 381q0 225 -205 367l77 69q213 -181 213 -437z" />
    <glyph glyph-name="bracketleft.cap" horiz-adv-x="379" 
d="M340 -107h-273v883h273v-90h-192v-703h192v-90z" />
    <glyph glyph-name="bracketright.cap" horiz-adv-x="379" 
d="M312 776v-883h-273v90h192v703h-192v90h273z" />
    <glyph glyph-name="braceleft.cap" horiz-adv-x="413" 
d="M380 -14v-89q-68 -7 -102 -7q-178 0 -178 141q0 47 26.5 109t26.5 92q0 28 -16 47q-15 21 -70 21h-30v71h30q55 0 70 20q16 19 16 47q0 30 -26 88t-26 111q0 72 48 106.5t128 34.5q35 0 103 -7v-89q-44 7 -94 7q-97 0 -97 -82q0 -38 20 -90.5t20 -81.5q1 -29 -16 -62
q-16 -31 -74 -38q57 -6 74 -38t17 -58q0 -32 -20 -88t-20 -89q0 -83 96 -83q50 0 94 7z" />
    <glyph glyph-name="braceright.cap" horiz-adv-x="413" 
d="M33 682v89q68 7 102 7q178 0 178 -141q0 -47 -26.5 -109t-26.5 -92q0 -27 15 -48q17 -20 71 -20h30v-71h-30q-54 0 -71 -20q-15 -19 -15 -47q0 -30 26 -88t26 -111q0 -72 -48 -106.5t-128 -34.5q-35 0 -103 7v89q44 -7 94 -7q97 0 97 82q0 38 -20 90.5t-20 81.5
q-1 30 15 61q17 32 75 39q-59 6 -75 37t-16 59q0 32 20 88t20 89q0 83 -96 83q-50 0 -94 -7z" />
    <glyph glyph-name="anglebracketleft.cap" horiz-adv-x="357" 
d="M235 776h106l-246 -430l247 -453h-108l-215 452z" />
    <glyph glyph-name="anglebracketright.cap" horiz-adv-x="357" 
d="M123 776l215 -441l-216 -442h-106l245 441l-246 442h108z" />
    <glyph glyph-name="lowline" horiz-adv-x="688" 
d="M657 -120h-625v52h625v-52z" />
    <glyph glyph-name="tripleprime" horiz-adv-x="471" 
d="M100 493h-55l42 237h84zM236 493h-55l41 237h84zM371 493h-55l42 237h84z" />
    <glyph glyph-name="at.cap" horiz-adv-x="1015" 
d="M458 132q-75 0 -126 53q-50 55 -50 141q0 105 64.5 180.5t159.5 75.5q74 0 116 -51q22 -28 32 -59l1 1l14 98h60l-41 -267q-20 -123 79 -123q50 0 80.5 46t30.5 126q0 155 -93.5 255t-265.5 100q-116 0 -202.5 -54.5t-128.5 -140t-42 -186.5q0 -149 103.5 -245.5
t293.5 -96.5q147 0 243 73l42 -69q-124 -84 -299 -84q-218 0 -342.5 118t-124.5 308q0 86 31 166.5t87.5 145t146 104t196.5 39.5t192 -35t136 -93.5t77 -129t26 -147.5q0 -114 -52 -186t-140 -72q-60 0 -98 32.5t-37 92.5q-53 -116 -169 -116zM479 185q77 0 120.5 65.5
t43.5 140.5q0 61 -34 100t-93 39q-78 0 -122 -60t-44 -139q0 -69 37.5 -107.5t91.5 -38.5z" />
    <glyph glyph-name="registered.cap" horiz-adv-x="870" 
d="M436 742q167 0 270 -108t103 -268t-103.5 -267.5t-270.5 -107.5t-270.5 107.5t-103.5 267.5t104 268t271 108zM437 65q136 0 213.5 84.5t77.5 217.5q0 136 -77.5 219t-214.5 83q-136 0 -215 -83.5t-79 -218.5t78.5 -218.5t216.5 -83.5zM578 282l21 -85h-60l-17 71
q-11 46 -26 56q-16 12 -64 12h-66v-139h-58v360h157q64 0 97 -26.5t33 -72.5q0 -80 -94 -100q35 -5 50.5 -20t26.5 -56zM461 508h-95v-133h89q39 0 62 18t23 52q0 63 -79 63z" />
    <glyph glyph-name="zero.OP" horiz-adv-x="673" 
d="M626 315q0 -149 -80 -237t-210 -88q-131 0 -209.5 85t-78.5 235q0 143 81.5 229t210.5 86q126 0 206 -85t80 -225zM146 313q0 -108 51.5 -170.5t138.5 -62.5q88 0 139.5 62t51.5 171q0 104 -52 164t-138 60q-85 0 -138 -61t-53 -163z" />
    <glyph glyph-name="one.OP" horiz-adv-x="366" 
d="M192 613h92v-613h-93v494q-20 -57 -62.5 -84t-94.5 -27h-12v90h8q75 0 117 28t45 112z" />
    <glyph glyph-name="two.OP" horiz-adv-x="593" 
d="M302 630q107 0 169.5 -56.5t62.5 -140.5q0 -80 -60 -143.5t-195 -133.5q-79 -46 -133 -73h407v-83h-510v85q124 66 200 114q109 66 154 115.5t45 103.5q0 62 -39.5 97t-103.5 35q-60 0 -105.5 -36.5t-65.5 -113.5l-89 32q32 96 102.5 147t160.5 51z" />
    <glyph glyph-name="three.OP" horiz-adv-x="622" 
d="M25 -49l80 56q71 -113 208 -113q81 0 126.5 41.5t45.5 113.5q0 150 -226 150h-72v70h83q89 0 138.5 36t49.5 104q0 66 -41.5 102.5t-108.5 36.5q-131 0 -187 -130l-82 43q43 79 113.5 123.5t162.5 44.5q103 0 169 -52.5t66 -148.5q0 -73 -45.5 -122.5t-122.5 -68.5
q92 -16 141.5 -67.5t49.5 -137.5q0 -99 -71 -160.5t-185 -61.5q-96 0 -171 36t-121 105z" />
    <glyph glyph-name="four.OP" horiz-adv-x="624" 
d="M409 275h95v-200h109v-75h-109v-186h-95v186h-385v63l342 550h106v-3l-334 -535h271v200z" />
    <glyph glyph-name="five.OP" horiz-adv-x="624" 
d="M580 84q0 -129 -77 -204.5t-197 -75.5q-190 0 -267 164l88 48q54 -123 182 -123q80 0 129 50.5t49 144.5q0 86 -49 136t-127 50q-111 0 -168 -104l-87 14l48 429h434v-88h-357l-31 -279q69 100 190 100q108 0 174 -68.5t66 -193.5z" />
    <glyph glyph-name="six.OP" horiz-adv-x="653" 
d="M370 740q152 0 237 -98l-66 -67q-33 41 -73.5 60.5t-99.5 19.5q-99 0 -160.5 -77.5t-61.5 -225.5v-19q33 70 94 108.5t135 38.5q106 0 172 -63t66 -170q0 -106 -73.5 -181.5t-192.5 -75.5q-144 0 -219.5 100t-75.5 256q0 188 90 291t228 103zM355 410q-69 0 -123.5 -39.5
t-76.5 -116.5q18 -86 68 -131t125 -45q82 0 129 48t47 122q0 77 -47 119.5t-122 42.5z" />
    <glyph glyph-name="seven.OP" horiz-adv-x="552" 
d="M211 -186h-102l319 713h-403v86h498v-77z" />
    <glyph glyph-name="eight.OP" horiz-adv-x="636" 
d="M599 200q0 -97 -77 -153.5t-204 -56.5q-131 0 -205.5 53t-74.5 149q0 68 45.5 119.5t123.5 70.5q-64 17 -102.5 59.5t-38.5 107.5q0 85 70 138t183 53q112 0 182 -52t70 -137q0 -63 -38 -106.5t-101 -61.5q77 -18 122 -67t45 -116zM319 410q69 0 115 30q48 30 48 91
q0 58 -43 93.5t-119 35.5t-120 -35.5t-44 -94.5q0 -61 48 -91q49 -29 115 -29zM319 74q86 0 136.5 38t50.5 101q0 69 -53 102.5t-133 33.5q-79 0 -133.5 -34.5t-54.5 -103.5q0 -61 49.5 -99t137.5 -38z" />
    <glyph glyph-name="nine.OP" horiz-adv-x="663" 
d="M611 236q0 -218 -87 -321t-230 -103q-155 0 -253 104l61 70q75 -88 195 -88q221 0 221 340v27q-33 -65 -92.5 -102t-136.5 -37q-109 0 -177 67.5t-68 177.5q0 109 73.5 184.5t196.5 75.5q147 0 222 -106.5t75 -288.5zM135 367q0 -83 47 -127.5t131 -44.5q59 0 117 38
q57 37 81 109q-31 203 -195 203q-84 0 -133 -51q-48 -50 -48 -127z" />
    <glyph glyph-name="zero.LT" 
d="M579 370q0 -186 -73 -283t-196 -97q-125 0 -197 95.5t-72 284.5q0 181 75 275.5t194 94.5q122 0 195.5 -94.5t73.5 -275.5zM137 368q0 -289 173 -289t173 289q0 284 -172 284q-81 0 -127.5 -70t-46.5 -214z" />
    <glyph glyph-name="one.LT" 
d="M568 0h-502v81h210v528q-21 -62 -70.5 -94.5t-116.5 -32.5h-11v88h5q192 0 199 160h91v-649h195v-81z" />
    <glyph glyph-name="two.LT" 
d="M314 740q114 0 176 -60.5t62 -152.5q0 -33 -9 -64t-21.5 -57t-42.5 -58.5t-54.5 -55.5t-75 -62t-86.5 -65t-107 -76h411v-89h-516v86q243 177 325.5 261.5t82.5 168.5q0 68 -39.5 105.5t-106.5 37.5q-140 0 -177 -163l-92 32q32 104 103 158t167 54z" />
    <glyph glyph-name="three.LT" 
d="M32 130l76 53q68 -109 207 -109q79 0 124.5 37t45.5 98q0 73 -55 98q-56 27 -136 27h-94v73h86q80 0 127 31t47 90q0 61 -41 95t-111 34q-132 0 -183 -129l-81 46q41 78 110 122t158 44q105 0 171.5 -51.5t66.5 -141.5q0 -66 -39.5 -110.5t-107.5 -60.5q170 -30 170 -179
q0 -92 -70 -150q-70 -59 -186 -59q-195 0 -285 142z" />
    <glyph glyph-name="four.LT" 
d="M400 402h94v-165h100v-68h-100v-169h-94v169h-365v61l310 500h102v-3l-301 -490h254v165z" />
    <glyph glyph-name="five.LT" 
d="M574 246q0 -114 -74.5 -185t-192.5 -71q-185 0 -268 144l88 57q60 -112 185 -112q76 0 122.5 47t46.5 130q0 73 -45 118.5t-122 45.5q-105 0 -168 -99l-87 17l45 392h428v-88h-351l-28 -250q68 99 190 99q105 0 168 -67q63 -68 63 -178z" />
    <glyph glyph-name="six.LT" 
d="M347 740q141 0 220 -97l-67 -67q-29 41 -64 60t-90 19q-91 0 -145 -77t-54 -226v-14q32 62 85.5 96t120.5 34q98 0 160 -62t62 -166t-68.5 -177t-183.5 -73q-133 0 -201 98.5t-68 257.5q0 189 81.5 291.5t211.5 102.5zM330 397q-60 0 -107.5 -35.5t-68.5 -104.5
q14 -89 57.5 -135t112.5 -46q76 1 119.5 46.5t43.5 117.5q0 76 -42 116.5t-115 40.5z" />
    <glyph glyph-name="seven.LT" 
d="M261 0h-104l317 643h-432v87h528v-82z" />
    <glyph glyph-name="eight.LT" 
d="M582 198q0 -96 -74 -152t-198 -56q-122 0 -197 54q-74 56 -74 150q0 72 49 123.5t130 65.5q-67 14 -109.5 56.5t-42.5 110.5q0 85 68 138q67 52 177 52q108 0 176 -53t68 -136q0 -70 -44 -112q-43 -41 -106 -55q81 -13 129 -63.5t48 -122.5zM311 409q63 0 110 30t47 91
q0 58 -42 94t-114 36q-73 0 -115.5 -36t-42.5 -94q0 -61 46 -91t111 -30zM311 74q83 0 131 38t48 101q0 70 -51.5 104.5t-126.5 34.5t-127.5 -35t-52.5 -104q0 -61 48.5 -100t130.5 -39z" />
    <glyph glyph-name="nine.LT" 
d="M280 -10q-147 0 -227 98l67 66q29 -41 64 -59.5t90 -18.5q95 0 147.5 76.5t52.5 226.5v16q-33 -64 -86 -98.5t-121 -34.5q-98 0 -160 62t-62 166q0 105 68 177.5t186 72.5q131 0 199 -97t68 -259q0 -190 -78 -292t-208 -102zM133 491q0 -76 41.5 -117t114.5 -41
q61 0 109 37t69 108q-28 176 -171 176q-76 0 -119.5 -46t-43.5 -117z" />
    <glyph glyph-name="zero.OT" 
d="M578 314q0 -151 -73 -237q-73 -87 -195 -87t-195 84q-73 83 -73 238q0 145 74 229t194 84q121 0 194.5 -84t73.5 -227zM139 313q0 -116 45 -177t127 -61t126.5 60t44.5 178q0 112 -45.5 170t-125.5 58q-81 0 -126.5 -59t-45.5 -169z" />
    <glyph glyph-name="one.OT" 
d="M574 0h-510v74h217v428q-36 -113 -198 -113h-11v84h7q105 0 152.5 27t50.5 113h96v-539h196v-74z" />
    <glyph glyph-name="two.OT" 
d="M319 630q110 0 169 -58q60 -59 60 -145q0 -97 -85.5 -170.5t-294.5 -173.5h399v-83h-509v85q100 53 158 85.5t111 67t78 61.5t39 56.5t14 63.5q0 61 -40 96.5t-104 35.5q-61 0 -107 -37t-66 -114l-89 32q35 99 107 148q74 50 160 50z" />
    <glyph glyph-name="three.OT" 
d="M36 -49l80 56q71 -113 208 -113q81 0 126 41t45 113q0 81 -60 116t-152 35h-85v73h80q89 0 140 36.5t51 105.5q0 64 -41.5 98.5t-109.5 34.5q-130 0 -186 -129l-82 43q43 79 113.5 123.5t162.5 44.5q103 0 169 -51.5t66 -146.5q0 -70 -40.5 -120t-108.5 -72
q82 -18 127 -70.5t45 -134.5q0 -99 -71 -161q-71 -63 -185 -63q-199 0 -292 141z" />
    <glyph glyph-name="four.OT" 
d="M397 275h94v-206h100v-69h-100v-186h-94v186h-362v54l302 559h99v-3l-288 -541h249v206z" />
    <glyph glyph-name="five.OT" 
d="M572 84q0 -129 -75 -204.5t-194 -75.5q-187 0 -261 164l88 48q54 -123 176 -123q80 0 126.5 50.5t46.5 144.5q0 86 -47.5 136t-123.5 50q-66 0 -104 -32q-36 -30 -59 -72l-87 14l49 429h428v-88h-351l-31 -273q69 94 184 94q106 0 170.5 -68.5t64.5 -193.5z" />
    <glyph glyph-name="six.OT" 
d="M344 741q78 0 130.5 -26t93.5 -79l-75 -62q-27 40 -61 59.5t-90 19.5q-90 0 -142 -76.5t-52 -225.5v-8q64 138 208 138q102 0 160 -62.5t58 -171.5q0 -108 -68 -182.5t-187 -74.5q-136 0 -200.5 96t-64.5 260q0 191 80 293t210 102zM328 412q-62 0 -107.5 -40t-65.5 -118
q25 -174 166 -174q76 0 118 46.5t42 121.5q0 79 -39.5 121.5t-113.5 42.5z" />
    <glyph glyph-name="seven.OT" 
d="M238 -186h-101l337 713h-432v86h528v-77z" />
    <glyph glyph-name="eight.OT" 
d="M582 199q0 -97 -74 -153t-198 -56q-123 0 -197 55q-75 55 -75 151q0 69 44.5 119.5t119.5 67.5q-61 17 -98.5 58.5t-37.5 106.5q0 86 68 139t177 53q108 0 176 -53t68 -139q0 -63 -37.5 -105t-97.5 -59q75 -17 118.5 -66.5t43.5 -118.5zM311 409q63 0 110 30t47 91
q0 58 -42 94t-114 36q-73 0 -115.5 -36t-42.5 -94q0 -61 46 -91t111 -30zM311 74q83 0 131 38t48 101q0 70 -51.5 104.5t-126.5 34.5t-127.5 -35t-52.5 -104q0 -61 48.5 -100t130.5 -39z" />
    <glyph glyph-name="nine.OT" 
d="M276 -193q-80 0 -134 27t-102 88l78 61q31 -46 68.5 -67t91.5 -21q95 0 144.5 79.5t49.5 263.5v16q-64 -124 -201 -124q-105 0 -166 64t-61 175q0 107 68.5 182t181.5 75q272 0 272 -387q0 -220 -78 -326t-212 -106zM137 368q0 -81 42 -125t119 -44q57 0 101 36.5
t67 104.5q-25 197 -170 197q-77 0 -118 -50t-41 -119z" />
    <glyph glyph-name="zero.num" horiz-adv-x="416" 
d="M383 516q0 -111 -48.5 -168t-129.5 -57t-129 56t-48 169q0 109 49.5 164.5t127.5 55.5q75 0 126 -54q52 -52 52 -166zM106 515q0 -152 99 -152q49 0 74.5 34.5t25.5 117.5q0 82 -25.5 116t-73.5 34q-100 0 -100 -150z" />
    <glyph glyph-name="one.num" horiz-adv-x="263" 
d="M126 730h76v-433h-78v346q-27 -80 -108 -80h-6v78h3q111 0 113 89z" />
    <glyph glyph-name="two.num" horiz-adv-x="373" 
d="M188 736q69 0 107 -36t38 -90q0 -45 -27.5 -83.5t-87.5 -82.5q-79 -58 -109 -76h237v-71h-316v70q106 70 153 110q44 37 60.5 64t16.5 58q0 33 -19 52.5t-54 19.5q-73 0 -95 -86l-70 30q21 60 66 90.5t100 30.5z" />
    <glyph glyph-name="three.num" horiz-adv-x="385" 
d="M15 376l62 43q32 -60 114 -60q42 0 65 20t23 52q0 67 -99 67h-66v40h59q91 0 91 67q0 31 -22 49t-57 18q-68 0 -97 -67l-63 31q24 48 67 74t97 26q62 0 103.5 -30t41.5 -82q0 -38 -23.5 -64.5t-63.5 -38.5q99 -19 99 -106q0 -55 -42.5 -89.5t-111.5 -34.5q-128 0 -177 85
z" />
    <glyph glyph-name="four.num" horiz-adv-x="374" 
d="M228 527h75v-93h59v-39h-59v-98l-75 -1v99h-216v43l194 293h78v-3l-196 -294h140v93z" />
    <glyph glyph-name="five.num" horiz-adv-x="383" 
d="M351 447q0 -67 -45 -112q-46 -44 -114 -44q-119 0 -167 84l74 42q27 -56 94 -56q38 0 61 24t23 71q0 37 -21.5 60.5t-60.5 23.5q-32 0 -55.5 -19t-33.5 -44l-69 11l23 242h269v-69h-206l-12 -129q41 48 108 48q58 0 95 -35.5t37 -97.5z" />
    <glyph glyph-name="six.num" horiz-adv-x="404" 
d="M366 439q0 -60 -43 -104t-115 -44q-90 0 -135 57.5t-45 154.5q0 112 56 173q56 60 140 60q76 0 135 -43l-38 -62q-39 36 -96 36q-56 0 -91 -42t-35 -120v-14q18 37 53.5 59t78.5 22q59 0 97 -35.5t38 -97.5zM210 534q-34 0 -63.5 -26.5t-38.5 -70.5q25 -77 100 -77
q39 0 63.5 25t24.5 64q0 40 -23.5 62.5t-62.5 22.5z" />
    <glyph glyph-name="seven.num" horiz-adv-x="338" 
d="M146 297h-82l180 363h-230v70h304v-65z" />
    <glyph glyph-name="eight.num" horiz-adv-x="393" 
d="M367 410q0 -54 -47.5 -86.5t-125.5 -32.5q-81 0 -127 32t-46 86q0 48 33.5 78t86.5 36q-44 7 -74 32t-30 68q0 51 43 82t115 31q70 0 113.5 -31.5t43.5 -81.5q0 -42 -30.5 -67.5t-73.5 -32.5q53 -6 86 -35t33 -78zM195 541q38 0 63 17t25 48t-24 49t-64 18
q-42 0 -65.5 -18t-23.5 -49q0 -30 25 -47.5t64 -17.5zM195 357q44 0 71.5 20t27.5 54q0 37 -28.5 55t-70.5 18q-43 0 -72 -18t-29 -55q0 -33 28 -53.5t73 -20.5z" />
    <glyph glyph-name="nine.num" horiz-adv-x="403" 
d="M364 523q0 -112 -49 -172t-134 -60q-95 0 -153 58l52 57q40 -44 100 -44q52 0 80.5 42.5t27.5 124.5q-15 -35 -47 -54t-72 -19q-61 0 -101 34.5t-40 95.5q0 62 44 106t114 44q85 0 131.5 -58t46.5 -155zM99 578q0 -39 23.5 -60.5t63.5 -21.5q31 0 59 20t39 56
q-18 96 -97 96q-40 0 -64 -25t-24 -65z" />
    <glyph glyph-name="zero.den" horiz-adv-x="416" 
d="M386 219q0 -111 -48.5 -168t-129.5 -57t-129 56t-48 169q0 109 49.5 164.5t127.5 55.5q75 0 126 -54q52 -52 52 -166zM109 218q0 -152 99 -152q49 0 74.5 34.5t25.5 117.5q0 82 -25.5 116t-73.5 34q-100 0 -100 -150z" />
    <glyph glyph-name="one.den" horiz-adv-x="263" 
d="M129 433h76v-433h-78v346q-27 -80 -108 -80h-6v78h3q111 0 113 89z" />
    <glyph glyph-name="two.den" horiz-adv-x="373" 
d="M191 439q69 0 107 -36t38 -90q0 -45 -27.5 -83.5t-87.5 -82.5q-79 -58 -109 -76h237v-71h-316v70q106 70 153 110q44 37 60.5 64t16.5 58q0 33 -19 52.5t-54 19.5q-73 0 -95 -86l-70 30q21 60 66 90.5t100 30.5z" />
    <glyph glyph-name="three.den" horiz-adv-x="385" 
d="M18 79l62 43q32 -60 114 -60q42 0 65 20t23 52q0 67 -99 67h-66v40h59q91 0 91 67q0 31 -22 49t-57 18q-68 0 -97 -67l-63 31q24 48 67 74t97 26q62 0 103.5 -30t41.5 -82q0 -38 -23.5 -64.5t-63.5 -38.5q99 -19 99 -106q0 -55 -42.5 -89.5t-111.5 -34.5q-128 0 -177 85z
" />
    <glyph glyph-name="four.den" horiz-adv-x="374" 
d="M231 230h75v-93h59v-39h-59v-98l-75 -1v99h-216v43l194 293h78v-3l-196 -294h140v93z" />
    <glyph glyph-name="five.den" horiz-adv-x="383" 
d="M354 150q0 -67 -45 -112q-46 -44 -114 -44q-119 0 -167 84l74 42q27 -56 94 -56q38 0 61 24t23 71q0 37 -21.5 60.5t-60.5 23.5q-32 0 -55.5 -19t-33.5 -44l-69 11l23 242h269v-69h-206l-12 -129q41 48 108 48q58 0 95 -35.5t37 -97.5z" />
    <glyph glyph-name="six.den" horiz-adv-x="404" 
d="M369 142q0 -60 -43 -104t-115 -44q-90 0 -135 57.5t-45 154.5q0 112 56 173q55 60 140 60q76 0 135 -43l-38 -62q-39 36 -96 36q-56 0 -91 -42t-35 -120v-14q18 37 53.5 59t78.5 22q59 0 97 -35.5t38 -97.5zM213 237q-34 0 -63.5 -26.5t-38.5 -70.5q25 -77 100 -77
q39 0 63.5 25t24.5 64q0 40 -23.5 62.5t-62.5 22.5z" />
    <glyph glyph-name="seven.den" horiz-adv-x="338" 
d="M149 0h-82l180 363h-230v70h304v-65z" />
    <glyph glyph-name="eight.den" horiz-adv-x="393" 
d="M370 113q0 -54 -47.5 -86.5t-125.5 -32.5q-81 0 -127 32t-46 86q0 48 33.5 78t86.5 36q-44 7 -74 32t-30 68q0 51 43 82t115 31q70 0 113.5 -31.5t43.5 -81.5q0 -42 -30.5 -67.5t-73.5 -32.5q53 -6 86 -35t33 -78zM198 244q38 0 63 17t25 48t-24 49t-64 18
q-42 0 -65.5 -18t-23.5 -49q0 -30 25 -47.5t64 -17.5zM198 60q44 0 71.5 20t27.5 54q0 37 -28.5 55t-70.5 18q-43 0 -72 -18t-29 -55q0 -33 28 -53.5t73 -20.5z" />
    <glyph glyph-name="nine.den" horiz-adv-x="403" 
d="M367 226q0 -112 -49 -172t-134 -60q-95 0 -153 58l52 57q40 -44 100 -44q52 0 80.5 42.5t27.5 124.5q-15 -35 -47 -54t-72 -19q-61 0 -101 34.5t-40 95.5q0 62 44 106t114 44q85 0 131.5 -58t46.5 -155zM102 281q0 -39 23.5 -60.5t63.5 -21.5q31 0 59 20t39 56
q-18 96 -97 96q-40 0 -64 -25t-24 -65z" />
    <glyph glyph-name="zero.sup" horiz-adv-x="416" 
d="M383 596q0 -111 -48.5 -168t-129.5 -57t-129 56t-48 169q0 109 49.5 164.5t127.5 55.5q75 0 126 -54q52 -52 52 -166zM106 595q0 -152 99 -152q49 0 74.5 34.5t25.5 117.5q0 82 -25.5 116t-73.5 34q-100 0 -100 -150z" />
    <glyph glyph-name="one.sup" horiz-adv-x="263" 
d="M126 810h76v-433h-78v346q-27 -80 -108 -80h-6v78h3q111 0 113 89z" />
    <glyph glyph-name="two.sup" horiz-adv-x="373" 
d="M188 816q69 0 107 -36t38 -90q0 -45 -27.5 -83.5t-87.5 -82.5q-79 -58 -109 -76h237v-71h-316v70q106 70 153 110q44 37 60.5 64t16.5 58q0 33 -19 52.5t-54 19.5q-73 0 -95 -86l-70 30q21 60 66 90.5t100 30.5z" />
    <glyph glyph-name="three.sup" horiz-adv-x="385" 
d="M15 456l62 43q32 -60 114 -60q42 0 65 20t23 52q0 67 -99 67h-66v40h59q91 0 91 67q0 31 -22 49t-57 18q-68 0 -97 -67l-63 31q24 48 67 74t97 26q62 0 103.5 -30t41.5 -82q0 -38 -23.5 -64.5t-63.5 -38.5q99 -19 99 -106q0 -55 -42.5 -89.5t-111.5 -34.5q-128 0 -177 85
z" />
    <glyph glyph-name="four.sup" horiz-adv-x="374" 
d="M228 607h75v-93h59v-39h-59v-98l-75 -1v99h-216v43l194 293h78v-3l-196 -294h140v93z" />
    <glyph glyph-name="five.sup" horiz-adv-x="383" 
d="M351 527q0 -67 -45 -112q-46 -44 -114 -44q-119 0 -167 84l74 42q27 -56 94 -56q38 0 61 24t23 71q0 37 -21.5 60.5t-60.5 23.5q-32 0 -55.5 -19t-33.5 -44l-69 11l23 242h269v-69h-206l-12 -129q41 48 108 48q58 0 95 -35.5t37 -97.5z" />
    <glyph glyph-name="six.sup" horiz-adv-x="404" 
d="M366 519q0 -60 -43 -104t-115 -44q-90 0 -135 57.5t-45 154.5q0 112 56 173q56 60 140 60q76 0 135 -43l-38 -62q-39 36 -96 36q-56 0 -91 -42t-35 -120v-14q18 37 53.5 59t78.5 22q59 0 97 -35.5t38 -97.5zM210 614q-34 0 -63.5 -26.5t-38.5 -70.5q25 -77 100 -77
q39 0 63.5 25t24.5 64q0 40 -23.5 62.5t-62.5 22.5z" />
    <glyph glyph-name="seven.sup" horiz-adv-x="338" 
d="M146 377h-82l180 363h-230v70h304v-65z" />
    <glyph glyph-name="eight.sup" horiz-adv-x="393" 
d="M367 490q0 -54 -47.5 -86.5t-125.5 -32.5q-81 0 -127 32t-46 86q0 48 33.5 78t86.5 36q-44 7 -74 32t-30 68q0 51 43 82t115 31q70 0 113.5 -31.5t43.5 -81.5q0 -42 -30.5 -67.5t-73.5 -32.5q53 -6 86 -35t33 -78zM195 621q38 0 63 17t25 48t-24 49t-64 18
q-42 0 -65.5 -18t-23.5 -49q0 -30 25 -47.5t64 -17.5zM195 437q44 0 71.5 20t27.5 54q0 37 -28.5 55t-70.5 18q-43 0 -72 -18t-29 -55q0 -33 28 -53.5t73 -20.5z" />
    <glyph glyph-name="nine.sup" horiz-adv-x="403" 
d="M364 603q0 -112 -49 -172t-134 -60q-95 0 -153 58l52 57q40 -44 100 -44q52 0 80.5 42.5t27.5 124.5q-15 -35 -47 -54t-72 -19q-61 0 -101 34.5t-40 95.5q0 62 44 106t114 44q85 0 131.5 -58t46.5 -155zM99 658q0 -39 23.5 -60.5t63.5 -21.5q31 0 59 20t39 56
q-18 96 -97 96q-40 0 -64 -25t-24 -65z" />
    <glyph glyph-name="zero.sub" horiz-adv-x="416" 
d="M383 139q0 -111 -48.5 -168t-129.5 -57t-129 56t-48 169q0 109 49.5 164.5t127.5 55.5q75 0 126 -54q52 -52 52 -166zM106 138q0 -152 99 -152q49 0 74.5 34.5t25.5 117.5q0 82 -25.5 116t-73.5 34q-100 0 -100 -150z" />
    <glyph glyph-name="one.sub" horiz-adv-x="263" 
d="M126 353h76v-433h-78v346q-27 -80 -108 -80h-6v78h3q111 0 113 89z" />
    <glyph glyph-name="two.sub" horiz-adv-x="373" 
d="M188 359q69 0 107 -36t38 -90q0 -45 -27.5 -83.5t-87.5 -82.5q-79 -58 -109 -76h237v-71h-316v70q106 70 153 110q44 37 60.5 64t16.5 58q0 33 -19 52.5t-54 19.5q-73 0 -95 -86l-70 30q21 60 66 90.5t100 30.5z" />
    <glyph glyph-name="three.sub" horiz-adv-x="385" 
d="M15 -1l62 43q32 -60 114 -60q42 0 65 20t23 52q0 67 -99 67h-66v40h59q91 0 91 67q0 31 -22 49t-57 18q-68 0 -97 -67l-63 31q24 48 67 74t97 26q62 0 103.5 -30t41.5 -82q0 -38 -23.5 -64.5t-63.5 -38.5q99 -19 99 -106q0 -55 -42.5 -89.5t-111.5 -34.5q-128 0 -177 85z
" />
    <glyph glyph-name="four.sub" horiz-adv-x="374" 
d="M228 150h75v-93h59v-39h-59v-98l-75 -1v99h-216v43l194 293h78v-3l-196 -294h140v93z" />
    <glyph glyph-name="five.sub" horiz-adv-x="383" 
d="M351 70q0 -68 -45 -111q-45 -45 -114 -45q-119 0 -167 84l74 42q27 -56 94 -56q38 0 61 24t23 71q0 37 -21.5 60.5t-60.5 23.5q-32 0 -55.5 -19t-33.5 -44l-69 11l23 242h269v-69h-206l-12 -129q41 48 108 48q58 0 95 -35.5t37 -97.5z" />
    <glyph glyph-name="six.sub" horiz-adv-x="404" 
d="M366 62q0 -60 -43 -104t-115 -44q-90 0 -135 57.5t-45 154.5q0 112 56 173q56 60 140 60q76 0 135 -43l-38 -62q-39 36 -96 36q-56 0 -91 -42t-35 -120v-14q18 37 53.5 59t78.5 22q59 0 97 -35.5t38 -97.5zM210 157q-34 0 -63.5 -26.5t-38.5 -70.5q25 -77 100 -77
q39 0 63.5 25t24.5 64q0 40 -23.5 62.5t-62.5 22.5z" />
    <glyph glyph-name="seven.sub" horiz-adv-x="338" 
d="M146 -80h-82l180 363h-230v70h304v-65z" />
    <glyph glyph-name="eight.sub" horiz-adv-x="393" 
d="M367 33q0 -54 -47.5 -86.5t-125.5 -32.5q-81 0 -127 32t-46 86q0 48 33.5 78t86.5 36q-44 7 -74 32t-30 68q0 51 43 82t115 31q70 0 113.5 -31.5t43.5 -81.5q0 -42 -30.5 -67.5t-73.5 -32.5q53 -6 86 -35t33 -78zM195 164q38 0 63 17t25 48t-24 49t-64 18
q-42 0 -65.5 -18t-23.5 -49q0 -30 25 -47.5t64 -17.5zM195 -20q44 0 71.5 20t27.5 54q0 37 -28.5 55t-70.5 18q-43 0 -72 -18t-29 -55q0 -33 28 -53.5t73 -20.5z" />
    <glyph glyph-name="nine.sub" horiz-adv-x="403" 
d="M364 146q0 -112 -49 -172t-134 -60q-95 0 -153 58l52 57q40 -44 100 -44q52 0 80.5 42.5t27.5 124.5q-15 -35 -47 -54t-72 -19q-61 0 -101 34.5t-40 95.5q0 62 44 106t114 44q85 0 131.5 -58t46.5 -155zM99 201q0 -39 23.5 -60.5t63.5 -21.5q31 0 59 20t39 56
q-18 96 -97 96q-40 0 -64 -25t-24 -65z" />
    <glyph glyph-name="fraction.alt" horiz-adv-x="1014" 
d="M519 425l167 318l91 -53l-221 -286zM497 307l-167 -319l-91 54l221 286z" />
    <glyph glyph-name="whitecircle" horiz-adv-x="915" 
d="M833 365q0 -163 -106 -269t-269 -106t-269 106t-106 269t106 269t269 106t269 -106t106 -269zM177 365q0 -123 76 -206t205 -83q128 0 204.5 83t76.5 206q0 124 -76.5 206.5t-204.5 82.5q-129 0 -205 -82.5t-76 -206.5z" />
    <glyph glyph-name="blackcircle" horiz-adv-x="915" 
d="M83 365q0 163 106 269t269 106t269 -106t106 -269t-106 -269t-269 -106t-269 106t-106 269z" />
    <glyph glyph-name="mediumblackcircle" horiz-adv-x="667" 
d="M334 510q110 0 184.5 -72.5t74.5 -187.5t-74.5 -187.5t-184.5 -72.5t-184.5 72.5t-74.5 187.5t74.5 187.5t184.5 72.5z" />
    <glyph glyph-name="blacksquare" horiz-adv-x="931" 
d="M829 0h-726v730h726v-730z" />
    <glyph glyph-name="whitesquare" horiz-adv-x="931" 
d="M829 0h-726v730h726v-730zM736 644h-541v-557h541v557z" />
    <glyph glyph-name="squaremultiply" horiz-adv-x="931" 
d="M829 0h-726v730h726v-730zM741 649h-551v-567h551v567zM299 145l-46 43l169 177l-169 178l46 43l167 -175l167 175l46 -43l-169 -178l169 -177l-46 -43l-167 174z" />
    <glyph glyph-name="blacksmallsquare" horiz-adv-x="687" 
d="M594 0h-500v500h500v-500z" />
    <glyph glyph-name="ballotboxwithx" horiz-adv-x="687" 
d="M594 500v-500h-500v500h500zM523 436h-359v-371h359v371zM245 111l-35 34l100 105l-100 106l35 33l99 -104l99 104l35 -33l-101 -106l101 -105l-35 -34l-99 104z" />
    <glyph glyph-name="plus.cap" horiz-adv-x="482" 
d="M206 351h-164v65h164v161h70v-161h164v-65h-164v-170h-70v170z" />
    <glyph glyph-name="minus.cap" horiz-adv-x="482" 
d="M440 344h-398v67h398v-67z" />
    <glyph glyph-name="multiply.cap" horiz-adv-x="478" 
d="M107 208l-47 45l132 133l-133 134l47 46l134 -136l134 136l45 -46l-132 -134l133 -132l-48 -46l-133 134z" />
    <glyph glyph-name="divide.cap" horiz-adv-x="482" 
d="M241 490q-29 0 -46 17.5t-17 45.5t17 46t46 18q28 0 45.5 -18t17.5 -46t-17.5 -45.5t-45.5 -17.5zM440 344h-398v67h398v-67zM241 136q-29 0 -46 17.5t-17 45.5t17 46t46 18q28 0 45.5 -18t17.5 -46t-17.5 -45.5t-45.5 -17.5z" />
    <glyph glyph-name="equal.cap" horiz-adv-x="482" 
d="M440 426h-398v67h398v-67zM440 228h-398v68h398v-68z" />
    <glyph glyph-name="less.cap" horiz-adv-x="479" 
d="M422 143l-377 201v37l377 201v-79l-271 -141l271 -140v-79z" />
    <glyph glyph-name="greater.cap" horiz-adv-x="479" 
d="M58 503v79l377 -201v-37l-377 -201v79l270 140z" />
    </font>
</defs>
</svg>
