<?xml version="1.0" standalone="no"?>
<!DOCTYPE svg PUBLIC "-//W3C//DTD SVG 1.1//EN" "http://www.w3.org/Graphics/SVG/1.1/DTD/svg11.dtd" >
<svg xmlns="http://www.w3.org/2000/svg" xmlns:xlink="http://www.w3.org/1999/xlink" version="1.1">
<metadata>
Created by FontForge 20170731 at Wed Jun 20 04:54:00 2018
 By Aleksey,,,
Copyright (c) 2018 by Lucas Sharp. All rights reserved.
</metadata>
<defs>
<font id="Beatrice-RegularItalic" horiz-adv-x="620" >
  <font-face 
    font-family="Beatrice"
    font-weight="400"
    font-style="italic"
    font-stretch="normal"
    units-per-em="1000"
    panose-1="0 0 0 0 0 0 0 0 0 0"
    ascent="800"
    descent="-200"
    x-height="560"
    cap-height="730"
    bbox="-209 -272 1209 1015"
    underline-thickness="50"
    underline-position="-200"
    unicode-range="U+000D-3009"
  />
<missing-glyph horiz-adv-x="732" 
d="M612 0h-569l102 730h569zM626 659h-413l-83 -587h413z" />
    <glyph glyph-name=".notdef" horiz-adv-x="732" 
d="M612 0h-569l102 730h569zM626 659h-413l-83 -587h413z" />
    <glyph glyph-name=".null" horiz-adv-x="0" 
 />
    <glyph glyph-name="nonmarkingreturn" horiz-adv-x="333" 
 />
    <glyph glyph-name="NULL" horiz-adv-x="0" 
 />
    <glyph glyph-name="NULL" horiz-adv-x="0" 
 />
    <glyph glyph-name="CR" unicode="&#xd;" horiz-adv-x="266" 
 />
    <glyph glyph-name="space" unicode=" " horiz-adv-x="266" 
 />
    <glyph glyph-name="exclam" unicode="!" horiz-adv-x="248" 
d="M135 215h-36l24 421q4 59 19.5 81.5t44.5 22.5q46 0 46 -54q0 -28 -30 -169zM93 -8q-33 0 -53.5 21t-16.5 54q2 31 23.5 51.5t54.5 20.5t52.5 -22.5t15.5 -54.5q-2 -30 -23 -50t-53 -20z" />
    <glyph glyph-name="quotedbl" unicode="&#x22;" horiz-adv-x="313" 
d="M124 483h-55l19 247h86zM269 483h-55l19 247h86z" />
    <glyph glyph-name="numbersign" unicode="#" horiz-adv-x="702" 
d="M137 26h-85l82 181h-120l10 73h153l76 167h-152l10 74h166l81 181h85l-82 -181h159l81 181h85l-82 -181h121l-10 -74h-153l-76 -167h151l-10 -73h-165l-82 -181h-84l81 181h-158zM318 448l-76 -168h178l76 168h-178z" />
    <glyph glyph-name="dollar" unicode="$" horiz-adv-x="661" 
d="M-3 151l88 68q65 -114 182 -135l36 258q-56 13 -88.5 24t-70 34t-51.5 62t-6 94q12 80 84 133q75 53 185 52l17 120h68l-17 -123q82 -9 139.5 -48t105.5 -107l-85 -64q-61 110 -177 129l-35 -250q41 -9 70.5 -18t63.5 -26.5t53.5 -39.5t30 -57.5t4.5 -79.5
q-13 -85 -82.5 -136.5t-193.5 -51.5l-19 -139h-68l20 144q-168 23 -254 157zM180 544q-9 -62 30 -89q38 -26 103 -43l34 240q-75 -1 -118 -31.5t-49 -76.5zM502 193q8 57 -29 86.5t-111 48.5l-35 -248h1q78 0 122.5 31t51.5 82z" />
    <glyph glyph-name="percent" unicode="%" horiz-adv-x="835" 
d="M274 740q77 0 120 -61t30 -161q-11 -81 -62 -131q-52 -50 -120 -50q-80 0 -125 61t-31 160q10 81 64 132q53 50 124 50zM460 423l282 316l68 -69l-323 -275zM270 669q-39 0 -68.5 -30.5t-37.5 -85.5q-9 -67 14 -105.5t67 -38.5q38 0 66 30t35 84q9 70 -12.5 108t-63.5 38
zM630 396q77 0 120 -61t30 -161q-11 -81 -62 -131q-52 -50 -120 -50q-80 0 -125 61t-31 160q10 81 64 132q53 50 124 50zM395 303l-279 -316l-67 69l318 275zM626 325q-39 0 -68.5 -30.5t-37.5 -85.5q-9 -67 14 -105.5t67 -38.5q38 0 66 30t35 84q9 70 -12.5 108t-63.5 38z
" />
    <glyph glyph-name="ampersand" unicode="&#x26;" horiz-adv-x="727" 
d="M652 38l-50 -46l-70 78q-101 -82 -246 -82q-129 0 -195 62.5t-51 157.5q18 121 209 183q-52 67 -59 112q-8 50 -4 77q10 72 64 116.5t141 44.5q99 0 151 -54q52 -52 41 -131q-10 -66 -64 -109.5t-164 -76.5l172 -194q60 79 80 216l86 -12q-27 -161 -113 -263zM262 561
q-11 -71 57 -150q89 25 132.5 54.5t49.5 75.5q6 44 -22 78q-29 35 -91 35q-56 0 -88 -24.5t-38 -68.5zM127 223q-8 -60 37 -106q47 -45 142 -45q105 0 174 55l-197 223q-71 -20 -110.5 -49.5t-45.5 -77.5z" />
    <glyph glyph-name="quotesingle" unicode="'" horiz-adv-x="168" 
d="M124 483h-55l19 247h86z" />
    <glyph glyph-name="parenleft" unicode="(" horiz-adv-x="389" 
d="M305 -145l-82 -77q-89 104 -133 248.5t-24 287.5q40 286 300 499l62 -80q-119 -79 -190 -191.5t-90 -239.5q-17 -125 22.5 -246.5t134.5 -200.5z" />
    <glyph glyph-name="parenright" unicode=")" horiz-adv-x="389" 
d="M100 735l82 77q89 -104 132.5 -248t23.5 -288q-40 -283 -302 -498l-63 80q120 79 192.5 192t90.5 239q19 123 -21 244.5t-135 201.5z" />
    <glyph glyph-name="asterisk" unicode="*" horiz-adv-x="425" 
d="M291 498l54 -148l-75 -23l-39 153l-125 -98l-44 64l131 84l-130 89l47 62l122 -101l43 153l74 -25l-57 -148l156 7v-78z" />
    <glyph glyph-name="plus" unicode="+" horiz-adv-x="472" 
d="M200 281h-163l9 65h163l22 161h71l-23 -161h162l-8 -65h-163l-24 -170h-70z" />
    <glyph glyph-name="comma" unicode="," horiz-adv-x="254" 
d="M171 30q-7 -51 -45.5 -105t-107.5 -91l-30 55q94 43 122 112q-11 -7 -28 -7q-33 0 -49.5 22t-13.5 54q3 29 24.5 49t54.5 20q40 0 60 -30t13 -79z" />
    <glyph glyph-name="hyphen" unicode="-" horiz-adv-x="422" 
d="M373 272h-328l8 59h328z" />
    <glyph glyph-name="period" unicode="." horiz-adv-x="248" 
d="M93 -8q-33 0 -53.5 21t-16.5 54q2 31 23.5 51.5t54.5 20.5t52.5 -22.5t15.5 -54.5q-2 -30 -23 -50t-53 -20z" />
    <glyph glyph-name="slash" unicode="/" horiz-adv-x="425" 
d="M17 -184h-82l485 960h82z" />
    <glyph glyph-name="zero" unicode="0" horiz-adv-x="697" 
d="M336 -10q-152 0 -221.5 109t-42.5 295q22 156 110 251t219 95q143 0 215 -108t45 -298q-23 -158 -107 -251t-218 -93zM341 79q93 0 150 68t74 195q21 151 -24 230.5t-146 79.5q-90 0 -150.5 -69.5t-77.5 -191.5q-21 -149 25.5 -230.5t148.5 -81.5z" />
    <glyph glyph-name="one" unicode="1" horiz-adv-x="382" 
d="M262 0h-97l84 594q-24 -56 -72 -86.5t-110 -30.5h-17l13 93h13q90 0 138 37.5t59 122.5h91z" />
    <glyph glyph-name="two" unicode="2" horiz-adv-x="606" 
d="M534 89l-13 -89h-511l12 86q178 120 270 186q95 68 143 121t57 109q10 68 -25.5 112.5t-108.5 44.5q-135 0 -192 -163l-89 32q47 113 124 162q79 50 165 50q123 0 178 -68.5t42 -158.5q-10 -68 -61 -132.5t-154 -136.5q-172 -117 -234 -155h397z" />
    <glyph glyph-name="three" unicode="3" horiz-adv-x="625" 
d="M296 333h-97l10 70h90q82 0 136 30t62 83q9 62 -28.5 101.5t-111.5 39.5q-132 0 -198 -129l-75 47q100 165 287 165q110 0 170 -60t46 -148q-8 -60 -55.5 -102.5t-121.5 -58.5q84 -17 121 -69t28 -124q-10 -80 -80 -134t-189 -54q-100 0 -170.5 41t-109.5 109l83 50
q60 -114 200 -114q80 0 126.5 32.5t54.5 89.5q10 68 -36.5 101.5t-141.5 33.5z" />
    <glyph glyph-name="four" unicode="4" horiz-adv-x="624" 
d="M599 240l-10 -69h-101l-24 -171l-95 -2l24 173h-383l8 55l414 504h106l-1 -3l-400 -487h266l22 160h95l-23 -160h102z" />
    <glyph glyph-name="five" unicode="5" 
d="M575 224q-15 -103 -90 -168.5t-191 -65.5q-102 0 -173 45q-69 45 -97 109l92 47q49 -112 182 -112q77 0 126.5 44t58.5 115q10 75 -25 129q-35 53 -121 53q-64 0 -108 -31q-45 -30 -65 -62l-85 14l92 389h420l-13 -88h-341l-56 -237q79 81 188 81q111 0 166 -76t40 -186z
" />
    <glyph glyph-name="six" unicode="6" horiz-adv-x="660" 
d="M415 655q-113 0 -181 -84t-74 -226q84 127 229 127q121 0 181 -75t45 -181q-15 -98 -86 -162t-186 -64q-106 0 -174 58t-91 148t-8 200q22 166 118 256q94 88 236 88q153 0 236 -109l-69 -66q-65 90 -176 90zM369 405q-144 0 -207 -146q12 -85 59 -133t128 -48
q75 0 121.5 41.5t55.5 107.5q10 74 -31.5 126t-125.5 52z" />
    <glyph glyph-name="seven" unicode="7" horiz-adv-x="548" 
d="M194 0h-106l384 643h-395l12 87h494l-12 -82z" />
    <glyph glyph-name="eight" unicode="8" horiz-adv-x="641" 
d="M592 182q-12 -87 -90 -139.5t-202 -52.5q-143 0 -212.5 64t-56.5 153q9 64 62.5 112t139.5 65q-65 21 -99 71t-24 116q11 75 81 121q70 48 185 48q129 0 189.5 -60t49.5 -143q-9 -56 -54 -97.5t-112 -59.5q76 -23 113 -78q39 -56 30 -120zM346 409q76 0 123 29.5t54 78.5
q9 61 -28.5 102t-124.5 41q-74 0 -120.5 -30.5t-53.5 -81.5q-9 -59 31.5 -99t118.5 -40zM309 74q86 0 135 33.5t58 93.5q9 72 -41 111.5t-132 39.5q-84 0 -138.5 -35t-62.5 -93q-9 -60 37 -105t144 -45z" />
    <glyph glyph-name="nine" unicode="9" horiz-adv-x="656" 
d="M277 76q142 0 204 126q38 75 46 190q-83 -133 -234 -133q-113 0 -172 73t-44 180q13 97 86.5 162.5t188.5 65.5q106 0 172 -59.5t86.5 -151t4.5 -204.5q-23 -156 -113.5 -245.5t-231.5 -89.5q-150 0 -246 104l69 70q74 -88 184 -88zM164 504q-11 -81 30.5 -128t122.5 -47
q66 0 121.5 32t88.5 96q-7 93 -52.5 145t-127.5 52q-76 0 -124.5 -41t-58.5 -109z" />
    <glyph glyph-name="colon" unicode=":" horiz-adv-x="248" 
d="M90 -8q-33 0 -53.5 21t-16.5 54q2 31 23.5 51.5t54.5 20.5t52.5 -22.5t15.5 -54.5q-2 -30 -23 -50t-53 -20zM141 355q-33 0 -53.5 21t-16.5 54q2 31 23.5 51.5t54.5 20.5t52.5 -22.5t15.5 -54.5q-2 -30 -23 -50t-53 -20z" />
    <glyph glyph-name="semicolon" unicode=";" horiz-adv-x="254" 
d="M171 30q-7 -51 -45.5 -105t-107.5 -91l-30 55q94 43 122 112q-11 -7 -28 -7q-33 0 -49.5 22t-13.5 54q3 29 24.5 49t54.5 20q40 0 60 -30t13 -79zM141 355q-33 0 -53.5 21t-16.5 54q2 31 23.5 51.5t54.5 20.5t52.5 -22.5t15.5 -54.5q-2 -30 -23 -50t-53 -20z" />
    <glyph glyph-name="less" unicode="&#x3c;" horiz-adv-x="472" 
d="M387 67l-349 203l5 35l406 203l-12 -80l-294 -143l254 -143z" />
    <glyph glyph-name="equal" unicode="=" horiz-adv-x="472" 
d="M443 354h-396l10 67h395zM415 160h-395l9 68h396z" />
    <glyph glyph-name="greater" unicode="&#x3e;" horiz-adv-x="472" 
d="M73 433l11 75l349 -203l-5 -35l-406 -203l11 80l295 142z" />
    <glyph glyph-name="question" unicode="?" horiz-adv-x="528" 
d="M274 220h-80l1 11q6 63 46 97q39 35 89 66q46 30 75 53q37 28 43 73q7 57 -26.5 94.5t-100.5 37.5q-131 0 -178 -138l-88 26q29 90 101 145t172 55q109 0 167.5 -62.5t43.5 -148.5q-11 -66 -50 -103q-38 -35 -86 -63q-51 -29 -86 -56q-37 -27 -42 -77zM212 -8
q-32 0 -52.5 21t-17.5 54q3 31 24 51.5t54 20.5t52.5 -22t16.5 -55q-3 -31 -24 -50.5t-53 -19.5z" />
    <glyph glyph-name="at" unicode="@" horiz-adv-x="1003" 
d="M434 28q-83 0 -126 57t-30 151q14 102 88 171.5t164 69.5q57 0 94 -30t46 -81l29 100h59l-80 -270q-16 -56 2.5 -88t64.5 -32q52 0 87 40t47 116q9 69 -6 134t-54 119.5t-110 87.5t-165 33q-89 0 -163.5 -29t-123.5 -77.5t-79 -108.5t-39 -126q-10 -74 5 -141.5
t54.5 -123t114 -89t173.5 -33.5q151 0 257 73l35 -70q-131 -83 -300 -83q-96 0 -173 27t-127.5 73t-82 107t-41 128t0.5 136q25 175 157 293.5t333 118.5q232 0 343 -157q45 -63 62 -141t7 -149q-13 -97 -65.5 -157t-139.5 -60q-64 0 -100.5 32t-36.5 89q-27 -48 -74 -79
t-107 -31zM458 80q79 0 131 69t59 155q5 57 -23.5 90t-85.5 33q-73 0 -128.5 -56t-65.5 -133q-10 -70 20.5 -114t92.5 -44z" />
    <glyph glyph-name="A" unicode="A" horiz-adv-x="732" 
d="M85 0h-104l395 730h109l188 -730h-101l-41 167h-358zM419 643l-47 -99l-161 -305h303l-74 306z" />
    <glyph glyph-name="B" unicode="B" horiz-adv-x="709" 
d="M377 0h-334l102 730h320q127 0 182 -56.5t42 -142.5q-9 -61 -55.5 -104.5t-122.5 -57.5q77 -13 116 -62.5t29 -127.5q-12 -82 -83 -130.5t-196 -48.5zM437 645h-207l-34 -241h210q80 0 129.5 29t56.5 85q7 52 -26 90q-33 37 -129 37zM399 334h-213l-35 -248h212
q96 0 144 30t56 89q9 64 -30.5 96.5t-133.5 32.5z" />
    <glyph glyph-name="C" unicode="C" horiz-adv-x="772" 
d="M401 -10q-177 0 -264 118t-59 297q23 144 122 239.5t254 95.5q137 0 216.5 -76.5t91.5 -218.5l-96 -17q-8 102 -59 162q-52 61 -162 61q-114 0 -184 -73.5t-87 -183.5q-21 -133 39 -223.5t192 -90.5q95 0 154 56q58 57 84 143l96 -29q-40 -120 -126 -190t-212 -70z" />
    <glyph glyph-name="D" unicode="D" horiz-adv-x="760" 
d="M314 0h-271l102 730h235q121 0 204 -55t115 -144t17 -197q-21 -148 -124.5 -241t-277.5 -93zM152 89h169q130 0 206.5 70.5t91.5 183.5q19 132 -45.5 215.5t-203.5 83.5h-141z" />
    <glyph glyph-name="E" unicode="E" horiz-adv-x="657" 
d="M571 0h-528l102 730h526l-12 -87h-430l-33 -236h344l-10 -75h-345l-34 -244h432z" />
    <glyph glyph-name="F" unicode="F" horiz-adv-x="631" 
d="M140 0h-97l102 730h503l-12 -87h-407l-36 -261h356l-11 -75h-356z" />
    <glyph glyph-name="G" unicode="G" horiz-adv-x="803" 
d="M465 740q130 0 202 -51q73 -51 114 -138l-92 -53q-31 78 -84 115.5t-148 37.5q-121 0 -195.5 -77.5t-89.5 -192.5q-20 -138 39.5 -220.5t179.5 -82.5q202 0 257 232h-257l10 72h354l-53 -382h-95l15 111l16 85q-76 -206 -276 -206q-153 0 -232.5 112t-55.5 283
q21 153 124 254t267 101z" />
    <glyph glyph-name="H" unicode="H" horiz-adv-x="752" 
d="M140 0h-97l102 730h97l-46 -323h395l46 323h97l-102 -730h-97l46 333h-395z" />
    <glyph glyph-name="I" unicode="I" horiz-adv-x="265" 
d="M142 0h-97l102 730h97z" />
    <glyph glyph-name="J" unicode="J" horiz-adv-x="615" 
d="M262 -10q-113 0 -174.5 55t-71.5 158l97 29q13 -157 153 -157q79 0 122 52.5t58 156.5l63 446h97l-64 -457q-18 -127 -86 -206q-68 -77 -194 -77z" />
    <glyph glyph-name="K" unicode="K" horiz-adv-x="696" 
d="M140 0h-97l102 730h97l-63 -446l433 446h123l-315 -319l234 -411h-111l-203 367l-173 -171z" />
    <glyph glyph-name="L" unicode="L" horiz-adv-x="605" 
d="M529 0h-486l102 730h97l-90 -641h389z" />
    <glyph glyph-name="M" unicode="M" horiz-adv-x="912" 
d="M458 153l305 577h131l-102 -730h-95l76 538l21 120l-53 -119l-285 -539h-81l-130 538l-21 118l-11 -118l-76 -538h-94l102 730h132l138 -577l11 -70z" />
    <glyph glyph-name="N" unicode="N" horiz-adv-x="753" 
d="M219 642l-6 -90l-77 -552h-93l102 730h116l265 -551l30 -82l9 91l76 542h94l-102 -730h-110l-271 566z" />
    <glyph glyph-name="O" unicode="O" horiz-adv-x="794" 
d="M399 -10q-174 0 -262 118t-63 297q21 143 118 239t245 96q172 0 258 -118.5t61 -299.5q-19 -141 -113.5 -236.5t-243.5 -95.5zM405 81q111 0 176.5 72t80.5 185q19 135 -40.5 224t-188.5 89q-110 0 -178 -73.5t-83 -183.5q-19 -134 41.5 -223.5t191.5 -89.5z" />
    <glyph glyph-name="P" unicode="P" horiz-adv-x="697" 
d="M344 231h-172l-32 -231h-97l102 730h263q147 0 217 -75.5t55 -189.5q-17 -117 -104.5 -175.5t-231.5 -58.5zM386 642h-156l-48 -338h158q217 0 240 158q12 83 -37 131.5t-157 48.5z" />
    <glyph glyph-name="Q" unicode="Q" horiz-adv-x="798" 
d="M402 -10q-174 0 -262 118t-63 297q21 144 117 239.5t246 95.5q165 0 254 -119.5t65 -298.5q-16 -125 -101 -221l68 -76l-59 -51l-67 76q-89 -60 -198 -60zM407 81q78 0 134 36l-88 101l59 50l86 -100q51 64 66 170q19 134 -42 223.5t-187 89.5q-110 0 -178 -73.5
t-83 -183.5q-19 -134 41.5 -223.5t191.5 -89.5z" />
    <glyph glyph-name="R" unicode="R" horiz-adv-x="707" 
d="M332 289h-152l-40 -289h-97l102 730h307q131 0 191 -62t47 -159q-12 -83 -74 -128q-61 -44 -144 -58q52 -7 85 -34q47 -41 60 -156l16 -133h-103l-13 131q-7 86 -37 120q-35 38 -148 38zM423 645h-193l-40 -284h183q93 0 151.5 33.5t67.5 100.5q9 65 -30 107
q-37 43 -139 43z" />
    <glyph glyph-name="S" unicode="S" horiz-adv-x="665" 
d="M359 406q39 -10 62 -17.5t57.5 -21t54.5 -30t39 -39.5t25 -54.5t0 -69.5q-11 -81 -81 -133t-183 -52q-219 0 -331 160l86 67q88 -137 252 -136q71 0 115 30t51 80q5 34 -6.5 58.5t-43 41.5t-57 25.5t-75.5 21.5q-15 4 -23 6q-55 14 -91.5 28.5t-70.5 39t-47 62t-5 88.5
q10 78 82 130q71 51 183 51q116 0 189 -42q74 -42 131 -120l-85 -63q-82 136 -243 136q-75 0 -116.5 -29t-47.5 -75q-10 -66 39 -94q47 -26 140 -49z" />
    <glyph glyph-name="T" unicode="T" horiz-adv-x="651" 
d="M328 644h-240l12 86h578l-12 -86h-241l-90 -644h-97z" />
    <glyph glyph-name="U" unicode="U" horiz-adv-x="728" 
d="M569 305l59 425h96l-60 -431q-22 -152 -103.5 -230.5t-214.5 -78.5q-142 0 -213 78t-50 231l61 431h97l-60 -425q-15 -109 26.5 -167t137.5 -58q100 0 154 56t70 169z" />
    <glyph glyph-name="V" unicode="V" horiz-adv-x="713" 
d="M646 730h108l-397 -730h-97l-175 730h102l107 -454l30 -168l81 168z" />
    <glyph glyph-name="W" unicode="W" horiz-adv-x="1013" 
d="M542 624l-28 -82l-229 -542h-108l-80 730h102l53 -530l6 -97l33 97l225 530h89l73 -531l7 -102l35 103l217 530h105l-305 -730h-114l-75 543z" />
    <glyph glyph-name="X" unicode="X" horiz-adv-x="680" 
d="M89 0h-116l328 386l-193 344h101l125 -226l31 -61l47 61l187 226h115l-300 -353l213 -377h-103l-144 262l-29 57l-45 -57z" />
    <glyph glyph-name="Y" unicode="Y" horiz-adv-x="650" 
d="M592 730h112l-336 -468l-36 -262h-97l37 266l-198 464h103l124 -301l30 -83l52 83z" />
    <glyph glyph-name="Z" unicode="Z" horiz-adv-x="640" 
d="M3 0l11 81l460 498l66 66h-435l11 85h540l-11 -81l-440 -477l-86 -87h449l-11 -85h-554z" />
    <glyph glyph-name="bracketleft" unicode="[" horiz-adv-x="394" 
d="M292 -200h-273l140 990h273l-13 -90h-193l-114 -810h193z" />
    <glyph glyph-name="backslash" unicode="\" horiz-adv-x="425" 
d="M152 776l215 -960h-80l-215 960h80z" />
    <glyph glyph-name="bracketright" unicode="]" horiz-adv-x="394" 
d="M116 790h273l-140 -990h-273l13 90h193l114 810h-193z" />
    <glyph glyph-name="asciicircum" unicode="^" horiz-adv-x="393" 
d="M38 397l181 333h64l99 -333h-78l-65 236l-120 -236h-81z" />
    <glyph glyph-name="underscore" unicode="_" horiz-adv-x="520" 
d="M423 -120h-440l7 52h440z" />
    <glyph glyph-name="grave" unicode="`" horiz-adv-x="345" 
d="M255 643l-44 -34l-145 175l60 41z" />
    <glyph glyph-name="a" unicode="a" horiz-adv-x="649" 
d="M199 -12q-95 0 -138.5 45.5t-34.5 113.5q10 75 84 114q50 26 192 54q88 18 123 32q33 15 38 47q5 40 -23 69.5t-102 29.5q-125 0 -182 -116l-84 38q92 156 270 156q113 0 169 -55.5t42 -155.5l-31 -214q-11 -79 49 -79q20 0 43 7l-10 -67q-38 -17 -73 -17
q-118 0 -105 129q-76 -131 -227 -131zM233 60q84 0 142 55q59 55 73 141l8 57q-28 -28 -152 -52q-98 -19 -135 -42q-39 -23 -43 -63q-6 -41 22.5 -68.5t84.5 -27.5z" />
    <glyph glyph-name="b" unicode="b" horiz-adv-x="681" 
d="M630 252q-17 -120 -88 -190q-70 -70 -175 -70q-86 0 -138 40.5t-72 109.5l-20 -142h-97l113 796h96l-49 -348q70 121 207 121q117 0 180 -88t43 -229zM340 72q79 0 130 51.5t63 137.5q15 98 -28 163.5t-135 65.5q-81 0 -134.5 -53t-64.5 -139q-13 -95 30.5 -160.5
t138.5 -65.5z" />
    <glyph glyph-name="c" unicode="c" horiz-adv-x="632" 
d="M316 -10q-139 0 -209 88t-49 229q15 114 96.5 189t208.5 75q119 0 177 -61q57 -59 74 -153l-99 -20q-19 153 -159 153q-85 0 -137.5 -53.5t-62.5 -136.5q-15 -100 31 -164t139 -64q69 1 109.5 35t66.5 106l96 -24q-74 -199 -282 -199z" />
    <glyph glyph-name="d" unicode="d" horiz-adv-x="685" 
d="M58 309q16 119 89.5 189.5t177.5 70.5q83 0 136 -40.5t73 -107.5l53 375h97l-112 -796h-96l16 120q-66 -128 -204 -128q-119 0 -184.5 88.5t-45.5 228.5zM321 72q83 0 133.5 51t63.5 142q15 97 -29.5 161t-137.5 64q-80 0 -132 -51.5t-64 -136.5q-15 -98 29 -164t137 -66
z" />
    <glyph glyph-name="e" unicode="e" horiz-adv-x="643" 
d="M323 -10q-102 0 -167.5 47t-88 117.5t-9.5 153.5q15 109 96 186t207 77q124 0 188 -75t60 -194l-4 -44h-458q-2 -80 45 -134q47 -53 131 -53q62 0 101.5 23t71.5 69l77 -50q-41 -51 -99 -87t-151 -36zM354 491q-80 0 -132.5 -47.5t-68.5 -124.5h363q1 83 -40.5 127.5
t-121.5 44.5z" />
    <glyph glyph-name="f" unicode="f" horiz-adv-x="427" 
d="M189 0h-93l68 480h-122l11 80h122l7 49q15 102 62.5 144.5t137.5 42.5h85l-11 -78h-78q-51 0 -73 -22.5t-30 -82.5l-7 -53h167l-11 -80h-167z" />
    <glyph glyph-name="g" unicode="g" horiz-adv-x="680" 
d="M52 309q16 119 89.5 189.5t177.5 70.5q80 0 133 -38.5t74 -102.5l19 132h96l-70 -498q-42 -301 -308 -301q-179 0 -256 125l94 52q54 -92 171 -92q85 0 135 49.5t67 162.5l8 54q-65 -120 -201 -120q-118 0 -183.5 88.5t-45.5 228.5zM314 72q83 0 134 51t64 142
q15 97 -29.5 161t-137.5 64q-80 0 -132 -51.5t-64 -136.5q-15 -98 28.5 -164t136.5 -66z" />
    <glyph glyph-name="h" unicode="h" horiz-adv-x="663" 
d="M175 269l-38 -269h-97l112 796h96l-53 -378q75 153 220 153q101 0 149 -68.5t33 -179.5l-46 -323h-96l42 304q12 81 -17 134t-113 53q-73 0 -125 -58.5t-67 -163.5z" />
    <glyph glyph-name="i" unicode="i" horiz-adv-x="256" 
d="M125 717q4 28 23.5 45.5t49.5 17.5t46.5 -20.5t12.5 -51.5q-4 -28 -22.5 -44.5t-47.5 -16.5q-31 0 -48.5 19.5t-13.5 50.5zM119 560h97l-79 -560h-97z" />
    <glyph glyph-name="j" unicode="j" horiz-adv-x="257" 
d="M125 717q4 28 23.5 45.5t49.5 17.5t46.5 -20.5t12.5 -51.5q-4 -28 -22.5 -44.5t-47.5 -16.5q-31 0 -48.5 19.5t-13.5 50.5zM216 560l-78 -561q-19 -122 -61 -168.5t-149 -46.5h-36l12 88h17q60 0 84 25t35 95l80 568h96z" />
    <glyph glyph-name="k" unicode="k" horiz-adv-x="596" 
d="M152 796h96l-81 -572l339 336h122l-262 -256l187 -304h-109l-159 272l-128 -122l-21 -150h-97z" />
    <glyph glyph-name="l" unicode="l" horiz-adv-x="255" 
d="M152 796h97l-112 -796h-97z" />
    <glyph glyph-name="m" unicode="m" horiz-adv-x="1025" 
d="M786 571q99 0 144 -66q45 -64 31 -168l-47 -337h-97l44 315q11 77 -16 126q-25 49 -104 49q-72 0 -117.5 -55.5t-60.5 -162.5l-38 -272h-97l45 319q22 171 -120 171q-72 0 -118.5 -57t-60.5 -164l-38 -269h-97l79 560h96l-19 -134q68 145 203 145q76 0 121 -39.5
t53 -109.5q74 149 214 149z" />
    <glyph glyph-name="n" unicode="n" horiz-adv-x="662" 
d="M136 0h-97l79 560h96l-20 -142q75 153 220 153q101 0 149 -68.5t33 -179.5l-46 -323h-96l42 304q12 81 -17 134t-113 53q-73 0 -125 -58.5t-67 -163.5z" />
    <glyph glyph-name="o" unicode="o" horiz-adv-x="662" 
d="M316 -10q-136 0 -207 88t-51 226q16 116 98 191.5t204 75.5q136 0 205.5 -89t51.5 -227q-17 -118 -94.5 -191.5t-206.5 -73.5zM323 73q82 0 132.5 52t63.5 137q15 101 -28 164.5t-134 63.5q-88 0 -139 -55t-63 -138q-14 -97 32 -160.5t136 -63.5z" />
    <glyph glyph-name="p" unicode="p" horiz-adv-x="680" 
d="M630 252q-17 -120 -88 -190q-70 -70 -175 -70q-86 0 -138 40.5t-72 109.5l-50 -358h-97l109 776h97l-16 -110q71 119 207 119q116 0 179.5 -88.5t43.5 -228.5zM340 72q79 0 130 51.5t63 137.5q15 99 -28 165.5t-136 66.5q-83 0 -135 -55t-64 -140q-13 -95 31 -160.5
t139 -65.5z" />
    <glyph glyph-name="q" unicode="q" horiz-adv-x="678" 
d="M58 309q16 119 89.5 189.5t177.5 70.5q80 0 132.5 -38t73.5 -101l19 130h96l-109 -776h-96l45 323q-65 -115 -198 -115q-119 0 -184.5 88.5t-45.5 228.5zM321 72q83 0 133.5 51t63.5 142q15 97 -29.5 161t-137.5 64q-80 0 -132 -51.5t-64 -136.5q-15 -98 29 -164t137 -66
z" />
    <glyph glyph-name="r" unicode="r" horiz-adv-x="463" 
d="M373 568q69 0 109 -32l-43 -86q-41 32 -101 32q-134 0 -163 -202l-39 -280h-97l79 560h96l-18 -129q52 137 177 137z" />
    <glyph glyph-name="s" unicode="s" horiz-adv-x="556" 
d="M3 107l78 64q71 -101 194 -101q59 0 90.5 24.5t35.5 59.5q3 18 -3.5 32.5t-15.5 23t-31 16.5t-36 11.5t-43 10.5l-7.5 1.5t-7 1.5t-7.5 2q-46 9 -77.5 20t-60.5 30t-40.5 49t-5.5 72q10 67 69 108t153 41q164 0 260 -119l-80 -62q-72 98 -194 98q-54 0 -86.5 -21
t-36.5 -56q-3 -19 3.5 -34t16.5 -24t33 -17.5t39 -12.5t48 -11q6 -1 9 -2q47 -10 77 -19.5t61.5 -28.5t44 -50.5t5.5 -75.5q-9 -63 -65 -106t-152 -43q-176 0 -268 118z" />
    <glyph glyph-name="t" unicode="t" horiz-adv-x="438" 
d="M371 90l-12 -81q-44 -19 -88 -19q-88 0 -122.5 45.5t-21.5 137.5l43 307h-127l12 80h127l21 148l100 55l-29 -203h163l-12 -80h-162l-42 -298q-9 -61 10 -85t66 -24q27 0 74 17z" />
    <glyph glyph-name="u" unicode="u" horiz-adv-x="648" 
d="M525 560h96l-79 -560h-96l20 139q-36 -73 -92.5 -111.5t-123.5 -38.5q-101 0 -147 63.5t-30 175.5l47 332h97l-44 -313q-25 -177 122 -177q73 0 125 57.5t67 161.5z" />
    <glyph glyph-name="v" unicode="v" horiz-adv-x="593" 
d="M619 560l-314 -560h-99l-154 560h99l100 -384l16 -88l42 88l209 384h101z" />
    <glyph glyph-name="w" unicode="w" horiz-adv-x="858" 
d="M453 468l-27 -70l-178 -398h-117l-67 560h99l43 -416l4 -83l31 83l187 416h76l66 -414l7 -87l29 86l168 415h99l-237 -560h-114l-61 400z" />
    <glyph glyph-name="x" unicode="x" horiz-adv-x="579" 
d="M80 0h-111l266 290l-170 270h109l127 -207l187 207h109l-249 -272l184 -288h-107l-142 226z" />
    <glyph glyph-name="y" unicode="y" horiz-adv-x="594" 
d="M51 560h98l103 -373l17 -86l43 87l208 372h102l-448 -776h-103l136 229z" />
    <glyph glyph-name="z" unicode="z" horiz-adv-x="566" 
d="M556 560l-11 -80l-430 -396h378l-11 -84h-479l11 81l430 396h-367l11 83h468z" />
    <glyph glyph-name="braceleft" unicode="{" horiz-adv-x="419" 
d="M79 260h-40l10 71h35q53 0 78 16.5t29 51.5q6 41 -20 120t-18 134q9 68 64.5 102.5t135.5 34.5q56 0 103 -7l-13 -89q-42 7 -89 7q-100 0 -112 -83q-6 -39 13 -107.5t14 -107.5q-15 -92 -113 -108q35 -5 55 -26.5t25 -44t2 -47.5q-6 -40 -44 -103t-42 -96
q-6 -41 15.5 -65t69.5 -24q50 0 94 7l-13 -89q-47 -7 -109 -7q-79 0 -123 38.5t-34 106.5q8 53 55.5 124.5t53.5 110.5q4 30 -11 55q-13 25 -71 25z" />
    <glyph glyph-name="bar" unicode="|" horiz-adv-x="221" 
d="M218 776l-135 -960h-77l135 960h77z" />
    <glyph glyph-name="braceright" unicode="}" horiz-adv-x="421" 
d="M354 330h40l-10 -71h-35q-53 0 -78 -16.5t-29 -51.5q-6 -41 20 -120t18 -134q-9 -68 -64.5 -102.5t-135.5 -34.5q-56 0 -103 7l13 89q42 -7 89 -7q100 0 112 83q5 39 -14 107.5t-13 107.5q15 92 113 108q-35 5 -55 26.5t-25 44t-2 47.5q6 40 44 103t42 96q6 41 -15.5 65
t-69.5 24q-50 0 -94 -7l13 89q47 7 109 7q79 0 123 -38.5t34 -106.5q-8 -53 -55.5 -124.5t-53.5 -110.5q-4 -29 10 -56q15 -24 72 -24z" />
    <glyph glyph-name="asciitilde" unicode="~" horiz-adv-x="479" 
d="M339 272q-32 0 -58.5 18t-41 39t-33.5 39t-37 18q-50 0 -51 -113h-71q2 95 38.5 142.5t84.5 47.5q32 0 59 -18t41.5 -39t32.5 -39t36 -18q46 0 47 113h72q-2 -94 -37.5 -142t-81.5 -48z" />
    <glyph glyph-name="exclamdown" unicode="&#xa1;" horiz-adv-x="248" 
d="M157 568q33 0 53.5 -21t16.5 -54q-2 -31 -23.5 -51.5t-54.5 -20.5t-52.5 22.5t-15.5 54.5q2 30 23 50t53 20zM115 345h36l-24 -421q-4 -59 -19.5 -81.5t-44.5 -22.5q-46 0 -46 54q0 28 30 169z" />
    <glyph glyph-name="cent" unicode="&#xa2;" horiz-adv-x="650" 
d="M327 -44h-68l15 114q-115 17 -169 108t-37 205q15 108 89.5 182.5t197.5 80.5l18 120h68l-18 -123q88 -13 139 -71t67 -140l-97 -19q-22 131 -125 149l-58 -413q126 7 173 142l88 -25q-32 -89 -100 -142.5t-168 -57.5zM165 376q-13 -81 20 -144.5t104 -78.5l59 412
q-78 -6 -125 -60t-58 -129z" />
    <glyph glyph-name="sterling" unicode="&#xa3;" horiz-adv-x="678" 
d="M151 298h-109l8 53h88l-6 18t-6.5 20t-5.5 19t-5.5 21.5t-3.5 21.5t-2 25t0.5 25.5t2.5 29.5q14 97 87.5 153t181.5 56q68 0 120 -21.5t82 -59.5t46 -82t20 -97l-98 -19q-20 194 -172 194q-69 0 -116 -35.5t-56 -103.5q-1 -26 -2.5 -37t2 -34t5.5 -32t7 -31t7 -31h280
l-8 -53h-266q1 -13 -1 -37q-11 -81 -87 -145q44 14 82 14q44 0 112.5 -27t106.5 -27q84 0 107 115l81 -22q-22 -96 -73 -138.5t-114 -42.5q-52 0 -126.5 32t-114.5 32q-67 0 -170 -59l-29 75q132 68 145 167q5 35 0 63z" />
    <glyph glyph-name="currency" unicode="&#xa4;" horiz-adv-x="579" 
d="M168 206l-103 -96l-46 52l103 96q-32 57 -21 126q8 68 52 120l-72 90l63 50l71 -90q51 27 111 27q63 0 108 -32l102 95l50 -52l-105 -96q31 -55 23 -127q-8 -67 -53 -119l73 -89l-60 -51l-73 91q-53 -28 -111 -28q-66 0 -112 33zM290 245q58 0 92 34t43 91
q9 62 -19.5 101.5t-89.5 39.5q-54 0 -91 -35.5t-45 -90.5q-9 -65 20 -102.5t90 -37.5z" />
    <glyph glyph-name="yen" unicode="&#xa5;" horiz-adv-x="666" 
d="M550 242l-8 -53h-176l-26 -189h-97l26 189h-174l7 53h175l10 71h-175l8 53h158l-196 364h105l130 -244l34 -65l53 65l200 244h106l-302 -364h159l-8 -53h-176l-10 -71h177z" />
    <glyph glyph-name="brokenbar" unicode="&#xa6;" horiz-adv-x="221" 
d="M218 776l-62 -430h-77l62 430h77zM143 246l-60 -430h-77l60 430h77z" />
    <glyph glyph-name="section" unicode="&#xa7;" horiz-adv-x="594" 
d="M277 132l-103 30q-76 21 -110 60.5t-27 89.5q8 52 56.5 86t123.5 44q-69 18 -99 58.5t-21 93.5q10 68 71.5 107.5t156.5 39.5q101 0 168 -34q67 -33 105 -71l-70 -75q-35 44 -87.5 70.5t-112.5 26.5q-58 0 -96 -19.5t-43 -56.5q-4 -37 20.5 -61.5t93.5 -41.5l102 -25
q94 -23 132 -60.5t31 -95.5q-6 -51 -52 -87.5t-125 -51.5q63 -17 90 -56.5t20 -90.5q-10 -68 -75.5 -107.5t-170.5 -39.5q-86 0 -160 26t-117 71l71 75q33 -41 89.5 -64.5t127.5 -23.5q131 0 144 77q6 39 -22 60q-27 22 -111 46zM107 321q-4 -33 20 -59.5t91 -46.5
q40 -13 109 -27q158 19 169 98q5 41 -23 67.5t-101 44.5q-33 8 -100 20q-63 -8 -111 -30q-47 -23 -54 -67z" />
    <glyph glyph-name="dieresis" unicode="&#xa8;" horiz-adv-x="355" 
d="M219 695q4 28 22.5 44.5t47.5 16.5q30 0 46 -19.5t12 -50.5q-4 -27 -22 -43t-46 -16q-30 0 -47 19t-13 49zM16 695q4 28 22.5 44.5t47.5 16.5q30 0 46 -19.5t12 -50.5q-4 -27 -22 -43t-46 -16q-30 0 -47 19t-13 49z" />
    <glyph glyph-name="copyright" unicode="&#xa9;" horiz-adv-x="859" 
d="M68 404q21 146 128.5 241.5t270.5 95.5q76 0 139 -24t105 -65t69.5 -94.5t36 -114t-0.5 -121.5q-20 -139 -121.5 -235.5t-267.5 -96.5q-79 0 -144 24t-108 65t-70.5 94t-36 112t-0.5 119zM433 62q131 0 210.5 75.5t94.5 191.5q9 65 -3.5 125.5t-45.5 109t-92 78
t-136 29.5q-129 0 -214 -75.5t-101 -193.5q-9 -65 4 -125t46 -108.5t94.5 -77.5t142.5 -29zM557 338l56 -10q-16 -69 -62.5 -106t-115.5 -37q-88 0 -130 59t-31 140q9 74 62 124t131 50q65 0 104 -37.5t50 -95.5l-58 -16q-10 47 -32.5 71.5t-67.5 24.5q-53 0 -86.5 -34
t-40.5 -87q-9 -61 17 -103t85 -42q94 0 119 99z" />
    <glyph glyph-name="ordfeminine" unicode="&#xaa;" horiz-adv-x="448" 
d="M151 342q-59 0 -92.5 33t-27.5 84q6 50 49 75q16 10 39.5 16.5t40.5 9t62 7.5q57 7 81.5 19.5t26.5 33.5q3 24 -18 38t-59 14q-82 0 -126 -71l-64 38q67 99 189 99q79 0 120 -37.5t32 -103.5l-20 -143q-7 -45 33 -45q6 0 11.5 0.5t11.5 2t8 1.5l-9 -62q-23 -6 -51 -6
q-94 0 -83 100q-51 -103 -154 -103zM184 402q54 0 90.5 41.5t46.5 113.5q-29 -20 -100 -27q-54 -6 -77.5 -19.5t-27.5 -43.5t15 -47.5t53 -17.5z" />
    <glyph glyph-name="guillemotleft" unicode="&#xab;" horiz-adv-x="469" 
d="M195 456h105l-187 -183l133 -179h-98l-135 179v8zM378 456h105l-189 -185l132 -177h-98l-135 178v6z" />
    <glyph glyph-name="logicalnot" unicode="&#xac;" horiz-adv-x="436" 
d="M42 398h376l-33 -229h-69l23 167h-306z" />
    <glyph glyph-name="uni00AD" unicode="&#xad;" horiz-adv-x="422" 
d="M373 272h-328l8 59h328z" />
    <glyph glyph-name="registered" unicode="&#xae;" horiz-adv-x="628" 
d="M361 741q125 0 194.5 -86.5t53.5 -209.5q-13 -102 -89 -167q-75 -63 -184 -63q-127 0 -197.5 86t-54.5 207q14 104 91.5 168.5t185.5 64.5zM552 450q15 103 -38.5 171t-157.5 68q-87 0 -146 -50t-70 -134q-13 -100 40.5 -169t158.5 -69q86 0 143.5 49.5t69.5 133.5z
M452 416l3 -66h-53l1 57q0 29 -10.5 39t-43.5 10h-56l-14 -106h-51l39 274h110q55 0 80 -24t19 -60q-7 -53 -75 -65q10 -1 24 -7q25 -12 27 -52zM374 579h-64l-12 -90h59q66 0 72 40q4 24 -9 37t-46 13z" />
    <glyph glyph-name="overscore" unicode="&#xaf;" horiz-adv-x="322" 
d="M294 648h-274l8 59h274z" />
    <glyph glyph-name="degree" unicode="&#xb0;" horiz-adv-x="343" 
d="M208 448q-75 0 -110.5 46.5t-26.5 111.5q7 56 48 93.5t107 37.5q72 0 108.5 -45.5t27.5 -109.5q-9 -59 -49.5 -96.5t-104.5 -37.5zM210 506q35 0 58 22t28 58q5 38 -14 65.5t-56 27.5q-38 0 -61.5 -21.5t-27.5 -57.5q-6 -39 13.5 -66.5t59.5 -27.5z" />
    <glyph glyph-name="plusminus" unicode="&#xb1;" horiz-adv-x="472" 
d="M207 346h-162l8 65h163l23 160h70l-23 -160h163l-9 -65h-163l-24 -171h-70zM395 31h-395l9 68h396z" />
    <glyph glyph-name="acute" unicode="&#xb4;" horiz-adv-x="314" 
d="M280 773l-200 -164l-35 41l189 175z" />
    <glyph glyph-name="paragraph" unicode="&#xb6;" horiz-adv-x="679" 
d="M379 0h-58l36 259q-145 7 -219 78t-57 184q14 98 98 153.5t226 55.5h269l-103 -730h-92l90 643h-100zM178 499q-12 -83 39 -134t150 -57l47 335h-15q-98 0 -154.5 -37.5t-66.5 -106.5z" />
    <glyph glyph-name="middot" unicode="&#xb7;" horiz-adv-x="248" 
d="M123 224q-33 0 -53.5 21t-16.5 54q2 31 23.5 51.5t54.5 20.5t52.5 -22.5t15.5 -54.5q-2 -30 -23 -50t-53 -20z" />
    <glyph glyph-name="cedilla" unicode="&#xb8;" horiz-adv-x="345" 
d="M291 -140q-3 -47 -40 -74.5t-98 -27.5q-73 0 -123 30l28 50q42 -25 97 -25q76 0 78 53q1 22 -14 32t-44 10q-28 0 -57 -9l-17 10l61 120l48 -12l-33 -67h17q51 0 75.5 -25.5t21.5 -64.5z" />
    <glyph glyph-name="ordmasculine" unicode="&#xba;" horiz-adv-x="450" 
d="M241 347q-98 0 -147.5 62t-36.5 150q10 76 66 127t139 51q96 0 146.5 -62.5t37.5 -148.5q-10 -77 -65 -128t-140 -51zM242 414q49 0 81 33.5t39 85.5q7 55 -16 97q-23 41 -83 41q-51 0 -83.5 -34t-39.5 -86q-7 -55 17 -96q26 -41 85 -41z" />
    <glyph glyph-name="guillemotright" unicode="&#xbb;" horiz-adv-x="469" 
d="M454 277v-8l-182 -175h-104l186 183l-133 179h98zM274 278v-6l-185 -178h-105l189 185l-132 177h98z" />
    <glyph glyph-name="onequarter" unicode="&#xbc;" horiz-adv-x="824" 
d="M670 230h75l-13 -93h59l-6 -39h-59l-13 -98h-75l14 98h-217l6 43l223 293h78v-3l-219 -294h134zM435 419l211 319l61 -44l-258 -285zM376 312l-212 -319l-60 45l258 284zM205 297h-78l47 337q-33 -71 -117 -71h-7l11 78h13q107 0 115 89h76z" />
    <glyph glyph-name="onehalf" unicode="&#xbd;" horiz-adv-x="847" 
d="M435 419l211 319l61 -44l-258 -285zM376 312l-212 -319l-60 45l258 284zM205 297h-78l47 337q-33 -71 -117 -71h-7l11 78h13q107 0 115 89h76zM780 0h-316l10 70q100 62 154 98q53 35 79 64t30 60q4 33 -12 57.5t-55 24.5q-69 0 -103 -86l-66 30q60 121 178 121
q72 0 105.5 -41.5t26.5 -96.5q-10 -72 -123 -147q-63 -40 -135 -83h237z" />
    <glyph glyph-name="threequarters" unicode="&#xbe;" horiz-adv-x="894" 
d="M366 405q-7 -50 -51 -81.5t-114 -31.5q-57 0 -102.5 22.5t-69.5 62.5l64 42q34 -59 111 -59q43 0 68 19t29 48q4 34 -19 53t-68 19h-69l6 40h59q94 0 102 60q4 32 -14.5 53t-56.5 21q-65 0 -107 -67l-59 31q63 100 175 100q66 0 103 -35.5t30 -88.5q-5 -32 -32 -57.5
t-70 -34.5q96 -24 85 -116zM740 230h75l-13 -93h59l-6 -39h-59l-13 -98h-75l14 98h-217l6 43l223 293h78v-3l-219 -294h134zM505 419l211 319l61 -44l-258 -285zM446 312l-212 -319l-60 45l258 284z" />
    <glyph glyph-name="questiondown" unicode="&#xbf;" horiz-adv-x="500" 
d="M316 565q32 0 52.5 -21t17.5 -54q-3 -31 -24 -51.5t-54 -20.5t-52.5 22t-16.5 55q3 31 24 50.5t53 19.5zM254 337h80l-1 -11q-6 -62 -47 -98q-44 -38 -88 -65q-45 -29 -76 -53q-36 -29 -42 -73q-7 -58 26 -95.5t101 -37.5q132 0 178 139l88 -26q-28 -91 -100 -146
t-173 -55q-109 0 -167.5 63t-43.5 149q11 67 49 102q39 36 87 64t86 55q37 29 42 78z" />
    <glyph glyph-name="Agrave" unicode="&#xc0;" horiz-adv-x="732" 
d="M85 0h-104l395 730h109l188 -730h-101l-41 167h-358zM419 643l-47 -99l-161 -305h303l-74 306zM518 821l-34 -43l-191 139l44 57z" />
    <glyph glyph-name="Aacute" unicode="&#xc1;" horiz-adv-x="732" 
d="M85 0h-104l395 730h109l188 -730h-101l-41 167h-358zM419 643l-47 -99l-161 -305h303l-74 306zM629 915l-230 -137l-29 46l223 150z" />
    <glyph glyph-name="Acircumflex" unicode="&#xc2;" horiz-adv-x="732" 
d="M85 0h-104l395 730h109l188 -730h-101l-41 167h-358zM419 643l-47 -99l-161 -305h303l-74 306zM263 810l176 143h43l123 -145l-43 -37l-104 123l-157 -126z" />
    <glyph glyph-name="Atilde" unicode="&#xc3;" horiz-adv-x="732" 
d="M85 0h-104l395 730h109l188 -730h-101l-41 167h-358zM419 643l-47 -99l-161 -305h303l-74 306zM376 874q-44 0 -46 -84l-58 8q3 61 31.5 99.5t72.5 38.5q32 0 58 -21t46.5 -42t40.5 -21q42 0 49 84l57 -8q-4 -61 -32.5 -99.5t-70.5 -38.5q-25 0 -48 13t-36.5 29t-30.5 29
t-33 13z" />
    <glyph glyph-name="Adieresis" unicode="&#xc4;" horiz-adv-x="732" 
d="M85 0h-104l395 730h109l188 -730h-101l-41 167h-358zM419 643l-47 -99l-161 -305h303l-74 306zM483 846q4 27 22 42.5t45 15.5q29 0 44.5 -19t11.5 -47q-4 -27 -21.5 -42t-44.5 -15q-28 0 -44.5 18.5t-12.5 46.5zM282 846q4 27 22 42.5t45 15.5q29 0 44.5 -19t11.5 -47
q-4 -26 -21 -41.5t-44 -15.5q-28 0 -45 18.5t-13 46.5z" />
    <glyph glyph-name="Aring" unicode="&#xc5;" horiz-adv-x="732" 
d="M85 0h-104l395 730h109l188 -730h-101l-41 167h-358zM419 643l-47 -99l-161 -305h303l-74 306zM446 783q-57 0 -89.5 35.5t-25.5 89.5q6 48 41.5 77.5t86.5 29.5q57 0 88.5 -36.5t23.5 -91.5q-7 -47 -41.5 -75.5t-83.5 -28.5zM447 829q28 0 48 17t24 46q4 35 -12.5 56
t-50.5 21q-30 0 -49.5 -17t-22.5 -47q-4 -34 13 -55t50 -21z" />
    <glyph glyph-name="AE" unicode="&#xc6;" horiz-adv-x="955" 
d="M83 0h-106l465 730h527l-12 -87h-409l3 -236h287l-10 -75h-276l4 -244h325l-12 -88h-392l-2 168h-288zM471 625l-58 -95l-181 -290h243l-3 290z" />
    <glyph glyph-name="Ccedilla" unicode="&#xc7;" horiz-adv-x="772" 
d="M494 -143q-3 -47 -40 -74.5t-98 -27.5q-73 0 -123 30l28 50q42 -25 97 -25q76 0 78 53q1 22 -14 32t-44 10q-28 0 -57 -9l-17 10l43 87q-151 18 -224 133t-46 279q23 144 122 239.5t254 95.5q137 0 216.5 -76.5t91.5 -218.5l-96 -17q-8 102 -59 162q-52 61 -162 61
q-114 0 -184 -73.5t-87 -183.5q-21 -133 39 -223.5t192 -90.5q95 0 154 56q58 57 84 143l96 -29q-40 -120 -126 -190t-212 -70l-20 -43h17q51 0 75.5 -25.5t21.5 -64.5z" />
    <glyph glyph-name="Egrave" unicode="&#xc8;" horiz-adv-x="657" 
d="M571 0h-528l102 730h526l-12 -87h-430l-33 -236h344l-10 -75h-345l-34 -244h432zM501 821l-34 -43l-191 139l44 57z" />
    <glyph glyph-name="Eacute" unicode="&#xc9;" horiz-adv-x="657" 
d="M571 0h-528l102 730h526l-12 -87h-430l-33 -236h344l-10 -75h-345l-34 -244h432zM613 915l-230 -137l-29 46l223 150z" />
    <glyph glyph-name="Ecircumflex" unicode="&#xca;" horiz-adv-x="657" 
d="M571 0h-528l102 730h526l-12 -87h-430l-33 -236h344l-10 -75h-345l-34 -244h432zM248 814l176 143h43l123 -145l-43 -37l-104 123l-157 -126z" />
    <glyph glyph-name="Edieresis" unicode="&#xcb;" horiz-adv-x="657" 
d="M571 0h-528l102 730h526l-12 -87h-430l-33 -236h344l-10 -75h-345l-34 -244h432zM471 846q4 27 22 42.5t45 15.5q29 0 44.5 -19t11.5 -47q-4 -27 -21.5 -42t-44.5 -15q-28 0 -44.5 18.5t-12.5 46.5zM270 846q4 27 22 42.5t45 15.5q29 0 44.5 -19t11.5 -47
q-4 -26 -21 -41.5t-44 -15.5q-28 0 -45 18.5t-13 46.5z" />
    <glyph glyph-name="Igrave" unicode="&#xcc;" horiz-adv-x="265" 
d="M142 0h-97l102 730h97zM286 821l-34 -43l-191 139l44 57z" />
    <glyph glyph-name="Iacute" unicode="&#xcd;" horiz-adv-x="265" 
d="M142 0h-97l102 730h97zM398 915l-230 -137l-29 46l223 150z" />
    <glyph glyph-name="Icircumflex" unicode="&#xce;" horiz-adv-x="265" 
d="M142 0h-97l102 730h97zM32 814l176 143h43l123 -145l-43 -37l-104 123l-157 -126z" />
    <glyph glyph-name="Idieresis" unicode="&#xcf;" horiz-adv-x="265" 
d="M142 0h-97l102 730h97zM252 846q4 27 22 42.5t45 15.5q29 0 44.5 -19t11.5 -47q-4 -27 -21.5 -42t-44.5 -15q-28 0 -44.5 18.5t-12.5 46.5zM51 846q4 27 22 42.5t45 15.5q29 0 44.5 -19t11.5 -47q-4 -26 -21 -41.5t-44 -15.5q-28 0 -45 18.5t-13 46.5z" />
    <glyph glyph-name="Eth" unicode="&#xd0;" horiz-adv-x="771" 
d="M326 0h-271l46 331h-100l10 72h100l46 327h235q121 0 204 -55t115 -144t17 -197q-21 -148 -124.5 -241t-277.5 -93zM164 89h169q130 0 206.5 70.5t91.5 183.5q19 132 -45.5 215.5t-203.5 83.5h-141l-34 -243h172l-9 -63h-172z" />
    <glyph glyph-name="Ntilde" unicode="&#xd1;" horiz-adv-x="753" 
d="M219 642l-6 -90l-77 -552h-93l102 730h116l265 -551l30 -82l9 91l76 542h94l-102 -730h-110l-271 566zM389 864q-44 0 -46 -84l-58 8q3 61 31.5 99.5t72.5 38.5q32 0 58 -21t46.5 -42t40.5 -21q42 0 49 84l57 -8q-4 -61 -32.5 -99.5t-70.5 -38.5q-25 0 -48 13t-36.5 29
t-30.5 29t-33 13z" />
    <glyph glyph-name="Ograve" unicode="&#xd2;" horiz-adv-x="794" 
d="M392 -10q-174 0 -262 118t-63 297q21 143 118 239t245 96q172 0 258 -118.5t61 -299.5q-19 -141 -113.5 -236.5t-243.5 -95.5zM398 81q111 0 176.5 72t80.5 185q19 135 -40.5 224t-188.5 89q-110 0 -178 -73.5t-83 -183.5q-19 -134 41.5 -223.5t191.5 -89.5zM537 821
l-34 -43l-191 139l44 57z" />
    <glyph glyph-name="Oacute" unicode="&#xd3;" horiz-adv-x="794" 
d="M392 -10q-174 0 -262 118t-63 297q21 143 118 239t245 96q172 0 258 -118.5t61 -299.5q-19 -141 -113.5 -236.5t-243.5 -95.5zM398 81q111 0 176.5 72t80.5 185q19 135 -40.5 224t-188.5 89q-110 0 -178 -73.5t-83 -183.5q-19 -134 41.5 -223.5t191.5 -89.5zM658 915
l-230 -137l-29 46l223 150z" />
    <glyph glyph-name="Ocircumflex" unicode="&#xd4;" horiz-adv-x="794" 
d="M392 -10q-174 0 -262 118t-63 297q21 143 118 239t245 96q172 0 258 -118.5t61 -299.5q-19 -141 -113.5 -236.5t-243.5 -95.5zM398 81q111 0 176.5 72t80.5 185q19 135 -40.5 224t-188.5 89q-110 0 -178 -73.5t-83 -183.5q-19 -134 41.5 -223.5t191.5 -89.5zM287 814
l176 143h43l123 -145l-43 -37l-104 123l-157 -126z" />
    <glyph glyph-name="Otilde" unicode="&#xd5;" horiz-adv-x="794" 
d="M392 -10q-174 0 -262 118t-63 297q21 143 118 239t245 96q172 0 258 -118.5t61 -299.5q-19 -141 -113.5 -236.5t-243.5 -95.5zM398 81q111 0 176.5 72t80.5 185q19 135 -40.5 224t-188.5 89q-110 0 -178 -73.5t-83 -183.5q-19 -134 41.5 -223.5t191.5 -89.5zM396 877
q-44 0 -46 -84l-58 8q3 61 31.5 99.5t72.5 38.5q32 0 58 -21t46.5 -42t40.5 -21q42 0 49 84l57 -8q-4 -61 -32.5 -99.5t-70.5 -38.5q-25 0 -48 13t-36.5 29t-30.5 29t-33 13z" />
    <glyph glyph-name="Odieresis" unicode="&#xd6;" horiz-adv-x="794" 
d="M392 -10q-174 0 -262 118t-63 297q21 143 118 239t245 96q172 0 258 -118.5t61 -299.5q-19 -141 -113.5 -236.5t-243.5 -95.5zM398 81q111 0 176.5 72t80.5 185q19 135 -40.5 224t-188.5 89q-110 0 -178 -73.5t-83 -183.5q-19 -134 41.5 -223.5t191.5 -89.5zM507 846
q4 27 22 42.5t45 15.5q29 0 44.5 -19t11.5 -47q-4 -27 -21.5 -42t-44.5 -15q-28 0 -44.5 18.5t-12.5 46.5zM306 846q4 27 22 42.5t45 15.5q29 0 44.5 -19t11.5 -47q-4 -26 -21 -41.5t-44 -15.5q-28 0 -45 18.5t-13 46.5z" />
    <glyph glyph-name="multiply" unicode="&#xd7;" horiz-adv-x="469" 
d="M192 319l-114 132l52 46l115 -135l151 135l42 -47l-152 -135l113 -130l-51 -46l-114 133l-152 -135l-43 47z" />
    <glyph glyph-name="Oslash" unicode="&#xd8;" horiz-adv-x="794" 
d="M137 98l-121 -105l-40 53l126 106q-55 105 -35 253q21 143 118 239t245 96q163 0 252 -110l119 100l41 -51l-126 -104q53 -105 33 -253q-19 -141 -113.5 -236.5t-243.5 -95.5q-166 0 -255 108zM165 394q-14 -110 19 -187l424 364q-60 80 -181 80q-111 0 -179 -73.5
t-83 -183.5zM398 81q110 0 176 72t81 184q14 106 -17 182l-422 -362q62 -76 182 -76z" />
    <glyph glyph-name="Ugrave" unicode="&#xd9;" horiz-adv-x="728" 
d="M563 305l59 425h96l-60 -431q-22 -152 -103.5 -230.5t-214.5 -78.5q-142 0 -213 78t-50 231l61 431h97l-60 -425q-15 -109 26.5 -167t137.5 -58q100 0 154 56t70 169zM519 809l-34 -43l-191 139l44 57z" />
    <glyph glyph-name="Uacute" unicode="&#xda;" horiz-adv-x="728" 
d="M563 305l59 425h96l-60 -431q-22 -152 -103.5 -230.5t-214.5 -78.5q-142 0 -213 78t-50 231l61 431h97l-60 -425q-15 -109 26.5 -167t137.5 -58q100 0 154 56t70 169zM631 903l-230 -137l-29 46l223 150z" />
    <glyph glyph-name="Ucircumflex" unicode="&#xdb;" horiz-adv-x="728" 
d="M563 305l59 425h96l-60 -431q-22 -152 -103.5 -230.5t-214.5 -78.5q-142 0 -213 78t-50 231l61 431h97l-60 -425q-15 -109 26.5 -167t137.5 -58q100 0 154 56t70 169zM266 802l176 143h43l123 -145l-43 -37l-104 123l-157 -126z" />
    <glyph glyph-name="Udieresis" unicode="&#xdc;" horiz-adv-x="728" 
d="M563 305l59 425h96l-60 -431q-22 -152 -103.5 -230.5t-214.5 -78.5q-142 0 -213 78t-50 231l61 431h97l-60 -425q-15 -109 26.5 -167t137.5 -58q100 0 154 56t70 169zM485 834q4 27 22 42.5t45 15.5q29 0 44.5 -19t11.5 -47q-4 -27 -21.5 -42t-44.5 -15q-28 0 -44.5 18.5
t-12.5 46.5zM284 834q4 27 22 42.5t45 15.5q29 0 44.5 -19t11.5 -47q-4 -26 -21 -41.5t-44 -15.5q-28 0 -45 18.5t-13 46.5z" />
    <glyph glyph-name="Yacute" unicode="&#xdd;" horiz-adv-x="650" 
d="M592 730h112l-336 -468l-36 -262h-97l37 266l-198 464h103l124 -301l30 -83l52 83zM589 901l-230 -137l-29 46l223 150z" />
    <glyph glyph-name="Thorn" unicode="&#xde;" horiz-adv-x="682" 
d="M140 0h-97l102 730h97l-19 -136h180q131 0 197 -65.5t50 -175.5q-15 -103 -95 -155.5t-215 -52.5h-180zM391 517h-180l-41 -294h180q183 0 203 139q10 72 -29.5 113.5t-132.5 41.5z" />
    <glyph glyph-name="germandbls" unicode="&#xdf;" horiz-adv-x="649" 
d="M133 0h-97l71 501q12 82 39 141.5t66.5 93t83.5 49t96 15.5q105 0 164 -66t45 -162q-16 -121 -145 -163q73 -22 108 -78.5t24 -136.5q-12 -83 -83 -139q-70 -55 -211 -55h-65l13 92h59q102 0 149 38q45 38 53 92q10 67 -29.5 109.5t-117.5 42.5h-61l9 69h46q68 0 112 33
t51 87q9 66 -25 108t-106 42q-149 0 -178 -211z" />
    <glyph glyph-name="agrave" unicode="&#xe0;" horiz-adv-x="649" 
d="M196 -12q-95 0 -138.5 45.5t-34.5 113.5q10 75 84 114q50 26 192 54q88 18 123 32q33 15 38 47q5 40 -23 69.5t-102 29.5q-125 0 -182 -116l-84 38q92 156 270 156q113 0 169 -55.5t42 -155.5l-31 -214q-11 -79 49 -79q20 0 43 7l-10 -67q-38 -17 -73 -17
q-118 0 -105 129q-76 -131 -227 -131zM230 60q84 0 142 55q59 55 73 141l8 57q-28 -28 -152 -52q-97 -19 -135 -42q-39 -23 -43 -63q-6 -41 22.5 -68.5t84.5 -27.5zM430 650l-44 -34l-145 175l60 41z" />
    <glyph glyph-name="aacute" unicode="&#xe1;" horiz-adv-x="649" 
d="M196 -12q-95 0 -138.5 45.5t-34.5 113.5q10 75 84 114q50 26 192 54q88 18 123 32q33 15 38 47q5 40 -23 69.5t-102 29.5q-125 0 -182 -116l-84 38q92 156 270 156q113 0 169 -55.5t42 -155.5l-31 -214q-11 -79 49 -79q20 0 43 7l-10 -67q-38 -17 -73 -17
q-118 0 -105 129q-76 -131 -227 -131zM230 60q84 0 142 55q59 55 73 141l8 57q-28 -28 -152 -52q-97 -19 -135 -42q-39 -23 -43 -63q-6 -41 22.5 -68.5t84.5 -27.5zM532 780l-200 -164l-35 41l189 175z" />
    <glyph glyph-name="acircumflex" unicode="&#xe2;" horiz-adv-x="649" 
d="M196 -12q-95 0 -138.5 45.5t-34.5 113.5q10 75 84 114q50 26 192 54q88 18 123 32q33 15 38 47q5 40 -23 69.5t-102 29.5q-125 0 -182 -116l-84 38q92 156 270 156q113 0 169 -55.5t42 -155.5l-31 -214q-11 -79 49 -79q20 0 43 7l-10 -67q-38 -17 -73 -17
q-118 0 -105 129q-76 -131 -227 -131zM230 60q84 0 142 55q59 55 73 141l8 57q-28 -28 -152 -52q-97 -19 -135 -42q-39 -23 -43 -63q-6 -41 22.5 -68.5t84.5 -27.5zM519 646l-51 -35l-87 128l-139 -128l-42 40l165 149h43z" />
    <glyph glyph-name="atilde" unicode="&#xe3;" horiz-adv-x="649" 
d="M196 -12q-95 0 -138.5 45.5t-34.5 113.5q10 75 84 114q50 26 192 54q88 18 123 32q33 15 38 47q5 40 -23 69.5t-102 29.5q-125 0 -182 -116l-84 38q92 156 270 156q113 0 169 -55.5t42 -155.5l-31 -214q-11 -79 49 -79q20 0 43 7l-10 -67q-38 -17 -73 -17
q-118 0 -105 129q-76 -131 -227 -131zM230 60q84 0 142 55q59 55 73 141l8 57q-28 -28 -152 -52q-97 -19 -135 -42q-39 -23 -43 -63q-6 -41 22.5 -68.5t84.5 -27.5zM296 716q-21 0 -33 -22.5t-13 -59.5l-58 8q3 60 30.5 98.5t71.5 38.5q32 0 58 -20.5t47 -41t42 -20.5
q44 0 49 82l57 -8q-4 -62 -32.5 -99.5t-68.5 -37.5q-33 0 -60 20.5t-48.5 41t-41.5 20.5z" />
    <glyph glyph-name="adieresis" unicode="&#xe4;" horiz-adv-x="649" 
d="M196 -12q-95 0 -138.5 45.5t-34.5 113.5q10 75 84 114q50 26 192 54q88 18 123 32q33 15 38 47q5 40 -23 69.5t-102 29.5q-125 0 -182 -116l-84 38q92 156 270 156q113 0 169 -55.5t42 -155.5l-31 -214q-11 -79 49 -79q20 0 43 7l-10 -67q-38 -17 -73 -17
q-118 0 -105 129q-76 -131 -227 -131zM230 60q84 0 142 55q59 55 73 141l8 57q-28 -28 -152 -52q-97 -19 -135 -42q-39 -23 -43 -63q-6 -41 22.5 -68.5t84.5 -27.5zM403 698q4 28 22.5 44.5t47.5 16.5q30 0 46 -19.5t12 -50.5q-4 -27 -22 -43t-46 -16q-30 0 -47 19t-13 49z
M200 698q4 28 22.5 44.5t47.5 16.5q30 0 46 -19.5t12 -50.5q-4 -27 -22 -43t-46 -16q-30 0 -47 19t-13 49z" />
    <glyph glyph-name="aring" unicode="&#xe5;" horiz-adv-x="649" 
d="M196 -12q-95 0 -138.5 45.5t-34.5 113.5q10 75 84 114q50 26 192 54q88 18 123 32q33 15 38 47q5 40 -23 69.5t-102 29.5q-125 0 -182 -116l-84 38q92 156 270 156q113 0 169 -55.5t42 -155.5l-31 -214q-11 -79 49 -79q20 0 43 7l-10 -67q-38 -17 -73 -17
q-118 0 -105 129q-76 -131 -227 -131zM230 60q84 0 142 55q59 55 73 141l8 57q-28 -28 -152 -52q-97 -19 -135 -42q-39 -23 -43 -63q-6 -41 22.5 -68.5t84.5 -27.5zM241 754q7 49 43 79.5t87 30.5q59 0 92 -40q34 -40 25 -99q-7 -49 -42.5 -79t-85.5 -30q-60 0 -93.5 39.5
t-25.5 98.5zM435 732q5 35 -13 58.5t-54 23.5q-30 0 -50 -17.5t-24 -48.5q-4 -35 14 -58.5t54 -23.5q29 0 49 18.5t24 47.5z" />
    <glyph glyph-name="ae" unicode="&#xe6;" horiz-adv-x="1019" 
d="M696 -10q-95 0 -152.5 44.5t-75.5 119.5q-33 -79 -103 -122.5t-160 -43.5q-100 0 -144 45.5t-35 113.5q10 72 81 112q48 27 194 56q91 18 124 34t38 49q5 37 -23 66t-102 29q-126 0 -185 -117l-83 39q92 156 270 156q150 0 181 -112q78 112 218 112q121 0 183.5 -75
t58.5 -194q0 -8 -1.5 -24t-1.5 -20h-459q-2 -80 45 -134q47 -53 131 -53q62 0 102 23.5t72 68.5l77 -50q-40 -51 -99 -87t-151 -36zM727 491q-81 0 -133 -47.5t-68 -124.5h362q1 83 -40 127.5t-121 44.5zM235 60q83 0 142 56q58 55 70 140l8 60q-25 -31 -152 -55
q-97 -19 -135 -42q-39 -23 -43 -63q-6 -41 23.5 -68.5t86.5 -27.5z" />
    <glyph glyph-name="ccedilla" unicode="&#xe7;" horiz-adv-x="632" 
d="M501 213l96 -24q-74 -199 -284 -199l-19 -40h17q51 0 75.5 -25.5t21.5 -64.5q-3 -47 -40 -74.5t-98 -27.5q-73 0 -123 30l28 50q42 -25 97 -25q76 0 78 53q1 22 -14 32t-44 10q-28 0 -57 -9l-17 10l43 85q-112 18 -167 103t-37 210q15 114 96.5 189t208.5 75
q119 0 177 -61q57 -59 74 -153l-99 -20q-19 153 -159 153q-85 0 -137.5 -53.5t-62.5 -136.5q-15 -100 31 -164t139 -64q69 1 109.5 35t66.5 106z" />
    <glyph glyph-name="egrave" unicode="&#xe8;" horiz-adv-x="643" 
d="M318 -10q-102 0 -167.5 47t-88 117.5t-9.5 153.5q15 109 96 186t207 77q124 0 188 -75t60 -194l-4 -44h-458q-2 -80 45 -134q47 -53 131 -53q62 0 101.5 23t71.5 69l77 -50q-40 -51 -99 -87t-151 -36zM349 491q-80 0 -132.5 -47.5t-68.5 -124.5h363q1 83 -40.5 127.5
t-121.5 44.5zM447 650l-44 -34l-145 175l60 41z" />
    <glyph glyph-name="eacute" unicode="&#xe9;" horiz-adv-x="643" 
d="M318 -10q-102 0 -167.5 47t-88 117.5t-9.5 153.5q15 109 96 186t207 77q124 0 188 -75t60 -194l-4 -44h-458q-2 -80 45 -134q47 -53 131 -53q62 0 101.5 23t71.5 69l77 -50q-40 -51 -99 -87t-151 -36zM349 491q-80 0 -132.5 -47.5t-68.5 -124.5h363q1 83 -40.5 127.5
t-121.5 44.5zM547 780l-200 -164l-35 41l189 175z" />
    <glyph glyph-name="ecircumflex" unicode="&#xea;" horiz-adv-x="643" 
d="M318 -10q-102 0 -167.5 47t-88 117.5t-9.5 153.5q15 109 96 186t207 77q124 0 188 -75t60 -194l-4 -44h-458q-2 -80 45 -134q47 -53 131 -53q62 0 101.5 23t71.5 69l77 -50q-40 -51 -99 -87t-151 -36zM349 491q-80 0 -132.5 -47.5t-68.5 -124.5h363q1 83 -40.5 127.5
t-121.5 44.5zM536 646l-51 -35l-87 128l-139 -128l-42 40l165 149h43z" />
    <glyph glyph-name="edieresis" unicode="&#xeb;" horiz-adv-x="643" 
d="M318 -10q-102 0 -167.5 47t-88 117.5t-9.5 153.5q15 109 96 186t207 77q124 0 188 -75t60 -194l-4 -44h-458q-2 -80 45 -134q47 -53 131 -53q62 0 101.5 23t71.5 69l77 -50q-40 -51 -99 -87t-151 -36zM349 491q-80 0 -132.5 -47.5t-68.5 -124.5h363q1 83 -40.5 127.5
t-121.5 44.5zM421 698q4 28 22.5 44.5t47.5 16.5q30 0 46 -19.5t12 -50.5q-4 -27 -22 -43t-46 -16q-30 0 -47 19t-13 49zM218 698q4 28 22.5 44.5t47.5 16.5q30 0 46 -19.5t12 -50.5q-4 -27 -22 -43t-46 -16q-30 0 -47 19t-13 49z" />
    <glyph glyph-name="igrave" unicode="&#xec;" horiz-adv-x="256" 
d="M119 560h97l-78 -560h-97zM252 650l-44 -34l-145 175l60 41z" />
    <glyph glyph-name="iacute" unicode="&#xed;" horiz-adv-x="256" 
d="M119 560h97l-78 -560h-97zM363 780l-200 -164l-35 41l189 175z" />
    <glyph glyph-name="icircumflex" unicode="&#xee;" horiz-adv-x="256" 
d="M119 560h97l-78 -560h-97zM334 646l-51 -35l-87 128l-139 -128l-42 40l165 149h43z" />
    <glyph glyph-name="idieresis" unicode="&#xef;" horiz-adv-x="256" 
d="M119 560h97l-78 -560h-97zM217 698q4 28 22.5 44.5t47.5 16.5q30 0 46 -19.5t12 -50.5q-4 -27 -22 -43t-46 -16q-30 0 -47 19t-13 49zM14 698q4 28 22.5 44.5t47.5 16.5q30 0 46 -19.5t12 -50.5q-4 -27 -22 -43t-46 -16q-30 0 -47 19t-13 49z" />
    <glyph glyph-name="eth" unicode="&#xf0;" horiz-adv-x="670" 
d="M309 -11q-133 0 -205 82t-56 198q14 95 86.5 154t174.5 59q141 1 224 -120q0 155 -97 251l-111 -78l-32 43l102 72q-57 45 -139 73l46 82q101 -38 177 -104l94 66l32 -43l-87 -61q67 -71 92.5 -166.5t10.5 -200.5q-19 -137 -100.5 -222t-211.5 -85zM142 270
q-12 -83 36 -138.5t137 -55.5q83 0 139 57t72 152q-31 60 -81.5 95.5t-117.5 35.5q-75 0 -125.5 -40t-59.5 -106z" />
    <glyph glyph-name="ntilde" unicode="&#xf1;" horiz-adv-x="662" 
d="M136 0h-97l79 560h96l-20 -142q75 153 220 153q101 0 149 -68.5t33 -179.5l-46 -323h-96l42 304q12 81 -17 134t-113 53q-73 0 -125 -58.5t-67 -163.5zM320 716q-21 0 -33 -22.5t-13 -59.5l-58 8q3 60 30.5 98.5t71.5 38.5q32 0 58 -20.5t47 -41t42 -20.5q44 0 49 82
l57 -8q-4 -62 -32.5 -99.5t-68.5 -37.5q-33 0 -60 20.5t-48.5 41t-41.5 20.5z" />
    <glyph glyph-name="ograve" unicode="&#xf2;" horiz-adv-x="662" 
d="M310 -10q-136 0 -207 88t-51 226q16 116 98 191.5t204 75.5q136 0 205.5 -89t51.5 -227q-17 -118 -94.5 -191.5t-206.5 -73.5zM317 73q82 0 132.5 52t63.5 137q15 101 -28 164.5t-134 63.5q-88 0 -139 -55t-63 -138q-14 -97 32 -160.5t136 -63.5zM458 650l-44 -34
l-145 175l60 41z" />
    <glyph glyph-name="oacute" unicode="&#xf3;" horiz-adv-x="662" 
d="M310 -10q-136 0 -207 88t-51 226q16 116 98 191.5t204 75.5q136 0 205.5 -89t51.5 -227q-17 -118 -94.5 -191.5t-206.5 -73.5zM317 73q82 0 132.5 52t63.5 137q15 101 -28 164.5t-134 63.5q-88 0 -139 -55t-63 -138q-14 -97 32 -160.5t136 -63.5zM558 780l-200 -164
l-35 41l189 175z" />
    <glyph glyph-name="ocircumflex" unicode="&#xf4;" horiz-adv-x="662" 
d="M310 -10q-136 0 -207 88t-51 226q16 116 98 191.5t204 75.5q136 0 205.5 -89t51.5 -227q-17 -118 -94.5 -191.5t-206.5 -73.5zM317 73q82 0 132.5 52t63.5 137q15 101 -28 164.5t-134 63.5q-88 0 -139 -55t-63 -138q-14 -97 32 -160.5t136 -63.5zM536 646l-51 -35
l-87 128l-139 -128l-42 40l165 149h43z" />
    <glyph glyph-name="otilde" unicode="&#xf5;" horiz-adv-x="662" 
d="M310 -10q-136 0 -207 88t-51 226q16 116 98 191.5t204 75.5q136 0 205.5 -89t51.5 -227q-17 -118 -94.5 -191.5t-206.5 -73.5zM317 73q82 0 132.5 52t63.5 137q15 101 -28 164.5t-134 63.5q-88 0 -139 -55t-63 -138q-14 -97 32 -160.5t136 -63.5zM321 716
q-21 0 -33 -22.5t-13 -59.5l-58 8q3 60 30.5 98.5t71.5 38.5q32 0 58 -20.5t47 -41t42 -20.5q44 0 49 82l57 -8q-4 -62 -32.5 -99.5t-68.5 -37.5q-33 0 -60 20.5t-48.5 41t-41.5 20.5z" />
    <glyph glyph-name="odieresis" unicode="&#xf6;" horiz-adv-x="662" 
d="M310 -10q-136 0 -207 88t-51 226q16 116 98 191.5t204 75.5q136 0 205.5 -89t51.5 -227q-17 -118 -94.5 -191.5t-206.5 -73.5zM317 73q82 0 132.5 52t63.5 137q15 101 -28 164.5t-134 63.5q-88 0 -139 -55t-63 -138q-14 -97 32 -160.5t136 -63.5zM423 698q4 28 22.5 44.5
t47.5 16.5q30 0 46 -19.5t12 -50.5q-4 -27 -22 -43t-46 -16q-30 0 -47 19t-13 49zM220 698q4 28 22.5 44.5t47.5 16.5q30 0 46 -19.5t12 -50.5q-4 -27 -22 -43t-46 -16q-30 0 -47 19t-13 49z" />
    <glyph glyph-name="divide" unicode="&#xf7;" horiz-adv-x="472" 
d="M255 419q-27 0 -43.5 16.5t-16.5 41.5q0 29 19.5 49t50.5 20q27 0 44 -17.5t17 -42.5q0 -28 -19 -47.5t-52 -19.5zM432 274h-396l10 67h395zM208 67q-27 0 -43.5 16.5t-16.5 41.5q0 29 19.5 49.5t50.5 20.5q27 0 43.5 -17.5t16.5 -42.5q0 -29 -19 -48.5t-51 -19.5z" />
    <glyph glyph-name="oslash" unicode="&#xf8;" horiz-adv-x="662" 
d="M110 70l-100 -78l-37 53l101 78q-36 76 -22 181q16 116 98 191.5t204 75.5q125 0 195 -78l96 75l38 -51l-98 -76q40 -82 26 -186q-17 -118 -94.5 -191.5t-206.5 -73.5t-200 80zM148 297q-8 -70 9 -117l321 257q-45 53 -127 53q-88 0 -140 -55q-51 -55 -63 -138zM317 73
q82 0 133 52.5t64 136.5q8 75 -8 122l-319 -257q47 -54 130 -54z" />
    <glyph glyph-name="ugrave" unicode="&#xf9;" horiz-adv-x="648" 
d="M513 560h96l-79 -560h-96l20 139q-36 -73 -92.5 -111.5t-123.5 -38.5q-101 0 -147 63.5t-30 175.5l47 332h97l-44 -313q-25 -177 122 -177q73 0 125 57.5t67 161.5zM442 635l-44 -34l-145 175l60 41z" />
    <glyph glyph-name="uacute" unicode="&#xfa;" horiz-adv-x="648" 
d="M513 560h96l-79 -560h-96l20 139q-36 -73 -92.5 -111.5t-123.5 -38.5q-101 0 -147 63.5t-30 175.5l47 332h97l-44 -313q-25 -177 122 -177q73 0 125 57.5t67 161.5zM542 765l-200 -164l-35 41l189 175z" />
    <glyph glyph-name="ucircumflex" unicode="&#xfb;" horiz-adv-x="648" 
d="M513 560h96l-79 -560h-96l20 139q-36 -73 -92.5 -111.5t-123.5 -38.5q-101 0 -147 63.5t-30 175.5l47 332h97l-44 -313q-25 -177 122 -177q73 0 125 57.5t67 161.5zM533 631l-51 -35l-87 128l-139 -128l-42 40l165 149h43z" />
    <glyph glyph-name="udieresis" unicode="&#xfc;" horiz-adv-x="648" 
d="M513 560h96l-79 -560h-96l20 139q-36 -73 -92.5 -111.5t-123.5 -38.5q-101 0 -147 63.5t-30 175.5l47 332h97l-44 -313q-25 -177 122 -177q73 0 125 57.5t67 161.5zM415 684q4 28 22.5 44.5t47.5 16.5q30 0 46 -19.5t12 -50.5q-4 -27 -22 -43t-46 -16q-30 0 -47 19
t-13 49zM212 684q4 28 22.5 44.5t47.5 16.5q30 0 46 -19.5t12 -50.5q-4 -27 -22 -43t-46 -16q-30 0 -47 19t-13 49z" />
    <glyph glyph-name="yacute" unicode="&#xfd;" horiz-adv-x="594" 
d="M51 560h98l103 -373l17 -86l43 87l208 372h102l-448 -776h-103l136 229zM520 767l-200 -164l-35 41l189 175z" />
    <glyph glyph-name="thorn" unicode="&#xfe;" horiz-adv-x="680" 
d="M630 252q-17 -120 -88 -190q-70 -70 -175 -70q-86 0 -138 40.5t-72 109.5l-50 -358h-97l142 1012h97l-50 -347q72 120 208 120q116 0 179.5 -88.5t43.5 -228.5zM340 72q79 0 130 51.5t63 137.5q15 99 -28 165.5t-136 66.5q-83 0 -135 -55t-64 -140q-13 -95 31 -160.5
t139 -65.5z" />
    <glyph glyph-name="ydieresis" unicode="&#xff;" horiz-adv-x="594" 
d="M51 560h98l103 -373l17 -86l43 87l208 372h102l-448 -776h-103l136 229zM390 685q4 28 22.5 44.5t47.5 16.5q30 0 46 -19.5t12 -50.5q-4 -27 -22 -43t-46 -16q-30 0 -47 19t-13 49zM187 685q4 28 22.5 44.5t47.5 16.5q30 0 46 -19.5t12 -50.5q-4 -27 -22 -43t-46 -16
q-30 0 -47 19t-13 49z" />
    <glyph glyph-name="Amacron" unicode="&#x100;" horiz-adv-x="732" 
d="M85 0h-104l395 730h109l188 -730h-101l-41 167h-358zM419 643l-47 -99l-161 -305h303l-74 306zM578 820h-274l8 58h274z" />
    <glyph glyph-name="amacron" unicode="&#x101;" horiz-adv-x="649" 
d="M196 -12q-95 0 -138.5 45.5t-34.5 113.5q10 75 84 114q50 26 192 54q88 18 123 32q33 15 38 47q5 40 -23 69.5t-102 29.5q-125 0 -182 -116l-84 38q92 156 270 156q113 0 169 -55.5t42 -155.5l-31 -214q-11 -79 49 -79q20 0 43 7l-10 -67q-38 -17 -73 -17
q-118 0 -105 129q-76 -131 -227 -131zM230 60q84 0 142 55q59 55 73 141l8 57q-28 -28 -152 -52q-97 -19 -135 -42q-39 -23 -43 -63q-6 -41 22.5 -68.5t84.5 -27.5zM495 655h-274l8 59h274z" />
    <glyph glyph-name="Abreve" unicode="&#x102;" horiz-adv-x="732" 
d="M85 0h-104l395 730h109l188 -730h-101l-41 167h-358zM419 643l-47 -99l-161 -305h303l-74 306zM452 835q49 0 78 27t33 78l58 -14q-4 -62 -49 -105.5t-124 -43.5q-81 0 -118.5 43.5t-34.5 105.5l61 14q-7 -105 96 -105z" />
    <glyph glyph-name="abreve" unicode="&#x103;" horiz-adv-x="649" 
d="M196 -12q-95 0 -138.5 45.5t-34.5 113.5q10 75 84 114q50 26 192 54q88 18 123 32q33 15 38 47q5 40 -23 69.5t-102 29.5q-125 0 -182 -116l-84 38q92 156 270 156q113 0 169 -55.5t42 -155.5l-31 -214q-11 -79 49 -79q20 0 43 7l-10 -67q-38 -17 -73 -17
q-118 0 -105 129q-76 -131 -227 -131zM230 60q84 0 142 55q59 55 73 141l8 57q-28 -28 -152 -52q-97 -19 -135 -42q-39 -23 -43 -63q-6 -41 22.5 -68.5t84.5 -27.5zM372 691q102 0 109 109l60 -14q-4 -63 -48 -110q-43 -45 -124 -45q-88 0 -124 45q-36 46 -30 110l64 14
q-13 -109 93 -109z" />
    <glyph glyph-name="Aogonek" unicode="&#x104;" horiz-adv-x="732" 
d="M85 0h-104l395 730h109l188 -730h-44q-119 -57 -124 -133q-1 -25 14.5 -38t43.5 -13q20 0 40 4l-17 -59q-18 -6 -46 -6q-49 0 -76.5 24.5t-24.5 66.5q8 95 133 155l-41 166h-358zM419 643l-47 -99l-161 -305h303l-74 306z" />
    <glyph glyph-name="aogonek" unicode="&#x105;" horiz-adv-x="649" 
d="M563 -180l-17 -59q-18 -6 -46 -6q-49 0 -76.5 24.5t-24.5 66.5q6 85 113 146q-100 8 -86 127q-76 -131 -227 -131q-95 0 -138.5 45.5t-34.5 113.5q10 75 84 114q50 26 192 54q88 18 123 32q33 15 38 47q5 40 -23 69.5t-102 29.5q-125 0 -182 -116l-84 38q92 156 270 156
q113 0 169 -55.5t42 -155.5l-31 -214q-11 -79 49 -79q20 0 43 7l-10 -66q-132 -62 -138 -139q-1 -27 14 -40t43 -13q20 0 40 4zM233 60q84 0 142 55q59 55 73 141l8 57q-28 -28 -152 -52q-98 -19 -135 -42q-39 -23 -43 -63q-6 -41 22.5 -68.5t84.5 -27.5z" />
    <glyph glyph-name="Cacute" unicode="&#x106;" horiz-adv-x="772" 
d="M394 -10q-177 0 -264 118t-59 297q23 144 122 239.5t254 95.5q137 0 216.5 -76.5t91.5 -218.5l-96 -17q-8 102 -59 162q-52 61 -162 61q-114 0 -184 -73.5t-87 -183.5q-21 -133 39 -223.5t192 -90.5q95 0 154 56q58 57 84 143l96 -29q-40 -120 -126 -190t-212 -70z
M654 915l-230 -137l-29 46l223 150z" />
    <glyph glyph-name="cacute" unicode="&#x107;" horiz-adv-x="632" 
d="M310 -10q-139 0 -209 88t-49 229q15 114 96.5 189t208.5 75q119 0 177 -61q57 -59 74 -153l-99 -20q-19 153 -159 153q-85 0 -137.5 -53.5t-62.5 -136.5q-15 -100 31 -164t139 -64q69 1 109.5 35t66.5 106l96 -24q-74 -199 -282 -199zM549 780l-200 -164l-35 41l189 175z
" />
    <glyph glyph-name="Ccircumflex" unicode="&#x108;" horiz-adv-x="772" 
d="M394 -10q-177 0 -264 118t-59 297q23 144 122 239.5t254 95.5q137 0 216.5 -76.5t91.5 -218.5l-96 -17q-8 102 -59 162q-52 61 -162 61q-114 0 -184 -73.5t-87 -183.5q-21 -133 39 -223.5t192 -90.5q95 0 154 56q58 57 84 143l96 -29q-40 -120 -126 -190t-212 -70z
M294 814l176 143h43l123 -145l-43 -37l-104 123l-157 -126z" />
    <glyph glyph-name="ccircumflex" unicode="&#x109;" horiz-adv-x="632" 
d="M310 -10q-139 0 -209 88t-49 229q15 114 96.5 189t208.5 75q119 0 177 -61q57 -59 74 -153l-99 -20q-19 153 -159 153q-85 0 -137.5 -53.5t-62.5 -136.5q-15 -100 31 -164t139 -64q69 1 109.5 35t66.5 106l96 -24q-74 -199 -282 -199zM533 646l-51 -35l-87 128l-139 -128
l-42 40l165 149h43z" />
    <glyph glyph-name="Cdotaccent" unicode="&#x10a;" horiz-adv-x="772" 
d="M394 -10q-177 0 -264 118t-59 297q23 144 122 239.5t254 95.5q137 0 216.5 -76.5t91.5 -218.5l-96 -17q-8 102 -59 162q-52 61 -162 61q-114 0 -184 -73.5t-87 -183.5q-21 -133 39 -223.5t192 -90.5q95 0 154 56q58 57 84 143l96 -29q-40 -120 -126 -190t-212 -70z
M418 854q4 28 22.5 44.5t46.5 16.5q30 0 45.5 -19.5t11.5 -49.5q-4 -27 -21.5 -43t-45.5 -16q-30 0 -46.5 19t-12.5 48z" />
    <glyph glyph-name="cdotaccent" unicode="&#x10b;" horiz-adv-x="632" 
d="M310 -10q-139 0 -209 88t-49 229q15 114 96.5 189t208.5 75q119 0 177 -61q57 -59 74 -153l-99 -20q-19 153 -159 153q-85 0 -137.5 -53.5t-62.5 -136.5q-15 -100 31 -164t139 -64q69 1 109.5 35t66.5 106l96 -24q-74 -199 -282 -199zM318 717q4 28 23.5 45.5t49.5 17.5
q32 0 48 -20.5t12 -51.5q-4 -28 -22.5 -44.5t-48.5 -16.5q-31 0 -48.5 19.5t-13.5 50.5z" />
    <glyph glyph-name="Ccaron" unicode="&#x10c;" horiz-adv-x="772" 
d="M394 -10q-177 0 -264 118t-59 297q23 144 122 239.5t254 95.5q137 0 216.5 -76.5t91.5 -218.5l-96 -17q-8 102 -59 162q-52 61 -162 61q-114 0 -184 -73.5t-87 -183.5q-21 -133 39 -223.5t192 -90.5q95 0 154 56q58 57 84 143l96 -29q-40 -120 -126 -190t-212 -70z
M662 922l-176 -143h-43l-123 145l43 37l104 -124l158 127z" />
    <glyph glyph-name="ccaron" unicode="&#x10d;" horiz-adv-x="632" 
d="M310 -10q-139 0 -209 88t-49 229q15 114 96.5 189t208.5 75q119 0 177 -61q57 -59 74 -153l-99 -20q-19 153 -159 153q-85 0 -137.5 -53.5t-62.5 -136.5q-15 -100 31 -164t139 -64q69 1 109.5 35t66.5 106l96 -24q-74 -199 -282 -199zM239 783l50 35l87 -128l139 128
l42 -40l-164 -149h-43z" />
    <glyph glyph-name="Dcaron" unicode="&#x10e;" horiz-adv-x="760" 
d="M314 0h-271l102 730h235q121 0 204 -55t115 -144t17 -197q-21 -148 -124.5 -241t-277.5 -93zM152 89h169q130 0 206.5 70.5t91.5 183.5q19 132 -45.5 215.5t-203.5 83.5h-141zM643 920l-176 -143h-43l-123 145l43 37l104 -124l158 127z" />
    <glyph glyph-name="dcaron" unicode="&#x10f;" horiz-adv-x="721" 
d="M52 309q16 119 89.5 189.5t177.5 70.5q83 0 136 -40.5t73 -107.5l53 375h97l-112 -796h-96l16 120q-66 -128 -204 -128q-119 0 -184.5 88.5t-45.5 228.5zM315 72q83 0 133.5 51t63.5 142q15 97 -29.5 161t-137.5 64q-80 0 -132 -51.5t-64 -136.5q-15 -98 29 -164t137 -66
zM754 793l71 12q4 -22 2 -52q-7 -97 -71 -196l-46 22q43 73 47 144q2 39 -3 70z" />
    <glyph glyph-name="Dcroat" unicode="&#x110;" horiz-adv-x="771" 
d="M326 0h-271l46 331h-100l10 72h100l46 327h235q121 0 204 -55t115 -144t17 -197q-21 -148 -124.5 -241t-277.5 -93zM164 89h169q130 0 206.5 70.5t91.5 183.5q19 132 -45.5 215.5t-203.5 83.5h-141l-34 -243h172l-9 -63h-172z" />
    <glyph glyph-name="dslash" unicode="&#x111;" horiz-adv-x="686" 
d="M58 309q16 119 89.5 189.5t177.5 70.5q83 0 136 -40.5t73 -107.5l30 213h-144l8 58h144l15 104h97l-15 -104h91l-8 -58h-91l-89 -634h-96l16 120q-66 -128 -204 -128q-119 0 -184.5 88.5t-45.5 228.5zM321 72q83 0 133.5 51t63.5 142q15 97 -29.5 161t-137.5 64
q-80 0 -132 -51.5t-64 -136.5q-15 -98 29 -164t137 -66z" />
    <glyph glyph-name="Emacron" unicode="&#x112;" horiz-adv-x="657" 
d="M571 0h-528l102 730h526l-12 -87h-430l-33 -236h344l-10 -75h-345l-34 -244h432zM562 820h-274l8 58h274z" />
    <glyph glyph-name="emacron" unicode="&#x113;" horiz-adv-x="643" 
d="M318 -10q-102 0 -167.5 47t-88 117.5t-9.5 153.5q15 109 96 186t207 77q124 0 188 -75t60 -194l-4 -44h-458q-2 -80 45 -134q47 -53 131 -53q62 0 101.5 23t71.5 69l77 -50q-40 -51 -99 -87t-151 -36zM349 491q-80 0 -132.5 -47.5t-68.5 -124.5h363q1 83 -40.5 127.5
t-121.5 44.5zM512 655h-274l8 59h274z" />
    <glyph glyph-name="Ebreve" unicode="&#x114;" horiz-adv-x="657" 
d="M571 0h-528l102 730h526l-12 -87h-430l-33 -236h344l-10 -75h-345l-34 -244h432zM435 835q49 0 78 27t33 78l58 -14q-4 -62 -49 -105.5t-124 -43.5q-81 0 -118.5 43.5t-34.5 105.5l61 14q-7 -105 96 -105z" />
    <glyph glyph-name="ebreve" unicode="&#x115;" horiz-adv-x="643" 
d="M318 -10q-102 0 -167.5 47t-88 117.5t-9.5 153.5q15 109 96 186t207 77q124 0 188 -75t60 -194l-4 -44h-458q-2 -80 45 -134q47 -53 131 -53q62 0 101.5 23t71.5 69l77 -50q-40 -51 -99 -87t-151 -36zM349 491q-80 0 -132.5 -47.5t-68.5 -124.5h363q1 83 -40.5 127.5
t-121.5 44.5zM389 691q102 0 109 109l60 -14q-4 -63 -48 -110q-44 -45 -124 -45q-88 0 -124 45q-36 46 -30 110l64 14q-13 -109 93 -109z" />
    <glyph glyph-name="Edotaccent" unicode="&#x116;" horiz-adv-x="657" 
d="M571 0h-528l102 730h526l-12 -87h-430l-33 -236h344l-10 -75h-345l-34 -244h432zM369 854q4 28 22.5 44.5t46.5 16.5q30 0 45.5 -19.5t11.5 -49.5q-4 -27 -21.5 -43t-45.5 -16q-30 0 -46.5 19t-12.5 48z" />
    <glyph glyph-name="edotaccent" unicode="&#x117;" horiz-adv-x="643" 
d="M318 -10q-102 0 -167.5 47t-88 117.5t-9.5 153.5q15 109 96 186t207 77q124 0 188 -75t60 -194l-4 -44h-458q-2 -80 45 -134q47 -53 131 -53q62 0 101.5 23t71.5 69l77 -50q-40 -51 -99 -87t-151 -36zM349 491q-80 0 -132.5 -47.5t-68.5 -124.5h363q1 83 -40.5 127.5
t-121.5 44.5zM319 717q4 28 23.5 45.5t49.5 17.5q32 0 48 -20.5t12 -51.5q-4 -28 -22.5 -44.5t-48.5 -16.5q-31 0 -48.5 19.5t-13.5 50.5z" />
    <glyph glyph-name="Eogonek" unicode="&#x118;" horiz-adv-x="657" 
d="M511 0h-468l102 730h526l-12 -87h-430l-33 -236h344l-10 -75h-345l-34 -244h432l-12 -88q-119 -57 -124 -133q-1 -25 14.5 -38t43.5 -13q20 0 40 4l-17 -59q-18 -6 -46 -6q-49 0 -76.5 24.5t-24.5 66.5q8 94 130 154z" />
    <glyph glyph-name="eogonek" unicode="&#x119;" horiz-adv-x="643" 
d="M507 -147l-17 -59q-18 -6 -46 -6q-49 0 -76.5 24.5t-24.5 66.5q4 57 69 122q-39 -11 -89 -11q-102 0 -167.5 47t-88 117.5t-9.5 153.5q15 109 96 186t207 77q124 0 188 -75t60 -194l-4 -44h-458q-2 -80 45 -134q47 -53 131 -53q62 0 101.5 23t71.5 69l77 -50
q-23 -28 -85 -88q-75 -75 -79 -123q-1 -25 14.5 -39t43.5 -14q20 0 40 4zM354 491q-80 0 -132.5 -47.5t-68.5 -124.5h363q1 83 -40.5 127.5t-121.5 44.5z" />
    <glyph glyph-name="Ecaron" unicode="&#x11a;" horiz-adv-x="657" 
d="M571 0h-528l102 730h526l-12 -87h-430l-33 -236h344l-10 -75h-345l-34 -244h432zM618 922l-176 -143h-43l-123 145l43 37l104 -124l158 127z" />
    <glyph glyph-name="ecaron" unicode="&#x11b;" horiz-adv-x="643" 
d="M318 -10q-102 0 -167.5 47t-88 117.5t-9.5 153.5q15 109 96 186t207 77q124 0 188 -75t60 -194l-4 -44h-458q-2 -80 45 -134q47 -53 131 -53q62 0 101.5 23t71.5 69l77 -50q-40 -51 -99 -87t-151 -36zM349 491q-80 0 -132.5 -47.5t-68.5 -124.5h363q1 83 -40.5 127.5
t-121.5 44.5zM237 783l50 35l87 -128l139 128l42 -40l-164 -149h-43z" />
    <glyph glyph-name="Gcircumflex" unicode="&#x11c;" horiz-adv-x="803" 
d="M458 740q130 0 202 -51q74 -51 114 -138l-92 -53q-31 78 -84 115.5t-148 37.5q-121 0 -195.5 -77.5t-89.5 -192.5q-20 -138 39.5 -220.5t179.5 -82.5q202 0 257 232h-257l10 72h354l-53 -382h-95l15 111l16 85q-76 -206 -276 -206q-153 0 -232.5 112t-55.5 283
q21 153 124 254t267 101zM308 814l176 143h43l123 -145l-43 -37l-104 123l-157 -126z" />
    <glyph glyph-name="gcircumflex" unicode="&#x11d;" horiz-adv-x="680" 
d="M52 309q16 119 89.5 189.5t177.5 70.5q80 0 133 -38.5t74 -102.5l19 132h96l-70 -498q-42 -301 -308 -301q-179 0 -256 125l94 52q54 -92 171 -92q85 0 135 49.5t67 162.5l8 54q-65 -120 -201 -120q-118 0 -183.5 88.5t-45.5 228.5zM314 72q83 0 134 51t64 142
q15 97 -29.5 161t-137.5 64q-80 0 -132 -51.5t-64 -136.5q-15 -98 28.5 -164t136.5 -66zM551 646l-51 -35l-87 128l-139 -128l-42 40l165 149h43z" />
    <glyph glyph-name="Gbreve" unicode="&#x11e;" horiz-adv-x="803" 
d="M458 740q130 0 202 -51q74 -51 114 -138l-92 -53q-31 78 -84 115.5t-148 37.5q-121 0 -195.5 -77.5t-89.5 -192.5q-20 -138 39.5 -220.5t179.5 -82.5q202 0 257 232h-257l10 72h354l-53 -382h-95l15 111l16 85q-76 -206 -276 -206q-153 0 -232.5 112t-55.5 283
q21 153 124 254t267 101zM496 835q49 0 78 27t33 78l58 -14q-4 -62 -49 -105.5t-124 -43.5q-81 0 -118.5 43.5t-34.5 105.5l61 14q-7 -105 96 -105z" />
    <glyph glyph-name="gbreve" unicode="&#x11f;" horiz-adv-x="680" 
d="M52 309q16 119 89.5 189.5t177.5 70.5q80 0 133 -38.5t74 -102.5l19 132h96l-70 -498q-42 -301 -308 -301q-179 0 -256 125l94 52q54 -92 171 -92q85 0 135 49.5t67 162.5l8 54q-65 -120 -201 -120q-118 0 -183.5 88.5t-45.5 228.5zM314 72q83 0 134 51t64 142
q15 97 -29.5 161t-137.5 64q-80 0 -132 -51.5t-64 -136.5q-15 -98 28.5 -164t136.5 -66zM410 691q102 0 109 109l60 -14q-4 -63 -48 -110q-43 -45 -124 -45q-88 0 -124 45q-36 46 -30 110l64 14q-13 -109 93 -109z" />
    <glyph glyph-name="Gdotaccent" unicode="&#x120;" horiz-adv-x="803" 
d="M458 740q130 0 202 -51q74 -51 114 -138l-92 -53q-31 78 -84 115.5t-148 37.5q-121 0 -195.5 -77.5t-89.5 -192.5q-20 -138 39.5 -220.5t179.5 -82.5q202 0 257 232h-257l10 72h354l-53 -382h-95l15 111l16 85q-76 -206 -276 -206q-153 0 -232.5 112t-55.5 283
q21 153 124 254t267 101zM428 854q4 28 22.5 44.5t46.5 16.5q30 0 45.5 -19.5t11.5 -49.5q-4 -27 -21.5 -43t-45.5 -16q-30 0 -46.5 19t-12.5 48z" />
    <glyph glyph-name="gdotaccent" unicode="&#x121;" horiz-adv-x="680" 
d="M52 309q16 119 89.5 189.5t177.5 70.5q80 0 133 -38.5t74 -102.5l19 132h96l-70 -498q-42 -301 -308 -301q-179 0 -256 125l94 52q54 -92 171 -92q85 0 135 49.5t67 162.5l8 54q-65 -120 -201 -120q-118 0 -183.5 88.5t-45.5 228.5zM314 72q83 0 134 51t64 142
q15 97 -29.5 161t-137.5 64q-80 0 -132 -51.5t-64 -136.5q-15 -98 28.5 -164t136.5 -66zM339 717q4 28 23.5 45.5t49.5 17.5q32 0 48 -20.5t12 -51.5q-4 -28 -22.5 -44.5t-48.5 -16.5q-31 0 -48.5 19.5t-13.5 50.5z" />
    <glyph glyph-name="Gcommaaccent" unicode="&#x122;" horiz-adv-x="803" 
d="M458 740q130 0 202 -51q74 -51 114 -138l-92 -53q-31 78 -84 115.5t-148 37.5q-121 0 -195.5 -77.5t-89.5 -192.5q-20 -138 39.5 -220.5t179.5 -82.5q202 0 257 232h-257l10 72h354l-53 -382h-95l15 111l16 85q-76 -206 -276 -206q-153 0 -232.5 112t-55.5 283
q21 153 124 254t267 101zM423 -146q-7 -47 -41 -80.5t-97 -41.5l-10 54q83 2 96 52q-15 -3 -19 -3q-27 0 -42.5 17.5t-11.5 44.5q3 23 20.5 39t44.5 16q33 0 49.5 -27.5t10.5 -70.5z" />
    <glyph glyph-name="gcommaaccent" unicode="&#x123;" horiz-adv-x="680" 
d="M52 309q16 119 89.5 189.5t177.5 70.5q80 0 133 -38.5t74 -102.5l19 132h96l-70 -498q-42 -301 -308 -301q-179 0 -256 125l94 52q54 -92 171 -92q85 0 135 49.5t67 162.5l8 54q-65 -120 -201 -120q-118 0 -183.5 88.5t-45.5 228.5zM314 72q83 0 134 51t64 142
q15 97 -29.5 161t-137.5 64q-80 0 -132 -51.5t-64 -136.5q-15 -98 28.5 -164t136.5 -66zM461 684q-3 -23 -20.5 -38.5t-43.5 -15.5q-34 0 -50 27t-10 70q7 47 44 82t104 41l9 -54q-92 -2 -105 -52q15 3 19 3q27 0 42 -18t11 -45z" />
    <glyph glyph-name="Hcircumflex" unicode="&#x124;" horiz-adv-x="752" 
d="M140 0h-97l102 730h97l-46 -323h395l46 323h97l-102 -730h-97l46 333h-395zM273 802l176 143h43l123 -145l-43 -37l-104 123l-157 -126z" />
    <glyph glyph-name="hcircumflex" unicode="&#x125;" horiz-adv-x="663" 
d="M175 269l-38 -269h-97l112 796h96l-53 -378q75 153 220 153q101 0 149 -68.5t33 -179.5l-46 -323h-96l42 304q12 81 -17 134t-113 53q-73 0 -125 -58.5t-67 -163.5zM30 840l176 143h43l123 -145l-43 -37l-104 123l-157 -126z" />
    <glyph glyph-name="Hbar" unicode="&#x126;" horiz-adv-x="773" 
d="M150 0h-97l71 512h-87l10 72h88l20 146h97l-21 -151h395l21 151h97l-20 -146h87l-10 -72h-88l-71 -512h-97l43 305h-395zM222 516l-19 -136h395l19 136h-395z" />
    <glyph glyph-name="hbar" unicode="&#x127;" horiz-adv-x="663" 
d="M175 269l-38 -269h-97l89 634h-92l8 58h92l15 104h96l-15 -104h145l-8 -58h-145l-30 -216q75 153 220 153q101 0 149 -68.5t33 -179.5l-46 -323h-96l42 304q12 81 -17 134t-113 53q-73 0 -125 -58.5t-67 -163.5z" />
    <glyph glyph-name="Itilde" unicode="&#x128;" horiz-adv-x="265" 
d="M142 0h-97l102 730h97zM139 877q-44 0 -46 -84l-58 8q3 61 31.5 99.5t72.5 38.5q32 0 58 -21t46.5 -42t40.5 -21q42 0 49 84l57 -8q-4 -61 -32.5 -99.5t-70.5 -38.5q-25 0 -48 13t-36.5 29t-30.5 29t-33 13z" />
    <glyph glyph-name="itilde" unicode="&#x129;" horiz-adv-x="256" 
d="M119 560h97l-78 -560h-97zM106 716q-21 0 -33 -22.5t-13 -59.5l-58 8q3 60 30.5 98.5t71.5 38.5q32 0 58 -20.5t47 -41t42 -20.5q44 0 49 82l57 -8q-4 -62 -32.5 -99.5t-68.5 -37.5q-33 0 -60 20.5t-48.5 41t-41.5 20.5z" />
    <glyph glyph-name="Imacron" unicode="&#x12a;" horiz-adv-x="265" 
d="M142 0h-97l102 730h97zM347 820h-274l8 58h274z" />
    <glyph glyph-name="imacron" unicode="&#x12b;" horiz-adv-x="256" 
d="M119 560h97l-78 -560h-97zM312 655h-274l8 59h274z" />
    <glyph glyph-name="Ibreve" unicode="&#x12c;" horiz-adv-x="265" 
d="M142 0h-97l102 730h97zM220 835q49 0 78 27t33 78l58 -14q-4 -62 -49 -105.5t-124 -43.5q-81 0 -118.5 43.5t-34.5 105.5l61 14q-7 -105 96 -105z" />
    <glyph glyph-name="ibreve" unicode="&#x12d;" horiz-adv-x="256" 
d="M119 560h97l-78 -560h-97zM189 691q102 0 109 109l60 -14q-4 -63 -48 -110q-44 -45 -124 -45q-88 0 -124 45q-36 46 -30 110l64 14q-13 -109 93 -109z" />
    <glyph glyph-name="Iogonek" unicode="&#x12e;" horiz-adv-x="265" 
d="M85 0h-37l102 730h97l-102 -730q-119 -57 -124 -133q-1 -25 14.5 -38t43.5 -13q20 0 40 4l-17 -59q-18 -6 -46 -6q-49 0 -76.5 24.5t-24.5 66.5q8 94 130 154z" />
    <glyph glyph-name="iogonek" unicode="&#x12f;" horiz-adv-x="256" 
d="M128 717q4 28 23.5 45.5t49.5 17.5t46.5 -20.5t12.5 -51.5q-4 -28 -22.5 -44.5t-47.5 -16.5q-31 0 -48.5 19.5t-13.5 50.5zM51 -245q-49 0 -76.5 24.5t-24.5 66.5q8 94 130 154h-37l79 560h97l-79 -560q-119 -57 -124 -133q-1 -25 14.5 -38t43.5 -13q20 0 40 4l-17 -59
q-18 -6 -46 -6z" />
    <glyph glyph-name="Idot" unicode="&#x130;" horiz-adv-x="265" 
d="M142 0h-97l102 730h97zM150 854q4 28 22.5 44.5t46.5 16.5q30 0 45.5 -19.5t11.5 -49.5q-4 -27 -21.5 -43t-45.5 -16q-30 0 -46.5 19t-12.5 48z" />
    <glyph glyph-name="dotlessi" unicode="&#x131;" horiz-adv-x="256" 
d="M119 560h97l-78 -560h-97z" />
    <glyph glyph-name="IJ" unicode="&#x132;" horiz-adv-x="653" 
d="M175 298h-97l61 432h97zM55 156l94 53q38 -134 162 -134q146 0 172 187l65 468h97l-66 -472q-19 -126 -86.5 -197t-189.5 -71q-104 0 -162 46q-57 45 -86 120z" />
    <glyph glyph-name="ij" unicode="&#x133;" horiz-adv-x="513" 
d="M125 717q4 28 23.5 45.5t49.5 17.5t46.5 -20.5t12.5 -51.5q-4 -28 -22.5 -44.5t-47.5 -16.5q-31 0 -48.5 19.5t-13.5 50.5zM119 560h97l-79 -560h-97zM381 717q4 28 23.5 45.5t49.5 17.5t46.5 -20.5t12.5 -51.5q-4 -28 -22.5 -44.5t-47.5 -16.5q-31 0 -48.5 19.5
t-13.5 50.5zM472 560l-78 -561q-19 -122 -61 -168.5t-149 -46.5h-36l12 88h17q60 0 84 25q25 25 35 95l80 568h96z" />
    <glyph glyph-name="Jcircumflex" unicode="&#x134;" horiz-adv-x="615" 
d="M262 -10q-113 0 -174.5 55t-71.5 158l97 29q13 -157 153 -157q79 0 122 52.5t58 156.5l63 446h97l-64 -457q-18 -127 -86 -206q-68 -77 -194 -77zM392 814l176 143h43l123 -145l-43 -37l-104 123l-157 -126z" />
    <glyph glyph-name="jcircumflex" unicode="&#x135;" horiz-adv-x="258" 
d="M216 560l-78 -561q-19 -122 -61 -168.5t-149 -46.5h-36l12 88h17q60 0 84 25t35 95l80 568h96zM332 646l-51 -35l-87 128l-139 -128l-42 40l165 149h43z" />
    <glyph glyph-name="Kcommaaccent" unicode="&#x136;" horiz-adv-x="696" 
d="M140 0h-97l102 730h97l-63 -446l433 446h123l-315 -319l234 -411h-111l-203 367l-173 -171zM391 -132q-7 -47 -41 -80.5t-97 -41.5l-10 54q83 2 96 52q-15 -3 -19 -3q-27 0 -42.5 17.5t-11.5 44.5q3 23 20.5 39t44.5 16q33 0 49.5 -27.5t10.5 -70.5z" />
    <glyph glyph-name="kcommaaccent" unicode="&#x137;" horiz-adv-x="596" 
d="M152 796h96l-81 -572l339 336h122l-262 -256l187 -304h-109l-159 272l-128 -122l-21 -150h-97zM347 -138q-7 -47 -41 -80.5t-97 -41.5l-10 54q83 2 96 52q-15 -3 -19 -3q-27 0 -42.5 17.5t-11.5 44.5q3 23 20.5 39t44.5 16q33 0 49.5 -27.5t10.5 -70.5z" />
    <glyph glyph-name="kgreenlandic" unicode="&#x138;" horiz-adv-x="601" 
d="M39 0l79 560h97l-49 -342l345 342h122l-262 -256l187 -304h-109l-159 272l-134 -127l-20 -145h-97z" />
    <glyph glyph-name="Lacute" unicode="&#x139;" horiz-adv-x="605" 
d="M529 0h-486l102 730h97l-90 -641h389zM395 915l-230 -137l-29 46l223 150z" />
    <glyph glyph-name="lacute" unicode="&#x13a;" horiz-adv-x="255" 
d="M152 796h97l-112 -796h-97zM395 952l-230 -137l-29 46l223 150z" />
    <glyph glyph-name="Lcommaaccent" unicode="&#x13b;" horiz-adv-x="605" 
d="M529 0h-486l102 730h97l-90 -641h389zM346 -146q-7 -47 -41 -80.5t-97 -41.5l-10 54q83 2 96 52q-15 -3 -19 -3q-27 0 -42.5 17.5t-11.5 44.5q3 23 20.5 39t44.5 16q33 0 49.5 -27.5t10.5 -70.5z" />
    <glyph glyph-name="lcommaaccent" unicode="&#x13c;" horiz-adv-x="255" 
d="M152 796h97l-112 -796h-97zM138 -146q-7 -47 -41 -80.5t-97 -41.5l-10 54q83 2 96 52q-15 -3 -19 -3q-27 0 -42.5 17.5t-11.5 44.5q3 23 20.5 39t44.5 16q33 0 49.5 -27.5t10.5 -70.5z" />
    <glyph glyph-name="Lcaron" unicode="&#x13d;" horiz-adv-x="605" 
d="M529 0h-486l102 730h97l-90 -641h389zM393 727l71 12q4 -21 2 -52q-7 -97 -71 -196l-46 22q43 73 47 144q2 39 -3 70z" />
    <glyph glyph-name="lcaron" unicode="&#x13e;" horiz-adv-x="292" 
d="M152 796h97l-112 -796h-97zM326 793l71 12q4 -21 2 -52q-7 -97 -71 -196l-46 22q43 73 47 144q2 39 -3 70z" />
    <glyph glyph-name="Ldot" unicode="&#x13f;" horiz-adv-x="605" 
d="M529 0h-486l102 730h97l-90 -641h389zM354 426q4 28 23.5 45.5t49.5 17.5q32 0 48 -20.5t12 -51.5q-4 -28 -22.5 -44.5t-48.5 -16.5q-31 0 -48.5 19.5t-13.5 50.5z" />
    <glyph glyph-name="ldot" unicode="&#x140;" horiz-adv-x="332" 
d="M152 796h97l-112 -796h-97zM244 390q4 28 23.5 45.5t49.5 17.5q32 0 48 -20.5t12 -51.5q-4 -28 -22.5 -44.5t-48.5 -16.5q-31 0 -48.5 19.5t-13.5 50.5z" />
    <glyph glyph-name="Lslash" unicode="&#x141;" horiz-adv-x="617" 
d="M541 0h-486l45 324l-111 -52l10 76l111 52l47 330h97l-42 -298l176 83l-10 -76l-177 -84l-37 -266h389z" />
    <glyph glyph-name="lslash" unicode="&#x142;" horiz-adv-x="282" 
d="M165 796h97l-49 -346l97 47l-10 -71l-97 -47l-53 -379h-97l48 344l-98 -47l10 71l98 47z" />
    <glyph glyph-name="Nacute" unicode="&#x143;" horiz-adv-x="753" 
d="M219 642l-6 -90l-77 -552h-93l102 730h116l265 -551l30 -82l9 91l76 542h94l-102 -730h-110l-271 566zM645 902l-230 -137l-29 46l223 150z" />
    <glyph glyph-name="nacute" unicode="&#x144;" horiz-adv-x="662" 
d="M136 0h-97l79 560h96l-20 -142q75 153 220 153q101 0 149 -68.5t33 -179.5l-46 -323h-96l42 304q12 81 -17 134t-113 53q-73 0 -125 -58.5t-67 -163.5zM555 780l-200 -164l-35 41l189 175z" />
    <glyph glyph-name="Ncommaaccent" unicode="&#x145;" horiz-adv-x="753" 
d="M219 642l-6 -90l-77 -552h-93l102 730h116l265 -551l30 -82l9 91l76 542h94l-102 -730h-110l-271 566zM396 -135q-7 -47 -41 -80.5t-97 -41.5l-10 54q83 2 96 52q-15 -3 -19 -3q-27 0 -42.5 17.5t-11.5 44.5q3 23 20.5 39t44.5 16q33 0 49.5 -27.5t10.5 -70.5z" />
    <glyph glyph-name="ncommaaccent" unicode="&#x146;" horiz-adv-x="662" 
d="M136 0h-97l79 560h96l-20 -142q75 153 220 153q101 0 149 -68.5t33 -179.5l-46 -323h-96l42 304q12 81 -17 134t-113 53q-73 0 -125 -58.5t-67 -163.5zM354 -134q-7 -47 -41 -80.5t-97 -41.5l-10 54q83 2 96 52q-15 -3 -19 -3q-27 0 -42.5 17.5t-11.5 44.5q3 23 20.5 39
t44.5 16q33 0 49.5 -27.5t10.5 -70.5z" />
    <glyph glyph-name="Ncaron" unicode="&#x147;" horiz-adv-x="753" 
d="M219 642l-6 -90l-77 -552h-93l102 730h116l265 -551l30 -82l9 91l76 542h94l-102 -730h-110l-271 566zM648 909l-176 -143h-43l-123 145l43 37l104 -124l158 127z" />
    <glyph glyph-name="ncaron" unicode="&#x148;" horiz-adv-x="662" 
d="M136 0h-97l79 560h96l-20 -142q75 153 220 153q101 0 149 -68.5t33 -179.5l-46 -323h-96l42 304q12 81 -17 134t-113 53q-73 0 -125 -58.5t-67 -163.5zM245 783l50 35l87 -128l139 128l42 -40l-164 -149h-43z" />
    <glyph glyph-name="Eng" unicode="&#x14a;" horiz-adv-x="753" 
d="M735 730l-104 -745q-15 -105 -64 -153t-163 -48h-64l12 90h53q62 0 92.5 23.5t37.5 74.5l2 16l-285 580l-32 76l-6 -90l-78 -554h-93l102 730h116l263 -536l34 -89l10 101l73 524h94z" />
    <glyph glyph-name="eng" unicode="&#x14b;" horiz-adv-x="662" 
d="M596 323l-46 -323q-16 -121 -62.5 -168.5t-156.5 -47.5h-26l12 88h17q57 0 83 27t36 93l43 312q12 81 -17 134t-113 53q-73 0 -125 -58.5t-67 -163.5l-38 -269h-97l79 560h96l-20 -142q75 153 220 153q101 0 149 -68.5t33 -179.5z" />
    <glyph glyph-name="Omacron" unicode="&#x14c;" horiz-adv-x="794" 
d="M392 -10q-174 0 -262 118t-63 297q21 143 118 239t245 96q172 0 258 -118.5t61 -299.5q-19 -141 -113.5 -236.5t-243.5 -95.5zM398 81q111 0 176.5 72t80.5 185q19 135 -40.5 224t-188.5 89q-110 0 -178 -73.5t-83 -183.5q-19 -134 41.5 -223.5t191.5 -89.5zM600 820
h-274l8 58h274z" />
    <glyph glyph-name="omacron" unicode="&#x14d;" horiz-adv-x="662" 
d="M310 -10q-136 0 -207 88t-51 226q16 116 98 191.5t204 75.5q136 0 205.5 -89t51.5 -227q-17 -118 -94.5 -191.5t-206.5 -73.5zM317 73q82 0 132.5 52t63.5 137q15 101 -28 164.5t-134 63.5q-88 0 -139 -55t-63 -138q-14 -97 32 -160.5t136 -63.5zM523 655h-274l8 59h274z
" />
    <glyph glyph-name="Obreve" unicode="&#x14e;" horiz-adv-x="794" 
d="M392 -10q-174 0 -262 118t-63 297q21 143 118 239t245 96q172 0 258 -118.5t61 -299.5q-19 -141 -113.5 -236.5t-243.5 -95.5zM398 81q111 0 176.5 72t80.5 185q19 135 -40.5 224t-188.5 89q-110 0 -178 -73.5t-83 -183.5q-19 -134 41.5 -223.5t191.5 -89.5zM476 835
q49 0 78 27t33 78l58 -14q-4 -62 -49 -105.5t-124 -43.5q-81 0 -118.5 43.5t-34.5 105.5l61 14q-7 -105 96 -105z" />
    <glyph glyph-name="obreve" unicode="&#x14f;" horiz-adv-x="662" 
d="M310 -10q-136 0 -207 88t-51 226q16 116 98 191.5t204 75.5q136 0 205.5 -89t51.5 -227q-17 -118 -94.5 -191.5t-206.5 -73.5zM317 73q82 0 132.5 52t63.5 137q15 101 -28 164.5t-134 63.5q-88 0 -139 -55t-63 -138q-14 -97 32 -160.5t136 -63.5zM395 691q102 0 109 109
l60 -14q-4 -63 -48 -110q-43 -45 -124 -45q-88 0 -124 45q-36 46 -30 110l64 14q-13 -109 93 -109z" />
    <glyph glyph-name="Ohungarumlaut" unicode="&#x150;" horiz-adv-x="794" 
d="M392 -10q-174 0 -262 118t-63 297q21 143 118 239t245 96q172 0 258 -118.5t61 -299.5q-19 -141 -113.5 -236.5t-243.5 -95.5zM398 81q111 0 176.5 72t80.5 185q19 135 -40.5 224t-188.5 89q-110 0 -178 -73.5t-83 -183.5q-19 -134 41.5 -223.5t191.5 -89.5zM541 960
l-145 -182l-44 29l138 189zM690 952l-151 -178l-42 31l141 183z" />
    <glyph glyph-name="ohungarumlaut" unicode="&#x151;" horiz-adv-x="662" 
d="M310 -10q-136 0 -207 88t-51 226q16 116 98 191.5t204 75.5q136 0 205.5 -89t51.5 -227q-17 -118 -94.5 -191.5t-206.5 -73.5zM317 73q82 0 132.5 52t63.5 137q15 101 -28 164.5t-134 63.5q-88 0 -139 -55t-63 -138q-14 -97 32 -160.5t136 -63.5zM466 827l-141 -206
l-44 29l129 210zM622 827l-150 -206l-44 29l138 210z" />
    <glyph glyph-name="OE" unicode="&#x152;" horiz-adv-x="1185" 
d="M369 -10q-108 0 -181 55t-101.5 145.5t-14.5 203.5q19 150 114 248t240 98q111 0 174.5 -61t83.5 -160l29 211h496l-11 -87h-425l-33 -236h339l-10 -75h-339l-35 -244h427l-12 -88h-499l23 163q-39 -77 -106 -125t-159 -48zM399 80q110 0 179 74.5t84 187.5
q12 84 -7.5 153t-75.5 112.5t-140 43.5q-113 0 -183.5 -74t-85.5 -185q-11 -86 8 -155t76 -113t145 -44z" />
    <glyph glyph-name="oe" unicode="&#x153;" horiz-adv-x="1063" 
d="M916 163l77 -50q-32 -54 -91 -88.5t-136 -34.5q-94 0 -151 49.5t-77 126.5q-31 -73 -91 -125q-59 -51 -153 -51q-125 0 -190 88t-47 226q17 118 93 192.5t190 74.5q86 0 140.5 -48.5t74.5 -130.5q28 73 94 127q65 52 162 52q109 0 165.5 -75t52.5 -193l-4 -45h-452
q-1 -83 46 -135t132 -52q59 0 97 23t68 69zM779 491q-80 0 -132 -49q-51 -48 -68 -123h357q2 83 -37.5 127.5t-119.5 44.5zM323 73q81 0 130 52t61 137q15 102 -25.5 165t-130.5 63q-87 0 -138.5 -52.5t-64.5 -137.5q-14 -100 31 -163.5t137 -63.5z" />
    <glyph glyph-name="Racute" unicode="&#x154;" horiz-adv-x="707" 
d="M332 289h-152l-40 -289h-97l102 730h307q131 0 191 -62t47 -159q-12 -83 -74 -128q-61 -44 -144 -58q52 -7 85 -34q47 -41 60 -156l16 -133h-103l-13 131q-7 86 -37 120q-35 38 -148 38zM423 645h-193l-40 -284h183q93 0 151.5 33.5t67.5 100.5q9 65 -30 107
q-37 43 -139 43zM608 915l-230 -137l-29 46l223 150z" />
    <glyph glyph-name="racute" unicode="&#x155;" horiz-adv-x="463" 
d="M373 568q69 0 109 -32l-43 -86q-41 32 -101 32q-134 0 -163 -202l-39 -280h-97l79 560h96l-18 -129q52 137 177 137zM474 780l-200 -164l-35 41l189 175z" />
    <glyph glyph-name="Rcommaaccent" unicode="&#x156;" horiz-adv-x="707" 
d="M332 289h-152l-40 -289h-97l102 730h307q131 0 191 -62t47 -159q-12 -83 -74 -128q-61 -44 -144 -58q52 -7 85 -34q47 -41 60 -156l16 -133h-103l-13 131q-7 86 -37 120q-35 38 -148 38zM423 645h-193l-40 -284h183q93 0 151.5 33.5t67.5 100.5q9 65 -30 107
q-37 43 -139 43zM396 -131q-7 -47 -41 -80.5t-97 -41.5l-10 54q83 2 96 52q-15 -3 -19 -3q-27 0 -42.5 17.5t-11.5 44.5q3 23 20.5 39t44.5 16q33 0 49.5 -27.5t10.5 -70.5z" />
    <glyph glyph-name="rcommaaccent" unicode="&#x157;" horiz-adv-x="463" 
d="M373 568q69 0 109 -32l-43 -86q-41 32 -101 32q-134 0 -163 -202l-39 -280h-97l79 560h96l-18 -129q52 137 177 137zM139 -146q-7 -47 -41 -80.5t-97 -41.5l-10 54q83 2 96 52q-15 -3 -19 -3q-27 0 -42.5 17.5t-11.5 44.5q3 23 20.5 39t44.5 16q33 0 49.5 -27.5
t10.5 -70.5z" />
    <glyph glyph-name="Rcaron" unicode="&#x158;" horiz-adv-x="707" 
d="M332 289h-152l-40 -289h-97l102 730h307q131 0 191 -62t47 -159q-12 -83 -74 -128q-61 -44 -144 -58q52 -7 85 -34q47 -41 60 -156l16 -133h-103l-13 131q-7 86 -37 120q-35 38 -148 38zM423 645h-193l-40 -284h183q93 0 151.5 33.5t67.5 100.5q9 65 -30 107
q-37 43 -139 43zM615 922l-176 -143h-43l-123 145l43 37l104 -124l158 127z" />
    <glyph glyph-name="rcaron" unicode="&#x159;" horiz-adv-x="463" 
d="M373 568q69 0 109 -32l-43 -86q-41 32 -101 32q-134 0 -163 -202l-39 -280h-97l79 560h96l-18 -129q52 137 177 137zM163 783l50 35l87 -128l139 128l42 -40l-164 -149h-43z" />
    <glyph glyph-name="Sacute" unicode="&#x15a;" horiz-adv-x="665" 
d="M359 406q39 -10 62 -17.5t57.5 -21t54.5 -30t39 -39.5t25 -54.5t0 -69.5q-11 -81 -81 -133t-183 -52q-219 0 -331 160l86 67q88 -137 252 -136q71 0 115 30t51 80q5 34 -6.5 58.5t-43 41.5t-57 25.5t-75.5 21.5q-15 4 -23 6q-55 14 -91.5 28.5t-70.5 39t-47 62t-5 88.5
q10 78 82 130q71 51 183 51q116 0 189 -42q74 -42 131 -120l-85 -63q-82 136 -243 136q-75 0 -116.5 -29t-47.5 -75q-10 -66 39 -94q47 -26 140 -49zM586 915l-230 -137l-29 46l223 150z" />
    <glyph glyph-name="sacute" unicode="&#x15b;" horiz-adv-x="556" 
d="M3 107l78 64q71 -101 194 -101q59 0 90.5 24.5t35.5 59.5q3 18 -3.5 32.5t-15.5 23t-31 16.5t-36 11.5t-43 10.5l-7.5 1.5t-7 1.5t-7.5 2q-46 9 -77.5 20t-60.5 30t-40.5 49t-5.5 72q10 67 69 108t153 41q164 0 260 -119l-80 -62q-72 98 -194 98q-54 0 -86.5 -21
t-36.5 -56q-3 -19 3.5 -34t16.5 -24t33 -17.5t39 -12.5t48 -11q6 -1 9 -2q47 -10 77 -19.5t61.5 -28.5t44 -50.5t5.5 -75.5q-9 -63 -65 -106t-152 -43q-176 0 -268 118zM497 780l-200 -164l-35 41l189 175z" />
    <glyph glyph-name="Scircumflex" unicode="&#x15c;" horiz-adv-x="665" 
d="M359 406q39 -10 62 -17.5t57.5 -21t54.5 -30t39 -39.5t25 -54.5t0 -69.5q-11 -81 -81 -133t-183 -52q-219 0 -331 160l86 67q88 -137 252 -136q71 0 115 30t51 80q5 34 -6.5 58.5t-43 41.5t-57 25.5t-75.5 21.5q-15 4 -23 6q-55 14 -91.5 28.5t-70.5 39t-47 62t-5 88.5
q10 78 82 130q71 51 183 51q116 0 189 -42q74 -42 131 -120l-85 -63q-82 136 -243 136q-75 0 -116.5 -29t-47.5 -75q-10 -66 39 -94q47 -26 140 -49zM232 814l176 143h43l123 -145l-43 -37l-104 123l-157 -126z" />
    <glyph glyph-name="scircumflex" unicode="&#x15d;" horiz-adv-x="556" 
d="M3 107l78 64q71 -101 194 -101q59 0 90.5 24.5t35.5 59.5q3 18 -3.5 32.5t-15.5 23t-31 16.5t-36 11.5t-43 10.5l-7.5 1.5t-7 1.5t-7.5 2q-46 9 -77.5 20t-60.5 30t-40.5 49t-5.5 72q10 67 69 108t153 41q164 0 260 -119l-80 -62q-72 98 -194 98q-54 0 -86.5 -21
t-36.5 -56q-3 -19 3.5 -34t16.5 -24t33 -17.5t39 -12.5t48 -11q6 -1 9 -2q47 -10 77 -19.5t61.5 -28.5t44 -50.5t5.5 -75.5q-9 -63 -65 -106t-152 -43q-176 0 -268 118zM493 646l-51 -35l-87 128l-139 -128l-42 40l165 149h43z" />
    <glyph glyph-name="Scedilla" unicode="&#x15e;" horiz-adv-x="665" 
d="M406 -140q-3 -47 -40 -74.5t-98 -27.5q-73 0 -123 30l28 50q42 -25 97 -25q76 0 78 53q1 22 -14 32t-44 10q-28 0 -57 -9l-17 10l43 85q-164 22 -257 155l86 67q88 -137 252 -136q71 0 115 30t51 80q5 34 -6.5 58.5t-43 41.5t-57 25.5t-75.5 21.5q-15 4 -23 6
q-55 14 -91.5 28.5t-70.5 39t-47 62t-5 88.5q10 78 82 130q71 51 183 51q116 0 189 -42q74 -42 131 -120l-85 -63q-82 136 -243 136q-75 0 -116.5 -29t-47.5 -75q-10 -66 39 -94q47 -26 140 -49q39 -10 62 -17.5t57.5 -21t54.5 -30t39 -39.5t25 -54.5t0 -69.5
q-11 -81 -81 -133t-183 -52h-22l-19 -39h17q51 0 75.5 -25.5t21.5 -64.5z" />
    <glyph glyph-name="scedilla" unicode="&#x15f;" horiz-adv-x="556" 
d="M3 107l78 64q71 -101 194 -101q59 0 90.5 24.5t35.5 59.5q3 18 -3.5 32.5t-15.5 23t-31 16.5t-36 11.5t-43 10.5l-7.5 1.5t-7 1.5t-7.5 2q-46 9 -77.5 20t-60.5 30t-40.5 49t-5.5 72q10 67 69 108t153 41q164 0 260 -119l-80 -62q-72 98 -194 98q-54 0 -86.5 -21
t-36.5 -56q-3 -19 3.5 -34t16.5 -24t33 -17.5t39 -12.5t48 -11q6 -1 9 -2q47 -10 77 -19.5t61.5 -28.5t44 -50.5t5.5 -75.5q-9 -63 -65 -106t-152 -43h-22l-19 -39h17q51 0 75.5 -25.5t21.5 -64.5q-3 -47 -40 -74.5t-98 -27.5q-73 0 -123 30l28 50q42 -25 97 -25q76 0 78 53
q1 22 -14 32t-44 10q-28 0 -57 -9l-17 10l43 86q-121 17 -194 112z" />
    <glyph glyph-name="Scaron" unicode="&#x160;" horiz-adv-x="665" 
d="M359 406q39 -10 62 -17.5t57.5 -21t54.5 -30t39 -39.5t25 -54.5t0 -69.5q-11 -81 -81 -133t-183 -52q-219 0 -331 160l86 67q88 -137 252 -136q71 0 115 30t51 80q5 34 -6.5 58.5t-43 41.5t-57 25.5t-75.5 21.5q-15 4 -23 6q-55 14 -91.5 28.5t-70.5 39t-47 62t-5 88.5
q10 78 82 130q71 51 183 51q116 0 189 -42q74 -42 131 -120l-85 -63q-82 136 -243 136q-75 0 -116.5 -29t-47.5 -75q-10 -66 39 -94q47 -26 140 -49zM596 922l-176 -143h-43l-123 145l43 37l104 -124l158 127z" />
    <glyph glyph-name="scaron" unicode="&#x161;" horiz-adv-x="556" 
d="M3 107l78 64q71 -101 194 -101q59 0 90.5 24.5t35.5 59.5q3 18 -3.5 32.5t-15.5 23t-31 16.5t-36 11.5t-43 10.5l-7.5 1.5t-7 1.5t-7.5 2q-46 9 -77.5 20t-60.5 30t-40.5 49t-5.5 72q10 67 69 108t153 41q164 0 260 -119l-80 -62q-72 98 -194 98q-54 0 -86.5 -21
t-36.5 -56q-3 -19 3.5 -34t16.5 -24t33 -17.5t39 -12.5t48 -11q6 -1 9 -2q47 -10 77 -19.5t61.5 -28.5t44 -50.5t5.5 -75.5q-9 -63 -65 -106t-152 -43q-176 0 -268 118zM192 783l50 35l87 -128l139 128l42 -40l-164 -149h-43z" />
    <glyph glyph-name="Tcaron" unicode="&#x164;" horiz-adv-x="651" 
d="M328 644h-240l12 86h578l-12 -86h-241l-90 -644h-97zM594 922l-176 -143h-43l-123 145l43 37l104 -124l158 127z" />
    <glyph glyph-name="tcaron" unicode="&#x165;" horiz-adv-x="438" 
d="M371 90l-12 -81q-44 -19 -88 -19q-88 0 -122.5 45.5t-21.5 137.5l43 307h-127l12 80h127l21 148l100 55l-29 -203h163l-12 -80h-162l-42 -298q-9 -61 10 -85t66 -24q27 0 74 17zM398 857l71 12q4 -21 2 -52q-7 -97 -71 -196l-46 22q43 73 47 144q2 39 -3 70z" />
    <glyph glyph-name="Tbar" unicode="&#x166;" horiz-adv-x="651" 
d="M283 320h-168l9 63h168l36 261h-240l12 86h578l-12 -86h-241l-36 -261h168l-9 -63h-168l-45 -320h-97z" />
    <glyph glyph-name="tbar" unicode="&#x167;" horiz-adv-x="438" 
d="M28 268l8 58h112l22 154h-127l12 80h127l21 148l100 55l-29 -203h163l-12 -80h-162l-22 -154h149l-8 -58h-149l-12 -86q-9 -61 10 -85t66 -24q27 0 74 17l-12 -81q-44 -19 -88 -19q-88 0 -122.5 45.5t-21.5 137.5l13 95h-112z" />
    <glyph glyph-name="Utilde" unicode="&#x168;" horiz-adv-x="728" 
d="M563 305l59 425h96l-60 -431q-22 -152 -103.5 -230.5t-214.5 -78.5q-142 0 -213 78t-50 231l61 431h97l-60 -425q-15 -109 26.5 -167t137.5 -58q100 0 154 56t70 169zM381 865q-44 0 -46 -84l-58 8q3 61 31.5 99.5t72.5 38.5q32 0 58 -21t46.5 -42t40.5 -21q42 0 49 84
l57 -8q-4 -61 -32.5 -99.5t-70.5 -38.5q-25 0 -48 13t-36.5 29t-30.5 29t-33 13z" />
    <glyph glyph-name="utilde" unicode="&#x169;" horiz-adv-x="648" 
d="M513 560h96l-79 -560h-96l20 139q-36 -73 -92.5 -111.5t-123.5 -38.5q-101 0 -147 63.5t-30 175.5l47 332h97l-44 -313q-25 -177 122 -177q73 0 125 57.5t67 161.5zM308 701q-21 0 -33 -22.5t-13 -59.5l-58 8q3 60 30.5 98.5t71.5 38.5q32 0 58 -20.5t47 -41t42 -20.5
q44 0 49 82l57 -8q-4 -62 -32.5 -99.5t-68.5 -37.5q-33 0 -60 20.5t-48.5 41t-41.5 20.5z" />
    <glyph glyph-name="Umacron" unicode="&#x16a;" horiz-adv-x="728" 
d="M563 305l59 425h96l-60 -431q-22 -152 -103.5 -230.5t-214.5 -78.5q-142 0 -213 78t-50 231l61 431h97l-60 -425q-15 -109 26.5 -167t137.5 -58q100 0 154 56t70 169zM578 808h-274l8 58h274z" />
    <glyph glyph-name="umacron" unicode="&#x16b;" horiz-adv-x="648" 
d="M513 560h96l-79 -560h-96l20 139q-36 -73 -92.5 -111.5t-123.5 -38.5q-101 0 -147 63.5t-30 175.5l47 332h97l-44 -313q-25 -177 122 -177q73 0 125 57.5t67 161.5zM508 640h-274l8 59h274z" />
    <glyph glyph-name="Ubreve" unicode="&#x16c;" horiz-adv-x="728" 
d="M563 305l59 425h96l-60 -431q-22 -152 -103.5 -230.5t-214.5 -78.5q-142 0 -213 78t-50 231l61 431h97l-60 -425q-15 -109 26.5 -167t137.5 -58q100 0 154 56t70 169zM451 823q49 0 78 27t33 78l58 -14q-4 -62 -49 -105.5t-124 -43.5q-81 0 -118.5 43.5t-34.5 105.5
l61 14q-7 -105 96 -105z" />
    <glyph glyph-name="ubreve" unicode="&#x16d;" horiz-adv-x="648" 
d="M513 560h96l-79 -560h-96l20 139q-36 -73 -92.5 -111.5t-123.5 -38.5q-101 0 -147 63.5t-30 175.5l47 332h97l-44 -313q-25 -177 122 -177q73 0 125 57.5t67 161.5zM385 676q102 0 109 109l60 -14q-4 -63 -48 -110q-44 -45 -124 -45q-88 0 -124 45q-36 46 -30 110l64 14
q-13 -109 93 -109z" />
    <glyph glyph-name="Uring" unicode="&#x16e;" horiz-adv-x="728" 
d="M563 305l59 425h96l-60 -431q-22 -152 -103.5 -230.5t-214.5 -78.5q-142 0 -213 78t-50 231l61 431h97l-60 -425q-15 -109 26.5 -167t137.5 -58q100 0 154 56t70 169zM446 760q-57 0 -89.5 35.5t-25.5 89.5q6 48 41.5 77.5t86.5 29.5q57 0 88.5 -36.5t23.5 -91.5
q-7 -47 -41.5 -75.5t-83.5 -28.5zM447 806q28 0 48 17t24 46q4 35 -12.5 56t-50.5 21q-30 0 -49.5 -17t-22.5 -47q-4 -34 13 -55t50 -21z" />
    <glyph glyph-name="uring" unicode="&#x16f;" horiz-adv-x="648" 
d="M513 560h96l-79 -560h-96l20 139q-36 -73 -92.5 -111.5t-123.5 -38.5q-101 0 -147 63.5t-30 175.5l47 332h97l-44 -313q-25 -177 122 -177q73 0 125 57.5t67 161.5zM257 740q7 49 43 79.5t87 30.5q59 0 92 -40q34 -40 25 -99q-7 -49 -42.5 -79t-85.5 -30
q-60 0 -93.5 39.5t-25.5 98.5zM451 718q5 35 -13 58.5t-54 23.5q-30 0 -50 -17.5t-24 -48.5q-4 -35 14 -58.5t54 -23.5q29 0 49 18.5t24 47.5z" />
    <glyph glyph-name="Uhungarumlaut" unicode="&#x170;" horiz-adv-x="728" 
d="M563 305l59 425h96l-60 -431q-22 -152 -103.5 -230.5t-214.5 -78.5q-142 0 -213 78t-50 231l61 431h97l-60 -425q-15 -109 26.5 -167t137.5 -58q100 0 154 56t70 169zM517 948l-145 -182l-44 29l138 189zM666 940l-151 -178l-42 31l141 183z" />
    <glyph glyph-name="uhungarumlaut" unicode="&#x171;" horiz-adv-x="648" 
d="M513 560h96l-79 -560h-96l20 139q-36 -73 -92.5 -111.5t-123.5 -38.5q-101 0 -147 63.5t-30 175.5l47 332h97l-44 -313q-25 -177 122 -177q73 0 125 57.5t67 161.5zM442 812l-141 -206l-44 29l129 210zM598 812l-150 -206l-44 29l138 210z" />
    <glyph glyph-name="Uogonek" unicode="&#x172;" horiz-adv-x="728" 
d="M424 -171l-17 -59q-18 -6 -46 -6q-49 0 -76.5 24.5t-24.5 66.5q6 84 101 135h-15q-142 0 -213 78t-50 231l61 431h97l-60 -425q-15 -109 26.5 -167t137.5 -58q100 0 154 56t70 169l59 425h96l-60 -431q-25 -177 -134 -256q-40 -26 -77 -40q-42 -17 -69 -36
q-56 -41 -58 -91q-1 -25 14.5 -38t43.5 -13q20 0 40 4z" />
    <glyph glyph-name="uogonek" unicode="&#x173;" horiz-adv-x="648" 
d="M453 -245q-49 0 -76.5 24.5t-24.5 66.5q8 94 130 154h-36l20 139q-36 -73 -92.5 -111.5t-123.5 -38.5q-101 0 -147 63.5t-30 175.5l47 332h97l-44 -313q-25 -177 122 -177q73 0 125 57.5t67 161.5l38 271h96l-79 -560q-119 -57 -124 -133q-1 -25 14.5 -38t43.5 -13
q20 0 40 4l-17 -59q-18 -6 -46 -6z" />
    <glyph glyph-name="Wcircumflex" unicode="&#x174;" horiz-adv-x="1013" 
d="M542 624l-28 -82l-229 -542h-108l-80 730h102l53 -530l6 -97l33 97l225 530h89l73 -531l7 -102l35 103l217 530h105l-305 -730h-114l-75 543zM395 814l176 143h43l123 -145l-43 -37l-104 123l-157 -126z" />
    <glyph glyph-name="wcircumflex" unicode="&#x175;" horiz-adv-x="858" 
d="M453 468l-27 -70l-178 -398h-117l-67 560h99l43 -416l4 -83l31 83l187 416h76l66 -414l7 -87l29 86l168 415h99l-237 -560h-114l-61 400zM631 646l-51 -35l-87 128l-139 -128l-42 40l165 149h43z" />
    <glyph glyph-name="Ycircumflex" unicode="&#x176;" horiz-adv-x="650" 
d="M592 730h112l-336 -468l-36 -262h-97l37 266l-198 464h103l124 -301l30 -83l52 83zM226 800l176 143h43l123 -145l-43 -37l-104 123l-157 -126z" />
    <glyph glyph-name="ycircumflex" unicode="&#x177;" horiz-adv-x="594" 
d="M51 560h98l103 -373l17 -86l43 87l208 372h102l-448 -776h-103l136 229zM501 633l-51 -35l-87 128l-139 -128l-42 40l165 149h43z" />
    <glyph glyph-name="Ydieresis" unicode="&#x178;" horiz-adv-x="650" 
d="M592 730h112l-336 -468l-36 -262h-97l37 266l-198 464h103l124 -301l30 -83l52 83zM441 832q4 27 22 42.5t45 15.5q29 0 44.5 -19t11.5 -47q-4 -27 -21.5 -42t-44.5 -15q-28 0 -44.5 18.5t-12.5 46.5zM240 832q4 27 22 42.5t45 15.5q29 0 44.5 -19t11.5 -47
q-4 -26 -21 -41.5t-44 -15.5q-28 0 -45 18.5t-13 46.5z" />
    <glyph glyph-name="Zacute" unicode="&#x179;" horiz-adv-x="640" 
d="M3 0l11 81l460 498l66 66h-435l11 85h540l-11 -81l-440 -477l-86 -87h449l-11 -85h-554zM589 915l-230 -137l-29 46l223 150z" />
    <glyph glyph-name="zacute" unicode="&#x17a;" horiz-adv-x="566" 
d="M556 560l-11 -80l-430 -396h378l-11 -84h-479l11 81l430 396h-367l11 83h468zM507 780l-200 -164l-35 41l189 175z" />
    <glyph glyph-name="Zdotaccent" unicode="&#x17b;" horiz-adv-x="640" 
d="M3 0l11 81l460 498l66 66h-435l11 85h540l-11 -81l-440 -477l-86 -87h449l-11 -85h-554zM342 854q4 28 22.5 44.5t46.5 16.5q30 0 45.5 -19.5t11.5 -49.5q-4 -27 -21.5 -43t-45.5 -16q-30 0 -46.5 19t-12.5 48z" />
    <glyph glyph-name="zdotaccent" unicode="&#x17c;" horiz-adv-x="566" 
d="M556 560l-11 -80l-430 -396h378l-11 -84h-479l11 81l430 396h-367l11 83h468zM271 717q4 28 23.5 45.5t49.5 17.5q32 0 48 -20.5t12 -51.5q-4 -28 -22.5 -44.5t-48.5 -16.5q-31 0 -48.5 19.5t-13.5 50.5z" />
    <glyph glyph-name="Zcaron" unicode="&#x17d;" horiz-adv-x="640" 
d="M3 0l11 81l460 498l66 66h-435l11 85h540l-11 -81l-440 -477l-86 -87h449l-11 -85h-554zM594 922l-176 -143h-43l-123 145l43 37l104 -124l158 127z" />
    <glyph glyph-name="zcaron" unicode="&#x17e;" horiz-adv-x="566" 
d="M556 560l-11 -80l-430 -396h378l-11 -84h-479l11 81l430 396h-367l11 83h468zM198 783l50 35l87 -128l139 128l42 -40l-164 -149h-43z" />
    <glyph glyph-name="florin" unicode="&#x192;" horiz-adv-x="575" 
d="M251 290h-153l9 58h167l83 215q34 90 78 134t119 44q39 0 73 -10l-10 -79q-25 6 -58 6q-40 0 -64 -20.5t-45 -73.5l-83 -216h160l-9 -58h-174l-128 -333q-37 -98 -81 -136q-43 -37 -122 -37q-39 0 -73 10l10 80q30 -7 62 -7q40 0 66 20.5t45 68.5z" />
    <glyph glyph-name="AEacute" unicode="&#x1fc;" horiz-adv-x="955" 
d="M83 0h-106l465 730h527l-12 -87h-409l3 -236h287l-10 -75h-276l4 -244h325l-12 -88h-392l-2 168h-288zM471 625l-58 -95l-181 -290h243l-3 290zM850 915l-230 -137l-29 46l223 150z" />
    <glyph glyph-name="aeacute" unicode="&#x1fd;" horiz-adv-x="1019" 
d="M694 -10q-95 0 -152.5 44.5t-75.5 119.5q-33 -79 -103 -122.5t-160 -43.5q-100 0 -144 45.5t-35 113.5q10 72 81 112q48 27 194 56q91 18 124 34t38 49q5 37 -23 66t-102 29q-126 0 -185 -117l-83 39q92 156 270 156q150 0 181 -112q78 112 218 112q121 0 183.5 -75
t58.5 -194q0 -8 -1.5 -24t-1.5 -20h-459q-2 -80 45 -134q47 -53 131 -53q62 0 102 23.5t72 68.5l77 -50q-40 -51 -99 -87t-151 -36zM725 491q-81 0 -133 -47.5t-68 -124.5h362q1 83 -40 127.5t-121 44.5zM233 60q83 0 142 56q58 55 70 140l8 60q-25 -31 -152 -55
q-97 -19 -135 -42q-39 -23 -43 -63q-6 -41 23.5 -68.5t86.5 -27.5zM751 775l-200 -164l-35 41l189 175z" />
    <glyph glyph-name="Oslashacute" unicode="&#x1fe;" horiz-adv-x="794" 
d="M137 98l-121 -105l-40 53l126 106q-55 105 -35 253q21 143 118 239t245 96q163 0 252 -110l119 100l41 -51l-126 -104q53 -105 33 -253q-19 -141 -113.5 -236.5t-243.5 -95.5q-166 0 -255 108zM165 394q-14 -110 19 -187l424 364q-60 80 -181 80q-111 0 -179 -73.5
t-83 -183.5zM398 81q110 0 176 72t81 184q14 106 -17 182l-422 -362q62 -76 182 -76zM653 915l-230 -137l-29 46l223 150z" />
    <glyph glyph-name="oslashacute" unicode="&#x1ff;" horiz-adv-x="660" 
d="M110 70l-100 -78l-37 53l101 78q-36 76 -22 181q16 116 98 191.5t204 75.5q125 0 195 -78l96 75l38 -51l-98 -76q40 -82 26 -186q-17 -118 -94.5 -191.5t-206.5 -73.5t-200 80zM148 297q-8 -70 9 -117l321 257q-45 53 -127 53q-88 0 -140 -55q-51 -55 -63 -138zM317 73
q82 0 133 52.5t64 136.5q8 75 -8 122l-319 -257q47 -54 130 -54zM558 780l-200 -164l-35 41l189 175z" />
    <glyph glyph-name="Scommaaccent" unicode="&#x218;" horiz-adv-x="665" 
d="M359 406q39 -10 62 -17.5t57.5 -21t54.5 -30t39 -39.5t25 -54.5t0 -69.5q-11 -81 -81 -133t-183 -52q-219 0 -331 160l86 67q88 -137 252 -136q71 0 115 30t51 80q5 34 -6.5 58.5t-43 41.5t-57 25.5t-75.5 21.5q-15 4 -23 6q-55 14 -91.5 28.5t-70.5 39t-47 62t-5 88.5
q10 78 82 130q71 51 183 51q116 0 189 -42q74 -42 131 -120l-85 -63q-82 136 -243 136q-75 0 -116.5 -29t-47.5 -75q-10 -66 39 -94q47 -26 140 -49zM350 -146q-7 -47 -41 -80.5t-97 -41.5l-10 54q83 2 96 52q-15 -3 -19 -3q-27 0 -42.5 17.5t-11.5 44.5q3 23 20.5 39
t44.5 16q33 0 49.5 -27.5t10.5 -70.5z" />
    <glyph glyph-name="scommaaccent" unicode="&#x219;" horiz-adv-x="556" 
d="M3 107l78 64q71 -101 194 -101q59 0 90.5 24.5t35.5 59.5q3 18 -3.5 32.5t-15.5 23t-31 16.5t-36 11.5t-43 10.5l-7.5 1.5t-7 1.5t-7.5 2q-46 9 -77.5 20t-60.5 30t-40.5 49t-5.5 72q10 67 69 108t153 41q164 0 260 -119l-80 -62q-72 98 -194 98q-54 0 -86.5 -21
t-36.5 -56q-3 -19 3.5 -34t16.5 -24t33 -17.5t39 -12.5t48 -11q6 -1 9 -2q47 -10 77 -19.5t61.5 -28.5t44 -50.5t5.5 -75.5q-9 -63 -65 -106t-152 -43q-176 0 -268 118zM294 -146q-7 -47 -41 -80.5t-97 -41.5l-10 54q83 2 96 52q-15 -3 -19 -3q-27 0 -42.5 17.5t-11.5 44.5
q3 23 20.5 39t44.5 16q33 0 49.5 -27.5t10.5 -70.5z" />
    <glyph glyph-name="Tcommaaccent" unicode="&#x21a;" horiz-adv-x="651" 
d="M328 644h-240l12 86h578l-12 -86h-241l-90 -644h-97zM336 -146q-7 -47 -41 -80.5t-97 -41.5l-10 54q83 2 96 52q-15 -3 -19 -3q-27 0 -42.5 17.5t-11.5 44.5q3 23 20.5 39t44.5 16q33 0 49.5 -27.5t10.5 -70.5z" />
    <glyph glyph-name="tcommaaccent" unicode="&#x21b;" horiz-adv-x="438" 
d="M371 90l-12 -81q-44 -19 -88 -19q-88 0 -122.5 45.5t-21.5 137.5l43 307h-127l12 80h127l21 148l100 55l-29 -203h163l-12 -80h-162l-42 -298q-9 -61 10 -85t66 -24q27 0 74 17zM289 -146q-7 -47 -41 -80.5t-97 -41.5l-10 54q83 2 96 52q-15 -3 -19 -3q-27 0 -42.5 17.5
t-11.5 44.5q3 23 20.5 39t44.5 16q33 0 49.5 -27.5t10.5 -70.5z" />
    <glyph glyph-name="dotlessj" unicode="&#x237;" horiz-adv-x="258" 
d="M216 560l-78 -561q-19 -122 -61 -168.5t-149 -46.5h-36l12 88h17q60 0 84 25t35 95l80 568h96z" />
    <glyph glyph-name="circumflex" unicode="&#x2c6;" horiz-adv-x="345" 
d="M322 639l-51 -35l-87 128l-139 -128l-42 40l165 149h43z" />
    <glyph glyph-name="caron" unicode="&#x2c7;" horiz-adv-x="345" 
d="M29 776l50 35l87 -128l139 128l42 -40l-164 -149h-43z" />
    <glyph glyph-name="breve" unicode="&#x2d8;" horiz-adv-x="345" 
d="M181 684q102 0 109 109l60 -14q-4 -63 -48 -110q-44 -45 -124 -45q-88 0 -124 45q-36 46 -30 110l64 14q-13 -109 93 -109z" />
    <glyph glyph-name="dotaccent" unicode="&#x2d9;" horiz-adv-x="345" 
d="M99 717q4 28 23.5 45.5t49.5 17.5q32 0 48 -20.5t12 -51.5q-4 -28 -22.5 -44.5t-48.5 -16.5q-31 0 -48.5 19.5t-13.5 50.5z" />
    <glyph glyph-name="ring" unicode="&#x2da;" horiz-adv-x="345" 
d="M49 742q7 49 43 79.5t87 30.5q59 0 92 -40q34 -40 25 -99q-7 -49 -42.5 -79t-85.5 -30q-60 0 -93.5 39.5t-25.5 98.5zM243 720q5 35 -13 58.5t-54 23.5q-30 0 -50 -17.5t-24 -48.5q-4 -35 14 -58.5t54 -23.5q29 0 49 18.5t24 47.5z" />
    <glyph glyph-name="ogonek" unicode="&#x2db;" horiz-adv-x="345" 
d="M190 -245q-49 0 -76.5 24.5t-24.5 66.5q8 97 142 160l48 -6q-119 -57 -124 -133q-1 -25 14.5 -38t43.5 -13q20 0 40 4l-17 -59q-18 -6 -46 -6z" />
    <glyph glyph-name="tilde" unicode="&#x2dc;" horiz-adv-x="362" 
d="M120 709q-21 0 -33 -22.5t-13 -59.5l-58 8q3 60 30.5 98.5t71.5 38.5q32 0 58 -20.5t47 -41t42 -20.5q44 0 49 82l57 -8q-4 -62 -32.5 -99.5t-68.5 -37.5q-33 0 -60 20.5t-48.5 41t-41.5 20.5z" />
    <glyph glyph-name="hungarumlaut" unicode="&#x2dd;" horiz-adv-x="345" 
d="M199 820l-141 -206l-44 29l129 210zM355 820l-150 -206l-44 29l138 210z" />
    <glyph glyph-name="commaaccent" unicode="&#x326;" horiz-adv-x="345" 
d="M248 -146q-7 -47 -41 -80.5t-97 -41.5l-10 54q83 2 96 52q-15 -3 -19 -3q-27 0 -42.5 17.5t-11.5 44.5q3 23 20.5 39t44.5 16q33 0 49.5 -27.5t10.5 -70.5z" />
    <glyph glyph-name="mu" unicode="&#x3bc;" horiz-adv-x="672" 
d="M256 -11q-79 0 -123 41l-32 -246h-96l109 776h97l-44 -312q-24 -180 128 -180q75 0 130 58t70 166l38 268h97l-79 -560h-96l17 125q-82 -136 -216 -136z" />
    <glyph glyph-name="pi" unicode="&#x3c0;" horiz-adv-x="673" 
d="M436 127l49 350h-265l-67 -477h-97l67 477h-80l12 83h620l-11 -83h-82l-46 -333q-6 -41 5.5 -56.5t45.5 -15.5q20 0 38 6l-12 -77q-27 -11 -72 -11q-124 0 -105 137z" />
    <glyph glyph-name="uni0E3F" unicode="&#xe3f;" horiz-adv-x="742" 
d="M292 0h-248l103 730h248l19 130h68l-19 -130h4q127 0 182.5 -57.5t44.5 -141.5q-9 -60 -62 -104t-129 -57q89 -13 131.5 -63t32.5 -126q-10 -82 -86.5 -131.5t-214.5 -49.5h-6l-20 -150h-68zM387 646h-156l-34 -247h155zM597 512q9 63 -27 98.5t-122 34.5l-35 -246
q81 1 129 31t55 82zM343 336h-155l-36 -251h155zM410 336h-6l-36 -251q98 0 148.5 31.5t57.5 85.5q7 60 -27 97t-137 37z" />
    <glyph glyph-name="Wgrave" unicode="&#x1e80;" horiz-adv-x="1013" 
d="M542 624l-28 -82l-229 -542h-108l-80 730h102l53 -530l6 -97l33 97l225 530h89l73 -531l7 -102l35 103l217 530h105l-305 -730h-114l-75 543zM646 821l-34 -43l-191 139l44 57z" />
    <glyph glyph-name="wgrave" unicode="&#x1e81;" horiz-adv-x="858" 
d="M453 468l-27 -70l-178 -398h-117l-67 560h99l43 -416l4 -83l31 83l187 416h76l66 -414l7 -87l29 86l168 415h99l-237 -560h-114l-61 400zM544 650l-44 -34l-145 175l60 41z" />
    <glyph glyph-name="Wacute" unicode="&#x1e82;" horiz-adv-x="1013" 
d="M542 624l-28 -82l-229 -542h-108l-80 730h102l53 -530l6 -97l33 97l225 530h89l73 -531l7 -102l35 103l217 530h105l-305 -730h-114l-75 543zM763 915l-230 -137l-29 46l223 150z" />
    <glyph glyph-name="wacute" unicode="&#x1e83;" horiz-adv-x="858" 
d="M453 468l-27 -70l-178 -398h-117l-67 560h99l43 -416l4 -83l31 83l187 416h76l66 -414l7 -87l29 86l168 415h99l-237 -560h-114l-61 400zM649 780l-200 -164l-35 41l189 175z" />
    <glyph glyph-name="Wdieresis" unicode="&#x1e84;" horiz-adv-x="1013" 
d="M542 624l-28 -82l-229 -542h-108l-80 730h102l53 -530l6 -97l33 97l225 530h89l73 -531l7 -102l35 103l217 530h105l-305 -730h-114l-75 543zM611 846q4 27 22 42.5t45 15.5q29 0 44.5 -19t11.5 -47q-4 -27 -21.5 -42t-44.5 -15q-28 0 -44.5 18.5t-12.5 46.5zM410 846
q4 27 22 42.5t45 15.5q29 0 44.5 -19t11.5 -47q-4 -26 -21 -41.5t-44 -15.5q-28 0 -45 18.5t-13 46.5z" />
    <glyph glyph-name="wdieresis" unicode="&#x1e85;" horiz-adv-x="858" 
d="M453 468l-27 -70l-178 -398h-117l-67 560h99l43 -416l4 -83l31 83l187 416h76l66 -414l7 -87l29 86l168 415h99l-237 -560h-114l-61 400zM517 698q4 28 22.5 44.5t47.5 16.5q30 0 46 -19.5t12 -50.5q-4 -27 -22 -43t-46 -16q-30 0 -47 19t-13 49zM314 698q4 28 22.5 44.5
t47.5 16.5q30 0 46 -19.5t12 -50.5q-4 -27 -22 -43t-46 -16q-30 0 -47 19t-13 49z" />
    <glyph glyph-name="uni1E9E" unicode="&#x1e9e;" horiz-adv-x="743" 
d="M35 0l61 436q19 143 106 223.5t234 80.5q175 0 276 -136l-248 -209q129 -11 180.5 -72t40.5 -145q-12 -87 -78 -138t-178 -51q-126 0 -201 58l65 85q61 -48 148 -48q144 0 160 113q9 59 -41.5 98t-177.5 42l-17 55l225 193q-58 64 -164 64q-204 0 -235 -227l-59 -422h-97
z" />
    <glyph glyph-name="Ygrave" unicode="&#x1ef2;" horiz-adv-x="650" 
d="M592 730h112l-336 -468l-36 -262h-97l37 266l-198 464h103l124 -301l30 -83l52 83zM471 807l-34 -43l-191 139l44 57z" />
    <glyph glyph-name="ygrave" unicode="&#x1ef3;" horiz-adv-x="594" 
d="M51 560h98l103 -373l17 -86l43 87l208 372h102l-448 -776h-103l136 229zM410 637l-44 -34l-145 175l60 41z" />
    <glyph glyph-name="figuredash" unicode="&#x2012;" horiz-adv-x="693" 
d="M644 272h-599l8 59h599z" />
    <glyph glyph-name="endash" unicode="&#x2013;" horiz-adv-x="632" 
d="M583 272h-538l8 59h538z" />
    <glyph glyph-name="emdash" unicode="&#x2014;" horiz-adv-x="892" 
d="M843 272h-798l8 59h798z" />
    <glyph glyph-name="uni2015" unicode="&#x2015;" horiz-adv-x="892" 
d="M843 272h-798l8 59h798z" />
    <glyph glyph-name="underscoredbl" unicode="&#x2017;" horiz-adv-x="520" 
d="M423 -118h-440l7 50h440zM407 -233h-440l7 50h440z" />
    <glyph glyph-name="quoteleft" unicode="&#x2018;" horiz-adv-x="247" 
d="M76 547q7 50 45.5 100t107.5 88l29 -55q-95 -40 -122 -104q14 6 29 6q33 0 49.5 -21.5t13.5 -52.5q-3 -30 -24.5 -50t-54.5 -20q-41 0 -60.5 30t-12.5 79z" />
    <glyph glyph-name="quoteright" unicode="&#x2019;" horiz-adv-x="247" 
d="M250 628q-7 -51 -45 -101t-108 -87l-29 55q95 40 122 104q-13 -6 -29 -6q-32 0 -48.5 21.5t-13.5 52.5t24 50.5t54 19.5q41 0 60.5 -30t12.5 -79z" />
    <glyph glyph-name="quotesinglbase" unicode="&#x201a;" horiz-adv-x="254" 
d="M171 29q-7 -51 -45 -101t-108 -87l-29 55q95 41 121 104q-12 -6 -28 -6q-32 0 -49 21.5t-14 52.5t24.5 50.5t54.5 19.5q41 0 60.5 -30t12.5 -79z" />
    <glyph glyph-name="quotedblleft" unicode="&#x201c;" horiz-adv-x="447" 
d="M276 547q7 51 45 101t108 87l29 -55q-95 -40 -122 -104q14 6 29 6q33 0 49.5 -21.5t13.5 -52.5q-3 -30 -24.5 -50t-54.5 -20q-41 0 -60.5 30t-12.5 79zM76 547q7 50 45.5 100t107.5 88l29 -55q-95 -40 -122 -104q14 6 29 6q33 0 49.5 -21.5t13.5 -52.5q-3 -30 -24.5 -50
t-54.5 -20q-41 0 -60.5 30t-12.5 79z" />
    <glyph glyph-name="quotedblright" unicode="&#x201d;" horiz-adv-x="447" 
d="M250 628q-7 -51 -45 -101t-108 -87l-29 55q95 40 122 104q-13 -6 -29 -6q-32 0 -48.5 21.5t-13.5 52.5t24 50.5t54 19.5q41 0 60.5 -30t12.5 -79zM450 628q-7 -50 -45 -100.5t-108 -87.5l-29 55q95 40 122 104q-14 -6 -29 -6q-32 0 -48.5 21.5t-13.5 52.5t24 50.5
t54 19.5q41 0 60.5 -30t12.5 -79z" />
    <glyph glyph-name="quotedblbase" unicode="&#x201e;" horiz-adv-x="447" 
d="M171 29q-7 -51 -45 -101t-108 -87l-29 55q95 41 121 104q-12 -6 -28 -6q-32 0 -49 21.5t-14 52.5t24.5 50.5t54.5 19.5q41 0 60.5 -30t12.5 -79zM371 29q-7 -50 -45.5 -100t-107.5 -88l-29 55q95 41 121 104q-12 -6 -28 -6q-32 0 -49 21.5t-14 52.5t24.5 50.5t54.5 19.5
q41 0 60.5 -30t12.5 -79z" />
    <glyph glyph-name="dagger" unicode="&#x2020;" horiz-adv-x="409" 
d="M187 455h-141l11 74h140l35 247h87l-35 -247h141l-11 -74h-140l-75 -529h-87z" />
    <glyph glyph-name="daggerdbl" unicode="&#x2021;" horiz-adv-x="409" 
d="M145 161h-140l10 74h141l36 260h-140l10 74h141l29 207h87l-29 -207h140l-10 -74h-141l-36 -260h140l-10 -74h-141l-33 -235h-87z" />
    <glyph glyph-name="bullet" unicode="&#x2022;" horiz-adv-x="338" 
d="M167 231q-41 0 -66.5 25.5t-25.5 65.5q0 45 29.5 73.5t74.5 28.5q40 0 66 -26t26 -64q0 -44 -29.5 -73.5t-74.5 -29.5z" />
    <glyph glyph-name="ellipsis" unicode="&#x2026;" horiz-adv-x="657" 
d="M91 -8q-32 0 -52.5 21t-17.5 54q3 31 24 51.5t54 20.5t52.5 -22t16.5 -55q-3 -31 -24 -50.5t-53 -19.5zM296 -8q-33 0 -53.5 21t-16.5 54q2 31 23.5 51.5t54.5 20.5t52.5 -22.5t15.5 -54.5q-2 -30 -23 -50t-53 -20zM500 -8q-32 0 -52.5 21t-17.5 54q3 31 24 51.5t54 20.5
t52.5 -22t16.5 -55q-3 -31 -24 -50.5t-53 -19.5z" />
    <glyph glyph-name="perthousand" unicode="&#x2030;" horiz-adv-x="1207" 
d="M274 740q77 0 120 -61t30 -161q-11 -81 -62 -131q-52 -50 -120 -50q-80 0 -125 61t-31 160q10 81 64 132q53 50 124 50zM460 423l282 316l68 -69l-323 -275zM270 669q-39 0 -68.5 -30.5t-37.5 -85.5q-9 -67 14 -105.5t67 -38.5q38 0 66 30t35 84q9 70 -12.5 108t-63.5 38
zM630 396q77 0 120 -61t30 -161q-11 -81 -62 -131q-52 -50 -120 -50q-80 0 -125 61t-31 160q10 81 64 132q53 50 124 50zM1012 396q76 0 119 -61q44 -63 31 -161q-11 -81 -62 -131q-52 -50 -121 -50q-79 0 -125 61q-45 61 -31 160q12 83 64 132q53 50 125 50zM395 303
l-279 -316l-67 69l318 275zM626 325q-39 0 -68.5 -30.5t-37.5 -85.5q-9 -67 14 -105.5t67 -38.5q38 0 66 30t35 84q9 70 -12.5 108t-63.5 38zM1008 325q-40 0 -69 -30.5t-37 -85.5q-9 -67 13.5 -105.5t66.5 -38.5q38 0 66 30t35 84q9 70 -12 108t-63 38z" />
    <glyph glyph-name="minute" unicode="&#x2032;" horiz-adv-x="205" 
d="M131 493h-55l75 237h84z" />
    <glyph glyph-name="second" unicode="&#x2033;" horiz-adv-x="341" 
d="M131 493h-55l75 237h84zM267 493h-55l75 237h84z" />
    <glyph glyph-name="guilsinglleft" unicode="&#x2039;" horiz-adv-x="289" 
d="M197 456h105l-190 -185l133 -177h-98l-136 178l1 6z" />
    <glyph glyph-name="guilsinglright" unicode="&#x203a;" horiz-adv-x="289" 
d="M274 278l-1 -6l-184 -178h-105l189 184l-133 178h98z" />
    <glyph glyph-name="exclamdbl" unicode="&#x203c;" horiz-adv-x="446" 
d="M130 215h-36l24 421q4 59 19.5 81.5t44.5 22.5q46 0 46 -54q0 -28 -30 -169zM88 -8q-33 0 -53.5 21t-16.5 54q2 31 23.5 51.5t54.5 20.5t52.5 -22.5t15.5 -54.5q-2 -30 -23 -50t-53 -20zM328 215h-36l24 421q4 59 19.5 81.5t44.5 22.5q46 0 46 -54q0 -28 -30 -169z
M286 -8q-33 0 -53.5 21t-16.5 54q2 31 23.5 51.5t54.5 20.5t52.5 -22.5t15.5 -54.5q-2 -30 -23 -50t-53 -20z" />
    <glyph glyph-name="interrobang" unicode="&#x203d;" horiz-adv-x="529" 
d="M265 234l-2 -14h-49l55 432q-107 -17 -147 -140l-87 28q28 85 90.5 137t149.5 61l13 96h78l-16 -96q98 -11 145.5 -74t36.5 -141q-11 -66 -50 -104q-43 -40 -85 -61q-50 -27 -86 -51q-38 -25 -46 -73zM330 652l-53 -317q26 34 78 64q25 17 39 28.5t27 32.5t17 47
q8 61 -20.5 99.5t-87.5 45.5zM208 -8q-30 0 -49.5 19t-19.5 47q0 33 22.5 56t57.5 23q31 0 50 -19.5t19 -48.5q0 -34 -22 -55.5t-58 -21.5z" />
    <glyph glyph-name="fraction" unicode="&#x2044;" horiz-adv-x="163" 
d="M122 419l211 319l61 -44l-258 -285zM63 312l-212 -319l-60 45l258 284z" />
    <glyph glyph-name="uni207A" unicode="&#x207a;" horiz-adv-x="256" 
d="M196 597l-12 -91h-48l12 91h-86l6 45h87l11 77h48l-11 -77h86l-6 -45h-87z" />
    <glyph glyph-name="uni207B" unicode="&#x207b;" horiz-adv-x="266" 
d="M292 589h-231l6 46h231z" />
    <glyph glyph-name="uni207C" unicode="&#x207c;" horiz-adv-x="266" 
d="M299 638h-231l6 46h231zM283 517h-231l6 46h231z" />
    <glyph glyph-name="uni207D" unicode="&#x207d;" horiz-adv-x="200" 
d="M101 591q-23 -170 104 -286l-61 -60q-56 58 -81 152.5t-11 194.5q14 102 66 195.5t123 147.5l44 -59q-161 -119 -184 -285z" />
    <glyph glyph-name="uni207E" unicode="&#x207e;" horiz-adv-x="200" 
d="M154 589q13 96 -20 167q-32 70 -84 120l61 59q56 -56 81 -151.5t11 -195.5q-14 -102 -66 -195t-124 -148l-44 60q162 118 185 284z" />
    <glyph glyph-name="uni208A" unicode="&#x208a;" horiz-adv-x="256" 
d="M124 140l-12 -91h-48l12 91h-86l6 45h87l11 77h48l-11 -77h86l-6 -45h-87z" />
    <glyph glyph-name="uni208B" unicode="&#x208b;" horiz-adv-x="266" 
d="M220 132h-231l6 46h231z" />
    <glyph glyph-name="uni208C" unicode="&#x208c;" horiz-adv-x="266" 
d="M227 181h-231l6 46h231zM211 60h-231l6 46h231z" />
    <glyph glyph-name="uni208D" unicode="&#x208d;" horiz-adv-x="200" 
d="M29 134q-23 -170 104 -286l-61 -60q-56 58 -81 152.5t-11 194.5q14 102 66 195.5t123 147.5l44 -59q-161 -119 -184 -285z" />
    <glyph glyph-name="uni208E" unicode="&#x208e;" horiz-adv-x="200" 
d="M87 132q13 96 -20 167q-31 71 -84 120l61 59q56 -56 81 -151.5t11 -195.5q-14 -102 -66 -195t-124 -148l-44 60q162 118 185 284z" />
    <glyph glyph-name="uni20A1" unicode="&#x20a1;" horiz-adv-x="787" 
d="M665 767l38 -29l-52 -59q23 -18 53 -49l59 67l37 -29l-507 -575q37 -12 87 -12q101 0 168 56.5t96 154.5l94 -19q-41 -136 -135 -209.5t-228 -73.5q-84 0 -147 30l-68 -77l-37 31l62 71q-19 13 -53 47l-69 -79l-37 31l77 88q-62 109 -41 250q21 153 126 255.5t264 102.5
q86 0 158 -35zM161 378q-13 -89 13 -166l372 420q-46 19 -101 19q-115 0 -191.5 -77t-92.5 -196zM589 608l-392 -442q21 -33 51 -51l391 442q-20 30 -50 51z" />
    <glyph glyph-name="uni20A2" unicode="&#x20a2;" horiz-adv-x="786" 
d="M649 277l94 -19q-41 -130 -134 -199t-223 -69q-95 0 -164.5 35t-105 93t-48 125.5t-1.5 140.5q21 152 126 254t264 102q70 0 125.5 -21.5t91 -58.5t56.5 -80t31 -94l-98 -25q-15 82 -64 135q-48 55 -149 55q-115 0 -191.5 -75.5t-92.5 -193.5q-10 -69 0 -128t47.5 -106
t99.5 -63l47 335h63l-18 -123q55 132 153 132q51 0 89 -33l-34 -59q-37 31 -75 31q-58 0 -98 -55t-55 -163l-10 -73h8q203 0 266 200z" />
    <glyph glyph-name="franc" unicode="&#x20a3;" horiz-adv-x="666" 
d="M191 173l-24 -173h-97l24 172h-101l9 57h100l70 501h503l-12 -87h-406l-27 -195h355l-8 -63h-356l-22 -157h222l-8 -55h-222z" />
    <glyph glyph-name="lira" unicode="&#x20a4;" horiz-adv-x="678" 
d="M150 228h-118l7 53h114q-1 23 -18 77h-85l8 53h61q-16 58 -7 120q14 97 87.5 153t181.5 56q68 0 120 -21.5t82 -58.5t46 -80.5t20 -94.5l-98 -19q-20 189 -172 189q-69 0 -116 -35.5t-56 -103.5q-5 -40 5 -105h303l-8 -53h-283q9 -46 8 -77h264l-8 -53h-265
q-18 -61 -79 -112q44 14 82 14q44 0 112.5 -27t106.5 -27q84 0 107 115l81 -22q-22 -96 -73 -138.5t-114 -42.5q-52 0 -126.5 32t-114.5 32q-67 0 -170 -59l-29 75q66 34 100.5 72.5t43.5 87.5z" />
    <glyph glyph-name="uni20A6" unicode="&#x20a6;" horiz-adv-x="701" 
d="M570 0h-103l-108 282h-178l-39 -282h-91l39 278h-81l7 53h81l11 75h-81l7 53h81l39 271h110l105 -275h174l39 275h91l-39 -271h81l-7 -53h-81l-11 -75h81l-7 -53h-81zM293 455l-64 188l-23 -188h87zM199 409l-11 -81h153l-30 81h-112zM387 409l31 -81h107l11 81h-149z
M435 282l8 -20l53 -166l22 186h-83z" />
    <glyph glyph-name="peseta" unicode="&#x20a7;" horiz-adv-x="733" 
d="M326 238h-145l-33 -238h-97l62 445h-81l8 58h81l33 227h249q144 0 212.5 -64t66.5 -163h72l-8 -58h-71q-20 -99 -112 -154q-92 -53 -237 -53zM389 642h-151l-20 -141h368q-3 66 -52 103.5t-145 37.5zM190 301h156q210 0 237 146h-373z" />
    <glyph glyph-name="uni20A8" unicode="&#x20a8;" horiz-adv-x="1128" 
d="M534 185l8 -185h-102l-1 175q0 77 -32 100t-130 23h-94l-42 -298h-97l103 730h201q75 0 129.5 -18.5t82 -50.5t37.5 -70t4 -81q-9 -72 -65 -116.5t-141 -57.5q66 -6 100.5 -40t38.5 -111zM331 645h-99l-41 -287h88q205 0 225 132q9 65 -27 110t-146 45zM889 570
q73 0 130.5 -30t92.5 -77l-58 -64q-66 92 -171 92q-56 0 -87 -20.5t-35 -54.5q-5 -38 21 -63t111 -42q95 -20 136 -51q56 -44 44 -123q-9 -60 -62 -103t-149 -43q-160 0 -248 108l64 63q66 -91 189 -91q57 0 89 22t36 58q6 39 -21 62q-30 24 -128 43q-81 14 -123 51
q-48 42 -37 123q9 65 64 102.5t142 37.5z" />
    <glyph glyph-name="uni20A9" unicode="&#x20a9;" horiz-adv-x="916" 
d="M643 0h-95l-21 287h-153l-105 -287h-97l-29 286h-112l7 52h100l-7 79h-82l8 52h68l-25 261h100l22 -262h160l100 262h69l21 -262h166l103 262h100l-107 -261h77l-8 -52h-90l-32 -79h111l-7 -52h-126zM505 647l-64 -179h73zM226 418l7 -81h99l31 81h-137zM517 418h-94
l-30 -81h130zM576 418l6 -81h104l32 81h-142zM237 287l5 -57l6 -135l66 192h-77zM596 92l46 134l24 61h-80z" />
    <glyph glyph-name="uni20AA" unicode="&#x20aa;" horiz-adv-x="856" 
d="M140 0h-97l102 730h472l-78 -558h-61l71 504h-314zM740 730h97l-102 -730h-472l78 558h61l-70 -504h314z" />
    <glyph glyph-name="Euro" unicode="&#x20ac;" horiz-adv-x="782" 
d="M194 321h268l-23 -53h-238q11 -83 59 -135t138 -52q188 0 246 211l94 -19q-39 -139 -128 -211t-217 -72q-69 0 -123.5 22.5t-89 61.5t-54.5 87.5t-26 106.5h-95l7 53h88q0 27 6 77h-83l8 53h84q36 127 130.5 208t226.5 81q66 0 117 -21t84 -58.5t53.5 -83t29.5 -101.5
l-98 -25q-15 92 -57 146t-136 54q-90 0 -155.5 -54t-93.5 -146h292l-22 -53h-286q-6 -35 -6 -77z" />
    <glyph glyph-name="uni20AE" unicode="&#x20ae;" horiz-adv-x="658" 
d="M275 217l-142 -59l-13 44l162 68l10 73l-150 -63l-13 44l171 72l35 248h-240l12 86h578l-12 -86h-241l-31 -216l153 61l12 -44l-172 -71l-10 -72l160 65l13 -44l-181 -75l-34 -248h-97z" />
    <glyph glyph-name="uni20B1" unicode="&#x20b1;" horiz-adv-x="733" 
d="M346 238h-163l-34 -238h-97l54 384h-83l8 52h83l10 71h-83l7 53h83l24 170h254q111 0 178.5 -46.5t85.5 -123.5h89l-7 -53h-78q0 -39 -8 -71h76l-8 -52h-85q-34 -70 -112.5 -108t-193.5 -38zM390 642h-150l-13 -86h351q-38 86 -188 86zM590 488q0 12 -1 21h-368l-11 -74
h375q5 27 5 53zM191 299h155q172 0 221 88h-363z" />
    <glyph glyph-name="indianrupee" unicode="&#x20b9;" horiz-adv-x="625" 
d="M656 730l-12 -85h-113l-17 -112h114l-9 -63h-119q-42 -131 -211 -146q51 -9 79.5 -39.5t55.5 -93.5l81 -191h-102l-75 178q-32 75 -63 97.5t-103 22.5h-115l8 58h153q89 0 139.5 26.5t67.5 88.5h-343l8 60h346l17 114h-347l12 85h548z" />
    <glyph glyph-name="uni2116" unicode="&#x2116;" horiz-adv-x="1087" 
d="M877 307q-98 0 -144.5 66t-31.5 163q12 91 67.5 145.5t143.5 54.5q98 0 142.5 -66.5t31.5 -166.5q-13 -89 -68 -142.5t-141 -53.5zM223 617l-24 -180l-61 -437h-96l103 730h109l162 -436l58 -172l26 190l59 418h95l-103 -730h-103l-170 459zM783 531q-10 -67 16 -108
t83 -41q50 0 81.5 33.5t39.5 91.5q9 69 -15.5 111.5t-81.5 42.5q-51 0 -83.5 -35.5t-39.5 -94.5zM900 229l-32 -229h-97l32 229h97z" />
    <glyph glyph-name="published" unicode="&#x2117;" horiz-adv-x="857" 
d="M467 741q76 0 139 -24t105 -65t69.5 -94.5t36 -114t-0.5 -121.5q-20 -139 -121.5 -235.5t-267.5 -96.5q-79 0 -144 24t-108 65t-70.5 94t-36 112t-0.5 119q21 146 128.5 241.5t270.5 95.5zM433 62q131 0 210.5 75.5t94.5 191.5q9 65 -3.5 125.5t-45.5 109t-92 78
t-136 29.5q-129 0 -214 -75.5t-101 -193.5q-9 -65 4 -125t46 -108.5t94.5 -77.5t142.5 -29zM460 316h-85l-17 -119h-57l50 360h136q71 0 107 -37.5t28 -95.5q-7 -50 -50 -79t-112 -29zM380 355h84q91 0 102 69q5 40 -15.5 62t-67.5 22h-82z" />
    <glyph glyph-name="servicemark" unicode="&#x2120;" horiz-adv-x="696" 
d="M266 507q2 23 -19 34q-23 9 -64 16q-47 6 -78 30q-29 26 -22 67q4 36 38 59t87 23q83 0 131 -60l-45 -38q-34 47 -92 47q-28 0 -46.5 -11t-20.5 -29q-5 -30 26 -42q11 -4 55 -13q49 -8 72 -23q35 -22 29 -69q-6 -39 -39.5 -61.5t-85.5 -22.5q-48 0 -87.5 17t-57.5 42
l45 40q40 -48 105 -48t69 42zM394 730h72l38 -177l17 -89l38 79l94 187h71l-44 -310h-59l24 172l15 80l-36 -80l-86 -172h-47l-37 172l-14 81l-7 -81l-24 -172h-59z" />
    <glyph glyph-name="trademark" unicode="&#x2122;" horiz-adv-x="673" 
d="M192 420h-63l36 257h-98l8 53h259l-8 -53h-98zM371 730h72l38 -177l17 -89l38 79l94 187h71l-44 -310h-59l24 172l15 80l-36 -80l-86 -172h-47l-37 172l-14 81l-7 -81l-24 -172h-59z" />
    <glyph glyph-name="ohm" unicode="&#x2126;" horiz-adv-x="785" 
d="M430 740q91 0 160 -32t106.5 -85t52.5 -116t6 -128q-13 -94 -76 -173q-62 -77 -166 -114h194l-13 -92h-303l14 106q112 23 177 93.5t78 165.5q10 71 -10.5 135t-78.5 108t-144 44q-112 0 -188 -67t-91 -171q-15 -106 29.5 -191.5t150.5 -116.5l-14 -106h-303l13 92h203
q-97 41 -143.5 136t-30.5 204q19 134 120 221t257 87z" />
    <glyph glyph-name="estimated" unicode="&#x212e;" horiz-adv-x="708" 
d="M643 216l32 -13q-92 -211 -337 -211q-164 0 -243 96.5t-58 245.5q18 138 122 228t254 90q139 0 217 -84q84 -88 71 -252l-2 -27h-544l-26 -182q74 -81 213 -81q212 0 301 190zM410 618q-128 0 -219 -73l-31 -220h425l29 205q-67 88 -204 88z" />
    <glyph glyph-name="uni2153" unicode="&#x2153;" horiz-adv-x="858" 
d="M796 108q-7 -50 -51 -81.5t-114 -31.5q-57 0 -102.5 22.5t-69.5 62.5l64 42q34 -59 111 -59q43 0 68 19t29 48q4 34 -19 53t-68 19h-69l6 40h59q94 0 102 60q4 32 -14.5 53t-56.5 21q-65 0 -107 -67l-59 31q63 100 175 100q66 0 103 -35.5t30 -88.5q-5 -32 -32 -57.5
t-70 -34.5q96 -24 85 -116zM435 419l211 319l61 -44l-258 -285zM376 312l-212 -319l-60 45l258 284zM205 297h-78l47 337q-33 -71 -117 -71h-7l11 78h13q107 0 115 89h76z" />
    <glyph glyph-name="uni2154" unicode="&#x2154;" horiz-adv-x="958" 
d="M349 297h-316l10 70q100 62 154 98q53 35 79 64t30 60q4 33 -12 57.5t-55 24.5q-69 0 -103 -86l-66 30q60 121 178 121q72 0 105.5 -41.5t26.5 -96.5q-10 -72 -123 -147q-63 -40 -135 -83h237zM896 108q-7 -50 -51 -81.5t-114 -31.5q-57 0 -102.5 22.5t-69.5 62.5l64 42
q34 -59 111 -59q43 0 68 19t29 48q4 34 -19 53t-68 19h-69l6 40h59q94 0 102 60q4 32 -14.5 53t-56.5 21q-65 0 -107 -67l-59 31q63 100 175 100q66 0 103 -35.5t30 -88.5q-5 -32 -32 -57.5t-70 -34.5q96 -24 85 -116zM535 419l211 319l61 -44l-258 -285zM476 312l-212 -319
l-60 45l258 284z" />
    <glyph glyph-name="partialdiff" unicode="&#x2202;" horiz-adv-x="651" 
d="M388 657q-97 0 -163 -106l-76 45q46 73 110.5 109.5t136.5 36.5q129 0 188.5 -101.5t34.5 -287.5q-22 -164 -112.5 -263.5t-230.5 -99.5q-88 0 -146 41t-78 99.5t-10 123.5q12 92 81.5 152.5t176.5 60.5q75 0 132.5 -43.5t86.5 -114.5q16 80 16 144q0 100 -38.5 152
t-108.5 52zM133 259q-11 -76 29 -129t129 -53q70 0 123 42t83 117q-22 75 -75 122q-52 46 -115 46q-73 0 -119 -41t-55 -104z" />
    <glyph glyph-name="increment" unicode="&#x2206;" horiz-adv-x="737" 
d="M674 0h-692l401 730h96zM418 635l-78 -163l-203 -382h412l-96 382z" />
    <glyph glyph-name="product" unicode="&#x220f;" horiz-adv-x="751" 
d="M111 -216h-97l133 946h581l-133 -946h-97l120 855h-387z" />
    <glyph glyph-name="summation" unicode="&#x2211;" horiz-adv-x="665" 
d="M538 -216h-538l13 93l365 404l-248 355l13 94h526l-12 -89h-432l244 -354l-3 -22l-345 -389h430z" />
    <glyph glyph-name="minus" unicode="&#x2212;" horiz-adv-x="472" 
d="M432 274h-396l9 67h396z" />
    <glyph glyph-name="radical" unicode="&#x221a;" horiz-adv-x="680" 
d="M620 730h99l-377 -730h-102l-93 283h-123l11 75h183l36 -114l43 -148l76 155z" />
    <glyph glyph-name="infinity" unicode="&#x221e;" horiz-adv-x="743" 
d="M392 428q31 58 78.5 100t106.5 42q88 0 125 -65.5t24 -160.5q-10 -76 -59 -125t-121 -49q-16 0 -30.5 3t-26 7t-23.5 12.5t-19.5 14.5t-17 18.5t-14 18.5t-12 20t-10 18t-8.5 18t-7 15q-31 -60 -78 -102t-107 -42q-88 0 -125 64.5t-24 156.5q10 77 59.5 128t122.5 51
q109 0 166 -143zM236 503q-42 0 -73 -31.5t-38 -82.5q-9 -63 15 -105.5t70 -42.5q77 0 145 132q-15 58 -45.5 94t-73.5 36zM534 238q43 0 73.5 31.5t37.5 82.5q9 62 -15 105q-22 43 -69 43q-79 0 -146 -130q39 -132 119 -132z" />
    <glyph glyph-name="integral" unicode="&#x222b;" horiz-adv-x="343" 
d="M373 649h-19q-44 0 -68.5 -21t-30.5 -72l-82 -584q-15 -113 -59.5 -150.5t-142.5 -37.5h-21l11 81h21q48 0 69 21.5t29 81.5l82 582q13 102 61.5 141t133.5 39h27z" />
    <glyph glyph-name="approxequal" unicode="&#x2248;" horiz-adv-x="474" 
d="M458 453l-10 -70q-42 -43 -101 -43q-35 0 -98 26.5t-102 26.5q-54 0 -101 -42l10 70q46 40 101 40q40 0 101.5 -27t96.5 -27q51 0 103 46zM430 250l-10 -70q-42 -43 -101 -43q-35 0 -98 26.5t-102 26.5q-54 0 -101 -42l10 70q46 40 101 40q40 0 101.5 -27t96.5 -27
q51 0 103 46z" />
    <glyph glyph-name="notequal" unicode="&#x2260;" horiz-adv-x="472" 
d="M114 160h-94l9 68h134l85 126h-201l10 67h235l96 145l55 -27l-79 -118h88l-9 -67h-128l-85 -126h195l-10 -68h-227l-101 -150l-54 30z" />
    <glyph glyph-name="equivalence" unicode="&#x2261;" horiz-adv-x="477" 
d="M458 433h-398l9 68h398zM432 251h-398l10 68h397zM406 69h-397l9 68h398z" />
    <glyph glyph-name="lessequal" unicode="&#x2264;" horiz-adv-x="472" 
d="M404 181l-348 204l5 33l405 203l-11 -79l-295 -142l255 -144zM399 39h-396l10 68h395z" />
    <glyph glyph-name="greaterequal" unicode="&#x2265;" horiz-adv-x="472" 
d="M89 621l349 -203l-5 -33l-406 -204l12 80l295 142l-255 144zM399 39h-396l10 68h395z" />
    <glyph glyph-name="house" unicode="&#x2302;" horiz-adv-x="910" 
d="M791 427v-427h-674v427l337 323z" />
    <glyph glyph-name="whitesmallsquare" unicode="&#x25ab;" horiz-adv-x="745" 
d="M621 500v-500h-500v500h500zM541 426h-339v-351h339v351z" />
    <glyph glyph-name="triagup" unicode="&#x25b2;" horiz-adv-x="997" 
d="M498 742l428 -742h-857z" />
    <glyph glyph-name="triagrt" unicode="&#x25ba;" horiz-adv-x="932" 
d="M861 372l-742 -429v857z" />
    <glyph glyph-name="triagdn" unicode="&#x25bc;" horiz-adv-x="1017" 
d="M508 -12l-429 742h857z" />
    <glyph glyph-name="triaglf" unicode="&#x25c4;" horiz-adv-x="932" 
d="M69 372l742 428v-857z" />
    <glyph glyph-name="lozenge" unicode="&#x25ca;" horiz-adv-x="528" 
d="M206 0l-169 365l271 365h35l170 -365l-272 -365h-35zM314 607l-186 -251l107 -234l188 252z" />
    <glyph glyph-name="bullseye" unicode="&#x25ce;" horiz-adv-x="957" 
d="M103 365q0 163 106 269t269 106t269 -106t106 -269t-106 -269t-269 -106t-269 106t-106 269zM165 365q0 -138 88.5 -227.5t224.5 -89.5t224.5 89.5t88.5 227.5q0 140 -88.5 229t-224.5 89t-224.5 -89t-88.5 -229zM693 365q0 -99 -59 -158q-58 -58 -156 -58t-156 58
q-59 59 -59 158q0 98 59 157t156 59t156 -59t59 -157zM631 365q0 71 -42.5 115t-110.5 44q-69 0 -111 -44t-42 -115q0 -72 42 -115t111 -43t111 43t42 115zM421 365q0 24 16.5 41t40.5 17q25 0 41.5 -17t16.5 -41t-16.5 -40.5t-41.5 -16.5t-41 16.5t-16 40.5z" />
    <glyph glyph-name="uni25E2" unicode="&#x25e2;" horiz-adv-x="927" 
d="M59 755l828 -222l-606 -606z" />
    <glyph glyph-name="uni25E3" unicode="&#x25e3;" horiz-adv-x="927" 
d="M868 755l-222 -828l-606 606z" />
    <glyph glyph-name="uni25E4" unicode="&#x25e4;" horiz-adv-x="927" 
d="M649 774l222 -828l-828 222z" />
    <glyph glyph-name="uni25E5" unicode="&#x25e5;" horiz-adv-x="927" 
d="M281 770l605 -607l-828 -221z" />
    <glyph glyph-name="uni2605" unicode="&#x2605;" horiz-adv-x="930" 
d="M648 85l-187 135l-186 -135l72 219l-186 135l229 -1l72 218l71 -218l230 -1l-187 -134z" />
    <glyph glyph-name="uni263C" unicode="&#x263c;" horiz-adv-x="972" 
d="M460 577l-19 152h88l-19 -152h-50zM360 536l-95 122l75 47l61 -141zM569 564l61 141l75 -47l-95 -122zM289 449l-141 62l45 76l120 -95zM657 492l120 95l45 -76l-141 -62zM311 365q0 71 51.5 122.5t122.5 51.5t122.5 -51.5t51.5 -122.5t-51.5 -122.5t-122.5 -51.5
t-122.5 51.5t-51.5 122.5zM273 340l-152 -19v88l152 -19v-50zM697 390l152 19v-88l-152 19v50zM313 238l-120 -95l-45 76l141 62zM681 281l141 -62l-45 -76l-120 95zM401 166l-61 -141l-75 47l95 122zM610 194l95 -122l-75 -47l-61 141zM510 153l19 -152h-88l19 152h50z" />
    <glyph glyph-name="uni263E" unicode="&#x263e;" horiz-adv-x="824" 
d="M552 616q-99 0 -169 -74t-70 -177t70 -177t169 -74q32 0 71 12q-81 -57 -178 -57q-122 0 -209 87t-87 209t87 209t209 87q97 0 178 -57q-55 12 -71 12z" />
    <glyph glyph-name="spade" unicode="&#x2660;" horiz-adv-x="957" 
d="M613 0h-259q66 124 84 204q10 45 10 86q-20 -58 -63.5 -97t-106.5 -39q-70 0 -120.5 47t-50.5 111q0 82 52 151t183 172l140 112h1l140 -112q128 -101 178 -170t50 -153q0 -64 -47 -111q-46 -46 -110 -46q-69 0 -115 38.5t-66 96.5q0 -29 6 -61t13 -55.5t21.5 -56
t21 -45.5t22.5 -42t16 -30z" />
    <glyph glyph-name="club" unicode="&#x2663;" horiz-adv-x="958" 
d="M613 0h-260q1 3 10 19t13 24.5t13 27t14.5 31t13 32.5t12.5 37t9.5 37.5t6.5 39.5q-22 -52 -66.5 -85t-100.5 -33q-74 0 -125.5 52t-51.5 125t51.5 125t125.5 52q19 0 42 -7q-19 43 -19 87q0 73 51.5 124.5t123.5 51.5q73 0 124.5 -51.5t51.5 -124.5q0 -46 -20 -88
q21 8 47 8q73 0 124.5 -51.5t51.5 -125.5q0 -73 -51.5 -125t-125.5 -52q-56 0 -98.5 32t-63.5 84q4 -30 12.5 -60.5t21.5 -60.5t21.5 -48t24 -45.5t17.5 -31.5z" />
    <glyph glyph-name="heart" unicode="&#x2665;" horiz-adv-x="957" 
d="M108 550q0 78 53 134t129 56q77 0 127 -47q51 -47 59 -115q8 68 58 115t127 47t133 -56.5t56 -133.5q0 -86 -54 -180q-52 -91 -178 -230l-142 -157l-141 157q-122 135 -176 231q-51 93 -51 179z" />
    <glyph glyph-name="diamond" unicode="&#x2666;" horiz-adv-x="966" 
d="M482 -10l-327 400l327 401l327 -401z" />
    <glyph glyph-name="uni267B" unicode="&#x267b;" horiz-adv-x="968" 
d="M412 728l1 2h182q34 1 52.5 -8.5t32.5 -34.5l26 -46l40 23l-56 -157l-162 30l39 21l-70 118q-11 21 -37 37q-28 15 -48 15zM361 480l-140 80l59 103q30 52 92 52q64 0 97 -46zM647 413l141 81l59 -103q13 -22 13 -49q0 -41 -30 -77q-29 -36 -74 -41zM209 111h-2l-90 158
q-17 30 -18 50.5t14 45.5l27 46l-40 23l164 29l55 -156l-38 23l-68 -118q-14 -26 -14 -52q0 -25 10 -49zM844 244l1 -2l-92 -157q-17 -30 -35 -41t-46 -10h-53v-46l-107 127l107 126l-1 -44h137q31 0 52 13q29 20 37 34zM454 197v-162h-119q-45 0 -77 36q-31 35 -31 85
q0 25 9 41h218z" />
    <glyph glyph-name="uni267C" unicode="&#x267c;" horiz-adv-x="981" 
d="M116 365q0 163 106 269t269 106t269 -106t106 -269t-106 -269t-269 -106t-269 106t-106 269zM435 649v-1q49 -9 64 -41l54 -89l-30 -17l122 -23l43 121l-30 -18l-20 35q-12 19 -25 26.5t-39 6.5h-139zM334 598l-45 -79l107 -61l81 145q-28 34 -73 34q-47 0 -70 -39z
M765 389l-45 79l-107 -62l83 -145q36 7 57.5 33t21.5 58q0 20 -10 37zM278 174h2q-8 14 -8 35q0 23 11 43l52 91l29 -18l-42 119l-125 -22l31 -18l-21 -34q-11 -19 -11 -33q0 -16 14 -41zM763 275l-1 2q-26 -36 -67 -36h-104v33l-81 -97l81 -96v34h41q22 -1 35.5 8t26.5 32z
M376 116h91v125h-167q-6 -12 -6 -32q0 -38 23.5 -65.5t58.5 -27.5z" />
    <glyph glyph-name="uni267D" unicode="&#x267d;" horiz-adv-x="986" 
d="M867 365q0 -163 -106 -269t-269 -106t-269 106t-106 269t106 269t269 106t269 -106t106 -269zM188 365q0 -134 82.5 -223.5t221.5 -89.5t221.5 89.5t82.5 223.5t-82.5 223.5t-221.5 89.5t-221.5 -89.5t-82.5 -223.5zM442 592v1h112q37 0 53 -27l17 -29l24 15l-35 -97
l-100 18l24 14l-41 70q-14 24 -34 29zM481 554l-67 -116l-86 50l36 65q8 14 22 22q26 14 55 4q31 -9 40 -25zM591 397l87 50l38 -66q8 -14 8 -27q0 -30 -24 -53q-22 -21 -41 -21zM319 213h-1l-56 96q-19 32 -2 60l17 29l-25 14l101 17l34 -96l-24 15l-42 -73q-12 -22 -7 -42
zM711 295l1 -1l-57 -96q-7 -11 -11.5 -16.5t-15 -10.5t-25.5 -5h-31v-29l-66 79l66 78v-28h82q26 0 42 14zM467 266v-100h-74q-17 0 -30 7q-27 15 -34 46q-6 31 3 47h135z" />
    <glyph glyph-name="mediumwhitecircle" unicode="&#x26ac;" horiz-adv-x="728" 
d="M622 250q0 -115 -74.5 -187.5t-184.5 -72.5t-184.5 72.5t-74.5 187.5t74.5 187.5t184.5 72.5t184.5 -72.5t74.5 -187.5zM180 250q0 -82 50 -135q51 -52 133 -52q83 0 132 52q51 53 51 135t-51 135q-49 52 -132 52q-82 0 -133 -52q-50 -53 -50 -135z" />
    <glyph glyph-name="anglebracketleft" unicode="&#x3008;" horiz-adv-x="347" 
d="M320 790h110l-330 -497l187 -493h-105l-156 497z" />
    <glyph glyph-name="anglebracketright" unicode="&#x3009;" horiz-adv-x="347" 
d="M165 790l156 -497l-294 -493h-111l331 498l-187 492h105z" />
    <glyph glyph-name="Aumlaut" horiz-adv-x="732" 
d="M628 620q-28 0 -43.5 17.5t-12.5 45.5q4 25 21.5 41t44.5 16q29 0 43.5 -18.5t10.5 -46.5q-4 -25 -20.5 -40t-43.5 -15zM212 620q-28 0 -44 17.5t-12 45.5q4 25 21.5 41t43.5 16q29 0 44 -18.5t11 -46.5q-4 -25 -20.5 -40t-43.5 -15zM85 0h-104l395 730h109l188 -730
h-101l-41 167h-358zM419 643l-47 -99l-161 -305h303l-74 306z" />
    <glyph glyph-name="Anocross" horiz-adv-x="732" 
d="M85 0h-104l395 730h109l188 -730h-101l-132 545l-21 98l-47 -99z" />
    <glyph glyph-name="Oumlaut" horiz-adv-x="815" 
d="M416 -10q-174 0 -262 118t-63 297q21 143 118 239t245 96q172 0 258 -118.5t61 -299.5q-19 -141 -113.5 -236.5t-243.5 -95.5zM97 619q-27 0 -42.5 17.5t-11.5 44.5t22 42.5t45 15.5q29 0 42.5 -17t10.5 -45q-4 -27 -21.5 -42.5t-44.5 -15.5zM804 619q-27 0 -42.5 17.5
t-11.5 44.5t22 42.5t45 15.5q29 0 42.5 -17t10.5 -45q-4 -27 -21.5 -42.5t-44.5 -15.5zM422 81q111 0 176.5 72t80.5 185q19 135 -40.5 224t-188.5 89q-110 0 -178 -73.5t-83 -183.5q-19 -134 41.5 -223.5t191.5 -89.5z" />
    <glyph glyph-name="Uumlaut" horiz-adv-x="728" 
d="M398 671q-8 -62 -58 -62q-25 0 -37.5 16t-8.5 46q8 62 57 62q55 0 47 -62zM558 671q-8 -62 -58 -62q-25 0 -37.5 16t-8.5 46q8 62 57 62q55 0 47 -62zM569 305l59 425h96l-60 -431q-22 -152 -103.5 -230.5t-214.5 -78.5q-142 0 -213 78t-50 231l61 431h97l-60 -425
q-15 -109 26.5 -167t137.5 -58q100 0 154 56t70 169z" />
    <glyph glyph-name="IJacute" horiz-adv-x="653" 
d="M175 298h-97l61 432h97zM55 156l94 53q38 -134 162 -134q146 0 172 187l65 468h97l-66 -472q-19 -126 -86.5 -197t-189.5 -71q-104 0 -162 46q-57 45 -86 120zM389 915l-230 -137l-29 46l223 150zM799 915l-230 -137l-29 46l223 150z" />
    <glyph glyph-name="a.alt" horiz-adv-x="610" 
d="M156 377l-84 38q92 156 270 156q113 0 168.5 -55t41.5 -156l-50 -360h-91l17 125q-37 -67 -97 -102t-132 -35q-95 0 -138.5 45.5t-34.5 113.5q10 71 78 110q50 28 198 58q88 18 123 32q33 15 38 47q5 40 -23 69.5t-102 29.5q-125 0 -182 -116zM233 60q82 0 143 56
q60 55 72 140l8 58q-25 -29 -152 -53q-98 -19 -135 -42q-39 -23 -43 -63q-6 -41 22.5 -68.5t84.5 -27.5z" />
    <glyph glyph-name="g.alt" horiz-adv-x="629" 
d="M545 692l105 -30q-30 -72 -116 -95q-38 -11 -88 -15q82 -18 124.5 -75t32.5 -135q-10 -82 -83 -136q-72 -54 -223 -54q-95 0 -131 -9q-35 -9 -37 -33q-1 -19 22.5 -27.5t73.5 -8.5h195q88 0 133.5 -34t37.5 -100q-10 -79 -102 -124q-91 -46 -240 -46q-141 0 -215 34
t-64 101q6 40 48 69t108 40q-50 7 -73 26.5t-19 49.5q5 30 36 52q32 23 124 29q-74 20 -108 73.5t-24 125.5q13 89 92 145t214 56q77 0 117.5 28t59.5 93zM318 224q86 0 134.5 33t55.5 89q8 64 -34.5 106t-124.5 42q-88 0 -136 -36.5t-55 -94.5q-8 -62 34 -100.5t126 -38.5z
M68 -68q-7 -41 47 -60t160 -19q209 0 222 86q5 31 -23 48.5t-80 17.5h-170q-61 0 -107 -20q-44 -19 -49 -53z" />
    <glyph glyph-name="g.alt2" horiz-adv-x="628" 
d="M591 -60q-10 -79 -102 -124q-91 -46 -240 -46q-141 0 -215 34t-64 101q6 40 48 69t108 40q-50 7 -73 26t-19 49q5 31 36 53q32 23 124 29q-74 20 -108 73.5t-24 125.5q13 89 91.5 145t213.5 56q150 0 253 73l51 -54q-43 -34 -110 -38q-33 -1 -107 -1q78 -21 118.5 -77
t30.5 -132q-10 -82 -83 -136q-72 -54 -223 -54q-95 0 -131 -9q-35 -9 -37 -33q-1 -19 22.5 -27.5t73.5 -8.5h195q88 0 133.5 -34t37.5 -100zM318 224q86 0 134.5 33t55.5 89q8 64 -34.5 106t-124.5 42q-88 0 -136 -36.5t-55 -94.5q-8 -62 34 -100.5t126 -38.5zM275 -147
q209 0 222 86q5 31 -23 48.5t-80 17.5h-170q-61 0 -107 -20q-44 -19 -49 -53q-7 -41 47 -60t160 -19z" />
    <glyph glyph-name="aacute.alt" horiz-adv-x="610" 
d="M153 377l-84 38q92 156 270 156q113 0 168.5 -55t41.5 -156l-50 -360h-91l17 125q-37 -67 -97 -102t-132 -35q-95 0 -138.5 45.5t-34.5 113.5q10 71 78 110q50 28 198 58q88 18 123 32q33 15 38 47q5 40 -23 69.5t-102 29.5q-125 0 -182 -116zM230 60q82 0 143 56
q60 55 72 140l8 58q-25 -29 -152 -53q-97 -19 -135 -42q-39 -23 -43 -63q-6 -41 22.5 -68.5t84.5 -27.5zM532 780l-200 -164l-35 41l189 175z" />
    <glyph glyph-name="atilde.alt" horiz-adv-x="610" 
d="M153 377l-84 38q92 156 270 156q113 0 168.5 -55t41.5 -156l-50 -360h-91l17 125q-37 -67 -97 -102t-132 -35q-95 0 -138.5 45.5t-34.5 113.5q10 71 78 110q50 28 198 58q88 18 123 32q33 15 38 47q5 40 -23 69.5t-102 29.5q-125 0 -182 -116zM230 60q82 0 143 56
q60 55 72 140l8 58q-25 -29 -152 -53q-97 -19 -135 -42q-39 -23 -43 -63q-6 -41 22.5 -68.5t84.5 -27.5zM296 716q-21 0 -33 -22.5t-13 -59.5l-58 8q3 60 30.5 98.5t71.5 38.5q32 0 58 -20.5t47 -41t42 -20.5q44 0 49 82l57 -8q-4 -62 -32.5 -99.5t-68.5 -37.5
q-33 0 -60 20.5t-48.5 41t-41.5 20.5z" />
    <glyph glyph-name="acircumflex.alt" horiz-adv-x="610" 
d="M153 377l-84 38q92 156 270 156q113 0 168.5 -55t41.5 -156l-50 -360h-91l17 125q-37 -67 -97 -102t-132 -35q-95 0 -138.5 45.5t-34.5 113.5q10 71 78 110q50 28 198 58q88 18 123 32q33 15 38 47q5 40 -23 69.5t-102 29.5q-125 0 -182 -116zM230 60q82 0 143 56
q60 55 72 140l8 58q-25 -29 -152 -53q-97 -19 -135 -42q-39 -23 -43 -63q-6 -41 22.5 -68.5t84.5 -27.5zM514 646l-51 -35l-87 128l-139 -128l-42 40l165 149h43z" />
    <glyph glyph-name="abreve.alt" horiz-adv-x="610" 
d="M153 377l-84 38q92 156 270 156q113 0 168.5 -55t41.5 -156l-50 -360h-91l17 125q-37 -67 -97 -102t-132 -35q-95 0 -138.5 45.5t-34.5 113.5q10 71 78 110q50 28 198 58q88 18 123 32q33 15 38 47q5 40 -23 69.5t-102 29.5q-125 0 -182 -116zM230 60q82 0 143 56
q60 55 72 140l8 58q-25 -29 -152 -53q-97 -19 -135 -42q-39 -23 -43 -63q-6 -41 22.5 -68.5t84.5 -27.5zM372 691q102 0 109 109l60 -14q-4 -63 -48 -110q-43 -45 -124 -45q-88 0 -124 45q-36 46 -30 110l64 14q-13 -109 93 -109z" />
    <glyph glyph-name="adieresis.alt" horiz-adv-x="610" 
d="M153 377l-84 38q92 156 270 156q113 0 168.5 -55t41.5 -156l-50 -360h-91l17 125q-37 -67 -97 -102t-132 -35q-95 0 -138.5 45.5t-34.5 113.5q10 71 78 110q50 28 198 58q88 18 123 32q33 15 38 47q5 40 -23 69.5t-102 29.5q-125 0 -182 -116zM230 60q82 0 143 56
q60 55 72 140l8 58q-25 -29 -152 -53q-97 -19 -135 -42q-39 -23 -43 -63q-6 -41 22.5 -68.5t84.5 -27.5zM403 698q4 28 22.5 44.5t47.5 16.5q30 0 46 -19.5t12 -50.5q-4 -27 -22 -43t-46 -16q-30 0 -47 19t-13 49zM200 698q4 28 22.5 44.5t47.5 16.5q30 0 46 -19.5t12 -50.5
q-4 -27 -22 -43t-46 -16q-30 0 -47 19t-13 49z" />
    <glyph glyph-name="agrave.alt" horiz-adv-x="610" 
d="M153 377l-84 38q92 156 270 156q113 0 168.5 -55t41.5 -156l-50 -360h-91l17 125q-37 -67 -97 -102t-132 -35q-95 0 -138.5 45.5t-34.5 113.5q10 71 78 110q50 28 198 58q88 18 123 32q33 15 38 47q5 40 -23 69.5t-102 29.5q-125 0 -182 -116zM230 60q82 0 143 56
q60 55 72 140l8 58q-25 -29 -152 -53q-97 -19 -135 -42q-39 -23 -43 -63q-6 -41 22.5 -68.5t84.5 -27.5zM430 650l-44 -34l-145 175l60 41z" />
    <glyph glyph-name="aring.alt" horiz-adv-x="610" 
d="M153 377l-84 38q92 156 270 156q113 0 168.5 -55t41.5 -156l-50 -360h-91l17 125q-37 -67 -97 -102t-132 -35q-95 0 -138.5 45.5t-34.5 113.5q10 71 78 110q50 28 198 58q88 18 123 32q33 15 38 47q5 40 -23 69.5t-102 29.5q-125 0 -182 -116zM230 60q82 0 143 56
q60 55 72 140l8 58q-25 -29 -152 -53q-97 -19 -135 -42q-39 -23 -43 -63q-6 -41 22.5 -68.5t84.5 -27.5zM241 754q7 49 43 79.5t87 30.5q59 0 92 -40q34 -40 25 -99q-7 -49 -42.5 -79t-85.5 -30q-60 0 -93.5 39.5t-25.5 98.5zM435 732q5 35 -13 58.5t-54 23.5
q-30 0 -50 -17.5t-24 -48.5q-4 -35 14 -58.5t54 -23.5q29 0 49 18.5t24 47.5z" />
    <glyph glyph-name="aogonek.alt" horiz-adv-x="610" 
d="M156 377l-84 38q92 156 270 156q113 0 168.5 -55t41.5 -156l-50 -360q-119 -57 -124 -133q-1 -25 14.5 -38t43.5 -13q20 0 40 4l-17 -59q-18 -6 -46 -6q-49 0 -76.5 24.5t-24.5 66.5q8 94 130 154h-31l17 125q-37 -67 -97 -102t-132 -35q-95 0 -138.5 45.5t-34.5 113.5
q10 71 78 110q50 28 198 58q88 18 123 32q33 15 38 47q5 40 -23 69.5t-102 29.5q-125 0 -182 -116zM233 60q82 0 143 56q60 55 72 140l8 58q-25 -29 -152 -53q-98 -19 -135 -42q-39 -23 -43 -63q-6 -41 22.5 -68.5t84.5 -27.5z" />
    <glyph glyph-name="amacron.alt" horiz-adv-x="610" 
d="M153 377l-84 38q92 156 270 156q113 0 168.5 -55t41.5 -156l-50 -360h-91l17 125q-37 -67 -97 -102t-132 -35q-95 0 -138.5 45.5t-34.5 113.5q10 71 78 110q50 28 198 58q88 18 123 32q33 15 38 47q5 40 -23 69.5t-102 29.5q-125 0 -182 -116zM230 60q82 0 143 56
q60 55 72 140l8 58q-25 -29 -152 -53q-97 -19 -135 -42q-39 -23 -43 -63q-6 -41 22.5 -68.5t84.5 -27.5zM495 655h-274l8 59h274z" />
    <glyph glyph-name="gbreve.alt" horiz-adv-x="628" 
d="M582 -60q-10 -79 -102 -124q-91 -46 -240 -46q-141 0 -215 34t-64 101q6 40 48 69t108 40q-50 7 -73 26t-19 49q5 31 36 53q32 23 124 29q-74 20 -108 73.5t-24 125.5q13 89 91.5 145t213.5 56q150 0 253 73l51 -54q-43 -34 -110 -38q-33 -1 -107 -1q78 -21 118.5 -77
t30.5 -132q-10 -82 -83 -136q-72 -54 -223 -54q-95 0 -131 -9q-35 -9 -37 -33q-1 -19 22.5 -27.5t73.5 -8.5h195q88 0 133.5 -34t37.5 -100zM309 224q86 0 134.5 33t55.5 89q8 64 -34.5 106t-124.5 42q-88 0 -136 -36.5t-55 -94.5q-8 -62 34 -100.5t126 -38.5zM266 -147
q209 0 222 86q5 31 -23 48.5t-80 17.5h-170q-61 0 -107 -20q-44 -19 -49 -53q-7 -41 47 -60t160 -19zM388 691q102 0 109 109l60 -14q-4 -63 -48 -110q-43 -45 -124 -45q-88 0 -124 45q-36 46 -30 110l64 14q-13 -109 93 -109z" />
    <glyph glyph-name="gcircumflex.alt" horiz-adv-x="628" 
d="M582 -60q-10 -79 -102 -124q-91 -46 -240 -46q-141 0 -215 34t-64 101q6 40 48 69t108 40q-50 7 -73 26t-19 49q5 31 36 53q32 23 124 29q-74 20 -108 73.5t-24 125.5q13 89 91.5 145t213.5 56q150 0 253 73l51 -54q-43 -34 -110 -38q-33 -1 -107 -1q78 -21 118.5 -77
t30.5 -132q-10 -82 -83 -136q-72 -54 -223 -54q-95 0 -131 -9q-35 -9 -37 -33q-1 -19 22.5 -27.5t73.5 -8.5h195q88 0 133.5 -34t37.5 -100zM309 224q86 0 134.5 33t55.5 89q8 64 -34.5 106t-124.5 42q-88 0 -136 -36.5t-55 -94.5q-8 -62 34 -100.5t126 -38.5zM266 -147
q209 0 222 86q5 31 -23 48.5t-80 17.5h-170q-61 0 -107 -20q-44 -19 -49 -53q-7 -41 47 -60t160 -19zM533 646l-51 -35l-87 128l-139 -128l-42 40l165 149h43z" />
    <glyph glyph-name="gcommaaccent.alt" horiz-adv-x="628" 
d="M582 -60q-10 -79 -102 -124q-91 -46 -240 -46q-141 0 -215 34t-64 101q6 40 48 69t108 40q-50 7 -73 26t-19 49q5 31 36 53q32 23 124 29q-74 20 -108 73.5t-24 125.5q13 89 91.5 145t213.5 56q150 0 253 73l51 -54q-43 -34 -110 -38q-33 -1 -107 -1q78 -21 118.5 -77
t30.5 -132q-10 -82 -83 -136q-72 -54 -223 -54q-95 0 -131 -9q-35 -9 -37 -33q-1 -19 22.5 -27.5t73.5 -8.5h195q88 0 133.5 -34t37.5 -100zM309 224q86 0 134.5 33t55.5 89q8 64 -34.5 106t-124.5 42q-88 0 -136 -36.5t-55 -94.5q-8 -62 34 -100.5t126 -38.5zM266 -147
q209 0 222 86q5 31 -23 48.5t-80 17.5h-170q-61 0 -107 -20q-44 -19 -49 -53q-7 -41 47 -60t160 -19zM439 684q-3 -23 -20.5 -38.5t-43.5 -15.5q-34 0 -50 27t-10 70q7 47 44 82t104 41l9 -54q-92 -2 -105 -52q15 3 19 3q27 0 42 -18t11 -45z" />
    <glyph glyph-name="gdotaccent.alt" horiz-adv-x="628" 
d="M582 -60q-10 -79 -102 -124q-91 -46 -240 -46q-141 0 -215 34t-64 101q6 40 48 69t108 40q-50 7 -73 26t-19 49q5 31 36 53q32 23 124 29q-74 20 -108 73.5t-24 125.5q13 89 91.5 145t213.5 56q150 0 253 73l51 -54q-43 -34 -110 -38q-33 -1 -107 -1q78 -21 118.5 -77
t30.5 -132q-10 -82 -83 -136q-72 -54 -223 -54q-95 0 -131 -9q-35 -9 -37 -33q-1 -19 22.5 -27.5t73.5 -8.5h195q88 0 133.5 -34t37.5 -100zM309 224q86 0 134.5 33t55.5 89q8 64 -34.5 106t-124.5 42q-88 0 -136 -36.5t-55 -94.5q-8 -62 34 -100.5t126 -38.5zM266 -147
q209 0 222 86q5 31 -23 48.5t-80 17.5h-170q-61 0 -107 -20q-44 -19 -49 -53q-7 -41 47 -60t160 -19zM322 717q4 28 23.5 45.5t49.5 17.5q32 0 48 -20.5t12 -51.5q-4 -28 -22.5 -44.5t-48.5 -16.5q-31 0 -48.5 19.5t-13.5 50.5z" />
    <glyph glyph-name="idotaccent" horiz-adv-x="256" 
d="M125 717q4 28 23.5 45.5t49.5 17.5t46.5 -20.5t12.5 -51.5q-4 -28 -22.5 -44.5t-47.5 -16.5q-31 0 -48.5 19.5t-13.5 50.5zM119 560h97l-79 -560h-97z" />
    <glyph glyph-name="ijacute" horiz-adv-x="513" 
d="M119 560h97l-78 -560h-97zM363 780l-200 -164l-35 41l189 175zM472 560l-78 -561q-19 -122 -61 -168.5t-149 -46.5h-36l12 88h17q60 0 84 25q25 25 35 95l80 568h96zM631 780l-200 -164l-35 41l189 175z" />
    <glyph glyph-name="caronSlovak" horiz-adv-x="259" 
d="M136 728l71 12q4 -22 2 -52q-7 -97 -71 -196l-46 22q43 73 47 144q2 39 -3 70z" />
    <glyph glyph-name="dotbelow" horiz-adv-x="345" 
d="M110 -124q4 28 23.5 45.5t49.5 17.5t46.5 -20.5t12.5 -51.5q-4 -28 -22.5 -44.5t-47.5 -16.5q-31 0 -48.5 19.5t-13.5 50.5z" />
    <glyph glyph-name="doublegrave" horiz-adv-x="345" 
d="M295 626l-55 -12l-58 221l69 15zM168 626l-55 -12l-60 221l69 15z" />
    <glyph glyph-name="invertedbreve" horiz-adv-x="345" 
d="M175 723q-104 0 -111 -109l-61 14q4 64 48 109q43 46 127 46q87 0 121 -46q36 -45 30 -109l-64 -14q11 109 -90 109z" />
    <glyph glyph-name="commaaccent.alt" horiz-adv-x="345" 
d="M227 662q-3 -23 -20.5 -38.5t-43.5 -15.5q-34 0 -50 27t-10 70q7 47 44 82t104 41l9 -54q-92 -2 -105 -52q15 3 19 3q27 0 42 -18t11 -45z" />
    <glyph glyph-name="acute.cap" horiz-adv-x="321" 
d="M294 881l-230 -137l-29 46l223 150z" />
    <glyph glyph-name="breve.cap" horiz-adv-x="345" 
d="M179 801q49 0 78 27t33 78l58 -14q-4 -62 -49 -105.5t-124 -43.5q-81 0 -118.5 43.5t-34.5 105.5l61 14q-7 -105 96 -105z" />
    <glyph glyph-name="caron.cap" horiz-adv-x="345" 
d="M360 888l-176 -143h-43l-123 145l43 37l104 -124l158 127z" />
    <glyph glyph-name="circumflex.cap" horiz-adv-x="345" 
d="M-11 780l176 143h43l123 -145l-43 -37l-104 123l-157 -126z" />
    <glyph glyph-name="dieresis.cap" horiz-adv-x="355" 
d="M220 812q4 27 22 42.5t45 15.5q29 0 44.5 -19t11.5 -47q-4 -27 -21.5 -42t-44.5 -15q-28 0 -44.5 18.5t-12.5 46.5zM19 812q4 27 22 42.5t45 15.5q29 0 44.5 -19t11.5 -47q-4 -26 -21 -41.5t-44 -15.5q-28 0 -45 18.5t-13 46.5z" />
    <glyph glyph-name="dotaccent.cap" horiz-adv-x="268" 
d="M74 820q4 28 22.5 44.5t46.5 16.5q30 0 45.5 -19.5t11.5 -49.5q-4 -27 -21.5 -43t-45.5 -16q-30 0 -46.5 19t-12.5 48z" />
    <glyph glyph-name="doublegrave.cap" horiz-adv-x="357" 
d="M323 757l-48 -21l-96 191l64 27zM179 755l-48 -23l-103 186l65 28z" />
    <glyph glyph-name="grave.cap" horiz-adv-x="321" 
d="M279 787l-34 -43l-191 139l44 57z" />
    <glyph glyph-name="hungarumlaut.cap" horiz-adv-x="356" 
d="M195 918l-145 -182l-44 29l138 189zM344 910l-151 -178l-42 31l141 183z" />
    <glyph glyph-name="invertedbreve.cap" horiz-adv-x="350" 
d="M171 844q-49 0 -77.5 -27t-32.5 -76l-60 14q4 62 49 105.5t124 43.5q81 0 120.5 -44t32.5 -105l-64 -14q7 50 -17.5 76.5t-74.5 26.5z" />
    <glyph glyph-name="macron.cap" horiz-adv-x="345" 
d="M306 786h-274l8 58h274z" />
    <glyph glyph-name="ring.cap" horiz-adv-x="345" 
d="M175 750q-57 0 -89.5 35.5t-25.5 89.5q6 48 41.5 77.5t86.5 29.5q57 0 88.5 -36.5t23.5 -91.5q-7 -47 -41.5 -75.5t-83.5 -28.5zM176 796q28 0 48 17t24 46q4 35 -12.5 56t-50.5 21q-30 0 -49.5 -17t-22.5 -47q-4 -34 13 -55t50 -21z" />
    <glyph glyph-name="tilde.cap" horiz-adv-x="362" 
d="M116 849q-44 0 -46 -84l-58 8q3 61 31.5 99.5t72.5 38.5q32 0 58 -21t46.5 -42t40.5 -21q42 0 49 84l57 -8q-4 -61 -32.5 -99.5t-70.5 -38.5q-25 0 -48 13t-36.5 29t-30.5 29t-33 13z" />
    <glyph glyph-name="exclamdown.cap" horiz-adv-x="248" 
d="M181 739q33 0 53.5 -21t16.5 -54q-2 -31 -23.5 -51.5t-54.5 -20.5t-52.5 22.5t-15.5 54.5q2 30 23 50t53 20zM139 516h36l-24 -421q-4 -59 -19.5 -81.5t-44.5 -22.5q-46 0 -46 54q0 28 30 169z" />
    <glyph glyph-name="questiondown.cap" horiz-adv-x="528" 
d="M365 740q32 0 52.5 -21t17.5 -54q-3 -31 -24 -51.5t-54 -20.5t-52.5 22t-16.5 55q3 31 24 50.5t53 19.5zM303 512h80l-1 -11q-6 -62 -47 -98q-44 -38 -88 -65q-45 -29 -76 -53q-36 -29 -42 -73q-7 -57 26.5 -94.5t100.5 -37.5q131 0 178 138l88 -26q-28 -88 -99 -145
q-71 -56 -174 -56q-109 0 -167.5 63t-43.5 149q11 67 49 102q39 36 87 64t86 55q38 28 42 78z" />
    <glyph glyph-name="interrobangdown" horiz-adv-x="508" 
d="M308 570q30 0 49.5 -19t19.5 -47q0 -33 -22.5 -56t-57.5 -23q-31 0 -50 19.5t-19 48.5q0 34 22 55.5t58 21.5zM251 328l2 14h49l-55 -432q107 17 147 140l87 -28q-28 -85 -90.5 -137t-149.5 -61l-13 -96h-78l16 96q-98 11 -146 74t-37 141q11 67 50 103q41 40 86 62
q50 27 86 51q38 25 46 73zM186 -90l53 317q-26 -34 -78 -64q-25 -17 -39 -28.5t-27 -32.5t-17 -47q-8 -61 20.5 -99.5t87.5 -45.5z" />
    <glyph glyph-name="interrobangdown.cap" horiz-adv-x="529" 
d="M352 739q30 0 49.5 -19t19.5 -47q0 -33 -22.5 -56t-57.5 -23q-31 0 -50 19.5t-19 48.5q0 34 22 55.5t58 21.5zM295 497l2 14h49l-55 -432q107 17 147 140l87 -28q-28 -85 -90.5 -137t-149.5 -61l-13 -96h-78l16 96q-98 11 -145.5 74t-36.5 141q11 67 50 103q42 41 85 62
q50 27 86 51q38 25 46 73zM230 79l53 317q-26 -34 -78 -64q-25 -17 -39 -28.5t-27 -32.5t-17 -47q-8 -61 20.5 -99.5t87.5 -45.5z" />
    <glyph glyph-name="reversequoteleft" horiz-adv-x="247" 
d="M231 495l-45 -56q-52 33 -76.5 83t-19.5 103q4 54 29 82.5t67 28.5q33 0 51 -21.5t15 -54.5q-3 -31 -23.5 -49.5t-53.5 -18.5q-18 0 -34 9q7 -62 90 -106z" />
    <glyph glyph-name="reversequotedblleft" horiz-adv-x="447" 
d="M231 495l-45 -56q-52 33 -76.5 83t-19.5 103q4 54 29 82.5t67 28.5q33 0 51 -21.5t15 -54.5q-3 -31 -23.5 -49.5t-53.5 -18.5q-18 0 -34 9q7 -62 90 -106zM431 495l-45 -56q-52 33 -76.5 83t-19.5 103q4 54 29 82.5t67 28.5q33 0 51 -21.5t15 -54.5q-3 -31 -23.5 -49.5
t-53.5 -18.5q-18 0 -34 9q7 -62 90 -106z" />
    <glyph glyph-name="guilsinglleft.cap" horiz-adv-x="289" 
d="M217 546h105l-189 -185l133 -177h-98l-136 178l1 6z" />
    <glyph glyph-name="guilsinglright.cap" horiz-adv-x="289" 
d="M294 368l-1 -6l-184 -178h-105l189 184l-133 178h98z" />
    <glyph glyph-name="guillemotleft.cap" horiz-adv-x="469" 
d="M214 546h104l-187 -184l134 -178h-98l-135 179v8zM397 546h104l-189 -185l133 -177h-98l-136 178l1 6z" />
    <glyph glyph-name="guillemotright.cap" horiz-adv-x="469" 
d="M337 546l136 -179v-8l-182 -175h-105l187 183l-133 179h97zM157 546l136 -178l-1 -6l-184 -178h-105l189 185l-132 177h97z" />
    <glyph glyph-name="doublebar" horiz-adv-x="416" 
d="M216 776l-135 -960h-77l135 960h77zM411 776l-135 -960h-77l135 960h77z" />
    <glyph glyph-name="slash.cap" horiz-adv-x="425" 
d="M31 -106h-81l454 882h81z" />
    <glyph glyph-name="backslash.cap" horiz-adv-x="425" 
d="M157 776l207 -882h-81l-207 882h81z" />
    <glyph glyph-name="bar.cap" horiz-adv-x="221" 
d="M218 776l-124 -882h-77l124 882h77z" />
    <glyph glyph-name="doublebar.cap" horiz-adv-x="431" 
d="M216 776l-124 -882h-77l124 882h77zM426 776l-124 -882h-77l124 882h77z" />
    <glyph glyph-name="brokenbar.cap" horiz-adv-x="221" 
d="M218 776l-56 -395h-77l56 395h77zM149 289l-55 -395h-77l55 395h77z" />
    <glyph glyph-name="bullet.cap" horiz-adv-x="339" 
d="M169 271q-41 0 -66.5 25.5t-25.5 65.5q0 45 29.5 73.5t74.5 28.5q40 0 66 -26t26 -64q0 -44 -29.5 -73.5t-74.5 -29.5z" />
    <glyph glyph-name="onethirdemdash" horiz-adv-x="360" 
d="M311 272h-266l8 59h266z" />
    <glyph glyph-name="threequarteremdash" horiz-adv-x="693" 
d="M644 272h-599l8 59h599z" />
    <glyph glyph-name="periodcentered.cap" horiz-adv-x="249" 
d="M133 293q-33 0 -53.5 21t-16.5 54q2 31 23.5 51.5t54.5 20.5t52.5 -22.5t15.5 -54.5q-2 -30 -23 -50t-53 -20z" />
    <glyph glyph-name="hyphen.cap" horiz-adv-x="422" 
d="M382 337h-328l8 59h328z" />
    <glyph glyph-name="onethirdemdash.cap" horiz-adv-x="360" 
d="M320 337h-266l8 59h266z" />
    <glyph glyph-name="endash.cap" horiz-adv-x="632" 
d="M592 337h-538l8 59h538z" />
    <glyph glyph-name="threequarteremdash.cap" horiz-adv-x="692" 
d="M653 337h-599l8 59h599z" />
    <glyph glyph-name="emdash.cap" horiz-adv-x="892" 
d="M852 337h-798l8 59h798z" />
    <glyph glyph-name="figuredash.cap" horiz-adv-x="693" 
d="M653 337h-599l8 59h599z" />
    <glyph glyph-name="uni2015.cap" horiz-adv-x="892" 
d="M852 337h-798l8 59h798z" />
    <glyph glyph-name="parenleft.cap" horiz-adv-x="389" 
d="M317 -44l-86 -69q-93 89 -133 215t-23 248q17 120 90.5 231t191.5 195l69 -71q-231 -135 -263 -358q-15 -112 20.5 -214.5t133.5 -176.5z" />
    <glyph glyph-name="parenright.cap" horiz-adv-x="389" 
d="M91 709l84 67q92 -89 132.5 -215t23.5 -247q-17 -120 -91 -231.5t-191 -195.5l-71 74q232 135 264 356q15 112 -20 215t-131 177z" />
    <glyph glyph-name="bracketleft.cap" horiz-adv-x="379" 
d="M17 -107l124 883h273l-12 -90h-190l-99 -703h190l-13 -90h-273z" />
    <glyph glyph-name="bracketright.cap" horiz-adv-x="379" 
d="M387 776l-125 -883h-273l13 90h190l98 703h-189l13 90h273z" />
    <glyph glyph-name="braceleft.cap" horiz-adv-x="413" 
d="M343 -14l-12 -89q-49 -7 -98 -7q-81 0 -128 34t-37 109q6 47 43.5 106t41.5 89q4 34 -13 53t-66 19h-29l9 71h30q56 0 74 19q18 18 23 47q3 29 -14 93.5t-10 118.5q10 73 65 101t130 28q55 0 102 -7l-13 -89q-42 7 -92 7q-97 0 -108 -76q-6 -40 6.5 -98.5t10.5 -80.5
q-5 -32 -26 -62q-22 -31 -83 -37q49 -7 68 -37t14 -63q-4 -31 -34.5 -85.5t-34.5 -87.5q-6 -42 16.5 -62.5t73.5 -20.5q47 0 91 7z" />
    <glyph glyph-name="braceright.cap" horiz-adv-x="413" 
d="M94 682l12 89q49 7 98 7q81 0 127 -34q48 -33 38 -109q-6 -47 -43.5 -106t-41.5 -89q-4 -34 13 -53t66 -19h29l-9 -71h-30q-55 0 -75 -20q-17 -19 -22 -46q-3 -29 14 -93.5t10 -118.5q-10 -73 -65 -101t-130 -28q-55 0 -102 7l13 89q42 -7 92 -7q97 0 108 76
q6 40 -6.5 98.5t-10.5 80.5q5 31 26 61q23 32 83 38q-49 7 -68 37t-14 63q4 31 34.5 85.5t34.5 87.5q6 42 -16.5 62.5t-73.5 20.5q-47 0 -91 -7z" />
    <glyph glyph-name="anglebracketleft.cap" horiz-adv-x="357" 
d="M324 776h113l-321 -436l187 -447h-102l-162 452z" />
    <glyph glyph-name="anglebracketright.cap" horiz-adv-x="357" 
d="M172 776l162 -441l-285 -442h-113l320 448l-187 435h103z" />
    <glyph glyph-name="lowline" horiz-adv-x="693" 
d="M602 -120h-625l7 52h625z" />
    <glyph glyph-name="tripleprime" horiz-adv-x="461" 
d="M113 493h-55l75 237h84zM244 493h-55l74 237h84zM374 493h-55l75 237h84z" />
    <glyph glyph-name="at.cap" horiz-adv-x="1003" 
d="M439 146q-83 0 -126 57t-30 151q14 102 88 171.5t164 69.5q57 0 94 -30t46 -81l29 100h59l-80 -270q-16 -56 2.5 -88t64.5 -32q52 0 87 40t47 116q9 69 -6 134t-54 119.5t-110 87.5t-165 33q-89 0 -163.5 -29t-123.5 -77.5t-79 -108.5t-39 -126q-10 -74 5 -141.5
t54.5 -123t114 -89t173.5 -33.5q151 0 257 73l35 -70q-131 -83 -300 -83q-96 0 -173 27t-127.5 73t-82 107t-41 128t0.5 136q25 175 157 293.5t333 118.5q232 0 343 -157q45 -63 62 -141t7 -149q-13 -97 -65.5 -157t-139.5 -60q-64 0 -100.5 32t-36.5 89q-27 -48 -74 -79
t-107 -31zM463 198q79 0 131 69t59 155q5 57 -23.5 90t-85.5 33q-73 0 -128.5 -56t-65.5 -133q-10 -70 20.5 -114t92.5 -44z" />
    <glyph glyph-name="registered.cap" horiz-adv-x="857" 
d="M427 -10q-79 0 -144 24t-108 65t-70.5 94t-36 112t-0.5 119q21 146 128.5 241.5t270.5 95.5q76 0 139 -24t105 -65t69.5 -94.5t36 -114t-0.5 -121.5q-20 -139 -121.5 -235.5t-267.5 -96.5zM433 62q131 0 210.5 75.5t94.5 191.5q9 65 -3.5 125.5t-45.5 109t-92 78
t-136 29.5q-129 0 -214 -75.5t-101 -193.5q-9 -65 4 -125t46 -108.5t94.5 -77.5t142.5 -29zM571 275l10 -78h-60l-7 71q-5 44 -19 56q-13 12 -62 12h-66l-19 -139h-58l50 360h153q69 0 98.5 -33t22.5 -77q-12 -73 -111 -91q16 -1 36 -14q27 -17 32 -67zM483 508h-92
l-19 -133h89q41 0 66.5 17.5t29.5 45.5q4 32 -13 51t-61 19z" />
    <glyph glyph-name="zero.OP" horiz-adv-x="683" 
d="M332 -10q-144 0 -218 100t-53 249q18 128 103 207t209 79q149 0 218.5 -100.5t48.5 -251.5q-18 -128 -102 -205.5t-206 -77.5zM338 80q82 0 136 53.5t67 146.5q16 115 -27.5 186t-145.5 71q-84 0 -140 -55.5t-69 -148.5q-15 -108 33 -180.5t146 -72.5z" />
    <glyph glyph-name="one.OP" horiz-adv-x="366" 
d="M235 613h96l-86 -613h-97l66 475q-48 -92 -170 -92h-11l12 90h8q169 0 182 140z" />
    <glyph glyph-name="two.OP" horiz-adv-x="598" 
d="M515 0h-510l12 87q209 102 292 153q79 48 115 86t43 85q9 61 -26.5 100.5t-102.5 39.5q-132 0 -190 -146l-85 33q87 192 281 192q110 0 168 -61q59 -61 46 -154q-9 -67 -61.5 -119.5t-155.5 -105.5q-71 -40 -215 -107h400z" />
    <glyph glyph-name="three.OP" horiz-adv-x="640" 
d="M-15 -49l88 56q57 -113 198 -113q82 0 130.5 38t57.5 103q11 77 -40 120t-151 43h-88l11 72h95q83 0 138 36.5t63 96.5q8 64 -29 104.5t-110 40.5q-68 0 -115 -31.5t-84 -100.5l-79 45q53 87 122 127.5t162 40.5q114 0 175 -62t49 -155q-9 -66 -57.5 -112.5t-128.5 -64.5
q85 -21 124 -81t29 -141q-13 -94 -86 -148.5t-189 -54.5q-195 0 -285 141z" />
    <glyph glyph-name="four.OP" horiz-adv-x="638" 
d="M381 0h-386l9 58l403 555h104v-3l-384 -535h264l28 200h95l-28 -200h108l-9 -75h-110l-26 -186h-95z" />
    <glyph glyph-name="five.OP" horiz-adv-x="621" 
d="M552 66q-16 -120 -97 -191q-80 -71 -200 -71q-95 0 -164 43.5t-97 121.5l95 47q21 -60 66.5 -91.5t106.5 -31.5q82 0 135 47.5t65 133.5q12 84 -30 140t-122 56q-62 0 -109.5 -28.5t-74.5 -71.5l-85 14l109 429h434l-13 -88h-357l-69 -275q79 92 202 92q103 0 163 -78.5
t42 -197.5z" />
    <glyph glyph-name="six.OP" horiz-adv-x="660" 
d="M343 -10q-105 0 -173 58t-91.5 148t-8.5 200q22 161 118.5 252.5t241.5 91.5q76 0 135.5 -29.5t95.5 -77.5l-68 -67q-65 89 -174 89q-115 0 -184.5 -87t-75.5 -234q42 65 103.5 99.5t133.5 34.5q118 0 176 -73t43 -179q-15 -98 -86 -162t-186 -64zM373 401
q-66 0 -121.5 -39t-87.5 -117q15 -78 62 -122.5t123 -44.5q75 0 121.5 41.5t55.5 107.5q10 73 -31 123.5t-122 50.5z" />
    <glyph glyph-name="seven.OP" horiz-adv-x="543" 
d="M142 -186h-105l412 713h-396l12 86h498l-11 -77z" />
    <glyph glyph-name="eight.OP" horiz-adv-x="641" 
d="M592 182q-10 -84 -89 -138q-77 -54 -203 -54q-142 0 -212 64.5t-57 151.5q9 62 63 111.5t141 66.5q-65 21 -100 70.5t-25 116.5q10 76 81 122.5t183 46.5q132 0 192 -60t49 -143q-9 -58 -55 -99t-117 -57q78 -21 118 -76t31 -123zM345 411q76 0 123.5 28.5t54.5 77.5
q9 60 -28.5 101.5t-126.5 41.5q-74 0 -119.5 -30t-52.5 -82q-8 -59 32.5 -98t116.5 -39zM309 74q86 0 135 33.5t58 93.5q9 73 -41 110t-134 37t-137.5 -33.5t-61.5 -90.5q-9 -60 37 -105t144 -45z" />
    <glyph glyph-name="nine.OP" horiz-adv-x="678" 
d="M256 -188q-95 0 -157 35q-61 34 -93 77l70 67q69 -94 188 -94q72 0 128.5 37.5t90.5 109.5q41 93 47 213q-39 -62 -100.5 -95t-134.5 -33q-123 0 -183.5 80.5t-45.5 190.5q15 98 89 164.5t189 66.5q85 0 145.5 -37t90 -100t40.5 -145t-4 -172q-23 -163 -116.5 -264
t-243.5 -101zM156 386q-10 -76 34.5 -132t128.5 -56q65 0 121 33t89 97q-7 103 -54.5 160t-132.5 57q-78 0 -127.5 -45.5t-58.5 -113.5z" />
    <glyph glyph-name="zero.LT" 
d="M301 -10q-146 0 -208 108t-35 296q23 159 100.5 252.5t203.5 93.5q144 0 204 -108q61 -107 34 -298q-24 -161 -97.5 -252.5t-201.5 -91.5zM306 79q87 0 133.5 66t64.5 197q44 310 -147 310q-166 0 -203 -261q-21 -151 17.5 -231.5t134.5 -80.5z" />
    <glyph glyph-name="one.LT" 
d="M530 0h-502l12 81h209l72 510q-52 -109 -203 -109h-11l13 88h5q89 0 151 35q60 34 71 125h91l-92 -649h195z" />
    <glyph glyph-name="two.LT" 
d="M547 89l-13 -89h-516l12 86q150 96 277 186q93 64 139.5 118t54.5 110q10 65 -26 112q-35 47 -110 47q-134 0 -191 -163l-88 32q45 112 122 162t161 50q83 0 138.5 -35t74.5 -85.5t11 -106.5q-10 -70 -61.5 -134.5t-153.5 -134.5q-130 -92 -234 -155h403z" />
    <glyph glyph-name="three.LT" 
d="M301 334h-100l10 70h92q83 0 135 30.5t59 84.5q9 59 -28 98.5t-110 39.5q-130 0 -198 -129l-75 47q104 165 285 165q109 0 169 -59.5t48 -149.5q-8 -60 -56.5 -102t-124.5 -57q87 -15 125 -68t28 -130q-11 -77 -78 -130.5t-185 -53.5q-100 0 -173.5 41.5t-110.5 108.5
l82 50q61 -114 202 -114q78 0 124 30.5t54 86.5q10 69 -35 105t-139 36z" />
    <glyph glyph-name="four.LT" 
d="M414 402h94l-24 -170h101l-9 -61h-100l-24 -171h-94l23 171h-360l8 54l367 505h102l-1 -3l-354 -495h247z" />
    <glyph glyph-name="five.LT" 
d="M565 225q-15 -105 -90 -170t-191 -65q-184 0 -262 145l88 54q53 -110 181 -110q75 0 124 42t59 114q10 82 -26.5 134.5t-117.5 52.5q-104 0 -171 -95l-85 14l98 389h412l-13 -88h-334l-59 -235q77 79 184 79q106 0 163 -73.5t40 -187.5z" />
    <glyph glyph-name="six.LT" 
d="M573 215q-15 -99 -82.5 -162t-173.5 -63q-100 0 -162.5 55.5t-82.5 143t-5 197.5q23 163 112 258.5t225 95.5q142 0 219 -102l-68 -67q-32 43 -67.5 63.5t-94.5 20.5q-97 0 -157 -76q-67 -82 -79 -233q79 129 212 129q109 0 164 -76.5t40 -183.5zM342 404
q-125 0 -185 -135q6 -89 48 -140t115 -51q69 0 111 40.5t51 106.5q10 79 -25 129t-115 50z" />
    <glyph glyph-name="seven.LT" 
d="M243 0h-105l379 643h-409l13 87h506l-12 -82z" />
    <glyph glyph-name="eight.LT" 
d="M577 182q-10 -83 -88 -138q-77 -54 -199 -54q-141 0 -209 64.5t-55 152.5q9 66 64 115t148 63q-70 17 -106.5 67t-26.5 119q11 75 80 121q71 48 181 48q126 0 186 -61t47 -142q-9 -61 -57.5 -101.5t-121.5 -53.5q84 -17 125 -74q42 -58 32 -126zM337 409q74 0 119 29
t52 79q9 59 -28 101t-120 42q-72 0 -117 -30.5t-52 -81.5q-9 -60 29 -99.5t117 -39.5zM299 74q83 0 131 33.5t57 93.5q9 73 -38.5 112t-129.5 39q-85 0 -136.5 -35t-59.5 -93q-9 -60 36 -105t140 -45z" />
    <glyph glyph-name="nine.LT" 
d="M574 344q-23 -166 -108 -260t-228 -94q-74 0 -131.5 28.5t-92.5 74.5l74 68q30 -43 66.5 -63.5t94.5 -20.5q130 0 190 125q36 73 44 178q-77 -124 -206 -124q-109 0 -166 76.5t-42 182.5q15 99 82.5 162t173.5 63q77 0 132 -32.5t82.5 -87t37.5 -126.5t-3 -150zM303 326
q125 0 183 131q-4 93 -44.5 144t-119.5 51q-69 0 -111 -40t-51 -107q-11 -77 26 -128t117 -51z" />
    <glyph glyph-name="zero.OT" 
d="M589 291q-20 -137 -97 -219q-76 -82 -199 -82q-130 0 -196 95t-43 247q18 133 98 213t198 80q129 0 194.5 -94.5t44.5 -239.5zM152 331q-16 -115 24.5 -183t127.5 -68q74 0 122.5 56.5t62.5 157.5q16 108 -23 176q-39 67 -123 67q-77 0 -127.5 -56t-63.5 -150z" />
    <glyph glyph-name="one.OT" 
d="M536 0h-510l10 74h217l59 419q-51 -104 -212 -104h-11l11 84h7q209 0 223 140h96l-76 -539h196z" />
    <glyph glyph-name="two.OT" 
d="M529 0h-509l12 85q203 97 289 151q79 47 116 86.5t44 85.5q9 63 -25.5 103t-101.5 40q-133 0 -193 -151l-85 34q44 98 118.5 147t165.5 49q111 0 169 -63t43 -152q-10 -65 -62.5 -119t-154.5 -106q-79 -45 -213 -107h399z" />
    <glyph glyph-name="three.OT" 
d="M-10 -49l88 56q57 -113 204 -113q77 0 125.5 37t57.5 101q10 79 -39 123t-150 44h-91l10 70h96q87 0 139 31.5t60 88.5q9 69 -28 114t-113 45q-65 0 -111 -32.5t-84 -99.5l-79 45q106 168 283 168q114 0 176.5 -65t47.5 -161q-9 -63 -58 -107.5t-124 -60.5
q85 -21 123 -80.5t26 -139.5q-14 -94 -87 -149q-74 -56 -185 -56q-197 0 -287 141z" />
    <glyph glyph-name="four.OT" 
d="M369 0h-362l8 54l365 559h99v-3l-351 -546h250l30 211h94l-30 -211h99l-8 -64h-100l-26 -186h-94z" />
    <glyph glyph-name="five.OT" 
d="M550 51q-17 -113 -92 -179q-77 -68 -192 -68q-186 0 -263 158l91 51q50 -122 173 -122q78 0 129 46t61 127q13 89 -28.5 151t-125.5 62q-112 0 -173 -104l-85 14l111 426h427l-12 -88h-349l-69 -262q72 85 179 85q119 0 177.5 -84.5t40.5 -212.5z" />
    <glyph glyph-name="six.OT" 
d="M393 655q-102 0 -162 -83q-66 -85 -74 -226q79 129 212 129q109 0 164 -76.5t40 -183.5q-15 -99 -82.5 -162t-173.5 -63q-100 0 -162.5 55.5t-82.5 143t-5 197.5q23 163 112 258.5t225 95.5q142 0 219 -102l-68 -67q-32 43 -67.5 63.5t-94.5 20.5zM342 404
q-125 0 -185 -135q6 -89 48 -140t115 -51q69 0 111 40.5t51 106.5q10 79 -25 129t-115 50z" />
    <glyph glyph-name="seven.OT" 
d="M185 -186h-104l411 713h-396l12 86h498l-11 -77z" />
    <glyph glyph-name="eight.OT" 
d="M282 -10q-138 0 -205 64.5t-54 150.5q9 66 59 114.5t134 65.5q-62 19 -93 68.5t-21 117.5q11 75 78 121q69 48 179 48q124 0 181.5 -60.5t46.5 -142.5q-8 -59 -50 -99t-107 -56q74 -20 109 -74.5t26 -125.5q-10 -84 -86 -138q-75 -54 -197 -54zM326 409q73 0 118 29.5
t52 78.5q9 60 -26.5 101.5t-117.5 41.5q-69 0 -113 -30.5t-51 -81.5q-9 -59 28 -99t110 -40zM291 74q82 0 128.5 33.5t54.5 93.5q11 72 -37.5 111.5t-127.5 39.5t-129.5 -35t-58.5 -93q-9 -61 34 -105.5t136 -44.5z" />
    <glyph glyph-name="nine.OT" 
d="M243 -188q-98 0 -159 38q-60 38 -93 86l74 63q71 -101 180 -101q125 0 185 147q36 87 44 218q-82 -120 -207 -120q-116 0 -173 79.5t-42 185.5q15 98 83.5 160.5t177.5 62.5q151 0 214 -119t34 -327q-25 -180 -106 -276.5t-212 -96.5zM143 394q-11 -73 26 -127t126 -54
q119 0 180 121q-8 209 -162 209q-78 0 -120 -44q-41 -44 -50 -105z" />
    <glyph glyph-name="zero.num" horiz-adv-x="421" 
d="M261 736q90 0 129.5 -69.5t24.5 -177.5q-13 -91 -67 -144.5t-128 -53.5q-90 0 -133 66.5t-28 172.5q14 94 70 149q57 57 132 57zM255 665q-45 0 -77.5 -37t-40.5 -99q-10 -79 13 -122.5t76 -43.5q44 0 74 36t38 97q10 77 -11 123t-72 46z" />
    <glyph glyph-name="one.num" horiz-adv-x="268" 
d="M205 297h-78l47 337q-33 -71 -117 -71h-7l11 78h13q107 0 115 89h76z" />
    <glyph glyph-name="two.num" horiz-adv-x="378" 
d="M349 297h-316l10 70q100 62 154 98q53 35 79 64t30 60q4 33 -12 57.5t-55 24.5q-69 0 -103 -86l-66 30q60 121 178 121q72 0 105.5 -41.5t26.5 -96.5q-10 -72 -123 -147q-63 -40 -135 -83h237z" />
    <glyph glyph-name="three.num" horiz-adv-x="390" 
d="M366 405q-7 -50 -51 -81.5t-114 -31.5q-57 0 -102.5 22.5t-69.5 62.5l64 42q34 -59 111 -59q43 0 68 19t29 48q4 34 -19 53t-68 19h-69l6 40h59q94 0 102 60q4 32 -14.5 53t-56.5 21q-65 0 -107 -67l-59 31q63 100 175 100q66 0 103 -35.5t30 -88.5q-5 -32 -32 -57.5
t-70 -34.5q96 -24 85 -116z" />
    <glyph glyph-name="four.num" horiz-adv-x="379" 
d="M263 527h75l-13 -93h59l-6 -39h-59l-13 -98h-75l14 98h-217l6 43l223 293h78v-3l-219 -294h134z" />
    <glyph glyph-name="five.num" horiz-adv-x="388" 
d="M374 426q-9 -59 -54 -97t-117 -38q-56 0 -99 23.5t-62 60.5l77 42q26 -56 89 -56q41 0 65.5 22t28.5 59q5 36 -11 66q-15 32 -59 32q-33 0 -58 -18t-35 -42l-68 11l53 239h269l-10 -69h-205l-28 -127q46 46 108 46t94 -43.5t22 -110.5z" />
    <glyph glyph-name="six.num" horiz-adv-x="409" 
d="M395 425q-9 -58 -53 -96t-110 -38q-94 0 -137 69.5t-30 167.5q14 96 75 151q63 57 148 57q75 0 132 -49l-45 -60q-40 40 -94 40q-59 0 -103 -47q-42 -45 -44 -125q24 36 62.5 56.5t79.5 20.5q64 0 95 -43q33 -43 24 -104zM250 533q-31 1 -63 -21.5t-50 -60.5
q7 -42 32.5 -66.5t64.5 -24.5q38 0 63 21.5t30 55.5q5 41 -15.5 69t-61.5 27z" />
    <glyph glyph-name="seven.num" horiz-adv-x="343" 
d="M158 297h-83l219 363h-227l10 70h305l-9 -65z" />
    <glyph glyph-name="eight.num" horiz-adv-x="398" 
d="M388 404q-7 -51 -57.5 -82t-127.5 -31q-84 0 -126.5 36.5t-35.5 90.5q5 40 40 68t89 36q-44 10 -66 40t-17 69q6 47 53.5 76t114.5 29q81 0 117 -38q38 -38 30 -85q-5 -36 -34 -60.5t-71 -31.5q47 -10 71.5 -42t19.5 -75zM237 541q41 0 65.5 16t28.5 43q4 31 -16.5 52
t-63.5 21q-41 0 -66.5 -16t-29.5 -43q-4 -31 16.5 -52t65.5 -21zM211 357q44 0 73 18t33 47q5 35 -18.5 58.5t-70.5 23.5q-46 0 -76 -18.5t-34 -49.5q-5 -35 19 -57t74 -22z" />
    <glyph glyph-name="nine.num" horiz-adv-x="408" 
d="M398 491q-12 -87 -67 -143q-54 -57 -146 -57q-98 0 -148 58l59 56q38 -43 96 -43q60 0 95 44t38 124q-44 -74 -131 -74q-63 0 -98 40t-26 103q8 56 52 96q47 41 117 41q92 0 133 -71.5t26 -173.5zM238 668q-39 0 -66 -23t-32 -59q-6 -40 14.5 -65t62.5 -25q33 0 62 18.5
t45 55.5q-5 47 -28 72.5t-58 25.5z" />
    <glyph glyph-name="zero.den" horiz-adv-x="421" 
d="M228 439q90 0 129.5 -69.5t24.5 -177.5q-13 -91 -67 -144.5t-128 -53.5q-90 0 -133 66.5t-28 172.5q14 94 70 149q57 57 132 57zM222 368q-45 0 -77.5 -37t-40.5 -99q-10 -79 13 -122.5t76 -43.5q44 0 74 36t38 97q10 77 -11 123t-72 46z" />
    <glyph glyph-name="one.den" horiz-adv-x="268" 
d="M167 0h-78l47 337q-33 -71 -117 -71h-7l11 78h13q107 0 115 89h76z" />
    <glyph glyph-name="two.den" horiz-adv-x="378" 
d="M311 0h-316l10 70q100 62 154 98q53 35 79 64t30 60q4 33 -12 57.5t-55 24.5q-69 0 -103 -86l-66 30q60 121 178 121q72 0 105.5 -41.5t26.5 -96.5q-10 -72 -123 -147q-63 -40 -135 -83h237z" />
    <glyph glyph-name="three.den" horiz-adv-x="390" 
d="M328 108q-7 -50 -51 -81.5t-114 -31.5q-57 0 -102.5 22.5t-69.5 62.5l64 42q34 -59 111 -59q43 0 68 19t29 48q4 34 -19 53t-68 19h-69l6 40h59q94 0 102 60q4 32 -14.5 53t-56.5 21q-65 0 -107 -67l-59 31q30 48 76 74t99 26q66 0 103 -35.5t30 -88.5q-5 -32 -32 -57.5
t-70 -34.5q96 -24 85 -116z" />
    <glyph glyph-name="four.den" horiz-adv-x="379" 
d="M225 230h75l-13 -93h59l-6 -39h-59l-13 -98h-75l14 98h-217l6 43l223 293h78v-3l-219 -294h134z" />
    <glyph glyph-name="five.den" horiz-adv-x="388" 
d="M336 129q-9 -59 -54 -97t-117 -38q-56 0 -99 23.5t-62 60.5l77 42q26 -56 89 -56q41 0 65.5 22t28.5 59q5 36 -11 66q-15 32 -59 32q-33 0 -58 -18t-35 -42l-68 11l53 239h269l-10 -69h-205l-28 -127q46 46 108 46t94 -43.5t22 -110.5z" />
    <glyph glyph-name="six.den" horiz-adv-x="409" 
d="M354 128q-9 -58 -53 -96t-110 -38q-94 0 -137 69.5t-30 167.5q14 96 75 151q63 57 148 57q75 0 132 -49l-45 -60q-40 40 -94 40q-59 0 -103 -47q-42 -45 -44 -125q24 36 62.5 56.5t79.5 20.5q64 0 95 -43q33 -43 24 -104zM209 236q-31 1 -63 -21.5t-50 -60.5
q7 -42 32.5 -66.5t64.5 -24.5q38 0 63 21.5t30 55.5q5 41 -15.5 69t-61.5 27z" />
    <glyph glyph-name="seven.den" horiz-adv-x="343" 
d="M120 0h-83l219 363h-227l10 70h305l-9 -65z" />
    <glyph glyph-name="eight.den" horiz-adv-x="400" 
d="M356 107q-7 -51 -57.5 -82t-127.5 -31q-84 0 -126.5 36.5t-35.5 90.5q5 40 40 68t89 36q-44 10 -66 40t-17 69q6 47 53.5 76t114.5 29q81 0 117 -38q38 -38 30 -85q-5 -36 -34 -60.5t-71 -31.5q47 -10 71.5 -42t19.5 -75zM205 244q41 0 65.5 16t28.5 43q4 31 -16.5 52
t-63.5 21q-41 0 -66.5 -16t-29.5 -43q-4 -31 16.5 -52t65.5 -21zM179 60q44 0 73 18t33 47q5 35 -18.5 58.5t-70.5 23.5q-46 0 -76 -18.5t-34 -49.5q-5 -35 19 -57t74 -22z" />
    <glyph glyph-name="nine.den" horiz-adv-x="408" 
d="M361 194q-12 -87 -67 -143q-54 -57 -146 -57q-98 0 -148 58l59 56q38 -43 96 -43q60 0 95 44t38 124q-44 -74 -131 -74q-63 0 -98 40t-26 103q8 56 52 96q47 41 117 41q92 0 133 -71.5t26 -173.5zM201 371q-39 0 -66 -23t-32 -59q-6 -40 14.5 -65t62.5 -25q33 0 62 18.5
t45 55.5q-5 47 -28 72.5t-58 25.5z" />
    <glyph glyph-name="zero.sup" horiz-adv-x="421" 
d="M274 816q90 0 129.5 -69.5t24.5 -177.5q-13 -91 -67 -144.5t-128 -53.5q-90 0 -133 66.5t-28 172.5q14 94 70 149q57 57 132 57zM268 745q-45 0 -77.5 -37t-40.5 -99q-10 -79 13 -122.5t76 -43.5q44 0 74 36t38 97q10 77 -11 123t-72 46z" />
    <glyph glyph-name="one.sup" horiz-adv-x="268" 
d="M217 377h-78l47 337q-33 -71 -117 -71h-7l11 78h13q107 0 115 89h76z" />
    <glyph glyph-name="two.sup" horiz-adv-x="378" 
d="M361 377h-316l10 70q100 62 154 98q53 35 79 64t30 60q4 33 -12 57.5t-55 24.5q-69 0 -103 -86l-66 30q60 121 178 121q72 0 105.5 -41.5t26.5 -96.5q-10 -72 -123 -147q-63 -40 -135 -83h237z" />
    <glyph glyph-name="three.sup" horiz-adv-x="390" 
d="M378 485q-7 -50 -51 -81.5t-114 -31.5q-57 0 -102.5 22.5t-69.5 62.5l64 42q34 -59 111 -59q43 0 68 19t29 48q4 34 -19 53t-68 19h-69l6 40h59q94 0 102 60q4 32 -14.5 53t-56.5 21q-65 0 -107 -67l-59 31q63 100 175 100q66 0 103 -35.5t30 -88.5q-5 -32 -32 -57.5
t-70 -34.5q96 -24 85 -116z" />
    <glyph glyph-name="four.sup" horiz-adv-x="379" 
d="M275 607h75l-13 -93h59l-6 -39h-59l-13 -98h-75l14 98h-217l6 43l223 293h78v-3l-219 -294h134z" />
    <glyph glyph-name="five.sup" horiz-adv-x="388" 
d="M386 506q-9 -59 -54 -97t-117 -38q-56 0 -99 23.5t-62 60.5l77 42q26 -56 89 -56q41 0 65.5 22t28.5 59q5 36 -11 66q-15 32 -59 32q-33 0 -58 -18t-35 -42l-68 11l53 239h269l-10 -69h-205l-28 -127q46 46 108 46t94 -43.5t22 -110.5z" />
    <glyph glyph-name="six.sup" horiz-adv-x="409" 
d="M401 505q-9 -58 -53 -96t-110 -38q-94 0 -137 69.5t-30 167.5q14 96 75 151q63 57 148 57q75 0 132 -49l-45 -60q-40 40 -94 40q-59 0 -103 -47q-42 -45 -44 -125q24 36 62.5 56.5t79.5 20.5q64 0 95 -43q33 -43 24 -104zM256 613q-31 1 -63 -21.5t-50 -60.5
q7 -42 32.5 -66.5t64.5 -24.5q38 0 63 21.5t30 55.5q5 41 -15.5 69t-61.5 27z" />
    <glyph glyph-name="seven.sup" horiz-adv-x="343" 
d="M170 377h-83l219 363h-227l10 70h305l-9 -65z" />
    <glyph glyph-name="eight.sup" horiz-adv-x="398" 
d="M400 484q-7 -51 -57.5 -82t-127.5 -31q-84 0 -126.5 36.5t-35.5 90.5q5 40 40 68t89 36q-44 10 -66 40t-17 69q6 47 53.5 76t114.5 29q81 0 117 -38q38 -38 30 -85q-5 -36 -34 -60.5t-71 -31.5q47 -10 71.5 -42t19.5 -75zM249 621q41 0 65.5 16t28.5 43q4 31 -16.5 52
t-63.5 21q-41 0 -66.5 -16t-29.5 -43q-4 -31 16.5 -52t65.5 -21zM223 437q44 0 73 18t33 47q5 35 -18.5 58.5t-70.5 23.5q-46 0 -76 -18.5t-34 -49.5q-5 -35 19 -57t74 -22z" />
    <glyph glyph-name="nine.sup" horiz-adv-x="408" 
d="M411 571q-12 -87 -67 -143q-54 -57 -146 -57q-98 0 -148 58l59 56q38 -43 96 -43q60 0 95 44t38 124q-44 -74 -131 -74q-63 0 -98 40t-26 103q8 56 52 96q47 41 117 41q92 0 133 -71.5t26 -173.5zM251 748q-39 0 -66 -23t-32 -59q-6 -40 14.5 -65t62.5 -25q33 0 62 18.5
t45 55.5q-5 47 -28 72.5t-58 25.5z" />
    <glyph glyph-name="zero.sub" horiz-adv-x="421" 
d="M217 359q90 0 129.5 -69.5t24.5 -177.5q-13 -91 -67 -144.5t-128 -53.5q-90 0 -133 66.5t-28 172.5q14 94 70 149q57 57 132 57zM211 288q-45 0 -77.5 -37t-40.5 -99q-10 -79 13 -122.5t76 -43.5q44 0 74 36t38 97q10 77 -11 123t-72 46z" />
    <glyph glyph-name="one.sub" horiz-adv-x="268" 
d="M160 -80h-78l47 337q-33 -71 -117 -71h-7l11 78h13q107 0 115 89h76z" />
    <glyph glyph-name="two.sub" horiz-adv-x="378" 
d="M303 -80h-316l10 70q100 62 154 98q53 35 79 64t30 60q4 33 -12 57.5t-55 24.5q-69 0 -103 -86l-66 30q60 121 178 121q72 0 105.5 -41.5t26.5 -96.5q-10 -72 -123 -147q-63 -40 -135 -83h237z" />
    <glyph glyph-name="three.sub" horiz-adv-x="390" 
d="M320 28q-7 -50 -51 -81.5t-114 -31.5q-57 0 -102.5 22.5t-69.5 62.5l64 42q34 -59 111 -59q43 0 68 19t29 48q4 34 -19 53t-68 19h-69l6 40h59q94 0 102 60q4 32 -14.5 53t-56.5 21q-65 0 -107 -67l-59 31q63 100 175 100q66 0 103 -35.5t30 -88.5q-5 -32 -32 -57.5
t-70 -34.5q96 -24 85 -116z" />
    <glyph glyph-name="four.sub" horiz-adv-x="379" 
d="M217 150h75l-13 -93h59l-6 -39h-59l-13 -98h-75l14 98h-217l6 43l223 293h78v-3l-219 -294h134z" />
    <glyph glyph-name="five.sub" horiz-adv-x="388" 
d="M328 49q-9 -59 -54 -97t-117 -38q-56 0 -99 23.5t-62 60.5l77 42q26 -56 89 -56q41 0 65.5 22t28.5 59q5 36 -11 66q-15 32 -59 32q-33 0 -58 -18t-35 -42l-68 11l53 239h269l-10 -69h-205l-28 -127q46 46 108 46t94 -43.5t22 -110.5z" />
    <glyph glyph-name="six.sub" horiz-adv-x="409" 
d="M343 48q-9 -58 -53 -96t-110 -38q-94 0 -137 69.5t-30 167.5q14 96 75 151q63 57 148 57q75 0 132 -49l-45 -60q-40 40 -94 40q-59 0 -103 -47q-42 -45 -44 -125q24 36 62.5 56.5t79.5 20.5q64 0 95 -43q33 -43 24 -104zM198 156q-31 1 -63 -21.5t-50 -60.5
q7 -42 32.5 -66.5t64.5 -24.5q38 0 63 21.5t30 55.5q5 41 -15.5 69t-61.5 27z" />
    <glyph glyph-name="seven.sub" horiz-adv-x="343" 
d="M112 -80h-83l219 363h-227l10 70h305l-9 -65z" />
    <glyph glyph-name="eight.sub" horiz-adv-x="398" 
d="M342 27q-7 -51 -57.5 -82t-127.5 -31q-84 0 -126.5 36.5t-35.5 90.5q5 40 40 68t89 36q-44 10 -66 40t-17 69q6 47 53.5 76t114.5 29q81 0 117 -38q38 -38 30 -85q-5 -36 -34 -60.5t-71 -31.5q47 -10 71.5 -42t19.5 -75zM191 164q41 0 65.5 16t28.5 43q4 31 -16.5 52
t-63.5 21q-41 0 -66.5 -16t-29.5 -43q-4 -31 16.5 -52t65.5 -21zM165 -20q44 0 73 18t33 47q5 35 -18.5 58.5t-70.5 23.5q-46 0 -76 -18.5t-34 -49.5q-5 -35 19 -57t74 -22z" />
    <glyph glyph-name="nine.sub" horiz-adv-x="408" 
d="M350 114q-12 -87 -67 -143q-54 -57 -146 -57q-98 0 -148 58l59 56q38 -43 96 -43q60 0 95 44t38 124q-44 -74 -131 -74q-63 0 -98 40t-26 103q8 56 52 96q47 41 117 41q92 0 133 -71.5t26 -173.5zM190 291q-39 0 -66 -23t-32 -59q-6 -40 14.5 -65t62.5 -25q33 0 62 18.5
t45 55.5q-5 47 -28 72.5t-58 25.5z" />
    <glyph glyph-name="fraction.alt" horiz-adv-x="1019" 
d="M550 419l211 319l61 -44l-258 -285zM491 312l-212 -319l-60 45l258 284z" />
    <glyph glyph-name="whitecircle" horiz-adv-x="986" 
d="M867 365q0 -163 -106 -269t-269 -106t-269 106t-106 269t106 269t269 106t269 -106t106 -269zM211 365q0 -123 76 -206t205 -83q128 0 204.5 83t76.5 206q0 124 -76.5 206.5t-204.5 82.5q-129 0 -205 -82.5t-76 -206.5z" />
    <glyph glyph-name="blackcircle" horiz-adv-x="986" 
d="M117 365q0 163 106 269t269 106t269 -106t106 -269t-106 -269t-269 -106t-269 106t-106 269z" />
    <glyph glyph-name="mediumblackcircle" horiz-adv-x="728" 
d="M363 510q110 0 184.5 -72.5t74.5 -187.5t-74.5 -187.5t-184.5 -72.5t-184.5 72.5t-74.5 187.5t74.5 187.5t184.5 72.5z" />
    <glyph glyph-name="blacksquare" horiz-adv-x="986" 
d="M855 0h-726v730h726v-730z" />
    <glyph glyph-name="whitesquare" horiz-adv-x="986" 
d="M855 0h-726v730h726v-730zM762 644h-541v-557h541v557z" />
    <glyph glyph-name="squaremultiply" horiz-adv-x="986" 
d="M855 0h-726v730h726v-730zM767 649h-551v-567h551v567zM325 145l-46 43l169 177l-169 178l46 43l167 -175l167 175l46 -43l-169 -178l169 -177l-46 -43l-167 174z" />
    <glyph glyph-name="blacksmallsquare" horiz-adv-x="730" 
d="M614 0h-500v500h500v-500z" />
    <glyph glyph-name="ballotboxwithx" horiz-adv-x="745" 
d="M621 500v-500h-500v500h500zM551 436h-359v-371h359v371zM273 111l-35 34l100 105l-100 106l35 33l98 -104l99 104l35 -33l-100 -106l100 -105l-35 -34l-99 104z" />
    <glyph glyph-name="plus.cap" horiz-adv-x="472" 
d="M216 351h-163l9 65h163l23 161h70l-23 -161h163l-9 -65h-163l-24 -170h-70z" />
    <glyph glyph-name="minus.cap" horiz-adv-x="472" 
d="M448 344h-396l10 67h395z" />
    <glyph glyph-name="multiply.cap" horiz-adv-x="469" 
d="M208 389l-113 132l51 46l115 -135l152 135l42 -47l-153 -135l114 -130l-52 -46l-113 133l-153 -135l-43 47z" />
    <glyph glyph-name="divide.cap" horiz-adv-x="472" 
d="M271 489q-27 0 -43.5 16.5t-16.5 41.5q0 29 19.5 49t50.5 20q27 0 44 -17.5t17 -42.5q0 -28 -19 -47.5t-52 -19.5zM448 344h-396l10 67h395zM224 137q-27 0 -43.5 16.5t-16.5 41.5q0 29 19.5 49.5t50.5 20.5q27 0 43.5 -17.5t16.5 -42.5q0 -29 -19 -48.5t-51 -19.5z" />
    <glyph glyph-name="equal.cap" horiz-adv-x="472" 
d="M459 424h-395l9 67h395zM432 230h-396l9 68h396z" />
    <glyph glyph-name="less.cap" horiz-adv-x="472" 
d="M403 137l-349 203l5 35l406 203l-11 -81l-295 -142l255 -144z" />
    <glyph glyph-name="greater.cap" horiz-adv-x="472" 
d="M90 504l10 74l349 -203l-5 -35l-406 -203l12 81l294 142z" />
    </font>
</defs>
</svg>
