<?xml version="1.0" standalone="no"?>
<!DOCTYPE svg PUBLIC "-//W3C//DTD SVG 1.1//EN" "http://www.w3.org/Graphics/SVG/1.1/DTD/svg11.dtd" >
<svg xmlns="http://www.w3.org/2000/svg" xmlns:xlink="http://www.w3.org/1999/xlink" version="1.1">
<metadata>
Created by FontForge 20170731 at Fri Oct 17 03:07:28 2014
 By Aleksey,,,
Created by Jean Baptiste Morizot, certains droits reserves (c) 2014
</metadata>
<defs>
<font id="BluuNext-BoldItalic" horiz-adv-x="507" >
  <font-face 
    font-family="Bluu Next"
    font-weight="700"
    font-style="italic"
    font-stretch="normal"
    units-per-em="1000"
    panose-1="2 0 8 0 0 0 0 0 0 0"
    ascent="740"
    descent="-260"
    x-height="490"
    cap-height="685"
    bbox="-7 -233 980 927"
    underline-thickness="50"
    underline-position="-200"
    unicode-range="U+000D-FB00"
  />
<missing-glyph horiz-adv-x="461" 
d="M40 0v493h381v-493h-381zM87 50h287v393h-287v-393zM221 227h-68l132 159h2l-46 -117h67l-132 -159h-2z" />
    <glyph glyph-name="f_f" unicode="ff" horiz-adv-x="666" 
d="M477 436v-155q0 -129 -12.5 -200.5t-42 -146t-42.5 -124.5h-8l-10 417v217l-153 -8v-180q0 -129 -12.5 -200.5t-42 -146t-42.5 -124.5h-8l-10 417v225l-70 63h80q16 51 67 102.5t136 74.5l78 21l26 -99q62 78 164 106l78 21l42 -157h-4q-20 31 -83 64t-89 33
q-19 0 -39.5 -20t-20.5 -61q0 -38 18 -85h192l-7 -24zM200 490h167q0 28 25 72q-33 25 -77.5 45.5t-63.5 20.5t-39.5 -20t-20.5 -61q0 -30 9 -57z" />
    <glyph glyph-name=".notdef" horiz-adv-x="461" 
d="M40 0v493h381v-493h-381zM87 50h287v393h-287v-393zM221 227h-68l132 159h2l-46 -117h67l-132 -159h-2z" />
    <glyph glyph-name=".null" horiz-adv-x="0" 
 />
    <glyph glyph-name="nonmarkingreturn" horiz-adv-x="333" 
 />
    <glyph glyph-name="CR" unicode="&#xd;" horiz-adv-x="0" 
 />
    <glyph glyph-name="space" unicode=" " horiz-adv-x="200" 
 />
    <glyph glyph-name="exclam" unicode="!" horiz-adv-x="217" 
d="M83 220l-47 437l64 46l63 -46l-46 -437h-34zM186 66l-81 -92l-82 92l82 93z" />
    <glyph glyph-name="quotedbl" unicode="&#x22;" horiz-adv-x="246" 
d="M38 703l71 -7l-37 -217l-38 3zM149 693l71 -6l-37 -218l-38 3z" />
    <glyph glyph-name="numbersign" unicode="#" horiz-adv-x="485" 
d="M375 608h26l-44 -179h103v-50h-116l-35 -152h124v-51h-136l-45 -176h-27l45 176h-135l-46 -176h-26l45 176h-83v51h96l35 152h-104v50h116l44 179h27l-44 -179h135zM318 379h-136l-35 -152h136z" />
    <glyph glyph-name="dollar" unicode="$" horiz-adv-x="449" 
d="M20 233h10q19 -72 60.5 -126t93.5 -73v209q-30 13 -48 22.5t-42 26t-37.5 34t-23.5 44t-10 58.5q0 67 41 113.5t121 53.5v54h62l-2 -53h91l42 13v-188l-7 1q-38 107 -127 137l-7 -189q96 -40 128 -65q60 -47 60 -118q0 -95 -53.5 -142t-147.5 -52l-2 -51h-38v51
q-96 5 -153 31zM185 393v175q-34 -2 -55.5 -23t-21.5 -56q0 -57 77 -96zM225 26h7q39 0 68.5 20t29.5 58q0 41 -25.5 67.5t-72.5 49.5z" />
    <glyph glyph-name="percent" unicode="%" horiz-adv-x="716" 
d="M313 526q0 -78 -41.5 -139.5t-116.5 -61.5q-58 0 -91.5 50t-33.5 119q0 78 41.5 139.5t116.5 61.5q58 0 91.5 -50t33.5 -119zM496 695h58l-343 -695h-58zM157 655q-52 0 -52 -99q0 -80 22.5 -135.5t59.5 -55.5q28 0 40 32t12 67q0 80 -22.5 135.5t-59.5 55.5zM682 201
q0 -78 -41.5 -139.5t-116.5 -61.5q-58 0 -91.5 50t-33.5 119q0 78 41.5 139.5t116.5 61.5q58 0 91.5 -50t33.5 -119zM526 330q-52 0 -52 -99q0 -80 22.5 -135.5t59.5 -55.5q28 0 40 32t12 67q0 80 -22.5 135.5t-59.5 55.5z" />
    <glyph glyph-name="ampersand" unicode="&#x26;" horiz-adv-x="690" 
d="M644 375l-76 -78q2 -50 -15.5 -103t-53.5 -102t-100.5 -80t-146.5 -31q-48 0 -93 14.5t-79 51t-34 88.5q0 30 8 56t25 46.5t33.5 36t43 29.5t42.5 22t43.5 19t36.5 15q-35 5 -60 10t-55.5 15t-49.5 23t-32 34.5t-13 48.5q0 77 92 141t250 64l35 -116l-5 -5l-136 92
q-38 0 -67.5 -40.5t-29.5 -124.5q0 -56 28 -90.5t68 -34.5q49 0 101 23l13 -40q-51 0 -77 2q-141 -42 -141 -200q0 -49 10 -81.5t28 -45.5t32 -17t34 -4q99 0 174.5 91t58.5 193l-87 15l-2 5l194 64z" />
    <glyph glyph-name="quotesingle" unicode="'" horiz-adv-x="134" 
d="M37 698l71 -6l-37 -218l-38 3z" />
    <glyph glyph-name="parenleft" unicode="(" horiz-adv-x="266" 
d="M261 726l14 -15q-91 -97 -136.5 -200.5t-45.5 -234.5t45.5 -235t136.5 -200l-14 -15q-41 37 -61.5 57t-57 65.5t-55.5 87t-34.5 105t-15.5 135.5q0 41 4 77.5t14 69.5t18.5 58.5t26.5 54t28 45t33.5 42.5t32.5 36t35 35.5t32 31.5z" />
    <glyph glyph-name="parenright" unicode=")" horiz-adv-x="290" 
d="M15 711l14 15q6 -6 32 -31.5t35 -35.5t32.5 -36t33.5 -42.5t28 -45t26.5 -54t18.5 -58.5t14 -69.5t4 -77.5q0 -72 -15.5 -135.5t-34.5 -105t-55.5 -87t-57 -65.5t-61.5 -57l-14 15q91 96 136.5 200t45.5 235t-45.5 234.5t-136.5 200.5z" />
    <glyph glyph-name="asterisk" unicode="*" horiz-adv-x="335" 
d="M134 646l34 42l35 -40l-25 -119h-18zM64 605l-51 -10l15 -52l111 -36l9 16zM271 605l52 -10l-16 -52l-110 -36l-9 16zM64 392l-51 11l15 52l111 36l9 -16zM271 392l52 11l-16 52l-110 36l-9 -16zM204 354l-34 -42l-35 40l25 119h18z" />
    <glyph glyph-name="plus" unicode="+" horiz-adv-x="530" 
d="M473 238h-180v-198h-78v198h-170v72h170v188h78v-188h180v-72z" />
    <glyph glyph-name="comma" unicode="," horiz-adv-x="227" 
d="M50 -123l-13 10q62 54 62 104q0 9 -3.5 18t-5.5 12t-10 13l-9 9l-37 31l79 85q28 -18 52.5 -46t24.5 -51q0 -92 -140 -185z" />
    <glyph glyph-name="hyphen" unicode="-" horiz-adv-x="294" 
d="M41 320h223v-76h-223v76z" />
    <glyph glyph-name="period" unicode="." horiz-adv-x="181" 
d="M172 66l-81 -92l-82 92l82 93z" />
    <glyph glyph-name="slash" unicode="/" horiz-adv-x="445" 
d="M334 695h74l-297 -695h-74z" />
    <glyph glyph-name="zero" unicode="0" horiz-adv-x="561" 
d="M510 320q0 -81 -27.5 -155.5t-87.5 -126.5t-141 -52q-93 0 -148 83.5t-55 198.5q0 81 27.5 155.5t87.5 126.5t141 52q94 0 148.5 -83.5t54.5 -198.5zM257 557q-86 0 -86 -180q0 -143 38 -244.5t96 -101.5q23 0 41 19t27.5 48t14 58t4.5 55q0 143 -38.5 244.5t-96.5 101.5
z" />
    <glyph glyph-name="one" unicode="1" horiz-adv-x="382" 
d="M250 607v-541l90 -66h-289l85 66v354l-93 -36l-1 2z" />
    <glyph glyph-name="two" unicode="2" horiz-adv-x="528" 
d="M53 0l-7 33q37 31 75.5 70.5t83.5 97t73.5 125.5t28.5 132q0 49 -28 79.5t-77 30.5q-48 0 -80 -36.5t-59 -109.5h-5v173h130q103 0 175.5 -40t72.5 -115q0 -40 -20 -77.5t-53 -69.5t-67.5 -59.5t-72.5 -59.5t-59 -58l2 -5l59 5l193 3l55 121h4l-20 -240h-404z" />
    <glyph glyph-name="three" unicode="3" horiz-adv-x="502" 
d="M53 -16l-8 25q39 0 80 8t81 23.5t65 44.5t25 67q0 61 -42.5 92.5t-117.5 46.5q-5 -1 -15 -3.5t-15 -3.5l-2 17l32 12q30 11 42.5 16t43 20.5t45.5 29t28.5 35.5t13.5 47q0 48 -31.5 77t-84.5 29q-25 0 -45.5 -11t-36 -34t-25.5 -43.5t-23 -53.5h-5v170h147
q104 0 168.5 -28.5t64.5 -91.5q0 -50 -53 -86.5t-168 -69.5q230 -20 230 -133q0 -50 -46.5 -91.5t-113 -64t-129 -34.5t-105.5 -12z" />
    <glyph glyph-name="four" unicode="4" horiz-adv-x="568" 
d="M516 148h-122v-82l90 -66h-289l84 66v83h-232l229 446h139l-270 -401h133v80l116 178v-259h122v-45z" />
    <glyph glyph-name="five" unicode="5" horiz-adv-x="481" 
d="M106 354l37 21q48 22 95 22q73 0 131 -51.5t58 -132.5q0 -104 -70 -158t-193 -54h-115q3 105 4 172h7q2 -6 6.5 -15.5t20 -34.5t32.5 -44t43.5 -34.5t54.5 -15.5q48 0 70.5 31t22.5 113q0 35 -3.5 62t-13 57.5t-32.5 47.5t-57 17q-37 0 -103 -37h-4l-5 -27h-33l40 294
l1 9h270l57 51l-11 -51l-25 -120h-266z" />
    <glyph glyph-name="six" unicode="6" horiz-adv-x="508" 
d="M442 631l6 -19q-97 -46 -170 -122.5t-97 -170.5q60 42 103 42q72 0 120.5 -47t48.5 -130q0 -74 -59 -135t-154 -61q-83 0 -136.5 55t-53.5 150q0 131 114.5 251t277.5 187zM175 294q-10 -44 -10 -102q0 -83 24 -128.5t70 -45.5q29 0 49 28t26.5 58.5t6.5 58.5
q0 72 -32.5 114.5t-70.5 42.5q-36 0 -63 -26z" />
    <glyph glyph-name="seven" unicode="7" horiz-adv-x="483" 
d="M45 595h408l-328 -635l-32 16l246 499h-243l-48 -73h-3v193z" />
    <glyph glyph-name="eight" unicode="8" horiz-adv-x="495" 
d="M250 610q56 0 98 -31t42 -92q0 -75 -74 -130q129 -64 129 -181q0 -87 -66 -139t-155 -52q-78 0 -126 39t-48 106q0 94 108 164q-50 26 -75.5 66t-25.5 84q0 67 52.5 116.5t140.5 49.5zM294 368q60 47 60 107q0 55 -32.5 82.5t-80.5 27.5q-40 0 -69.5 -25.5t-29.5 -73.5
q0 -15 7 -27.5t15 -21.5t26.5 -20t29.5 -16t37 -16.5t37 -16.5zM184 281q-40 -23 -69 -61.5t-29 -85.5q0 -50 36.5 -87t102.5 -37q57 0 92.5 29.5t35.5 84.5q0 21 -4.5 38t-15.5 31t-20.5 23.5t-29 20t-30.5 15.5t-35 15t-34 14z" />
    <glyph glyph-name="nine" unicode="9" horiz-adv-x="503" 
d="M54 -33l-6 19q97 46 170 122.5t97 170.5q-60 -42 -103 -42q-72 0 -120.5 47t-48.5 130q0 74 59 135t154 61q83 0 136.5 -55t53.5 -150q0 -131 -114.5 -251t-277.5 -187zM321 304q10 44 10 102q0 83 -24 128.5t-70 45.5q-29 0 -49 -28t-26.5 -58.5t-6.5 -58.5
q0 -72 32.5 -114.5t70.5 -42.5q36 0 63 26z" />
    <glyph glyph-name="colon" unicode=":" horiz-adv-x="181" 
d="M172 335l-81 -92l-82 92l82 93zM172 66l-81 -92l-82 92l82 93z" />
    <glyph glyph-name="semicolon" unicode=";" horiz-adv-x="243" 
d="M208 351l-81 -92l-82 92l82 93zM63 -123l-13 10q62 54 62 104q0 6 -1.5 12t-2.5 9.5t-5 9t-5.5 7.5t-7 7.5l-6.5 6.5l-37 31l79 85q28 -18 52.5 -46t24.5 -51q0 -92 -140 -185z" />
    <glyph glyph-name="less" unicode="&#x3c;" horiz-adv-x="516" 
d="M465 393l-335 -141l335 -140v-72l-426 172h-2v81l2 -1l426 173v-72z" />
    <glyph glyph-name="equal" unicode="=" horiz-adv-x="487" 
d="M45 333v72h381v-72h-381zM45 129v72h381v-72h-381z" />
    <glyph glyph-name="greater" unicode="&#x3e;" horiz-adv-x="516" 
d="M46 112l335 140l-335 141v72l426 -173l1 1v-81h-1l-426 -172v72z" />
    <glyph glyph-name="question" unicode="?" horiz-adv-x="504" 
d="M75 695h82q60 0 105.5 -5.5t91.5 -20.5t71.5 -47.5t25.5 -81.5q0 -37 -17.5 -68t-49 -53.5t-59 -37.5t-64 -31t-47.5 -22l-11 -108h-23l-17 122q65 23 104 73t39 103q0 140 -74 140q-51 0 -79.5 -35t-46.5 -98l-8 -1zM274 66l-81 -92l-81 92l81 93z" />
    <glyph glyph-name="at" unicode="@" horiz-adv-x="685" 
d="M314 73l47 137q-101 -127 -173 -127q-74 0 -74 89q0 102 91 187t197 78l38 -3l85 5l-99 -294l47 -26l125 11q26 59 26 119q0 120 -85 205t-205 85t-205 -85t-85 -205t85 -205t205 -85q129 0 216 97l20 -20q-44 -49 -106 -77t-130 -28q-132 0 -225.5 93.5t-93.5 225.5
t93.5 225.5t225.5 93.5t225.5 -93.5t93.5 -225.5q0 -80 -38 -148zM375 255l56 155q-89 10 -159 -43.5t-70 -131.5q0 -35 13 -48.5t42 -13.5q26 0 61 25t57 57z" />
    <glyph glyph-name="A" unicode="A" horiz-adv-x="727" 
d="M441 214h-247l-52 -136l91 -78h-211l68 79l242 616h44l258 -628l71 -67h-293l87 69zM424 259l-109 274l-104 -274h213z" />
    <glyph glyph-name="B" unicode="B" horiz-adv-x="630" 
d="M53 685h218q269 0 269 -151q0 -42 -24.5 -76t-54.5 -51.5t-72 -34.5q193 -45 193 -189q0 -51 -30 -89t-79.5 -57t-101.5 -28t-108 -9h-210l57 106v475zM234 653v-275q89 0 136 37.5t47 98.5q0 139 -150 139h-33zM234 39h30q76 0 127 39t51 108q0 93 -54 130t-154 37v-314
z" />
    <glyph glyph-name="C" unicode="C" horiz-adv-x="651" 
d="M554 482h-6q-73 162 -202 162q-79 0 -119 -66t-40 -172q0 -133 51 -217t147 -84q132 0 203 116l14 -10q-24 -58 -57.5 -105t-91 -82.5t-126.5 -35.5q-127 0 -202.5 91.5t-75.5 239.5q0 68 24 132.5t67.5 117t112.5 84.5t152 32h149v-203z" />
    <glyph glyph-name="D" unicode="D" horiz-adv-x="735" 
d="M56 685h253q103 0 179.5 -28.5t117 -75.5t59.5 -99.5t19 -109.5q0 -172 -107 -272t-284 -100h-237l70 106v473zM250 38h60q58 0 102.5 20.5t70.5 51.5t42.5 74t22 81t5.5 79q0 149 -61.5 229t-174.5 80h-67v-615z" />
    <glyph glyph-name="E" unicode="E" horiz-adv-x="592" 
d="M52 0l57 106v475l-57 104h459v-210h-5l-117 174h-156v-277h260v-45h-260v-291h165l137 183l5 -2l-11 -217h-477z" />
    <glyph glyph-name="F" unicode="F" horiz-adv-x="562" 
d="M109 581l-58 104h460v-210h-4l-118 174h-157v-280h253v-46h-253v-217l102 -106h-283v6l58 100v475z" />
    <glyph glyph-name="G" unicode="G" horiz-adv-x="687" 
d="M598 262v-268h-15l-90 53q-84 -60 -165 -60q-127 0 -202.5 91.5t-75.5 239.5q0 68 24 132.5t67.5 117t112.5 84.5t152 32h149v-203h-13q-20 37 -35.5 60.5t-40 49.5t-56 39t-70.5 13q-72 0 -110 -60.5t-38 -177.5q0 -51 5 -95.5t18.5 -92t35.5 -81t59.5 -55t86.5 -21.5
q41 0 79 19v165l-100 54v11h272v-10z" />
    <glyph glyph-name="H" unicode="H" horiz-adv-x="780" 
d="M457 0l71 106v227h-287v-227l71 -106h-265l70 106v474l-69 105h265l-72 -106v-201h287v202l-70 105h265l-71 -106v-473l70 -106h-265z" />
    <glyph glyph-name="I" unicode="I" horiz-adv-x="358" 
d="M117 106v473l-70 106h264l-70 -106v-473l70 -106h-264z" />
    <glyph glyph-name="J" unicode="J" horiz-adv-x="338" 
d="M231 579v-575q0 -51 -42.5 -98.5t-95.5 -81.5l-7 4q21 44 21 99v652l-70 106h264z" />
    <glyph glyph-name="K" unicode="K" horiz-adv-x="769" 
d="M291 324l-40 -42v-176l71 -106h-265l71 106v474l-71 106h265l-71 -106v-235l139 147l107 119l-30 75h221l-139 -90l-166 -175l245 -345l112 -76h-313l43 63z" />
    <glyph glyph-name="L" unicode="L" horiz-adv-x="610" 
d="M53 0l57 106v475l-57 104h253l-72 -105v-535h198l131 172h4l-10 -217h-504z" />
    <glyph glyph-name="M" unicode="M" horiz-adv-x="916" 
d="M49 0l73 96v485l-81 104h188l227 -500l205 500h199l-71 -82v-498l72 -105h-276l80 104v483l-246 -599h-7l-241 520v-412l73 -96h-195z" />
    <glyph glyph-name="N" unicode="N" horiz-adv-x="756" 
d="M527 0l-349 489v-403l81 -86h-196l70 93v465l-92 127h157l390 -571v485l-82 86h198l-70 -93v-534l41 -58h-148z" />
    <glyph glyph-name="O" unicode="O" horiz-adv-x="738" 
d="M687 373q0 -103 -39 -189t-121 -141t-194 -55q-84 0 -150 47.5t-99 121t-33 156.5q0 103 39 189t121 141t194 55q84 0 150 -47.5t99 -121t33 -156.5zM338 655q-45 0 -77.5 -22.5t-47.5 -59.5t-21 -70.5t-6 -68.5q0 -105 24.5 -196t74.5 -149.5t115 -58.5q41 0 72.5 23
t48 59t25 71.5t8.5 68.5q0 105 -25 195.5t-75.5 149t-115.5 58.5z" />
    <glyph glyph-name="P" unicode="P" horiz-adv-x="588" 
d="M123 579l-71 106h229q26 0 54 -3t68 -14t70 -29.5t51.5 -54t21.5 -82.5q0 -86 -64 -140t-148 -65q-42 -7 -87 -7v-184l85 -106h-280l71 106v473zM247 655v-331q79 0 121 41.5t42 124.5q0 82 -42.5 123.5t-120.5 41.5z" />
    <glyph glyph-name="Q" unicode="Q" horiz-adv-x="738" 
d="M576 -119l-4 -6q-89 34 -201 120q-24 -2 -38 -2q-126 0 -204 95.5t-78 224.5q0 160 94 270t260 110q126 0 204 -95.5t78 -224.5q0 -99 -38 -183.5t-110 -135.5zM338 650q-46 0 -78 -22t-47 -57.5t-21 -68.5t-6 -68q0 -105 25 -194.5t74.5 -147t114.5 -57.5
q41 0 72.5 22.5t48 57t25 70t8.5 67.5q0 162 -59.5 280t-156.5 118z" />
    <glyph glyph-name="R" unicode="R" horiz-adv-x="696" 
d="M671 0h-193q-141 252 -183 312l-45 -4v-202l70 -106h-265l71 106v473l-71 106h229q28 0 56.5 -2t72.5 -12.5t76.5 -28t56.5 -52.5t24 -82q0 -57 -42 -100.5t-106 -68.5l148 -241zM250 655v-314q74 2 127 42.5t53 112.5q0 159 -180 159z" />
    <glyph glyph-name="S" unicode="S" horiz-adv-x="541" 
d="M46 268h12q24 -101 85 -169.5t135 -68.5q42 0 70.5 28.5t28.5 71.5q0 44 -24.5 77t-60.5 51.5t-79 40.5t-79 44t-60.5 62.5t-24.5 94.5q0 77 53.5 131t152.5 54h136l46 15v-216l-12 1q-23 79 -75 123.5t-117 44.5q-41 0 -66 -24t-25 -67q0 -39 25 -70t63 -50t82 -42
t82 -46t63 -61.5t25 -88.5q0 -106 -67 -159t-168 -53q-114 0 -189 36z" />
    <glyph glyph-name="T" unicode="T" horiz-adv-x="660" 
d="M611 685v-219l-6 -1l-127 185h-96v-544l71 -106h-265l70 106v543h-92l-128 -184l-4 1v219h577z" />
    <glyph glyph-name="U" unicode="U" horiz-adv-x="781" 
d="M642 592v-315q0 -64 -9 -101t-30 -80q-27 -51 -80.5 -81t-125.5 -30q-271 0 -271 236v359l-69 105h265l-71 -106v-343q0 -66 14.5 -109t42.5 -62.5t55.5 -25.5t68.5 -6q164 0 164 268v294l-81 90h214l-86 -90z" />
    <glyph glyph-name="V" unicode="V" horiz-adv-x="681" 
d="M461 685h199l-67 -89l-227 -616h-46l-251 646l-50 59h260l-76 -61l166 -439l12 -47l161 461z" />
    <glyph glyph-name="W" unicode="W" horiz-adv-x="1005" 
d="M781 685h199l-64 -86l-204 -611h-58l-138 389l-136 -389h-58l-236 638l-49 59h260l-77 -61l157 -439l9 -37l109 288l-69 192l-47 57h260l-78 -61l148 -439l11 -44l143 457z" />
    <glyph glyph-name="X" unicode="X" horiz-adv-x="722" 
d="M192 94l76 -94h-247l100 104l174 237l-166 238l-98 106h301l-77 -97l128 -175l118 171l-69 101h247l-112 -103l-152 -211l188 -265l102 -106h-324l85 99l-137 195z" />
    <glyph glyph-name="Y" unicode="Y" horiz-adv-x="689" 
d="M212 0l70 106v175l-169 298l-87 106h306l-81 -106h-1l112 -189l15 -33l125 224l-81 104h242l-98 -94l-159 -273v-212l70 -106h-264z" />
    <glyph glyph-name="Z" unicode="Z" horiz-adv-x="668" 
d="M51 -1l-7 12l399 627h-227l-126 -173h-4l6 229l101 -10h408l7 -14l-404 -626h270l131 172h4l-11 -217h-547z" />
    <glyph glyph-name="bracketleft" unicode="[" horiz-adv-x="214" 
d="M191 665h-127v-769h127v-56h-181v871h181v-46z" />
    <glyph glyph-name="backslash" unicode="\" horiz-adv-x="432" 
d="M334 0l-297 695h74l297 -695h-74z" />
    <glyph glyph-name="bracketright" unicode="]" horiz-adv-x="214" 
d="M137 -114v779h-127v46h181v-871h-181v46h127z" />
    <glyph glyph-name="asciicircum" unicode="^" horiz-adv-x="466" 
d="M389 282l-156 328l-156 -328h-72l188 412v1h81l-1 -1l188 -412h-72z" />
    <glyph glyph-name="underscore" unicode="_" horiz-adv-x="556" 
d="M13 0h530v-60h-530v60z" />
    <glyph glyph-name="grave" unicode="`" horiz-adv-x="192" 
d="M153 681l18 -129h-15l-123 129h120z" />
    <glyph glyph-name="a" unicode="a" 
d="M160 0l-74 -11q-23 16 -40 65.5t-17 108.5q0 143 85 233.5t238 93.5h114l-38 -54v-350l74 -86h-191v257l12 116q-45 -182 -163 -373zM176 77q10 0 43 73t63.5 167.5t30.5 143.5q-48 0 -81.5 -23.5t-49.5 -62t-22.5 -77t-6.5 -81.5q0 -140 23 -140z" />
    <glyph glyph-name="b" unicode="b" horiz-adv-x="499" 
d="M305 490l99 18q27 -41 46.5 -105t19.5 -132q0 -113 -87.5 -192t-242.5 -79h-66v576l-68 77l183 57v-560q55 218 116 340zM189 29q157 1 157 188q0 50 -8.5 93.5t-19.5 66t-20 22.5q-16 0 -62 -150t-47 -220z" />
    <glyph glyph-name="c" unicode="c" horiz-adv-x="381" 
d="M350 360l-159 67q-14 0 -25 -53t-11 -105q0 -98 18 -154t51 -56q26 0 62.5 46t70.5 123l16 -10q-36 -106 -94.5 -168t-102.5 -62q-66 0 -106.5 49.5t-40.5 145.5q0 110 74.5 203.5t169.5 117.5h10l70 -140z" />
    <glyph glyph-name="d" unicode="d" horiz-adv-x="517" 
d="M508 0l-191 -9v266l12 116q-45 -182 -163 -373l-74 -11q-24 17 -43.5 66.5t-19.5 107.5q0 131 76.5 220.5t213.5 104.5v88l-68 77l183 57v-640zM182 77q10 0 43 73t63.5 167.5t30.5 143.5q-48 0 -82 -23.5t-51.5 -62t-25 -77.5t-7.5 -81q0 -46 5 -79t11 -47t13 -14z" />
    <glyph glyph-name="e" unicode="e" horiz-adv-x="417" 
d="M372 227l16 -10q-24 -78 -84.5 -153.5t-126.5 -75.5q-69 0 -108.5 51.5t-39.5 148.5q0 72 30 144.5t83 121.5t112 49q43 0 73.5 -25.5t41 -50t10.5 -39.5l-220 -189q7 -63 26 -101.5t46 -38.5q20 0 42 17.5t39 42t31 49t21 42.5zM157 223l115 109q-2 46 -16.5 82
t-29.5 49.5t-22 8.5q-49 -30 -49 -204q0 -17 2 -45z" />
    <glyph glyph-name="f" unicode="f" horiz-adv-x="370" 
d="M383 570l-147 76q-21 0 -31.5 -49.5t4.5 -106.5h161v-24l-161 -30v-180q0 -129 -12.5 -203t-42.5 -155t-42 -127h-8l-10 431v225l-70 63h75q0 41 61 113.5t147 91.5l41 9l38 -131z" />
    <glyph glyph-name="g" unicode="g" horiz-adv-x="492" 
d="M159 0l-74 -11q-23 16 -40 65.5t-17 108.5q0 142 85 233t238 94h114l-38 -55q-1 -52 -1.5 -157t-0.5 -157v-8h1l-2 -26v-12q0 -79 -50 -152t-121 -114.5t-136 -41.5h-6l-111 136l6 7q41 -34 100.5 -58.5t92.5 -24.5q53 0 81.5 43t29.5 155v232l12 116q-45 -182 -163 -373
zM175 77q10 0 43 73t63.5 167.5t30.5 143.5q-48 0 -81.5 -23.5t-49.5 -62t-22.5 -77t-6.5 -81.5q0 -140 23 -140z" />
    <glyph glyph-name="h" unicode="h" horiz-adv-x="533" 
d="M187 710v-542q26 97 70.5 193.5t67.5 128.5l98 25q19 -59 23.5 -108.5t4.5 -204.5v-116l74 -86h-189v144q0 194 -20 265l-8 1q-46 -91 -83.5 -191.5t-37.5 -157.5l15 -61h-130v576l-68 77z" />
    <glyph glyph-name="i" unicode="i" horiz-adv-x="274" 
d="M215 639l-83 -93l-84 93l84 92zM195 86l74 -86h-189v356l-68 77l183 67v-414z" />
    <glyph glyph-name="j" unicode="j" horiz-adv-x="283" 
d="M236 639l-81 -93l-82 93l82 92zM215 500v-494q0 -116 -130 -231l-6 3q22 29 22 159v419l-65 77z" />
    <glyph glyph-name="k" unicode="k" horiz-adv-x="532" 
d="M195 710v-559q59 144 210 352l7 1l75 -167l-5 -2l-128 44q-9 -15 -31.5 -48t-26.5 -40q14 -19 56.5 -78.5t77.5 -106t56 -70.5l42 -46l-2 -2q-104 6 -150 35q-33 31 -78 91.5t-60 77.5q-43 -83 -43 -131l22 -61h-137v576l-68 77z" />
    <glyph glyph-name="l" unicode="l" horiz-adv-x="274" 
d="M80 576l-68 77l183 57v-624l74 -86h-189v440l-68 77l68 29v30z" />
    <glyph glyph-name="m" unicode="m" horiz-adv-x="806" 
d="M193 500v-332q26 97 70.5 193.5t67.5 128.5l98 25q19 -59 23.5 -108.5t4.5 -204.5v-30q26 97 70 191.5t67 126.5l98 25q19 -59 23.5 -108.5t4.5 -204.5v-116l74 -83h-189v141q0 206 -23 275q-43 -81 -81 -179t-44 -160v-23l14 -57h-129v144q0 194 -20 265l-8 1
q-46 -91 -83.5 -191.5t-37.5 -157.5l15 -61h-130v356l-68 77z" />
    <glyph glyph-name="n" unicode="n" horiz-adv-x="543" 
d="M193 500v-332q26 97 70.5 193.5t67.5 128.5l98 25q19 -59 23.5 -108.5t4.5 -204.5v-116l74 -86h-189v144q0 194 -20 265l-8 1q-46 -91 -83.5 -191.5t-37.5 -157.5l15 -61h-130v356l-68 77z" />
    <glyph glyph-name="o" unicode="o" horiz-adv-x="501" 
d="M29 199q0 123 69 213t173 90q93 0 147 -58.5t54 -158.5q0 -118 -76.5 -208.5t-177.5 -90.5q-83 0 -136 57t-53 156zM232 470q-77 0 -77 -204q0 -59 10.5 -108t26 -78t31.5 -45t28 -16t26.5 12t29 36t24 69.5t9.5 103.5q0 62 -12.5 109.5t-30.5 72t-35 36.5t-30 12z" />
    <glyph glyph-name="p" unicode="p" horiz-adv-x="508" 
d="M311 490l99 18q27 -41 46.5 -105t19.5 -132q0 -107 -75.5 -200t-205.5 -110v-120l74 -56h-213l24 66v520l-68 77l183 57v-331q43 169 116 316zM195 50v-63q47 0 80 23t48.5 61t22 73t6.5 73q0 50 -8.5 93.5t-19.5 66t-20 22.5q-16 0 -62.5 -140.5t-46.5 -208.5z" />
    <glyph glyph-name="q" unicode="q" 
d="M166 0l-74 -11q-24 17 -43.5 66.5t-19.5 107.5q0 141 87.5 232.5t241.5 94.5h76v-628l68 -77h-218l35 60l-2 155v257l12 116q-45 -182 -163 -373zM182 77q10 0 43 73t63.5 167.5t30.5 143.5q-48 0 -82 -23.5t-51.5 -62t-25 -77.5t-7.5 -81q0 -46 5 -79t11 -47t13 -14z
" />
    <glyph glyph-name="r" unicode="r" horiz-adv-x="409" 
d="M418 335l-132 36q-8 -3 -31.5 -58t-45.5 -130.5t-22 -121.5l8 -61h-123v356l-68 77l183 67v-318q52 201 137 322h13l84 -165z" />
    <glyph glyph-name="s" unicode="s" horiz-adv-x="343" 
d="M290 342l-6 -1q-29 46 -64.5 73.5t-67.5 27.5q-20 0 -27.5 -9t-7.5 -29q0 -23 31.5 -54.5t68.5 -59t68.5 -66t31.5 -74.5q0 -57 -48 -103.5t-137 -46.5h-82l-24 170l3 9q47 -69 85 -105t78 -36q46 0 46 40q0 33 -31 66.5t-67.5 58t-67.5 60.5t-31 72q0 58 47.5 106.5
t125.5 48.5h71z" />
    <glyph glyph-name="t" unicode="t" horiz-adv-x="364" 
d="M344 479l-159 -51v-250q0 -52 7 -78.5t15.5 -32t24.5 -5.5q23 0 52 43.5t46 94.5l11 -4q-21 -85 -67 -146.5t-92 -61.5q-19 0 -33.5 4t-35 18t-32 49t-12.5 88v284l-68 59h71l113 170v-170h159v-11z" />
    <glyph glyph-name="u" unicode="u" horiz-adv-x="522" 
d="M326 0v322q-26 -97 -70.5 -193.5t-67.5 -128.5l-90 -8q-19 101 -19 171v241l-74 86l189 20v-164q0 -203 7 -273q46 90 85.5 194t39.5 162l-15 61h130v-413l68 -77h-183z" />
    <glyph glyph-name="v" unicode="v" horiz-adv-x="435" 
d="M292 490h143q-5 -64 -26 -141t-55 -152.5t-85.5 -134.5t-109.5 -77l-66 373l-93 69l180 95l76 -439q38 36 65 93.5t37 110.5t8.5 95t-14.5 53l-60 49v6z" />
    <glyph glyph-name="w" unicode="w" horiz-adv-x="707" 
d="M564 490h143q-5 -64 -26 -141t-55 -152.5t-85.5 -134.5t-109.5 -77l-49 278q-39 -104 -96 -180t-127 -98l-66 373l-93 69l180 95l75 -440l-1 -4q51 48 81 125.5t31 147.5q-3 14 -6.5 30t-10 47t-13.5 62h120l71 -408l-1 -4q38 34 65.5 92.5t38 112.5t9 97.5t-14.5 54.5
l-60 49v6z" />
    <glyph glyph-name="x" unicode="x" horiz-adv-x="541" 
d="M351 0l-129 213q-1 -2 -11 -15t-12.5 -16.5t-11.5 -16t-12.5 -19t-10.5 -18t-10 -19l-7 -17.5t-5.5 -19t-1.5 -18l60 -55h-152q7 19 20 43t24 41.5t31.5 45t29 39t31 39t23.5 29.5l-114 190l-73 63h168l114 -196q3 4 14 19t15.5 22t13.5 22t13 25.5t7.5 25t3.5 27.5
l-65 55h143q-34 -94 -131 -220l119 -205l84 -65h-168z" />
    <glyph glyph-name="y" unicode="y" horiz-adv-x="516" 
d="M339 25v226q-86 -225 -215 -266l-37 426l-82 79h185l32 -405q47 44 76 121.5t35.5 127.5t6.5 86v70h113v-415q0 -79 -50 -152t-121 -114.5t-136 -41.5h-6l-111 136l6 7q41 -34 100.5 -58.5t92.5 -24.5q53 0 81.5 43t29.5 155z" />
    <glyph glyph-name="z" unicode="z" horiz-adv-x="425" 
d="M412 490l-232 -328q58 41 120 41q58 0 86.5 -32.5t28.5 -85.5q0 -72 -36.5 -143t-103.5 -119t-145 -48q-70 0 -126 46l12 18q21 -15 31.5 -22t34.5 -14.5t50 -7.5q33 0 64.5 10t59 29.5t44.5 53.5t17 77q0 56 -25 91.5t-72 35.5q-93 0 -124 -42l-48 -62h-25l280 391h-203
l-61 -103l-6 -1l19 223l47 -8h313z" />
    <glyph glyph-name="braceleft" unicode="{" horiz-adv-x="296" 
d="M55 284v-4q2 -2 19 -10.5t32.5 -19.5t33 -28.5t28 -45t10.5 -61.5q0 -23 -9.5 -59t-9.5 -72q0 -125 79 -125v-21q-75 0 -114 37t-39 121q0 20 10 69.5t10 74.5q0 68 -48 108q-15 11 -40 19v30q25 8 40 19q48 40 48 108q0 25 -10 74.5t-10 69.5q0 85 39 121.5t115 36.5
v-21q-80 0 -80 -125q0 -36 9.5 -72t9.5 -59q0 -34 -10.5 -61.5t-28 -45t-33 -28.5t-32.5 -19.5t-19 -10.5z" />
    <glyph glyph-name="bar" unicode="|" horiz-adv-x="323" 
d="M99 700h89v-850h-89v850z" />
    <glyph glyph-name="braceright" unicode="}" horiz-adv-x="296" 
d="M209 280v4q-2 2 -19 10.5t-32.5 19.5t-33 28.5t-28 45t-10.5 61.5q0 23 9.5 59t9.5 72q0 125 -79 125v21q75 0 114 -37t39 -121q0 -20 -10 -69.5t-10 -74.5q0 -68 48 -108q15 -11 40 -19v-30q-25 -8 -40 -19q-48 -40 -48 -108q0 -25 10 -74.5t10 -69.5q0 -85 -39 -121.5
t-115 -36.5v21q80 0 80 125q0 36 -9.5 72t-9.5 59q0 34 10.5 61.5t28 45t33 28.5t32.5 19.5t19 10.5z" />
    <glyph glyph-name="asciitilde" unicode="~" horiz-adv-x="399" 
d="M330 580l-59 -103l-148 13l-40 -43l-14 9l63 109l139 -13l44 34z" />
    <glyph glyph-name="uni00A0" unicode="&#xa0;" horiz-adv-x="200" 
 />
    <glyph glyph-name="exclamdown" unicode="&#xa1;" horiz-adv-x="217" 
d="M27 411l81 92l82 -92l-82 -93zM130 257l47 -437l-64 -46l-63 46l46 437h34z" />
    <glyph glyph-name="cent" unicode="&#xa2;" horiz-adv-x="448" 
d="M409 414h-5q-46 71 -106 92l-43 -335q15 -4 34 -4q47 0 84.5 29.5t48.5 60.5l11 -4q-8 -32 -23.5 -63.5t-38.5 -62.5t-57.5 -52.5t-74.5 -25.5l-14 -107h-36l10 107q-83 9 -128.5 77t-45.5 159q0 40 12.5 81.5t37.5 79.5t69.5 65.5t100.5 35.5l10 102h62l-13 -99h105
v-136zM212 189l30 326q-54 -3 -78 -42t-24 -97q0 -139 72 -187z" />
    <glyph glyph-name="currency" unicode="&#xa4;" horiz-adv-x="466" 
d="M80 490l65 -62q40 29 88 29q46 0 86 -28l64 61l30 -32l-62 -59q30 -39 30 -90t-31 -92l63 -60l-30 -32l-65 62q-37 -26 -85 -26q-47 0 -87 27l-66 -63l-30 32l65 62q-30 39 -30 90q0 49 29 88l-64 61zM127 309q0 -44 31 -75t75 -31t75.5 31t31.5 75t-31.5 75t-75.5 31
t-75 -31t-31 -75z" />
    <glyph glyph-name="dieresis" unicode="&#xa8;" horiz-adv-x="411" 
d="M174 622l-61 -77l-62 77l62 76zM359 622l-61 -77l-62 77l62 76z" />
    <glyph glyph-name="guillemotleft" unicode="&#xab;" horiz-adv-x="512" 
d="M289 28l-10 -10l-235 228l235 228l10 -17l-192 -211h85zM499 28l-9 -10l-236 228l236 228l9 -17l-191 -211h84z" />
    <glyph glyph-name="softhyphen" unicode="&#xad;" horiz-adv-x="446" 
d="M26 309h394v-66h-394v66z" />
    <glyph glyph-name="macron" unicode="&#xaf;" horiz-adv-x="330" 
d="M60 640h220v-39h-220v39z" />
    <glyph glyph-name="twosuperior" unicode="&#xb2;" horiz-adv-x="361" 
d="M38 432l-5 21q26 20 53 45t58.5 61.5t51.5 80t20 84.5q0 30 -19.5 48t-53.5 18t-57 -22.5t-41 -67.5h-3v110h91q73 0 124 -25.5t51 -72.5q0 -40 -31.5 -75.5t-82.5 -72.5t-70 -58l2 -3l32 3l137 2l39 77h2l-14 -153h-284z" />
    <glyph glyph-name="threesuperior" unicode="&#xb3;" horiz-adv-x="340" 
d="M40 416l-5 19q39 0 76.5 7.5t68.5 28.5t31 52q0 39 -29.5 59t-82.5 29q-3 0 -10 -1.5t-11 -2.5l-2 11l23 7q23 8 30.5 10.5t30 13t32.5 19t19.5 22.5t9.5 29q0 30 -22.5 48t-59.5 18q-34 0 -53.5 -22.5t-38.5 -65.5h-3v108h104q164 0 164 -77q0 -31 -36.5 -54.5
t-113.5 -44.5q156 -12 156 -84q0 -32 -33 -58.5t-80 -41t-91 -22t-74 -7.5z" />
    <glyph glyph-name="acute" unicode="&#xb4;" horiz-adv-x="204" 
d="M51 681h120l-123 -129h-15z" />
    <glyph glyph-name="paragraph" unicode="&#xb6;" horiz-adv-x="583" 
d="M264 271l4 43q-25 -11 -55 -11q-78 0 -134.5 52.5t-56.5 134.5q0 195 242 195l1 -1h39v1h138v-2h87l-69 -77v-606h-66v641h-64v-617q0 -49 -28 -85t-52 -41l-3 2q17 35 17 91v280z" />
    <glyph glyph-name="periodcentered" unicode="&#xb7;" horiz-adv-x="181" 
d="M172 263l-81 -92l-82 92l82 93z" />
    <glyph glyph-name="cedilla" unicode="&#xb8;" horiz-adv-x="249" 
d="M135 8l-21 -42q95 -22 95 -62q0 -27 -29.5 -48.5t-66.5 -21.5q-40 0 -75 29l9 13q32 -24 70 -24q21 0 34 7t13 19q0 25 -87 45q-12 3 -19 5l51 80h26z" />
    <glyph glyph-name="onesuperior" unicode="&#xb9;" horiz-adv-x="329" 
d="M213 814v-346l64 -42h-203l59 42v228l-65 -23l-1 1z" />
    <glyph glyph-name="guillemotright" unicode="&#xbb;" horiz-adv-x="512" 
d="M19 464l9 10l236 -228l-236 -228l-9 17l191 211h-84zM229 464l10 10l235 -228l-235 -228l-10 17l192 211h-85z" />
    <glyph glyph-name="onequarter" unicode="&#xbc;" horiz-adv-x="745" 
d="M149 -33l429 752h44l-430 -752h-43zM213 685v-346l64 -42h-203l59 42v228l-65 -23l-1 1zM724 94h-87v-52l64 -42h-203l59 42v53h-164l162 284h97l-190 -255h94v51l81 113v-165h87v-29z" />
    <glyph glyph-name="onehalf" unicode="&#xbd;" horiz-adv-x="782" 
d="M108 -33l429 752h44l-430 -752h-43zM198 685v-346l64 -42h-203l59 42v228l-65 -23l-1 1zM431 0l-5 21q26 20 53 45t58.5 61.5t51.5 80t20 84.5q0 30 -19.5 48t-53.5 18t-57 -22.5t-41 -67.5h-3v110h91q73 0 124 -25.5t51 -72.5q0 -40 -31.5 -75.5t-82.5 -72.5t-70 -58
l2 -3l32 3l137 2l39 77h2l-14 -153h-284z" />
    <glyph glyph-name="threequarters" unicode="&#xbe;" horiz-adv-x="807" 
d="M184 -33l429 752h44l-430 -752h-43zM55 296l-5 19q39 0 76.5 7.5t68.5 28.5t31 52q0 39 -29.5 59t-82.5 29q-3 0 -10 -1.5t-11 -2.5l-2 11l23 7q23 8 30.5 10.5t30 13t32.5 19t19.5 22.5t9.5 29q0 30 -22.5 48t-59.5 18q-34 0 -53.5 -22.5t-38.5 -65.5h-3v108h104
q164 0 164 -77q0 -31 -36.5 -54.5t-113.5 -44.5q156 -12 156 -84q0 -32 -33 -58.5t-80 -41t-91 -22t-74 -7.5zM759 94h-87v-52l64 -42h-203l59 42v53h-164l162 284h97l-190 -255h94v51l81 113v-165h87v-29z" />
    <glyph glyph-name="questiondown" unicode="&#xbf;" horiz-adv-x="504" 
d="M333 316l-81 93l81 92l81 -92zM451 -220h-82q-60 0 -105.5 5.5t-91.5 20.5t-71.5 47.5t-25.5 81.5q0 37 17.5 68t49 53.5t59 37.5t64 31t47.5 22l11 108h23l17 -122q-65 -23 -104 -73t-39 -103q0 -140 74 -140q51 0 79.5 35t46.5 98l8 1z" />
    <glyph glyph-name="Agrave" unicode="&#xc0;" horiz-adv-x="730" 
d="M356 869l12 -129h-14l-123 129h125zM240 0h-211l68 79l242 616h44l258 -628l71 -67h-293l87 69l-58 145h-247l-52 -136zM216 254h217l-111 279z" />
    <glyph glyph-name="Aacute" unicode="&#xc1;" horiz-adv-x="730" 
d="M360 869h124l-123 -129h-14zM240 0h-211l68 79l242 616h44l258 -628l71 -67h-293l87 69l-58 145h-247l-52 -136zM216 254h217l-111 279z" />
    <glyph glyph-name="Acircumflex" unicode="&#xc2;" horiz-adv-x="730" 
d="M401 869l60 -129h-14l-85 70l-84 -70h-15l59 129h79zM240 0h-211l68 79l242 616h44l258 -628l71 -67h-293l87 69l-58 145h-247l-52 -136zM216 254h217l-111 279z" />
    <glyph glyph-name="Atilde" unicode="&#xc3;" horiz-adv-x="727" 
d="M484 868l-56 -101q-129 11 -147 11q-15 0 -38 -43l-13 9l60 107q121 -11 138 -11q15 0 42 34zM441 214h-247l-52 -136l91 -78h-211l68 79l242 616h44l258 -628l71 -67h-293l87 69zM424 259l-109 274l-104 -274h213z" />
    <glyph glyph-name="Adieresis" unicode="&#xc4;" horiz-adv-x="730" 
d="M316 830l-74 -88l-73 88l73 87zM538 830l-73 -88l-74 88l74 87zM240 0h-211l68 79l242 616h44l258 -628l71 -67h-293l87 69l-58 145h-247l-52 -136zM216 254h217l-111 279z" />
    <glyph glyph-name="Aring" unicode="&#xc5;" horiz-adv-x="730" 
d="M267 829q0 41 27.5 69.5t66.5 28.5q38 0 65.5 -29t27.5 -69t-27.5 -69t-65.5 -29q-39 0 -66.5 28.5t-27.5 69.5zM300 829q0 -26 18 -45t43 -19t42.5 19t17.5 45t-17.5 45t-42.5 19t-43 -19t-18 -45zM240 0h-211l68 79l242 616h44l258 -628l71 -67h-293l87 69l-58 145
h-247l-52 -136zM216 254h217l-111 279z" />
    <glyph glyph-name="AE" unicode="&#xc6;" horiz-adv-x="910" 
d="M433 106v108h-215l-77 -138l79 -76h-199l72 85l306 540l-73 61h188l-1 -1h322v-210h-5l-117 174h-156v-277h260v-40h-260v-296h165l137 183l5 -2l-11 -217h-477zM417 575l-177 -321h193v344l-3 3z" />
    <glyph glyph-name="Ccedilla" unicode="&#xc7;" horiz-adv-x="651" 
d="M588 221l14 -10q-36 -90 -102 -154t-160 -69l-11 -22q3 -1 13 -5t16 -6.5t16 -7t16 -9t12.5 -10t9.5 -11.5t3 -13q0 -35 -28 -55t-66 -20q-41 0 -78 34l11 18q28 -28 69 -28q20 0 34.5 6.5t14.5 16.5q0 14 -14 22t-51 15t-39 8v3l43 64q-121 7 -191.5 97t-70.5 234
q0 68 24 132.5t67.5 117t112.5 84.5t152 32h149v-203h-6q-73 162 -202 162q-79 0 -119 -66t-40 -172q0 -133 51 -217t147 -84q132 0 203 116z" />
    <glyph glyph-name="Egrave" unicode="&#xc8;" horiz-adv-x="592" 
d="M327 869l13 -129h-14l-123 129h124zM389 649h-156v-277h260v-40h-260v-296h165l137 183l5 -2l-11 -217h-477l57 106v475l-57 104h459v-210h-5z" />
    <glyph glyph-name="Eacute" unicode="&#xc9;" horiz-adv-x="592" 
d="M272 869h125l-123 -129h-14zM389 649h-156v-277h260v-40h-260v-296h165l137 183l5 -2l-11 -217h-477l57 106v475l-57 104h459v-210h-5z" />
    <glyph glyph-name="Ecircumflex" unicode="&#xca;" horiz-adv-x="592" 
d="M342 869l60 -129h-15l-84 70l-85 -70h-14l59 129h79zM389 649h-156v-277h260v-40h-260v-296h165l137 183l5 -2l-11 -217h-477l57 106v475l-57 104h459v-210h-5z" />
    <glyph glyph-name="Edieresis" unicode="&#xcb;" horiz-adv-x="592" 
d="M266 829l-73 -88l-74 88l74 87zM488 829l-72 -88l-74 88l74 87zM389 649h-156v-277h260v-40h-260v-296h165l137 183l5 -2l-11 -217h-477l57 106v475l-57 104h459v-210h-5z" />
    <glyph glyph-name="Igrave" unicode="&#xcc;" horiz-adv-x="358" 
d="M204 869l12 -129h-14l-123 129h125zM117 106v473l-70 106h264l-70 -106v-473l70 -106h-264z" />
    <glyph glyph-name="Iacute" unicode="&#xcd;" horiz-adv-x="358" 
d="M155 869h125l-123 -129h-14zM117 106v473l-70 106h264l-70 -106v-473l70 -106h-264z" />
    <glyph glyph-name="Icircumflex" unicode="&#xce;" horiz-adv-x="358" 
d="M221 869l60 -129h-14l-85 70l-85 -70h-14l59 129h79zM117 106v473l-70 106h264l-70 -106v-473l70 -106h-264z" />
    <glyph glyph-name="Idieresis" unicode="&#xcf;" horiz-adv-x="446" 
d="M186 830l-74 -88l-73 88l73 87zM407 830l-73 -88l-74 88l74 87zM161 106v473l-70 106h264l-70 -106v-473l70 -106h-264z" />
    <glyph glyph-name="Eth" unicode="&#xd0;" horiz-adv-x="708" 
d="M40 685h254q83 0 148 -18t104.5 -47.5t65.5 -70t36 -81.5t10 -86q0 -180 -101.5 -281t-278.5 -101h-238l71 106v222h-71v50h71v201zM235 38h60q229 0 229 306q0 309 -223 309h-66v-275h139v-50h-139v-290z" />
    <glyph glyph-name="Ntilde" unicode="&#xd1;" horiz-adv-x="756" 
d="M504 836l-56 -101q-126 11 -146 11q-14 0 -39 -43l-13 9l60 107q121 -11 138 -11t42 34zM527 0l-349 489v-403l81 -86h-196l70 93v465l-92 127h157l390 -571v485l-82 86h198l-70 -93v-534l41 -58h-148z" />
    <glyph glyph-name="Ograve" unicode="&#xd2;" horiz-adv-x="738" 
d="M340 869l13 -129h-14l-123 129h124zM687 373q0 -103 -39 -189t-121 -141t-194 -55q-84 0 -150 47.5t-99 121t-33 156.5q0 103 39 189t121 141t194 55q84 0 150 -47.5t99 -121t33 -156.5zM338 655q-45 0 -77.5 -22.5t-47.5 -59.5t-21 -70.5t-6 -68.5q0 -105 24.5 -196
t74.5 -149.5t115 -58.5q41 0 72.5 23t48 59t25 71.5t8.5 68.5q0 105 -25 195.5t-75.5 149t-115.5 58.5z" />
    <glyph glyph-name="Oacute" unicode="&#xd3;" horiz-adv-x="738" 
d="M345 869h125l-123 -129h-14zM687 373q0 -103 -39 -189t-121 -141t-194 -55q-84 0 -150 47.5t-99 121t-33 156.5q0 103 39 189t121 141t194 55q84 0 150 -47.5t99 -121t33 -156.5zM338 655q-45 0 -77.5 -22.5t-47.5 -59.5t-21 -70.5t-6 -68.5q0 -105 24.5 -196
t74.5 -149.5t115 -58.5q41 0 72.5 23t48 59t25 71.5t8.5 68.5q0 105 -25 195.5t-75.5 149t-115.5 58.5z" />
    <glyph glyph-name="Ocircumflex" unicode="&#xd4;" horiz-adv-x="738" 
d="M406 869l60 -129h-14l-85 70l-85 -70h-14l59 129h79zM687 373q0 -103 -39 -189t-121 -141t-194 -55q-84 0 -150 47.5t-99 121t-33 156.5q0 103 39 189t121 141t194 55q84 0 150 -47.5t99 -121t33 -156.5zM338 655q-45 0 -77.5 -22.5t-47.5 -59.5t-21 -70.5t-6 -68.5
q0 -105 24.5 -196t74.5 -149.5t115 -58.5q41 0 72.5 23t48 59t25 71.5t8.5 68.5q0 105 -25 195.5t-75.5 149t-115.5 58.5z" />
    <glyph glyph-name="Otilde" unicode="&#xd5;" horiz-adv-x="738" 
d="M229 739l60 107q121 -11 138 -11t42 34l14 -6l-56 -101q-129 11 -147 11q-13 0 -38 -43zM687 373q0 -103 -39 -189t-121 -141t-194 -55q-84 0 -150 47.5t-99 121t-33 156.5q0 103 39 189t121 141t194 55q84 0 150 -47.5t99 -121t33 -156.5zM338 655q-45 0 -77.5 -22.5
t-47.5 -59.5t-21 -70.5t-6 -68.5q0 -105 24.5 -196t74.5 -149.5t115 -58.5q41 0 72.5 23t48 59t25 71.5t8.5 68.5q0 105 -25 195.5t-75.5 149t-115.5 58.5z" />
    <glyph glyph-name="Odieresis" unicode="&#xd6;" horiz-adv-x="738" 
d="M327 828l-72 -88l-75 88l75 87zM550 828l-72 -88l-75 88l75 87zM687 373q0 -103 -39 -189t-121 -141t-194 -55q-84 0 -150 47.5t-99 121t-33 156.5q0 103 39 189t121 141t194 55q84 0 150 -47.5t99 -121t33 -156.5zM338 655q-45 0 -77.5 -22.5t-47.5 -59.5t-21 -70.5
t-6 -68.5q0 -105 24.5 -196t74.5 -149.5t115 -58.5q41 0 72.5 23t48 59t25 71.5t8.5 68.5q0 105 -25 195.5t-75.5 149t-115.5 58.5z" />
    <glyph glyph-name="multiply" unicode="&#xd7;" horiz-adv-x="393" 
d="M320 73l-123 129l-124 -130l-51 57l122 128l-113 119l51 51l112 -118l117 123l51 -57l-115 -121l124 -130z" />
    <glyph glyph-name="Oslash" unicode="&#xd8;" horiz-adv-x="752" 
d="M706 690l-82 -96q73 -93 73 -221q0 -103 -39 -189t-121 -141t-194 -55q-105 0 -178 70l-55 -63h-64l86 100q-71 93 -71 218q0 103 39 189t121 141t194 55q102 0 175 -68l52 60h64zM230 209l276 322q-63 124 -159 124q-45 0 -77 -22.5t-47 -59t-21 -70.5t-6 -69
q0 -126 34 -225zM526 481l-276 -322q61 -129 160 -129q41 0 72.5 23t48 59t25 71.5t8.5 68.5q0 127 -38 229z" />
    <glyph glyph-name="Ugrave" unicode="&#xd9;" horiz-adv-x="763" 
d="M437 869l13 -129h-15l-122 129h124zM251 579v-343q0 -54 10.5 -92t26 -59.5t41 -33.5t48.5 -15t55 -3q163 0 163 268v294l-73 90h190l-71 -90v-318q0 -65 -8.5 -102t-30.5 -79q-26 -51 -80 -81t-126 -30q-270 0 -270 236v359l-70 105h265z" />
    <glyph glyph-name="Uacute" unicode="&#xda;" horiz-adv-x="763" 
d="M395 869h125l-123 -129h-14zM251 579v-343q0 -54 10.5 -92t26 -59.5t41 -33.5t48.5 -15t55 -3q163 0 163 268v294l-73 90h190l-71 -90v-318q0 -65 -8.5 -102t-30.5 -79q-26 -51 -80 -81t-126 -30q-270 0 -270 236v359l-70 105h265z" />
    <glyph glyph-name="Ucircumflex" unicode="&#xdb;" horiz-adv-x="763" 
d="M451 869l60 -129h-15l-84 70l-85 -70h-14l59 129h79zM251 579v-343q0 -54 10.5 -92t26 -59.5t41 -33.5t48.5 -15t55 -3q163 0 163 268v294l-73 90h190l-71 -90v-318q0 -65 -8.5 -102t-30.5 -79q-26 -51 -80 -81t-126 -30q-270 0 -270 236v359l-70 105h265z" />
    <glyph glyph-name="Udieresis" unicode="&#xdc;" horiz-adv-x="763" 
d="M384 828l-77 -92l-77 92l77 91zM617 828l-76 -92l-78 92l78 91zM251 579v-343q0 -54 10.5 -92t26 -59.5t41 -33.5t48.5 -15t55 -3q163 0 163 268v294l-73 90h190l-71 -90v-318q0 -65 -8.5 -102t-30.5 -79q-26 -51 -80 -81t-126 -30q-270 0 -270 236v359l-70 105h265z" />
    <glyph glyph-name="Yacute" unicode="&#xdd;" horiz-adv-x="689" 
d="M487 869l-123 -129h-14l12 129h125zM282 101v180l-169 298l-87 106h306l-81 -106h-1l112 -189l15 -33l125 224l-81 104h242l-98 -94l-159 -273v-217l80 -101h-284z" />
    <glyph glyph-name="Thorn" unicode="&#xde;" horiz-adv-x="605" 
d="M247 558h34q26 0 54 -3t68 -14t70 -29.5t51.5 -54t21.5 -82.5q0 -86 -64 -140t-148 -65q-42 -7 -87 -7v-57l85 -106h-280l71 106v473l-71 106h265l-70 -106v-21zM247 528v-331q79 0 121 41.5t42 124.5q0 82 -42.5 123.5t-120.5 41.5z" />
    <glyph glyph-name="germandbls" unicode="&#xdf;" horiz-adv-x="584" 
d="M30 490h75q0 73 70.5 138.5t152.5 65.5q124 0 124 -119q0 -31 -18 -65t-36.5 -55.5t-47.5 -50.5q181 -132 181 -254q0 -57 -48 -103.5t-136 -46.5h-72l10 125h3q15 -37 46 -62t72 -25q46 0 46 50q0 31 -16.5 64t-49.5 67.5t-55.5 55t-62.5 53.5q59 74 84 119.5t25 95.5
q0 57 -24 90t-57 33q-54 0 -76 -57t-5 -119v-234q0 -129 -12.5 -203t-42.5 -155t-42 -127h-8l-10 431v225z" />
    <glyph glyph-name="agrave" unicode="&#xe0;" 
d="M284 681l18 -129h-15l-123 129h120zM160 0l-74 -11q-23 16 -40 65.5t-17 108.5q0 143 85 233.5t238 93.5h114l-38 -54v-350l74 -86h-191v257l12 116q-45 -182 -163 -373zM176 77q10 0 43 73t63.5 167.5t30.5 143.5q-48 0 -81.5 -23.5t-49.5 -62t-22.5 -77t-6.5 -81.5
q0 -140 23 -140z" />
    <glyph glyph-name="aacute" unicode="&#xe1;" 
d="M284 681h120l-123 -129h-15zM160 0l-74 -11q-23 16 -40 65.5t-17 108.5q0 143 85 233.5t238 93.5h114l-38 -54v-350l74 -86h-191v257l12 116q-45 -182 -163 -373zM176 77q10 0 43 73t63.5 167.5t30.5 143.5q-48 0 -81.5 -23.5t-49.5 -62t-22.5 -77t-6.5 -81.5
q0 -140 23 -140z" />
    <glyph glyph-name="acircumflex" unicode="&#xe2;" 
d="M322 681l49 -129l-15 3l-75 67l-75 -67l-15 -3l49 129h82zM160 0l-74 -11q-23 16 -40 65.5t-17 108.5q0 143 85 233.5t238 93.5h114l-38 -54v-350l74 -86h-191v257l12 116q-45 -182 -163 -373zM176 77q10 0 43 73t63.5 167.5t30.5 143.5q-48 0 -81.5 -23.5t-49.5 -62
t-22.5 -77t-6.5 -81.5q0 -140 23 -140z" />
    <glyph glyph-name="atilde" unicode="&#xe3;" 
d="M167 572l60 109q7 -1 57 -7t76 -6q15 0 42 34l14 -6l-56 -103q-8 1 -61 7t-80 6q-15 0 -38 -43zM160 0l-74 -11q-23 16 -40 65.5t-17 108.5q0 143 85 233.5t238 93.5h114l-38 -54v-350l74 -86h-191v257l12 116q-45 -182 -163 -373zM176 77q10 0 43 73t63.5 167.5
t30.5 143.5q-48 0 -81.5 -23.5t-49.5 -62t-22.5 -77t-6.5 -81.5q0 -140 23 -140z" />
    <glyph glyph-name="adieresis" unicode="&#xe4;" 
d="M250 622l-61 -77l-62 77l62 76zM435 622l-61 -77l-62 77l62 76zM160 0l-74 -11q-23 16 -40 65.5t-17 108.5q0 143 85 233.5t238 93.5h114l-38 -54v-350l74 -86h-191v257l12 116q-45 -182 -163 -373zM176 77q10 0 43 73t63.5 167.5t30.5 143.5q-48 0 -81.5 -23.5
t-49.5 -62t-22.5 -77t-6.5 -81.5q0 -140 23 -140z" />
    <glyph glyph-name="aring" unicode="&#xe5;" 
d="M203 628q0 34 23 58t55 24t55 -24t23 -58t-23 -58t-55 -24t-55 24t-23 58zM231 628q0 -22 14.5 -37.5t35.5 -15.5t35.5 15.5t14.5 37.5t-14.5 37.5t-35.5 15.5t-35.5 -15.5t-14.5 -37.5zM160 0l-74 -11q-23 16 -40 65.5t-17 108.5q0 143 85 233.5t238 93.5h114l-38 -54
v-350l74 -86h-191v257l12 116q-45 -182 -163 -373zM176 77q10 0 43 73t63.5 167.5t30.5 143.5q-48 0 -81.5 -23.5t-49.5 -62t-22.5 -77t-6.5 -81.5q0 -140 23 -140z" />
    <glyph glyph-name="ae" unicode="&#xe6;" horiz-adv-x="642" 
d="M594 227l16 -10q-24 -78 -84.5 -153.5t-126.5 -75.5q-69 0 -108.5 51.5t-39.5 148.5v2q-41 -95 -100 -190l-74 -11q-23 16 -40 65.5t-17 108.5q0 148 100.5 237.5t318.5 98.5q43 10 77 -2t51 -35t25.5 -43t8.5 -31l-220 -189q7 -63 26 -101.5t46 -38.5q20 0 42 17.5
t39 42t31 49t21 42.5zM379 223l115 109q-2 46 -16.5 82t-29.5 49.5t-22 8.5q-49 -30 -49 -204q0 -17 2 -45zM167 77q10 0 43 73t63.5 167.5t30.5 143.5q-48 0 -81.5 -23.5t-49.5 -62t-22.5 -77t-6.5 -81.5q0 -140 23 -140z" />
    <glyph glyph-name="ccedilla" unicode="&#xe7;" horiz-adv-x="381" 
d="M357 228l16 -10q-34 -98 -86 -158t-97 -70l-17 -35q95 -22 95 -62q0 -27 -29.5 -48.5t-66.5 -21.5q-40 0 -75 29l9 13q32 -24 70 -24q21 0 34 7t13 19q0 25 -87 45q-12 3 -19 5l46 72q-61 5 -97.5 54t-36.5 140q0 110 74.5 203.5t169.5 117.5h10l70 -140l-3 -4l-159 67
q-14 0 -25 -53t-11 -105q0 -98 18 -154t51 -56q26 0 62.5 46t70.5 123z" />
    <glyph glyph-name="egrave" unicode="&#xe8;" horiz-adv-x="417" 
d="M217 701l18 -129h-15l-123 129h120zM372 227l16 -10q-24 -78 -84.5 -153.5t-126.5 -75.5q-69 0 -108.5 51.5t-39.5 148.5q0 72 30 144.5t83 121.5t112 49q43 0 73.5 -25.5t41 -50t10.5 -39.5l-220 -189q7 -63 26 -101.5t46 -38.5q20 0 42 17.5t39 42t31 49t21 42.5z
M157 223l115 109q-2 46 -16.5 82t-29.5 49.5t-22 8.5q-49 -30 -49 -204q0 -17 2 -45z" />
    <glyph glyph-name="eacute" unicode="&#xe9;" horiz-adv-x="417" 
d="M217 701h120l-123 -129h-15zM372 227l16 -10q-24 -78 -84.5 -153.5t-126.5 -75.5q-69 0 -108.5 51.5t-39.5 148.5q0 72 30 144.5t83 121.5t112 49q43 0 73.5 -25.5t41 -50t10.5 -39.5l-220 -189q7 -63 26 -101.5t46 -38.5q20 0 42 17.5t39 42t31 49t21 42.5zM157 223
l115 109q-2 46 -16.5 82t-29.5 49.5t-22 8.5q-49 -30 -49 -204q0 -17 2 -45z" />
    <glyph glyph-name="ecircumflex" unicode="&#xea;" horiz-adv-x="417" 
d="M255 701l49 -129l-15 3l-75 67l-75 -67l-15 -3l49 129h82zM372 227l16 -10q-24 -78 -84.5 -153.5t-126.5 -75.5q-69 0 -108.5 51.5t-39.5 148.5q0 72 30 144.5t83 121.5t112 49q43 0 73.5 -25.5t41 -50t10.5 -39.5l-220 -189q7 -63 26 -101.5t46 -38.5q20 0 42 17.5
t39 42t31 49t21 42.5zM157 223l115 109q-2 46 -16.5 82t-29.5 49.5t-22 8.5q-49 -30 -49 -204q0 -17 2 -45z" />
    <glyph glyph-name="edieresis" unicode="&#xeb;" horiz-adv-x="417" 
d="M183 642l-61 -77l-62 77l62 76zM368 642l-61 -77l-62 77l62 76zM372 227l16 -10q-24 -78 -84.5 -153.5t-126.5 -75.5q-69 0 -108.5 51.5t-39.5 148.5q0 72 30 144.5t83 121.5t112 49q43 0 73.5 -25.5t41 -50t10.5 -39.5l-220 -189q7 -63 26 -101.5t46 -38.5q20 0 42 17.5
t39 42t31 49t21 42.5zM157 223l115 109q-2 46 -16.5 82t-29.5 49.5t-22 8.5q-49 -30 -49 -204q0 -17 2 -45z" />
    <glyph glyph-name="igrave" unicode="&#xec;" horiz-adv-x="323" 
d="M150 681l18 -129h-15l-123 129h120zM220 86l74 -86h-189v356l-68 77l183 67v-414z" />
    <glyph glyph-name="iacute" unicode="&#xed;" horiz-adv-x="323" 
d="M150 681h120l-123 -129h-15zM212 86l74 -86h-189v356l-68 77l183 67v-414z" />
    <glyph glyph-name="icircumflex" unicode="&#xee;" horiz-adv-x="323" 
d="M188 681l49 -129l-15 3l-75 67l-75 -67l-15 -3l49 129h82zM214 86l74 -86h-189v356l-68 77l183 67v-414z" />
    <glyph glyph-name="idieresis" unicode="&#xef;" horiz-adv-x="323" 
d="M116 622l-61 -77l-62 77l62 76zM301 622l-61 -77l-62 77l62 76zM213 86l74 -86h-189v356l-68 77l183 67v-414z" />
    <glyph glyph-name="eth" unicode="&#xf0;" horiz-adv-x="491" 
d="M363 681l-88 -58q94 -71 145.5 -159.5t51.5 -177.5q0 -118 -76.5 -209t-177.5 -91q-83 0 -136 57t-53 156q0 80 30.5 149.5t86.5 111t125 41.5h31q-31 51 -72 92l-98 -64l-20 28l91 60q-53 45 -127 76l47 18q61 -26 122 -66l97 64zM251 19q105 0 105 220q0 107 -28 202
q-11 9 -39 19t-57 10q-77 0 -77 -204q0 -59 10.5 -108t26 -78t31.5 -45t28 -16z" />
    <glyph glyph-name="ntilde" unicode="&#xf1;" horiz-adv-x="543" 
d="M161 572l60 109q7 -1 57 -7t76 -6q15 0 42 34l14 -6l-56 -103q-8 1 -61 7t-80 6q-15 0 -38 -43zM193 500v-332q26 97 70.5 193.5t67.5 128.5l98 25q19 -59 23.5 -108.5t4.5 -204.5v-116l74 -86h-189v144q0 194 -20 265l-8 1q-46 -91 -83.5 -191.5t-37.5 -157.5l15 -61
h-130v356l-68 77z" />
    <glyph glyph-name="ograve" unicode="&#xf2;" horiz-adv-x="501" 
d="M249 681l18 -129h-15l-123 129h120zM29 199q0 123 69 213t173 90q93 0 147 -58.5t54 -158.5q0 -118 -76.5 -208.5t-177.5 -90.5q-83 0 -136 57t-53 156zM232 470q-77 0 -77 -204q0 -59 10.5 -108t26 -78t31.5 -45t28 -16t26.5 12t29 36t24 69.5t9.5 103.5
q0 62 -12.5 109.5t-30.5 72t-35 36.5t-30 12z" />
    <glyph glyph-name="oacute" unicode="&#xf3;" horiz-adv-x="501" 
d="M249 681h120l-123 -129h-15zM29 199q0 123 69 213t173 90q93 0 147 -58.5t54 -158.5q0 -118 -76.5 -208.5t-177.5 -90.5q-83 0 -136 57t-53 156zM232 470q-77 0 -77 -204q0 -59 10.5 -108t26 -78t31.5 -45t28 -16t26.5 12t29 36t24 69.5t9.5 103.5q0 62 -12.5 109.5
t-30.5 72t-35 36.5t-30 12z" />
    <glyph glyph-name="ocircumflex" unicode="&#xf4;" horiz-adv-x="501" 
d="M287 681l49 -129l-15 3l-75 67l-75 -67l-15 -3l49 129h82zM29 199q0 -99 53 -156t136 -57q101 0 177.5 90.5t76.5 208.5q0 100 -54 158.5t-147 58.5q-104 0 -173 -90t-69 -213zM232 470q13 0 30 -12t35 -36.5t30.5 -72t12.5 -109.5q0 -58 -9.5 -103.5t-24 -69.5t-29 -36
t-26.5 -12t-28 16t-31.5 45t-26 78t-10.5 108q0 204 77 204z" />
    <glyph glyph-name="otilde" unicode="&#xf5;" horiz-adv-x="501" 
d="M132 572l60 109q7 -1 57 -7t76 -6q15 0 42 34l14 -6l-56 -103q-8 1 -61 7t-80 6q-15 0 -38 -43zM29 199q0 -99 53 -156t136 -57q101 0 177.5 90.5t76.5 208.5q0 100 -54 158.5t-147 58.5q-104 0 -173 -90t-69 -213zM232 470q13 0 30 -12t35 -36.5t30.5 -72t12.5 -109.5
q0 -58 -9.5 -103.5t-24 -69.5t-29 -36t-26.5 -12t-28 16t-31.5 45t-26 78t-10.5 108q0 204 77 204z" />
    <glyph glyph-name="odieresis" unicode="&#xf6;" horiz-adv-x="501" 
d="M215 622l-61 -77l-62 77l62 76zM400 622l-61 -77l-62 77l62 76zM29 199q0 -99 53 -156t136 -57q101 0 177.5 90.5t76.5 208.5q0 100 -54 158.5t-147 58.5q-104 0 -173 -90t-69 -213zM232 470q13 0 30 -12t35 -36.5t30.5 -72t12.5 -109.5q0 -58 -9.5 -103.5t-24 -69.5
t-29 -36t-26.5 -12t-28 16t-31.5 45t-26 78t-10.5 108q0 204 77 204z" />
    <glyph glyph-name="oslash" unicode="&#xf8;" horiz-adv-x="501" 
d="M473 507l-52 -67q51 -59 51 -155q0 -118 -76.5 -208.5t-177.5 -90.5q-69 0 -118 41l-32 -41h-39l49 62q-49 58 -49 151q0 123 69 213t173 90q78 0 128 -41l35 46h39zM165 161l158 204q-16 52 -43.5 78.5t-47.5 26.5q-77 0 -77 -204q0 -55 10 -105zM333 326l-158 -203
q15 -49 37 -76.5t39 -27.5q12 0 26.5 12t29 36t24 69.5t9.5 103.5q0 44 -7 86z" />
    <glyph glyph-name="ugrave" unicode="&#xf9;" horiz-adv-x="522" 
d="M256 699l18 -129h-15l-123 129h120zM326 0v322q-26 -97 -70.5 -193.5t-67.5 -128.5l-90 -8q-19 101 -19 171v241l-74 86l189 20v-164q0 -203 7 -273q46 90 85.5 194t39.5 162l-15 61h130v-413l68 -77h-183z" />
    <glyph glyph-name="uacute" unicode="&#xfa;" horiz-adv-x="522" 
d="M256 699h120l-123 -129h-15zM326 0v322q-26 -97 -70.5 -193.5t-67.5 -128.5l-90 -8q-19 101 -19 171v241l-74 86l189 20v-164q0 -203 7 -273q46 90 85.5 194t39.5 162l-15 61h130v-413l68 -77h-183z" />
    <glyph glyph-name="ucircumflex" unicode="&#xfb;" horiz-adv-x="522" 
d="M294 699l49 -129l-15 3l-75 67l-75 -67l-15 -3l49 129h82zM326 0v322q-26 -97 -70.5 -193.5t-67.5 -128.5l-90 -8q-19 101 -19 171v241l-74 86l189 20v-164q0 -203 7 -273q46 90 85.5 194t39.5 162l-15 61h130v-413l68 -77h-183z" />
    <glyph glyph-name="udieresis" unicode="&#xfc;" horiz-adv-x="522" 
d="M222 640l-61 -77l-62 77l62 76zM407 640l-61 -77l-62 77l62 76zM326 0v322q-26 -97 -70.5 -193.5t-67.5 -128.5l-90 -8q-19 101 -19 171v241l-74 86l189 20v-164q0 -203 7 -273q46 90 85.5 194t39.5 162l-15 61h130v-413l68 -77h-183z" />
    <glyph glyph-name="yacute" unicode="&#xfd;" horiz-adv-x="516" 
d="M261 681h120l-123 -129h-15zM339 25v226q-86 -225 -215 -266l-37 426l-82 79h185l32 -405q47 44 76 121.5t35.5 127.5t6.5 86v70h113v-415q0 -79 -50 -152t-121 -114.5t-136 -41.5h-6l-111 136l6 7q41 -34 100.5 -58.5t92.5 -24.5q53 0 81.5 43t29.5 155z" />
    <glyph glyph-name="thorn" unicode="&#xfe;" horiz-adv-x="502" 
d="M305 490l99 18q27 -41 46.5 -105t19.5 -132q0 -107 -75.5 -200t-205.5 -110v-120l74 -56h-213l24 66v725l-68 77l183 57v-536q43 169 116 316zM189 50v-63q47 0 80 23t48.5 61t22 73t6.5 73q0 50 -8.5 93.5t-19.5 66t-20 22.5q-16 0 -62.5 -140.5t-46.5 -208.5z" />
    <glyph glyph-name="ydieresis" unicode="&#xff;" horiz-adv-x="516" 
d="M227 622l-61 -77l-62 77l62 76zM412 622l-61 -77l-62 77l62 76zM339 25v226q-86 -225 -215 -266l-37 426l-82 79h185l32 -405q47 44 76 121.5t35.5 127.5t6.5 86v70h113v-415q0 -79 -50 -152t-121 -114.5t-136 -41.5h-6l-111 136l6 7q41 -34 100.5 -58.5t92.5 -24.5
q53 0 81.5 43t29.5 155z" />
    <glyph glyph-name="Cacute" unicode="&#x106;" horiz-adv-x="651" 
d="M338 869h125l-123 -129h-14zM554 482h-6q-73 162 -202 162q-79 0 -119 -66t-40 -172q0 -133 51 -217t147 -84q132 0 203 116l14 -10q-24 -58 -57.5 -105t-91 -82.5t-126.5 -35.5q-127 0 -202.5 91.5t-75.5 239.5q0 68 24 132.5t67.5 117t112.5 84.5t152 32h149v-203z" />
    <glyph glyph-name="cacute" unicode="&#x107;" horiz-adv-x="381" 
d="M228 681h120l-123 -129h-15zM350 360l-159 67q-14 0 -25 -53t-11 -105q0 -98 18 -154t51 -56q26 0 62.5 46t70.5 123l16 -10q-36 -106 -94.5 -168t-102.5 -62q-66 0 -106.5 49.5t-40.5 145.5q0 110 74.5 203.5t169.5 117.5h10l70 -140z" />
    <glyph glyph-name="Ccircumflex" unicode="&#x108;" horiz-adv-x="651" 
d="M405 869l60 -129h-14l-85 70l-85 -70h-14l59 129h79zM554 482h-6q-73 162 -202 162q-79 0 -119 -66t-40 -172q0 -133 51 -217t147 -84q132 0 203 116l14 -10q-24 -58 -57.5 -105t-91 -82.5t-126.5 -35.5q-127 0 -202.5 91.5t-75.5 239.5q0 68 24 132.5t67.5 117
t112.5 84.5t152 32h149v-203z" />
    <glyph glyph-name="ccircumflex" unicode="&#x109;" horiz-adv-x="381" 
d="M266 681l49 -129l-15 3l-75 67l-75 -67l-15 -3l49 129h82zM350 360l-159 67q-14 0 -25 -53t-11 -105q0 -98 18 -154t51 -56q26 0 62.5 46t70.5 123l16 -10q-36 -106 -94.5 -168t-102.5 -62q-66 0 -106.5 49.5t-40.5 145.5q0 110 74.5 203.5t169.5 117.5h10l70 -140z" />
    <glyph glyph-name="cdotaccent" unicode="&#x10b;" horiz-adv-x="381" 
d="M300 621l-75 -79l-76 79l76 78zM350 360l-159 67q-14 0 -25 -53t-11 -105q0 -98 18 -154t51 -56q26 0 62.5 46t70.5 123l16 -10q-36 -106 -94.5 -168t-102.5 -62q-66 0 -106.5 49.5t-40.5 145.5q0 110 74.5 203.5t169.5 117.5h10l70 -140z" />
    <glyph glyph-name="Ccaron" unicode="&#x10c;" horiz-adv-x="651" 
d="M458 869l-60 -129h-79l-59 129h15l84 -70l85 70h14zM554 482h-6q-73 162 -202 162q-79 0 -119 -66t-40 -172q0 -133 51 -217t147 -84q132 0 203 116l14 -10q-24 -58 -57.5 -105t-91 -82.5t-126.5 -35.5q-127 0 -202.5 91.5t-75.5 239.5q0 68 24 132.5t67.5 117
t112.5 84.5t152 32h149v-203z" />
    <glyph glyph-name="ccaron" unicode="&#x10d;" horiz-adv-x="381" 
d="M315 681l-49 -129h-82l-49 129l15 -3l75 -67l75 67zM350 360l-159 67q-14 0 -25 -53t-11 -105q0 -98 18 -154t51 -56q26 0 62.5 46t70.5 123l16 -10q-36 -106 -94.5 -168t-102.5 -62q-66 0 -106.5 49.5t-40.5 145.5q0 110 74.5 203.5t169.5 117.5h10l70 -140z" />
    <glyph glyph-name="Dcaron" unicode="&#x10e;" horiz-adv-x="735" 
d="M448 869l-60 -129h-79l-59 129h14l85 -70l85 70h14zM56 685h253q103 0 179.5 -28.5t117 -75.5t59.5 -99.5t19 -109.5q0 -172 -107 -272t-284 -100h-237l70 106v473zM250 38h60q58 0 102.5 20.5t70.5 51.5t42.5 74t22 81t5.5 79q0 149 -61.5 229t-174.5 80h-67v-615z" />
    <glyph glyph-name="dcaron" unicode="&#x10f;" horiz-adv-x="691" 
d="M514 429l-13 10q62 54 62 104q0 9 -3.5 18t-5.5 12t-10 13l-9 9l-37 31l79 85q28 -18 52.5 -46t24.5 -51q0 -92 -140 -185zM508 0l-191 -9v266l12 116q-45 -182 -163 -373l-74 -11q-24 17 -43.5 66.5t-19.5 107.5q0 131 76.5 220.5t213.5 104.5v88l-68 77l183 57v-640z
M182 77q10 0 43 73t63.5 167.5t30.5 143.5q-48 0 -82 -23.5t-51.5 -62t-25 -77.5t-7.5 -81q0 -46 5 -79t11 -47t13 -14z" />
    <glyph glyph-name="Edotaccent" unicode="&#x116;" horiz-adv-x="592" 
d="M368 820l-66 -81l-68 81l68 80zM389 649h-156v-277h260v-40h-260v-296h165l137 183l5 -2l-11 -217h-477l57 106v475l-57 104h459v-210h-5z" />
    <glyph glyph-name="edotaccent" unicode="&#x117;" horiz-adv-x="417" 
d="M289 641l-75 -79l-76 79l76 78zM372 227l16 -10q-24 -78 -84.5 -153.5t-126.5 -75.5q-69 0 -108.5 51.5t-39.5 148.5q0 72 30 144.5t83 121.5t112 49q43 0 73.5 -25.5t41 -50t10.5 -39.5l-220 -189q7 -63 26 -101.5t46 -38.5q20 0 42 17.5t39 42t31 49t21 42.5zM157 223
l115 109q-2 46 -16.5 82t-29.5 49.5t-22 8.5q-49 -30 -49 -204q0 -17 2 -45z" />
    <glyph glyph-name="Ecaron" unicode="&#x11a;" horiz-adv-x="592" 
d="M406 869l-60 -129h-79l-59 129h15l84 -70l85 70h14zM389 649h-156v-277h260v-40h-260v-296h165l137 183l5 -2l-11 -217h-477l57 106v475l-57 104h459v-210h-5z" />
    <glyph glyph-name="ecaron" unicode="&#x11b;" horiz-adv-x="417" 
d="M304 701l-49 -129h-82l-49 129l15 -3l75 -67l75 67zM372 227l16 -10q-24 -78 -84.5 -153.5t-126.5 -75.5q-69 0 -108.5 51.5t-39.5 148.5q0 72 30 144.5t83 121.5t112 49q43 0 73.5 -25.5t41 -50t10.5 -39.5l-220 -189q7 -63 26 -101.5t46 -38.5q20 0 42 17.5t39 42
t31 49t21 42.5zM157 223l115 109q-2 46 -16.5 82t-29.5 49.5t-22 8.5q-49 -30 -49 -204q0 -17 2 -45z" />
    <glyph glyph-name="dotlessi" unicode="&#x131;" horiz-adv-x="323" 
d="M219 86l74 -86h-268l74 86v270l-68 77l188 67v-414z" />
    <glyph glyph-name="IJ" unicode="&#x132;" horiz-adv-x="691" 
d="M125 106v473l-70 106h264l-70 -106v-473l70 -106h-264zM566 579v-575q0 -51 -42.5 -98.5t-95.5 -81.5l-7 4q21 44 21 99v652l-70 106h264z" />
    <glyph glyph-name="ij" unicode="&#x133;" horiz-adv-x="557" 
d="M215 639l-83 -93l-84 93l84 92zM510 639l-81 -93l-82 93l82 92zM195 86l74 -86h-189v356l-68 77l183 67v-414zM489 500v-494q0 -116 -130 -231l-6 3q22 29 22 159v419l-65 77z" />
    <glyph glyph-name="Lacute" unicode="&#x139;" horiz-adv-x="610" 
d="M168 869h125l-123 -129h-14zM110 581l-57 104h253l-72 -105v-544h191l138 181h4l-10 -217h-504l57 106v475z" />
    <glyph glyph-name="Lcaron" unicode="&#x13d;" horiz-adv-x="614" 
d="M408 429l-13 10q62 54 62 104q0 9 -3.5 18t-5.5 12t-10 13l-9 9l-37 31l79 85q28 -18 52.5 -46t24.5 -51q0 -92 -140 -185zM110 581l-57 104h253l-72 -105v-544h191l138 181h4l-10 -217h-504l57 106v475z" />
    <glyph glyph-name="Ldot" unicode="&#x13f;" horiz-adv-x="614" 
d="M110 581l-57 104h253l-72 -105v-544h191l138 181h4l-10 -217h-504l57 106v475zM531 379l-81 -92l-82 92l82 93z" />
    <glyph glyph-name="ldot" unicode="&#x140;" horiz-adv-x="441" 
d="M80 576l-68 77l183 57v-624l74 -86h-189v440l-68 77l68 29v30zM429 263l-81 -92l-82 92l82 93z" />
    <glyph glyph-name="Lslash" unicode="&#x141;" horiz-adv-x="624" 
d="M118 106v183l-94 -29v62l94 29v230l-57 104h253l-72 -105v-191l125 39v-64l-125 -38v-290h191l138 181h4l-10 -217h-504z" />
    <glyph glyph-name="Nacute" unicode="&#x143;" horiz-adv-x="756" 
d="M359 869h125l-123 -129h-14zM256 0h-204l70 93v465l-92 127h157l395 -555v469l-82 86h204l-70 -93v-534l41 -58h-148l-353 487v-401z" />
    <glyph glyph-name="Ncaron" unicode="&#x147;" horiz-adv-x="756" 
d="M478 869l-60 -129h-79l-59 129h15l84 -70l85 70h14zM256 0h-204l70 93v465l-92 127h157l395 -555v469l-82 86h204l-70 -93v-534l41 -58h-148l-353 487v-401z" />
    <glyph glyph-name="OE" unicode="&#x152;" horiz-adv-x="994" 
d="M625 332v-296h165l137 183l5 -2l-10 -217h-583q-126 0 -204 92.5t-78 220.5q0 159 93.5 265.5t260.5 106.5h493v-210h-6l-116 174h-157v-277h260v-40h-260zM501 648h-117q-46 0 -82 -19.5t-56 -47.5t-33 -64.5t-17 -65.5t-4 -55q0 -153 58 -256.5t156 -103.5h95v612z" />
    <glyph glyph-name="oe" unicode="&#x153;" horiz-adv-x="735" 
d="M687 227l16 -10q-24 -78 -84.5 -153.5t-126.5 -75.5q-79 0 -118 66q-71 -68 -156 -68q-83 0 -136 57t-53 156q0 123 69 213t173 90q106 0 161 -76q53 62 100 73q43 10 77 -2t51 -35t25.5 -43t8.5 -31l-220 -189q7 -63 26 -101.5t46 -38.5q32 0 67 42t55 84zM472 223
l115 109q-2 46 -16.5 82t-29.5 49.5t-22 8.5q-43 -27 -48 -160q1 -9 1 -27q0 -11 -2 -33zM251 19q12 0 26.5 12t29 36t24 69.5t9.5 103.5q0 62 -12.5 109.5t-30.5 72t-35 36.5t-30 12q-77 0 -77 -204q0 -59 10.5 -108t26 -78t31.5 -45t28 -16z" />
    <glyph glyph-name="Racute" unicode="&#x154;" horiz-adv-x="696" 
d="M302 869h125l-123 -129h-14zM671 0h-193q-141 252 -183 312l-45 -4v-202l70 -106h-265l71 106v473l-71 106h229q28 0 56.5 -2t72.5 -12.5t76.5 -28t56.5 -52.5t24 -82q0 -57 -42 -100.5t-106 -68.5l148 -241zM250 655v-314q74 2 127 42.5t53 112.5q0 159 -180 159z" />
    <glyph glyph-name="racute" unicode="&#x155;" horiz-adv-x="409" 
d="M208 681h120l-123 -129h-15zM418 335l-132 36q-8 -3 -31.5 -58t-45.5 -130.5t-22 -121.5l8 -61h-123v356l-68 77l183 67v-318q52 201 137 322h13l84 -165z" />
    <glyph glyph-name="Rcaron" unicode="&#x158;" horiz-adv-x="696" 
d="M412 869l-60 -129h-79l-60 129h15l85 -70l84 70h15zM671 0h-193q-141 252 -183 312l-45 -4v-202l70 -106h-265l71 106v473l-71 106h229q28 0 56.5 -2t72.5 -12.5t76.5 -28t56.5 -52.5t24 -82q0 -57 -42 -100.5t-106 -68.5l148 -241zM250 655v-314q74 2 127 42.5t53 112.5
q0 159 -180 159z" />
    <glyph glyph-name="rcaron" unicode="&#x159;" horiz-adv-x="409" 
d="M295 681l-49 -129h-82l-49 129l15 -3l75 -67l75 67zM418 335l-132 36q-8 -3 -31.5 -58t-45.5 -130.5t-22 -121.5l8 -61h-123v356l-68 77l183 67v-318q52 201 137 322h13l84 -165z" />
    <glyph glyph-name="Sacute" unicode="&#x15a;" horiz-adv-x="524" 
d="M251 869h125l-123 -129h-14zM34 268h11q25 -101 86 -169.5t135 -68.5q43 0 75 23.5t32 66.5q0 37 -18.5 65t-48 46.5t-65.5 34.5t-72 35t-65.5 42.5t-48 61.5t-18.5 87q0 83 53 138t154 55h136l46 15v-216l-8 1q-26 79 -79 123.5t-118 44.5q-41 0 -66 -24t-25 -67
q0 -38 26 -67t64.5 -46t83.5 -38t83.5 -43t64.5 -61.5t26 -91.5q0 -115 -65.5 -169t-177.5 -54q-114 0 -189 36z" />
    <glyph glyph-name="sacute" unicode="&#x15b;" horiz-adv-x="343" 
d="M188 681h120l-123 -129h-15zM290 342l-6 -1q-29 46 -64.5 73.5t-67.5 27.5q-20 0 -27.5 -9t-7.5 -29q0 -23 31.5 -54.5t68.5 -59t68.5 -66t31.5 -74.5q0 -57 -48 -103.5t-137 -46.5h-82l-24 170l3 9q47 -69 85 -105t78 -36q46 0 46 40q0 33 -31 66.5t-67.5 58t-67.5 60.5
t-31 72q0 58 47.5 106.5t125.5 48.5h71z" />
    <glyph glyph-name="Scaron" unicode="&#x160;" horiz-adv-x="541" 
d="M378 869l-60 -129h-80l-59 129h15l84 -70l85 70h15zM46 268h11q25 -101 86 -169.5t135 -68.5q43 0 75 23.5t32 66.5q0 37 -18.5 65t-48 46.5t-65.5 34.5t-72 35t-65.5 42.5t-48 61.5t-18.5 87q0 83 53 138t154 55h136l46 15v-216l-8 1q-26 79 -79 123.5t-118 44.5
q-41 0 -66 -24t-25 -67q0 -38 26 -67t64.5 -46t83.5 -38t83.5 -43t64.5 -61.5t26 -91.5q0 -115 -65.5 -169t-177.5 -54q-114 0 -189 36z" />
    <glyph glyph-name="scaron" unicode="&#x161;" horiz-adv-x="343" 
d="M275 681l-49 -129h-82l-49 129l15 -3l75 -67l75 67zM290 342l-6 -1q-29 46 -64.5 73.5t-67.5 27.5q-20 0 -27.5 -9t-7.5 -29q0 -23 31.5 -54.5t68.5 -59t68.5 -66t31.5 -74.5q0 -57 -48 -103.5t-137 -46.5h-82l-24 170l3 9q47 -69 85 -105t78 -36q46 0 46 40
q0 33 -31 66.5t-67.5 58t-67.5 60.5t-31 72q0 58 47.5 106.5t125.5 48.5h71z" />
    <glyph glyph-name="Tcaron" unicode="&#x164;" horiz-adv-x="660" 
d="M413 869l-60 -129h-79l-59 129h15l84 -70l85 70h14zM611 685v-219l-6 -1l-127 185h-96v-544l71 -106h-265l70 106v543h-92l-128 -184l-4 1v219h577z" />
    <glyph glyph-name="Uring" unicode="&#x16e;" horiz-adv-x="763" 
d="M318 808q0 41 27.5 69.5t66.5 28.5q38 0 65.5 -29t27.5 -69t-27.5 -69t-65.5 -29q-39 0 -66.5 28.5t-27.5 69.5zM351 808q0 -26 18 -45t43 -19t43 19t18 45t-18 45t-43 19t-43 -19t-18 -45zM251 579v-343q0 -54 10.5 -92t26 -59.5t41 -33.5t48.5 -15t55 -3q163 0 163 268
v294l-73 90h190l-71 -90v-318q0 -65 -8.5 -102t-30.5 -79q-26 -51 -80 -81t-126 -30q-270 0 -270 236v359l-70 105h265z" />
    <glyph glyph-name="uring" unicode="&#x16f;" horiz-adv-x="522" 
d="M175 646q0 34 23 58t55 24t55 -24t23 -58t-23 -58t-55 -24t-55 24t-23 58zM203 646q0 -22 14.5 -37.5t35.5 -15.5t35.5 15.5t14.5 37.5t-14.5 37.5t-35.5 15.5t-35.5 -15.5t-14.5 -37.5zM326 0v322q-26 -97 -70.5 -193.5t-67.5 -128.5l-90 -8q-19 101 -19 171v241l-74 86
l189 20v-164q0 -203 7 -273q46 90 85.5 194t39.5 162l-15 61h130v-413l68 -77h-183z" />
    <glyph glyph-name="Wcircumflex" unicode="&#x174;" horiz-adv-x="1005" 
d="M551 869l60 -129h-14l-85 70l-85 -70h-14l59 129h79zM781 685h199l-64 -86l-204 -611h-58l-138 389l-136 -389h-58l-236 638l-49 59h260l-77 -61l157 -439l9 -37l109 288l-69 192l-47 57h260l-78 -61l148 -439l11 -44l143 457z" />
    <glyph glyph-name="wcircumflex" unicode="&#x175;" horiz-adv-x="707" 
d="M449 681l49 -129l-15 3l-75 67l-75 -67l-15 -3l49 129h82zM564 490h143q-5 -64 -26 -141t-55 -152.5t-85.5 -134.5t-109.5 -77l-49 278q-39 -104 -96 -180t-127 -98l-66 373l-93 69l180 95l75 -440l-1 -4q51 48 81 125.5t31 147.5q-3 14 -6.5 30t-10 47t-13.5 62h120
l71 -408l-1 -4q38 34 65.5 92.5t38 112.5t9 97.5t-14.5 54.5l-60 49v6z" />
    <glyph glyph-name="Ycircumflex" unicode="&#x176;" horiz-adv-x="689" 
d="M414 869l60 -129h-15l-84 70l-85 -70h-15l60 129h79zM202 0l80 101v180l-169 298l-87 106h306l-81 -106h-1l112 -189l15 -33l125 224l-81 104h242l-98 -94l-159 -273v-217l80 -101h-284z" />
    <glyph glyph-name="ycircumflex" unicode="&#x177;" horiz-adv-x="516" 
d="M299 681l49 -129l-15 3l-75 67l-75 -67l-15 -3l49 129h82zM339 25v226q-86 -225 -215 -266l-37 426l-82 79h185l32 -405q47 44 76 121.5t35.5 127.5t6.5 86v70h113v-415q0 -79 -50 -152t-121 -114.5t-136 -41.5h-6l-111 136l6 7q41 -34 100.5 -58.5t92.5 -24.5
q53 0 81.5 43t29.5 155z" />
    <glyph glyph-name="Ydieresis" unicode="&#x178;" horiz-adv-x="689" 
d="M328 830l-73 -88l-74 88l74 87zM550 830l-73 -88l-74 88l74 87zM202 0l80 101v180l-169 298l-87 106h306l-81 -106h-1l112 -189l15 -33l125 224l-81 104h242l-98 -94l-159 -273v-217l80 -101h-284z" />
    <glyph glyph-name="Zacute" unicode="&#x179;" horiz-adv-x="668" 
d="M306 869h120l-123 -129h-14zM605 217h4l-11 -217h-547l-7 12l405 637h-226l-133 -183h-4l6 229l101 -10h408l7 -14l-410 -635h269z" />
    <glyph glyph-name="zacute" unicode="&#x17a;" horiz-adv-x="425" 
d="M229 681h120l-123 -129h-15zM412 490l-232 -328q58 41 120 41q58 0 86.5 -32.5t28.5 -85.5q0 -72 -36.5 -143t-103.5 -119t-145 -48q-70 0 -126 46l12 18q21 -15 31.5 -22t34.5 -14.5t50 -7.5q33 0 64.5 10t59 29.5t44.5 53.5t17 77q0 56 -25 91.5t-72 35.5
q-93 0 -124 -42l-48 -62h-25l280 391h-203l-61 -103l-6 -1l19 223l47 -8h313z" />
    <glyph glyph-name="Zdotaccent" unicode="&#x17b;" horiz-adv-x="668" 
d="M398 820l-66 -81l-68 81l68 80zM605 217h4l-11 -217h-547l-7 12l405 637h-226l-133 -183h-4l6 229l101 -10h408l7 -14l-410 -635h269z" />
    <glyph glyph-name="zdotaccent" unicode="&#x17c;" horiz-adv-x="425" 
d="M301 621l-75 -79l-76 79l76 78zM412 490l-232 -328q58 41 120 41q58 0 86.5 -32.5t28.5 -85.5q0 -72 -36.5 -143t-103.5 -119t-145 -48q-70 0 -126 46l12 18q21 -15 31.5 -22t34.5 -14.5t50 -7.5q33 0 64.5 10t59 29.5t44.5 53.5t17 77q0 56 -25 91.5t-72 35.5
q-93 0 -124 -42l-48 -62h-25l280 391h-203l-61 -103l-6 -1l19 223l47 -8h313z" />
    <glyph glyph-name="Zcaron" unicode="&#x17d;" horiz-adv-x="668" 
d="M440 869l-60 -129h-79l-59 129h15l84 -70l85 70h14zM605 217h4l-11 -217h-547l-7 12l405 637h-226l-133 -183h-4l6 229l101 -10h408l7 -14l-410 -635h269z" />
    <glyph glyph-name="zcaron" unicode="&#x17e;" horiz-adv-x="425" 
d="M316 681l-49 -129h-82l-49 129l15 -3l75 -67l75 67zM412 490l-232 -328q58 41 120 41q58 0 86.5 -32.5t28.5 -85.5q0 -72 -36.5 -143t-103.5 -119t-145 -48q-70 0 -126 46l12 18q21 -15 31.5 -22t34.5 -14.5t50 -7.5q33 0 64.5 10t59 29.5t44.5 53.5t17 77q0 56 -25 91.5
t-72 35.5q-93 0 -124 -42l-48 -62h-25l280 391h-203l-61 -103l-6 -1l19 223l47 -8h313z" />
    <glyph glyph-name="circumflex" unicode="&#x2c6;" horiz-adv-x="213" 
d="M147 681l49 -129l-15 3l-75 67l-75 -67l-15 -3l49 129h82z" />
    <glyph glyph-name="caron" unicode="&#x2c7;" horiz-adv-x="212" 
d="M196 681l-49 -129h-82l-49 129l15 -3l75 -67l75 67z" />
    <glyph glyph-name="dotaccent" unicode="&#x2d9;" horiz-adv-x="247" 
d="M199 621l-75 -79l-76 79l76 78z" />
    <glyph glyph-name="ring" unicode="&#x2da;" horiz-adv-x="190" 
d="M16 628q0 34 23 58t55 24t55 -24t23 -58t-23 -58t-55 -24t-55 24t-23 58zM44 628q0 -22 14.5 -37.5t35.5 -15.5t35.5 15.5t14.5 37.5t-14.5 37.5t-35.5 15.5t-35.5 -15.5t-14.5 -37.5z" />
    <glyph glyph-name="tilde" unicode="&#x2dc;" horiz-adv-x="361" 
d="M75 572l60 109q7 -1 57 -7t76 -6q15 0 42 34l14 -6l-56 -103q-8 1 -61 7t-80 6q-15 0 -38 -43z" />
    <glyph glyph-name="Wgrave" unicode="&#x1e80;" horiz-adv-x="1005" 
d="M514 869l12 -129h-14l-123 129h125zM781 685h199l-64 -86l-204 -611h-58l-138 389l-136 -389h-58l-236 638l-49 59h260l-77 -61l157 -439l9 -37l109 288l-69 192l-47 57h260l-78 -61l148 -439l11 -44l143 457z" />
    <glyph glyph-name="wgrave" unicode="&#x1e81;" horiz-adv-x="707" 
d="M411 681l18 -129h-15l-123 129h120zM564 490h143q-5 -64 -26 -141t-55 -152.5t-85.5 -134.5t-109.5 -77l-49 278q-39 -104 -96 -180t-127 -98l-66 373l-93 69l180 95l75 -440l-1 -4q51 48 81 125.5t31 147.5q-3 14 -6.5 30t-10 47t-13.5 62h120l71 -408l-1 -4
q38 34 65.5 92.5t38 112.5t9 97.5t-14.5 54.5l-60 49v6z" />
    <glyph glyph-name="Wacute" unicode="&#x1e82;" horiz-adv-x="1005" 
d="M507 869h125l-123 -129h-14zM781 685h199l-64 -86l-204 -611h-58l-138 389l-136 -389h-58l-236 638l-49 59h260l-77 -61l157 -439l9 -37l109 288l-69 192l-47 57h260l-78 -61l148 -439l11 -44l143 457z" />
    <glyph glyph-name="wacute" unicode="&#x1e83;" horiz-adv-x="707" 
d="M411 681h120l-123 -129h-15zM564 490h143q-5 -64 -26 -141t-55 -152.5t-85.5 -134.5t-109.5 -77l-49 278q-39 -104 -96 -180t-127 -98l-66 373l-93 69l180 95l75 -440l-1 -4q51 48 81 125.5t31 147.5q-3 14 -6.5 30t-10 47t-13.5 62h120l71 -408l-1 -4q38 34 65.5 92.5
t38 112.5t9 97.5t-14.5 54.5l-60 49v6z" />
    <glyph glyph-name="Wdieresis" unicode="&#x1e84;" horiz-adv-x="1005" 
d="M469 829l-72 -88l-75 88l75 87zM692 829l-73 -88l-74 88l74 87zM781 685h199l-64 -86l-204 -611h-58l-138 389l-136 -389h-58l-236 638l-49 59h260l-77 -61l157 -439l9 -37l109 288l-69 192l-47 57h260l-78 -61l148 -439l11 -44l143 457z" />
    <glyph glyph-name="wdieresis" unicode="&#x1e85;" horiz-adv-x="707" 
d="M377 622l-61 -77l-62 77l62 76zM562 622l-61 -77l-62 77l62 76zM564 490h143q-5 -64 -26 -141t-55 -152.5t-85.5 -134.5t-109.5 -77l-49 278q-39 -104 -96 -180t-127 -98l-66 373l-93 69l180 95l75 -440l-1 -4q51 48 81 125.5t31 147.5q-3 14 -6.5 30t-10 47t-13.5 62
h120l71 -408l-1 -4q38 34 65.5 92.5t38 112.5t9 97.5t-14.5 54.5l-60 49v6z" />
    <glyph glyph-name="Ygrave" unicode="&#x1ef2;" horiz-adv-x="689" 
d="M375 869l13 -129h-14l-123 129h124zM202 0l80 101v180l-169 298l-87 106h306l-81 -106h-1l112 -189l15 -33l125 224l-81 104h242l-98 -94l-159 -273v-217l80 -101h-284z" />
    <glyph glyph-name="ygrave" unicode="&#x1ef3;" horiz-adv-x="516" 
d="M261 681l18 -129h-15l-123 129h120zM339 25v226q-86 -225 -215 -266l-37 426l-82 79h185l32 -405q47 44 76 121.5t35.5 127.5t6.5 86v70h113v-415q0 -79 -50 -152t-121 -114.5t-136 -41.5h-6l-111 136l6 7q41 -34 100.5 -58.5t92.5 -24.5q53 0 81.5 43t29.5 155z" />
    <glyph glyph-name="uni2009" unicode="&#x2009;" horiz-adv-x="180" 
 />
    <glyph glyph-name="endash" unicode="&#x2013;" horiz-adv-x="500" 
d="M23 309h454v-66h-454v66z" />
    <glyph glyph-name="emdash" unicode="&#x2014;" horiz-adv-x="900" 
d="M42 309h816v-66h-816v66z" />
    <glyph glyph-name="quoteleft" unicode="&#x2018;" horiz-adv-x="248" 
d="M174 711l13 -10q-62 -54 -62 -104q0 -9 3.5 -18t5.5 -12t10 -13l9 -9l37 -31l-79 -85q-28 18 -52.5 46t-24.5 51q0 92 140 185z" />
    <glyph glyph-name="quoteright" unicode="&#x2019;" horiz-adv-x="248" 
d="M50 429l-13 10q62 54 62 104q0 9 -3.5 18t-5.5 12t-10 13l-9 9l-37 31l79 85q28 -18 52.5 -46t24.5 -51q0 -92 -140 -185z" />
    <glyph glyph-name="quotesinglbase" unicode="&#x201a;" horiz-adv-x="227" 
d="M50 -123l-13 10q62 54 62 104q0 9 -3.5 18t-5.5 12t-10 13l-9 9l-37 31l79 85q28 -18 52.5 -46t24.5 -51q0 -92 -140 -185z" />
    <glyph glyph-name="quotedblleft" unicode="&#x201c;" horiz-adv-x="425" 
d="M179 711l13 -10q-62 -54 -62 -104q0 -6 1.5 -12t2.5 -9.5t5 -9t5.5 -7.5t7 -7.5l6.5 -6.5l37 -31l-79 -85q-28 18 -52.5 46t-24.5 51q0 92 140 185zM369 711l13 -10q-61 -53 -61 -104q0 -7 1.5 -13.5t5 -12.5t5.5 -9t8 -9.5t7 -7.5l37 -31l-79 -85q-28 18 -52.5 46
t-24.5 51q0 92 140 185z" />
    <glyph glyph-name="quotedblright" unicode="&#x201d;" horiz-adv-x="425" 
d="M55 429l-13 10q61 53 61 104q0 7 -1.5 13.5t-5 12.5t-5.5 9t-8 9.5t-7 7.5l-37 31l79 85q28 -18 52.5 -46t24.5 -51q0 -92 -140 -185zM245 429l-13 10q62 54 62 104q0 6 -1.5 12t-2.5 9.5t-5 9t-5.5 7.5t-7 7.5l-6.5 6.5l-37 31l79 85q28 -18 52.5 -46t24.5 -51
q0 -92 -140 -185z" />
    <glyph glyph-name="quotedblbase" unicode="&#x201e;" horiz-adv-x="427" 
d="M55 -122l-13 10q61 53 61 104q0 7 -1.5 13.5t-5 12.5t-5.5 9t-8 9.5t-7 7.5l-37 31l79 85q28 -18 52.5 -46t24.5 -51q0 -92 -140 -185zM245 -122l-13 10q62 54 62 104q0 6 -1.5 12t-2.5 9.5t-5 9t-5.5 7.5t-7 7.5l-6.5 6.5l-37 31l79 85q28 -18 52.5 -46t24.5 -51
q0 -92 -140 -185z" />
    <glyph glyph-name="dagger" unicode="&#x2020;" horiz-adv-x="370" 
d="M152 490l-27 210h120l-27 -210h66l86 74v-114h-125v-88l-53 -442h-14l-53 442v88h-39l-86 -74v114h152z" />
    <glyph glyph-name="daggerdbl" unicode="&#x2021;" horiz-adv-x="370" 
d="M370 140h-152l27 -210h-120l27 210h-66l-86 -74v114h152v270h-66l-86 -74v114h152l-27 210h120l-27 -210h66l86 74v-114h-152v-270h66l86 74v-114z" />
    <glyph glyph-name="bullet" unicode="&#x2022;" horiz-adv-x="347" 
d="M296 263l-122 -138l-123 138l123 139z" />
    <glyph glyph-name="ellipsis" unicode="&#x2026;" horiz-adv-x="743" 
d="M195 66l-81 -92l-82 92l82 92zM453 66l-81 -92l-82 92l82 92zM711 66l-81 -92l-82 92l82 92z" />
    <glyph glyph-name="guilsinglleft" unicode="&#x2039;" horiz-adv-x="296" 
d="M278 28l-10 -10l-235 228l235 228l10 -17l-192 -211h85z" />
    <glyph glyph-name="guilsinglright" unicode="&#x203a;" horiz-adv-x="296" 
d="M22 464l10 10l235 -228l-235 -228l-10 17l192 211h-85z" />
    <glyph glyph-name="fraction" unicode="&#x2044;" horiz-adv-x="470" 
d="M0 -33l429 752h44l-430 -752h-43z" />
    <glyph glyph-name="zerosuperior" unicode="&#x2070;" horiz-adv-x="409" 
d="M361 603q0 -82 -47 -148.5t-128 -66.5q-64 0 -101 54t-37 127q0 83 46.5 149t127.5 66q65 0 102 -54t37 -127zM189 755q-59 0 -59 -116q0 -91 26 -156.5t66 -65.5q30 0 44.5 38.5t14.5 77.5q0 91 -26.5 156.5t-65.5 65.5z" />
    <glyph glyph-name="foursuperior" unicode="&#x2074;" horiz-adv-x="387" 
d="M359 520h-87v-52l64 -42h-203l59 42v53h-164l162 284h97l-190 -255h94v51l81 113v-165h87v-29z" />
    <glyph glyph-name="fivesuperior" unicode="&#x2075;" horiz-adv-x="340" 
d="M85 652l26 11q34 14 67 14q52 0 92 -32.5t40 -84.5q0 -66 -49 -100t-134 -34h-81q2 66 2 109h4l5 -10t14 -21t23 -27t31 -21.5t39 -9.5q34 0 49.5 18.5t15.5 70.5q0 117 -76 117q-37 0 -76 -30l-2 -11h-23l27 181l2 12h190l39 32l-6 -32l-18 -76h-187z" />
    <glyph glyph-name="sixsuperior" unicode="&#x2076;" horiz-adv-x="355" 
d="M293 817l4 -16q-141 -54 -174 -167q46 24 73 24q50 0 84 -29.5t34 -82.5q0 -47 -41.5 -86t-108.5 -39q-58 0 -95.5 34.5t-37.5 92.5q0 86 73.5 156.5t188.5 112.5zM118 612q-6 -24 -6 -61q0 -51 18.5 -80t47.5 -29q30 0 43.5 30t13.5 60q0 46 -22.5 73t-49.5 27
q-20 0 -45 -20z" />
    <glyph glyph-name="sevensuperior" unicode="&#x2077;" horiz-adv-x="362" 
d="M42 802h278l-216 -388l-27 10l160 302h-161l-32 -46h-2v122z" />
    <glyph glyph-name="eightsuperior" unicode="&#x2078;" horiz-adv-x="363" 
d="M189 819q39 0 73.5 -20.5t34.5 -55.5q0 -48 -63 -85q30 -19 44.5 -30t29.5 -35t15 -52q0 -42 -28.5 -70.5t-61.5 -39t-63 -10.5q-57 0 -93.5 26t-36.5 67q0 10 1.5 18.5t5.5 16.5t7 13.5t10.5 12.5t10 10.5t12.5 10t12 8t13 8.5l11 6q-2 2 -11 9t-11.5 9.5t-10 9t-10 9.5
t-7.5 9.5t-7 12t-5 12.5t-4 14.5t-1 15.5q0 48 40.5 74t92.5 26zM219 665q33 23 33 70q0 33 -20.5 49.5t-48.5 16.5q-27 0 -47 -16t-20 -44q0 -11 5 -20t18 -17.5t21.5 -13t30 -13.5t28.5 -12zM142 610q-57 -35 -57 -93q0 -33 22 -55.5t64 -22.5q38 0 62 18t24 53
q0 15 -5.5 28t-11 20.5t-21 17t-21.5 12t-29 11.5t-27 11z" />
    <glyph glyph-name="ninesuperior" unicode="&#x2079;" horiz-adv-x="355" 
d="M62 419l-4 16q145 54 179 167q-48 -24 -75 -24q-52 0 -87 29.5t-35 82.5q0 47 43 86t112 39q60 0 98.5 -34.5t38.5 -92.5q0 -86 -75.5 -156.5t-194.5 -112.5zM242 624q6 24 6 61q0 51 -19 80t-49 29t-44.5 -30t-14.5 -60q0 -46 23.5 -73t51.5 -27q21 0 46 20z" />
    <glyph glyph-name="oneeighth" unicode="&#x215b;" horiz-adv-x="766" 
d="M159 -33l429 752h44l-430 -752h-43zM223 685v-346l64 -42h-203l59 42v228l-65 -23l-1 1zM598 388q-52 0 -92.5 -26t-40.5 -74q0 -9 2 -18t3.5 -15t7.5 -14.5t7.5 -11.5t11 -11.5t10.5 -9.5t13 -11l12 -10l-11 -7q-11 -6 -13 -7.5t-12 -8t-12.5 -10t-10 -10.5t-10.5 -12.5
t-7 -13.5t-5.5 -16.5t-1.5 -18.5q0 -41 36.5 -67t93.5 -26q30 0 63 10.5t61.5 39t28.5 70.5q0 28 -15 52t-29.5 35t-44.5 30q63 37 63 85q0 35 -34.5 55.5t-73.5 20.5zM628 234q-7 3 -28.5 12t-30 13.5t-21.5 13t-18 17.5t-5 20q0 28 19.5 44t47.5 16t48.5 -16.5t20.5 -49.5
q0 -47 -33 -70zM551 179q7 -3 24 -9.5t24 -9.5t20.5 -10t19.5 -13t13.5 -14.5t10.5 -19.5t3 -24q0 -35 -24 -53t-62 -18q-42 0 -64 22.5t-22 55.5q0 58 57 93z" />
    <glyph glyph-name="threeeighths" unicode="&#x215c;" horiz-adv-x="788" 
d="M154 -33l429 752h44l-430 -752h-43zM62 296l-5 19q39 0 76.5 7.5t68.5 28.5t31 52q0 39 -29.5 59t-82.5 29q-3 0 -10 -1.5t-11 -2.5l-2 11l23 7q23 8 30.5 10.5t30 13t32.5 19t19.5 22.5t9.5 29q0 30 -22.5 48t-59.5 18q-34 0 -53.5 -22.5t-38.5 -65.5h-3v108h104
q164 0 164 -77q0 -31 -36.5 -54.5t-113.5 -44.5q156 -12 156 -84q0 -32 -33 -58.5t-80 -41t-91 -22t-74 -7.5zM612 388q-52 0 -92.5 -26t-40.5 -74q0 -9 2 -18t3.5 -15t7.5 -14.5t7.5 -11.5t11 -11.5t10.5 -9.5t13 -11l12 -10l-11 -7q-11 -6 -13 -7.5t-12 -8t-12.5 -10
t-10 -10.5t-10.5 -12.5t-7 -13.5t-5.5 -16.5t-1.5 -18.5q0 -41 36.5 -67t93.5 -26q30 0 63 10.5t61.5 39t28.5 70.5q0 28 -15 52t-29.5 35t-44.5 30q63 37 63 85q0 35 -34.5 55.5t-73.5 20.5zM642 234q-7 3 -28.5 12t-30 13.5t-21.5 13t-18 17.5t-5 20q0 28 19.5 44t47.5 16
t48.5 -16.5t20.5 -49.5q0 -47 -33 -70zM565 179q7 -3 24 -9.5t24 -9.5t20.5 -10t19.5 -13t13.5 -14.5t10.5 -19.5t3 -24q0 -35 -24 -53t-62 -18q-42 0 -64 22.5t-22 55.5q0 58 57 93z" />
    <glyph glyph-name="fiveeighths" unicode="&#x215d;" horiz-adv-x="767" 
d="M142 -33l429 752h44l-430 -752h-43zM85 533l26 11q34 14 67 14q52 0 92 -32.5t40 -84.5q0 -66 -49 -100t-134 -34h-81q2 66 2 109h4l5 -10t14 -21t23 -27t31 -21.5t39 -9.5q34 0 49.5 18.5t15.5 70.5q0 117 -76 117q-37 0 -76 -30l-2 -11h-23l27 181l2 12h190l39 32
l-6 -32l-18 -76h-187zM638 227q30 -19 44.5 -30t29.5 -35t15 -52q0 -42 -28.5 -70.5t-61.5 -39t-63 -10.5q-57 0 -93.5 26t-36.5 67q0 10 1.5 18.5t5.5 16.5t7 13.5t10.5 12.5t10 10.5t12.5 10t12 8t13 7.5l11 7q-2 2 -11 9t-11.5 9.5t-10 9t-10 9.5t-7.5 9.5t-7 12t-5 12.5
t-4 14.5t-1 15.5q0 48 40.5 74t92.5 26q39 0 73.5 -20.5t34.5 -55.5q0 -48 -63 -85zM520 310q0 -11 5 -20t18 -17.5t21.5 -13t30 -13.5t28.5 -12q33 23 33 70q0 33 -20.5 49.5t-48.5 16.5q-27 0 -47 -16t-20 -44zM575 8q38 0 62 18t24 53q0 15 -5.5 28t-11 20.5t-21 17
t-21.5 12t-29 11.5t-27 11q-57 -35 -57 -93q0 -33 22 -55.5t64 -22.5z" />
    <glyph glyph-name="seveneighths" unicode="&#x215e;" horiz-adv-x="770" 
d="M111 -33l429 752h44l-430 -752h-43zM98 685h278l-216 -388l-27 10l160 302h-161l-32 -46h-2v122zM584 388q-52 0 -92.5 -26t-40.5 -74q0 -9 2 -18t3.5 -15t7.5 -14.5t7.5 -11.5t11 -11.5t10.5 -9.5t13 -11l12 -10l-11 -7q-11 -6 -13 -7.5t-12 -8t-12.5 -10t-10 -10.5
t-10.5 -12.5t-7 -13.5t-5.5 -16.5t-1.5 -18.5q0 -41 36.5 -67t93.5 -26q30 0 63 10.5t61.5 39t28.5 70.5q0 28 -15 52t-29.5 35t-44.5 30q63 37 63 85q0 35 -34.5 55.5t-73.5 20.5zM614 234q-7 3 -28.5 12t-30 13.5t-21.5 13t-18 17.5t-5 20q0 28 19.5 44t47.5 16
t48.5 -16.5t20.5 -49.5q0 -47 -33 -70zM537 179q7 -3 24 -9.5t24 -9.5t20.5 -10t19.5 -13t13.5 -14.5t10.5 -19.5t3 -24q0 -35 -24 -53t-62 -18q-42 0 -64 22.5t-22 55.5q0 58 57 93z" />
    <glyph glyph-name="heartsuitblack" unicode="&#x2665;" horiz-adv-x="1000" 
d="M455 -54q-44 57 -106.5 117.5t-110 103t-92 91.5t-69 106.5t-24.5 125.5q0 101 53 153t142 52q150 0 207 -164q57 164 207 164q89 0 142 -52t53 -153q0 -68 -24.5 -125.5t-69 -106.5t-92 -91.5t-110 -103t-106.5 -117.5z" />
    <glyph glyph-name="zero.osf" horiz-adv-x="597" 
d="M546 288q0 -72 -29.5 -139t-94.5 -114t-152 -47q-101 0 -160 75.5t-59 178.5q0 72 29.5 139t94.5 114t152 47q101 0 160 -75.5t59 -178.5zM271 502q-40 0 -64 -29t-30.5 -62t-6.5 -72q0 -128 44.5 -219.5t112.5 -91.5q36 0 60.5 30.5t33 65.5t8.5 67q0 128 -45 219.5
t-113 91.5z" />
    <glyph glyph-name="one.osf" horiz-adv-x="382" 
d="M250 541v-475l90 -66h-289l85 66v260l-93 -8l-1 2z" />
    <glyph glyph-name="two.osf" horiz-adv-x="523" 
d="M54 0l-8 33q8 6 39 30.5t48.5 40t48 43.5t49 53.5t38 57.5t29 68t9.5 73q0 49 -28 79.5t-77 30.5q-48 0 -80 -36.5t-59 -109.5h-5v173h130q103 0 175.5 -40t72.5 -115q0 -21 -9 -42.5t-29.5 -44.5t-37 -39.5t-50 -41t-49 -35.5t-52.5 -35t-44 -29l1 -3l59 5l257 3
l-11 -119h-417z" />
    <glyph glyph-name="three.osf" 
d="M58 536h147q104 0 168.5 -28.5t64.5 -91.5q0 -49 -50 -86.5t-153 -69.5q212 -23 212 -133q0 -50 -46.5 -91.5t-113 -64t-129 -34.5t-105.5 -12l-8 25q39 0 80 8t81 23.5t65 44.5t25 67q0 61 -42.5 92.5t-117.5 46.5q-5 -1 -15 -3.5t-15 -3.5l-2 17l32 12q30 11 42.5 16
t43 20.5t45.5 29t28.5 35.5t13.5 47q0 48 -31.5 77t-84.5 29q-25 0 -45.5 -11t-36 -34t-25.5 -43.5t-23 -53.5h-5v170z" />
    <glyph glyph-name="four.osf" horiz-adv-x="568" 
d="M516 -1h-122v-74h-114v74h-233l229 537h139l-275 -491h141v112l113 146v-258h122v-46z" />
    <glyph glyph-name="five.osf" horiz-adv-x="481" 
d="M103 296l34 19q46 21 96 21q72 0 130.5 -51t58.5 -132q0 -104 -70.5 -158t-192.5 -54h-115q2 105 4 172h7q2 -6 6.5 -15.5t20 -34.5t32.5 -44t43.5 -34.5t54.5 -15.5q48 0 70.5 30.5t22.5 112.5q0 184 -107 184q-37 0 -100 -34l-3 -22l-34 4l34 292h316l-25 -120h-266z
" />
    <glyph glyph-name="six.osf" horiz-adv-x="503" 
d="M442 631l6 -19q-97 -46 -170 -122.5t-97 -170.5q60 42 103 42q72 0 120.5 -47t48.5 -130q0 -74 -59 -135t-154 -61q-83 0 -136.5 55t-53.5 150q0 131 114.5 251t277.5 187zM175 294q-10 -44 -10 -102q0 -83 24 -128.5t70 -45.5q29 0 49 28t26.5 58.5t6.5 58.5
q0 72 -32.5 114.5t-70.5 42.5q-36 0 -63 -26z" />
    <glyph glyph-name="seven.osf" horiz-adv-x="483" 
d="M453 536l-328 -635l-32 16l246 499h-243l-51 -73v193h408z" />
    <glyph glyph-name="eight.osf" horiz-adv-x="495" 
d="M255 610q56 0 98 -31t42 -92q0 -78 -80 -130q59 -29 92.5 -71.5t33.5 -112.5q0 -40 -15.5 -73.5t-39.5 -54t-54.5 -34.5t-58.5 -20t-53 -6q-78 0 -126 39.5t-48 106.5q0 39 19.5 73t40 52t51.5 38q-46 24 -70 60.5t-24 98.5q0 77 58.5 117t133.5 40zM294 368
q65 45 65 107q0 55 -31.5 82.5t-80.5 27.5q-41 0 -70 -25.5t-29 -72.5q0 -18 7 -32t25.5 -27t30 -19.5t43 -21t40.5 -19.5zM184 281q-41 -24 -71.5 -62t-30.5 -84q0 -51 36.5 -88t102.5 -37q57 0 92.5 29.5t35.5 85.5q0 21 -4 38t-15 30.5t-20 23t-28.5 20t-29 15t-35 15
t-33.5 14.5z" />
    <glyph glyph-name="nine.osf" horiz-adv-x="497" 
d="M54 -103l-6 19q97 46 170 122.5t97 170.5q-60 -42 -103 -42q-72 0 -120.5 47t-48.5 130q0 74 59 135t154 61q83 0 136.5 -55t53.5 -150q0 -131 -114.5 -251t-277.5 -187zM321 234q10 44 10 102q0 83 -24 128.5t-70 45.5q-29 0 -49 -28t-26.5 -58.5t-6.5 -58.5
q0 -72 32.5 -114.5t70.5 -42.5q36 0 63 26z" />
    <glyph glyph-name="exclamdown.case" horiz-adv-x="217" 
d="M27 607l81 92l82 -92l-82 -93zM130 453l47 -437l-64 -46l-63 46l46 437h34z" />
    <glyph glyph-name="questiondown.case" horiz-adv-x="504" 
d="M333 396l-81 93l81 92l81 -92zM451 -140h-82q-60 0 -105.5 5.5t-91.5 20.5t-71.5 47.5t-25.5 81.5q0 37 17.5 68t49 53.5t59 37.5t64 31t47.5 22l11 108h23l17 -122q-65 -23 -104 -73t-39 -103q0 -140 74 -140q51 0 79.5 35t46.5 98l8 1z" />
    <glyph glyph-name="braceleft.case" horiz-adv-x="314" 
d="M64 345v-4q2 -2 19 -10.5t32.5 -19.5t33 -28.5t28 -45t10.5 -61.5q0 -24 -9.5 -60t-9.5 -71q0 -125 79 -125v-21q-75 0 -114 37t-39 121q0 20 10 69.5t10 74.5q0 68 -48 108q-15 11 -40 19v30q25 8 40 19q48 40 48 108q0 25 -10 74.5t-10 69.5q0 85 39 121.5t115 36.5
v-21q-80 0 -80 -125q0 -35 9.5 -71t9.5 -60q0 -34 -10.5 -61.5t-28 -45t-33 -28.5t-32.5 -19.5t-19 -10.5z" />
    <glyph glyph-name="braceright.case" horiz-adv-x="314" 
d="M250 341v4q-2 2 -19 10.5t-32.5 19.5t-33 28.5t-28 45t-10.5 61.5q0 24 9.5 60t9.5 71q0 125 -79 125v21q75 0 114 -37t39 -121q0 -20 -10 -69.5t-10 -74.5q0 -68 48 -108q15 -11 40 -19v-30q-25 -8 -40 -19q-48 -40 -48 -108q0 -25 10 -74.5t10 -69.5q0 -85 -39 -121.5
t-115 -36.5v21q80 0 80 125q0 35 -9.5 71t-9.5 60q0 34 10.5 61.5t28 45t33 28.5t32.5 19.5t19 10.5z" />
    <glyph glyph-name="bracketleft.case" horiz-adv-x="237" 
d="M197 732h-127v-769h127v-56h-181v871h181v-46z" />
    <glyph glyph-name="bracketright.case" horiz-adv-x="237" 
d="M167 -47v779h-127v46h181v-871h-181v46h127z" />
    <glyph glyph-name="parenleft.case" horiz-adv-x="290" 
d="M270 793l14 -15q-91 -97 -136.5 -200.5t-45.5 -234.5t45.5 -235t136.5 -200l-14 -15q-41 37 -61.5 57t-57 65.5t-55.5 87t-34.5 105t-15.5 135.5q0 41 4 77.5t14 69.5t18.5 58.5t26.5 54t28 45t33.5 42.5t32.5 36t35 35.5t32 31.5z" />
    <glyph glyph-name="parenright.case" horiz-adv-x="290" 
d="M6 778l14 15q6 -6 32 -31.5t35 -35.5t32.5 -36t33.5 -42.5t28 -45t26.5 -54t18.5 -58.5t14 -69.5t4 -77.5q0 -72 -15.5 -135.5t-34.5 -105t-55.5 -87t-57 -65.5t-61.5 -57l-14 15q91 96 136.5 200t45.5 235t-45.5 234.5t-136.5 200.5z" />
    <glyph glyph-name="emdash.case" horiz-adv-x="900" 
d="M42 376h816v-66h-816v66z" />
    <glyph glyph-name="endash.case" horiz-adv-x="500" 
d="M23 376h454v-66h-454v66z" />
    <glyph glyph-name="hyphen.case" horiz-adv-x="294" 
d="M41 381h223v-76h-223v76z" />
    <glyph glyph-name="softhyphen.case" horiz-adv-x="446" 
d="M26 376h394v-66h-394v66z" />
    <glyph glyph-name="guillemotleft.case" horiz-adv-x="512" 
d="M269 125l-10 -10l-235 228l235 228l10 -17l-192 -211h85zM479 125l-9 -10l-236 228l236 228l9 -17l-191 -211h84z" />
    <glyph glyph-name="guillemotright.case" horiz-adv-x="512" 
d="M44 561l9 10l236 -228l-236 -228l-9 17l191 211h-84zM254 561l10 10l235 -228l-235 -228l-10 17l192 211h-85z" />
    <glyph glyph-name="guilsinglleft.case" horiz-adv-x="296" 
d="M261 125l-10 -10l-235 228l235 228l10 -17l-192 -211h85z" />
    <glyph glyph-name="guilsinglright.case" horiz-adv-x="296" 
d="M38 561l10 10l235 -228l-235 -228l-10 17l192 211h-85z" />
    <glyph glyph-name="at.case" horiz-adv-x="708" 
d="M334 132l47 137q-101 -127 -173 -127q-74 0 -74 89q0 102 91 187t197 78l38 -3l85 5l-99 -294l47 -26l125 11q26 59 26 119q0 120 -85 205t-205 85t-205 -85t-85 -205t85 -205t205 -85q129 0 216 97l20 -20q-44 -49 -106 -77t-130 -28q-132 0 -225.5 93.5t-93.5 225.5
t93.5 225.5t225.5 93.5t225.5 -93.5t93.5 -225.5q0 -80 -38 -148zM395 314l56 155q-89 10 -159 -43.5t-70 -131.5q0 -35 13 -48.5t42 -13.5q26 0 61 25t57 57z" />
    <glyph glyph-name="z.ss01" horiz-adv-x="445" 
d="M137 111h282l-20 -111h-381l298 379h-189l-56 -73l-6 2l9 190l47 -8h301l5 -9z" />
    <glyph glyph-name="zero.osf.zero" horiz-adv-x="597" 
d="M327 542q101 0 160 -75.5t59 -178.5q0 -72 -29.5 -139t-94.5 -114t-152 -47q-101 0 -160 75.5t-59 178.5q0 72 29.5 139t94.5 114t152 47zM203 144l177 274q-45 84 -110 84q-40 0 -64 -29t-30.5 -62t-6.5 -72q0 -112 34 -195zM394 387l-177 -275q44 -84 109 -84
q36 0 60.5 30.5t33.5 65.5t9 67q0 110 -35 196z" />
    <glyph glyph-name="zero.zero" horiz-adv-x="555" 
d="M303 602q94 0 148.5 -83.5t54.5 -198.5q0 -81 -27.5 -155.5t-87.5 -126.5t-141 -52q-93 0 -148 83.5t-55 198.5q0 81 27.5 155.5t87.5 126.5t141 52zM198 148l142 329q-37 80 -88 80q-86 0 -86 -180q0 -130 32 -229zM354 440l-141 -329q35 -80 87 -80q23 0 41 19t27.5 48
t14 58t4.5 55q0 132 -33 229z" />
    </font>
</defs>
</svg>
